ISO-10303-21;
HEADER;
/* Generated by software containing ST-Developer
 * from STEP Tools, Inc. (www.steptools.com) 
 */

FILE_DESCRIPTION(
/* description */ (''),
/* implementation_level */ '2;1');

FILE_NAME(
/* name */ 'box_hanger.step',
/* time_stamp */ '2026-08-11T20:42:14+10:00',
/* author */ (''),
/* organization */ (''),
/* preprocessor_version */ 'ST-DEVELOPER v20.1',
/* originating_system */ 'Autodesk Translation Framework v15.8.0.0',
/* authorisation */ '');

FILE_SCHEMA (('AUTOMOTIVE_DESIGN { 1 0 10303 214 3 1 1 }'));
ENDSEC;

DATA;
#10=MECHANICAL_DESIGN_GEOMETRIC_PRESENTATION_REPRESENTATION('',(#13),#576);
#11=SHAPE_REPRESENTATION_RELATIONSHIP('SRR','None',#583,#12);
#12=ADVANCED_BREP_SHAPE_REPRESENTATION('',(#14),#575);
#13=STYLED_ITEM('',(#592),#14);
#14=MANIFOLD_SOLID_BREP('Body1',#348);
#15=FACE_BOUND('',#57,.T.);
#16=FACE_BOUND('',#65,.T.);
#17=FACE_BOUND('',#67,.T.);
#18=FACE_BOUND('',#75,.T.);
#19=PLANE('',#368);
#20=PLANE('',#369);
#21=PLANE('',#370);
#22=PLANE('',#371);
#23=PLANE('',#372);
#24=PLANE('',#376);
#25=PLANE('',#377);
#26=PLANE('',#378);
#27=PLANE('',#379);
#28=PLANE('',#380);
#29=PLANE('',#381);
#30=PLANE('',#382);
#31=PLANE('',#383);
#32=PLANE('',#384);
#33=PLANE('',#385);
#34=PLANE('',#386);
#35=FACE_OUTER_BOUND('',#54,.T.);
#36=FACE_OUTER_BOUND('',#55,.T.);
#37=FACE_OUTER_BOUND('',#56,.T.);
#38=FACE_OUTER_BOUND('',#58,.T.);
#39=FACE_OUTER_BOUND('',#59,.T.);
#40=FACE_OUTER_BOUND('',#60,.T.);
#41=FACE_OUTER_BOUND('',#61,.T.);
#42=FACE_OUTER_BOUND('',#62,.T.);
#43=FACE_OUTER_BOUND('',#63,.T.);
#44=FACE_OUTER_BOUND('',#64,.T.);
#45=FACE_OUTER_BOUND('',#66,.T.);
#46=FACE_OUTER_BOUND('',#68,.T.);
#47=FACE_OUTER_BOUND('',#69,.T.);
#48=FACE_OUTER_BOUND('',#70,.T.);
#49=FACE_OUTER_BOUND('',#71,.T.);
#50=FACE_OUTER_BOUND('',#72,.T.);
#51=FACE_OUTER_BOUND('',#73,.T.);
#52=FACE_OUTER_BOUND('',#74,.T.);
#53=FACE_OUTER_BOUND('',#76,.T.);
#54=EDGE_LOOP('',(#236,#237,#238,#239));
#55=EDGE_LOOP('',(#240,#241,#242,#243));
#56=EDGE_LOOP('',(#244));
#57=EDGE_LOOP('',(#245));
#58=EDGE_LOOP('',(#246,#247,#248,#249));
#59=EDGE_LOOP('',(#250,#251,#252,#253));
#60=EDGE_LOOP('',(#254,#255,#256,#257));
#61=EDGE_LOOP('',(#258,#259));
#62=EDGE_LOOP('',(#260,#261,#262,#263));
#63=EDGE_LOOP('',(#264,#265));
#64=EDGE_LOOP('',(#266,#267,#268,#269));
#65=EDGE_LOOP('',(#270,#271,#272,#273));
#66=EDGE_LOOP('',(#274,#275,#276,#277));
#67=EDGE_LOOP('',(#278));
#68=EDGE_LOOP('',(#279,#280,#281,#282));
#69=EDGE_LOOP('',(#283,#284,#285,#286));
#70=EDGE_LOOP('',(#287,#288,#289,#290));
#71=EDGE_LOOP('',(#291,#292,#293,#294,#295,#296,#297,#298,#299,#300,#301));
#72=EDGE_LOOP('',(#302,#303,#304,#305,#306,#307,#308,#309,#310,#311,#312));
#73=EDGE_LOOP('',(#313,#314,#315,#316));
#74=EDGE_LOOP('',(#317,#318,#319,#320));
#75=EDGE_LOOP('',(#321));
#76=EDGE_LOOP('',(#322,#323,#324,#325));
#77=LINE('',#483,#116);
#78=LINE('',#489,#117);
#79=LINE('',#495,#118);
#80=LINE('',#497,#119);
#81=LINE('',#499,#120);
#82=LINE('',#500,#121);
#83=LINE('',#503,#122);
#84=LINE('',#505,#123);
#85=LINE('',#506,#124);
#86=LINE('',#509,#125);
#87=LINE('',#511,#126);
#88=LINE('',#512,#127);
#89=LINE('',#516,#128);
#90=LINE('',#520,#129);
#91=LINE('',#522,#130);
#92=LINE('',#525,#131);
#93=LINE('',#529,#132);
#94=LINE('',#531,#133);
#95=LINE('',#533,#134);
#96=LINE('',#534,#135);
#97=LINE('',#538,#136);
#98=LINE('',#540,#137);
#99=LINE('',#542,#138);
#100=LINE('',#543,#139);
#101=LINE('',#545,#140);
#102=LINE('',#546,#141);
#103=LINE('',#548,#142);
#104=LINE('',#549,#143);
#105=LINE('',#552,#144);
#106=LINE('',#554,#145);
#107=LINE('',#555,#146);
#108=LINE('',#558,#147);
#109=LINE('',#560,#148);
#110=LINE('',#561,#149);
#111=LINE('',#564,#150);
#112=LINE('',#566,#151);
#113=LINE('',#567,#152);
#114=LINE('',#569,#153);
#115=LINE('',#571,#154);
#116=VECTOR('',#393,1.7);
#117=VECTOR('',#400,2.1);
#118=VECTOR('',#407,10.);
#119=VECTOR('',#408,10.);
#120=VECTOR('',#409,10.);
#121=VECTOR('',#410,10.);
#122=VECTOR('',#413,10.);
#123=VECTOR('',#414,10.);
#124=VECTOR('',#415,10.);
#125=VECTOR('',#418,10.);
#126=VECTOR('',#419,10.);
#127=VECTOR('',#420,10.);
#128=VECTOR('',#423,10.);
#129=VECTOR('',#428,10.);
#130=VECTOR('',#429,10.);
#131=VECTOR('',#434,10.);
#132=VECTOR('',#437,10.);
#133=VECTOR('',#438,10.);
#134=VECTOR('',#439,10.);
#135=VECTOR('',#440,10.);
#136=VECTOR('',#443,10.);
#137=VECTOR('',#444,10.);
#138=VECTOR('',#445,10.);
#139=VECTOR('',#446,10.);
#140=VECTOR('',#449,10.);
#141=VECTOR('',#450,10.);
#142=VECTOR('',#453,10.);
#143=VECTOR('',#454,10.);
#144=VECTOR('',#457,10.);
#145=VECTOR('',#458,10.);
#146=VECTOR('',#459,10.);
#147=VECTOR('',#462,10.);
#148=VECTOR('',#463,10.);
#149=VECTOR('',#464,10.);
#150=VECTOR('',#467,10.);
#151=VECTOR('',#468,10.);
#152=VECTOR('',#469,10.);
#153=VECTOR('',#472,10.);
#154=VECTOR('',#475,10.);
#155=CIRCLE('',#363,1.7);
#156=CIRCLE('',#364,1.7);
#157=CIRCLE('',#366,2.1);
#158=CIRCLE('',#367,2.1);
#159=CIRCLE('',#373,3.);
#160=CIRCLE('',#375,3.);
#161=VERTEX_POINT('',#480);
#162=VERTEX_POINT('',#482);
#163=VERTEX_POINT('',#486);
#164=VERTEX_POINT('',#488);
#165=VERTEX_POINT('',#493);
#166=VERTEX_POINT('',#494);
#167=VERTEX_POINT('',#496);
#168=VERTEX_POINT('',#498);
#169=VERTEX_POINT('',#502);
#170=VERTEX_POINT('',#504);
#171=VERTEX_POINT('',#508);
#172=VERTEX_POINT('',#510);
#173=VERTEX_POINT('',#514);
#174=VERTEX_POINT('',#515);
#175=VERTEX_POINT('',#519);
#176=VERTEX_POINT('',#521);
#177=VERTEX_POINT('',#527);
#178=VERTEX_POINT('',#528);
#179=VERTEX_POINT('',#530);
#180=VERTEX_POINT('',#532);
#181=VERTEX_POINT('',#536);
#182=VERTEX_POINT('',#537);
#183=VERTEX_POINT('',#539);
#184=VERTEX_POINT('',#541);
#185=VERTEX_POINT('',#551);
#186=VERTEX_POINT('',#553);
#187=VERTEX_POINT('',#557);
#188=VERTEX_POINT('',#559);
#189=VERTEX_POINT('',#563);
#190=VERTEX_POINT('',#565);
#191=EDGE_CURVE('',#161,#161,#155,.T.);
#192=EDGE_CURVE('',#161,#162,#77,.T.);
#193=EDGE_CURVE('',#162,#162,#156,.T.);
#194=EDGE_CURVE('',#163,#163,#157,.T.);
#195=EDGE_CURVE('',#163,#164,#78,.T.);
#196=EDGE_CURVE('',#164,#164,#158,.T.);
#197=EDGE_CURVE('',#165,#166,#79,.T.);
#198=EDGE_CURVE('',#167,#165,#80,.T.);
#199=EDGE_CURVE('',#168,#167,#81,.T.);
#200=EDGE_CURVE('',#166,#168,#82,.T.);
#201=EDGE_CURVE('',#169,#167,#83,.T.);
#202=EDGE_CURVE('',#170,#169,#84,.T.);
#203=EDGE_CURVE('',#168,#170,#85,.T.);
#204=EDGE_CURVE('',#171,#166,#86,.T.);
#205=EDGE_CURVE('',#171,#172,#87,.T.);
#206=EDGE_CURVE('',#172,#165,#88,.T.);
#207=EDGE_CURVE('',#173,#174,#89,.T.);
#208=EDGE_CURVE('',#174,#173,#159,.T.);
#209=EDGE_CURVE('',#174,#175,#90,.T.);
#210=EDGE_CURVE('',#176,#173,#91,.T.);
#211=EDGE_CURVE('',#175,#176,#160,.T.);
#212=EDGE_CURVE('',#175,#176,#92,.T.);
#213=EDGE_CURVE('',#177,#178,#93,.T.);
#214=EDGE_CURVE('',#179,#177,#94,.T.);
#215=EDGE_CURVE('',#179,#180,#95,.T.);
#216=EDGE_CURVE('',#178,#180,#96,.T.);
#217=EDGE_CURVE('',#181,#182,#97,.T.);
#218=EDGE_CURVE('',#183,#181,#98,.T.);
#219=EDGE_CURVE('',#183,#184,#99,.T.);
#220=EDGE_CURVE('',#182,#184,#100,.T.);
#221=EDGE_CURVE('',#180,#183,#101,.T.);
#222=EDGE_CURVE('',#184,#179,#102,.T.);
#223=EDGE_CURVE('',#172,#178,#103,.T.);
#224=EDGE_CURVE('',#177,#171,#104,.T.);
#225=EDGE_CURVE('',#185,#182,#105,.T.);
#226=EDGE_CURVE('',#186,#185,#106,.T.);
#227=EDGE_CURVE('',#181,#186,#107,.T.);
#228=EDGE_CURVE('',#170,#187,#108,.T.);
#229=EDGE_CURVE('',#188,#187,#109,.T.);
#230=EDGE_CURVE('',#185,#188,#110,.T.);
#231=EDGE_CURVE('',#186,#189,#111,.T.);
#232=EDGE_CURVE('',#190,#189,#112,.T.);
#233=EDGE_CURVE('',#169,#190,#113,.T.);
#234=EDGE_CURVE('',#187,#190,#114,.T.);
#235=EDGE_CURVE('',#189,#188,#115,.T.);
#236=ORIENTED_EDGE('',*,*,#191,.F.);
#237=ORIENTED_EDGE('',*,*,#192,.T.);
#238=ORIENTED_EDGE('',*,*,#193,.F.);
#239=ORIENTED_EDGE('',*,*,#192,.F.);
#240=ORIENTED_EDGE('',*,*,#194,.F.);
#241=ORIENTED_EDGE('',*,*,#195,.T.);
#242=ORIENTED_EDGE('',*,*,#196,.T.);
#243=ORIENTED_EDGE('',*,*,#195,.F.);
#244=ORIENTED_EDGE('',*,*,#196,.F.);
#245=ORIENTED_EDGE('',*,*,#191,.T.);
#246=ORIENTED_EDGE('',*,*,#197,.F.);
#247=ORIENTED_EDGE('',*,*,#198,.F.);
#248=ORIENTED_EDGE('',*,*,#199,.F.);
#249=ORIENTED_EDGE('',*,*,#200,.F.);
#250=ORIENTED_EDGE('',*,*,#199,.T.);
#251=ORIENTED_EDGE('',*,*,#201,.F.);
#252=ORIENTED_EDGE('',*,*,#202,.F.);
#253=ORIENTED_EDGE('',*,*,#203,.F.);
#254=ORIENTED_EDGE('',*,*,#197,.T.);
#255=ORIENTED_EDGE('',*,*,#204,.F.);
#256=ORIENTED_EDGE('',*,*,#205,.T.);
#257=ORIENTED_EDGE('',*,*,#206,.T.);
#258=ORIENTED_EDGE('',*,*,#207,.F.);
#259=ORIENTED_EDGE('',*,*,#208,.F.);
#260=ORIENTED_EDGE('',*,*,#209,.F.);
#261=ORIENTED_EDGE('',*,*,#208,.T.);
#262=ORIENTED_EDGE('',*,*,#210,.F.);
#263=ORIENTED_EDGE('',*,*,#211,.F.);
#264=ORIENTED_EDGE('',*,*,#212,.F.);
#265=ORIENTED_EDGE('',*,*,#211,.T.);
#266=ORIENTED_EDGE('',*,*,#213,.F.);
#267=ORIENTED_EDGE('',*,*,#214,.F.);
#268=ORIENTED_EDGE('',*,*,#215,.T.);
#269=ORIENTED_EDGE('',*,*,#216,.F.);
#270=ORIENTED_EDGE('',*,*,#210,.T.);
#271=ORIENTED_EDGE('',*,*,#207,.T.);
#272=ORIENTED_EDGE('',*,*,#209,.T.);
#273=ORIENTED_EDGE('',*,*,#212,.T.);
#274=ORIENTED_EDGE('',*,*,#217,.F.);
#275=ORIENTED_EDGE('',*,*,#218,.F.);
#276=ORIENTED_EDGE('',*,*,#219,.T.);
#277=ORIENTED_EDGE('',*,*,#220,.F.);
#278=ORIENTED_EDGE('',*,*,#193,.T.);
#279=ORIENTED_EDGE('',*,*,#219,.F.);
#280=ORIENTED_EDGE('',*,*,#221,.F.);
#281=ORIENTED_EDGE('',*,*,#215,.F.);
#282=ORIENTED_EDGE('',*,*,#222,.F.);
#283=ORIENTED_EDGE('',*,*,#213,.T.);
#284=ORIENTED_EDGE('',*,*,#223,.F.);
#285=ORIENTED_EDGE('',*,*,#205,.F.);
#286=ORIENTED_EDGE('',*,*,#224,.F.);
#287=ORIENTED_EDGE('',*,*,#217,.T.);
#288=ORIENTED_EDGE('',*,*,#225,.F.);
#289=ORIENTED_EDGE('',*,*,#226,.F.);
#290=ORIENTED_EDGE('',*,*,#227,.F.);
#291=ORIENTED_EDGE('',*,*,#220,.T.);
#292=ORIENTED_EDGE('',*,*,#222,.T.);
#293=ORIENTED_EDGE('',*,*,#214,.T.);
#294=ORIENTED_EDGE('',*,*,#224,.T.);
#295=ORIENTED_EDGE('',*,*,#204,.T.);
#296=ORIENTED_EDGE('',*,*,#200,.T.);
#297=ORIENTED_EDGE('',*,*,#203,.T.);
#298=ORIENTED_EDGE('',*,*,#228,.T.);
#299=ORIENTED_EDGE('',*,*,#229,.F.);
#300=ORIENTED_EDGE('',*,*,#230,.F.);
#301=ORIENTED_EDGE('',*,*,#225,.T.);
#302=ORIENTED_EDGE('',*,*,#218,.T.);
#303=ORIENTED_EDGE('',*,*,#227,.T.);
#304=ORIENTED_EDGE('',*,*,#231,.T.);
#305=ORIENTED_EDGE('',*,*,#232,.F.);
#306=ORIENTED_EDGE('',*,*,#233,.F.);
#307=ORIENTED_EDGE('',*,*,#201,.T.);
#308=ORIENTED_EDGE('',*,*,#198,.T.);
#309=ORIENTED_EDGE('',*,*,#206,.F.);
#310=ORIENTED_EDGE('',*,*,#223,.T.);
#311=ORIENTED_EDGE('',*,*,#216,.T.);
#312=ORIENTED_EDGE('',*,*,#221,.T.);
#313=ORIENTED_EDGE('',*,*,#202,.T.);
#314=ORIENTED_EDGE('',*,*,#233,.T.);
#315=ORIENTED_EDGE('',*,*,#234,.F.);
#316=ORIENTED_EDGE('',*,*,#228,.F.);
#317=ORIENTED_EDGE('',*,*,#226,.T.);
#318=ORIENTED_EDGE('',*,*,#230,.T.);
#319=ORIENTED_EDGE('',*,*,#235,.F.);
#320=ORIENTED_EDGE('',*,*,#231,.F.);
#321=ORIENTED_EDGE('',*,*,#194,.T.);
#322=ORIENTED_EDGE('',*,*,#235,.T.);
#323=ORIENTED_EDGE('',*,*,#229,.T.);
#324=ORIENTED_EDGE('',*,*,#234,.T.);
#325=ORIENTED_EDGE('',*,*,#232,.T.);
#326=CYLINDRICAL_SURFACE('',#362,1.7);
#327=CYLINDRICAL_SURFACE('',#365,2.1);
#328=CYLINDRICAL_SURFACE('',#374,3.);
#329=ADVANCED_FACE('',(#35),#326,.F.);
#330=ADVANCED_FACE('',(#36),#327,.F.);
#331=ADVANCED_FACE('',(#37,#15),#19,.F.);
#332=ADVANCED_FACE('',(#38),#20,.T.);
#333=ADVANCED_FACE('',(#39),#21,.T.);
#334=ADVANCED_FACE('',(#40),#22,.T.);
#335=ADVANCED_FACE('',(#41),#23,.F.);
#336=ADVANCED_FACE('',(#42),#328,.T.);
#337=ADVANCED_FACE('',(#43),#24,.T.);
#338=ADVANCED_FACE('',(#44,#16),#25,.F.);
#339=ADVANCED_FACE('',(#45,#17),#26,.F.);
#340=ADVANCED_FACE('',(#46),#27,.F.);
#341=ADVANCED_FACE('',(#47),#28,.F.);
#342=ADVANCED_FACE('',(#48),#29,.F.);
#343=ADVANCED_FACE('',(#49),#30,.T.);
#344=ADVANCED_FACE('',(#50),#31,.T.);
#345=ADVANCED_FACE('',(#51),#32,.T.);
#346=ADVANCED_FACE('',(#52,#18),#33,.T.);
#347=ADVANCED_FACE('',(#53),#34,.T.);
#348=CLOSED_SHELL('',(#329,#330,#331,#332,#333,#334,#335,#336,#337,#338,
#339,#340,#341,#342,#343,#344,#345,#346,#347));
#349=DERIVED_UNIT_ELEMENT(#351,1.);
#350=DERIVED_UNIT_ELEMENT(#578,-3.);
#351=(
MASS_UNIT()
NAMED_UNIT(*)
SI_UNIT(.KILO.,.GRAM.)
);
#352=DERIVED_UNIT((#349,#350));
#353=MEASURE_REPRESENTATION_ITEM('density measure',
POSITIVE_RATIO_MEASURE(7850.),#352);
#354=PROPERTY_DEFINITION_REPRESENTATION(#359,#356);
#355=PROPERTY_DEFINITION_REPRESENTATION(#360,#357);
#356=REPRESENTATION('material name',(#358),#575);
#357=REPRESENTATION('density',(#353),#575);
#358=DESCRIPTIVE_REPRESENTATION_ITEM('Steel','Steel');
#359=PROPERTY_DEFINITION('material property','material name',#585);
#360=PROPERTY_DEFINITION('material property','density of part',#585);
#361=AXIS2_PLACEMENT_3D('',#478,#387,#388);
#362=AXIS2_PLACEMENT_3D('',#479,#389,#390);
#363=AXIS2_PLACEMENT_3D('',#481,#391,#392);
#364=AXIS2_PLACEMENT_3D('',#484,#394,#395);
#365=AXIS2_PLACEMENT_3D('',#485,#396,#397);
#366=AXIS2_PLACEMENT_3D('',#487,#398,#399);
#367=AXIS2_PLACEMENT_3D('',#490,#401,#402);
#368=AXIS2_PLACEMENT_3D('',#491,#403,#404);
#369=AXIS2_PLACEMENT_3D('',#492,#405,#406);
#370=AXIS2_PLACEMENT_3D('',#501,#411,#412);
#371=AXIS2_PLACEMENT_3D('',#507,#416,#417);
#372=AXIS2_PLACEMENT_3D('',#513,#421,#422);
#373=AXIS2_PLACEMENT_3D('',#517,#424,#425);
#374=AXIS2_PLACEMENT_3D('',#518,#426,#427);
#375=AXIS2_PLACEMENT_3D('',#523,#430,#431);
#376=AXIS2_PLACEMENT_3D('',#524,#432,#433);
#377=AXIS2_PLACEMENT_3D('',#526,#435,#436);
#378=AXIS2_PLACEMENT_3D('',#535,#441,#442);
#379=AXIS2_PLACEMENT_3D('',#544,#447,#448);
#380=AXIS2_PLACEMENT_3D('',#547,#451,#452);
#381=AXIS2_PLACEMENT_3D('',#550,#455,#456);
#382=AXIS2_PLACEMENT_3D('',#556,#460,#461);
#383=AXIS2_PLACEMENT_3D('',#562,#465,#466);
#384=AXIS2_PLACEMENT_3D('',#568,#470,#471);
#385=AXIS2_PLACEMENT_3D('',#570,#473,#474);
#386=AXIS2_PLACEMENT_3D('',#572,#476,#477);
#387=DIRECTION('axis',(0.,0.,1.));
#388=DIRECTION('refdir',(1.,0.,0.));
#389=DIRECTION('center_axis',(1.,0.,0.));
#390=DIRECTION('ref_axis',(0.,0.,-1.));
#391=DIRECTION('center_axis',(1.,0.,0.));
#392=DIRECTION('ref_axis',(0.,0.,-1.));
#393=DIRECTION('',(1.,0.,0.));
#394=DIRECTION('center_axis',(-1.,0.,0.));
#395=DIRECTION('ref_axis',(0.,0.,-1.));
#396=DIRECTION('center_axis',(1.,0.,0.));
#397=DIRECTION('ref_axis',(0.,0.,-1.));
#398=DIRECTION('center_axis',(1.,0.,0.));
#399=DIRECTION('ref_axis',(0.,0.,-1.));
#400=DIRECTION('',(1.,0.,0.));
#401=DIRECTION('center_axis',(1.,0.,0.));
#402=DIRECTION('ref_axis',(0.,0.,-1.));
#403=DIRECTION('center_axis',(1.,0.,0.));
#404=DIRECTION('ref_axis',(0.,0.,-1.));
#405=DIRECTION('center_axis',(0.707106781186548,0.,-0.707106781186547));
#406=DIRECTION('ref_axis',(-0.707106781186547,0.,-0.707106781186548));
#407=DIRECTION('',(0.,-1.,0.));
#408=DIRECTION('',(-0.707106781186547,0.,-0.707106781186548));
#409=DIRECTION('',(0.,1.,0.));
#410=DIRECTION('',(0.707106781186547,0.,0.707106781186548));
#411=DIRECTION('center_axis',(0.707106781186548,0.,0.707106781186548));
#412=DIRECTION('ref_axis',(0.707106781186548,0.,-0.707106781186548));
#413=DIRECTION('',(0.707106781186547,0.,-0.707106781186547));
#414=DIRECTION('',(0.,1.,0.));
#415=DIRECTION('',(-0.707106781186547,0.,0.707106781186547));
#416=DIRECTION('center_axis',(1.,0.,0.));
#417=DIRECTION('ref_axis',(0.,1.,0.));
#418=DIRECTION('',(0.,0.,1.));
#419=DIRECTION('',(0.,1.,0.));
#420=DIRECTION('',(0.,0.,1.));
#421=DIRECTION('center_axis',(0.,0.,1.));
#422=DIRECTION('ref_axis',(1.,0.,0.));
#423=DIRECTION('',(0.,1.,0.));
#424=DIRECTION('center_axis',(0.,0.,1.));
#425=DIRECTION('ref_axis',(1.,0.,0.));
#426=DIRECTION('center_axis',(0.,0.,1.));
#427=DIRECTION('ref_axis',(-1.,1.22464679914735E-16,0.));
#428=DIRECTION('',(0.,0.,1.));
#429=DIRECTION('',(0.,0.,-1.));
#430=DIRECTION('center_axis',(0.,0.,1.));
#431=DIRECTION('ref_axis',(1.,0.,0.));
#432=DIRECTION('center_axis',(0.,0.,1.));
#433=DIRECTION('ref_axis',(1.,0.,0.));
#434=DIRECTION('',(0.,-1.,0.));
#435=DIRECTION('center_axis',(1.,0.,0.));
#436=DIRECTION('ref_axis',(0.,1.,0.));
#437=DIRECTION('',(0.,1.,0.));
#438=DIRECTION('',(0.,0.,-1.));
#439=DIRECTION('',(0.,1.,0.));
#440=DIRECTION('',(0.,0.,1.));
#441=DIRECTION('center_axis',(-1.,0.,0.));
#442=DIRECTION('ref_axis',(0.,-1.,0.));
#443=DIRECTION('',(0.,-1.,0.));
#444=DIRECTION('',(0.,0.,-1.));
#445=DIRECTION('',(0.,-1.,0.));
#446=DIRECTION('',(0.,0.,1.));
#447=DIRECTION('center_axis',(0.,0.,1.));
#448=DIRECTION('ref_axis',(1.,0.,0.));
#449=DIRECTION('',(-1.,0.,0.));
#450=DIRECTION('',(1.,0.,0.));
#451=DIRECTION('center_axis',(0.,0.,1.));
#452=DIRECTION('ref_axis',(1.,0.,0.));
#453=DIRECTION('',(-1.,0.,0.));
#454=DIRECTION('',(1.,0.,0.));
#455=DIRECTION('center_axis',(0.,0.,1.));
#456=DIRECTION('ref_axis',(1.,0.,0.));
#457=DIRECTION('',(1.,0.,0.));
#458=DIRECTION('',(0.,-1.,0.));
#459=DIRECTION('',(-1.,0.,0.));
#460=DIRECTION('center_axis',(0.,-1.,0.));
#461=DIRECTION('ref_axis',(1.,0.,0.));
#462=DIRECTION('',(0.,0.,1.));
#463=DIRECTION('',(1.,0.,0.));
#464=DIRECTION('',(0.,0.,1.));
#465=DIRECTION('center_axis',(0.,1.,0.));
#466=DIRECTION('ref_axis',(-1.,0.,0.));
#467=DIRECTION('',(0.,0.,1.));
#468=DIRECTION('',(-1.,0.,0.));
#469=DIRECTION('',(0.,0.,1.));
#470=DIRECTION('center_axis',(1.,0.,0.));
#471=DIRECTION('ref_axis',(0.,1.,0.));
#472=DIRECTION('',(0.,1.,0.));
#473=DIRECTION('center_axis',(-1.,0.,0.));
#474=DIRECTION('ref_axis',(0.,-1.,0.));
#475=DIRECTION('',(0.,-1.,0.));
#476=DIRECTION('center_axis',(0.,0.,1.));
#477=DIRECTION('ref_axis',(1.,0.,0.));
#478=CARTESIAN_POINT('',(0.,0.,0.));
#479=CARTESIAN_POINT('Origin',(-23.,0.,-11.));
#480=CARTESIAN_POINT('',(-23.,-2.0818995585505E-16,-9.3));
#481=CARTESIAN_POINT('Origin',(-23.,0.,-11.));
#482=CARTESIAN_POINT('',(-22.,-2.0818995585505E-16,-9.3));
#483=CARTESIAN_POINT('',(-23.,-2.0818995585505E-16,-9.3));
#484=CARTESIAN_POINT('Origin',(-22.,0.,-11.));
#485=CARTESIAN_POINT('Origin',(-27.,0.,-11.));
#486=CARTESIAN_POINT('',(-27.,-2.57175827820944E-16,-8.9));
#487=CARTESIAN_POINT('Origin',(-27.,0.,-11.));
#488=CARTESIAN_POINT('',(-23.,-2.57175827820944E-16,-8.9));
#489=CARTESIAN_POINT('',(-27.,-2.57175827820944E-16,-8.9));
#490=CARTESIAN_POINT('Origin',(-23.,0.,-11.));
#491=CARTESIAN_POINT('Origin',(-23.,0.,-11.));
#492=CARTESIAN_POINT('Origin',(6.,0.,-10.));
#493=CARTESIAN_POINT('',(0.,22.,-16.));
#494=CARTESIAN_POINT('',(0.,-22.,-16.));
#495=CARTESIAN_POINT('',(0.,-11.,-16.));
#496=CARTESIAN_POINT('',(6.,22.,-10.));
#497=CARTESIAN_POINT('',(6.,22.,-10.));
#498=CARTESIAN_POINT('',(6.,-22.,-10.));
#499=CARTESIAN_POINT('',(6.,0.,-10.));
#500=CARTESIAN_POINT('',(6.,-22.,-10.));
#501=CARTESIAN_POINT('Origin',(0.,0.,-4.));
#502=CARTESIAN_POINT('',(0.,22.,-4.));
#503=CARTESIAN_POINT('',(0.,22.,-4.));
#504=CARTESIAN_POINT('',(0.,-22.,-4.));
#505=CARTESIAN_POINT('',(5.55111512312578E-16,-11.,-4.));
#506=CARTESIAN_POINT('',(0.,-22.,-4.));
#507=CARTESIAN_POINT('Origin',(0.,-22.,-22.));
#508=CARTESIAN_POINT('',(0.,-22.,-22.));
#509=CARTESIAN_POINT('',(0.,-22.,-22.));
#510=CARTESIAN_POINT('',(0.,22.,-22.));
#511=CARTESIAN_POINT('',(0.,-22.,-22.));
#512=CARTESIAN_POINT('',(0.,22.,-22.));
#513=CARTESIAN_POINT('Origin',(-7.,0.,-20.));
#514=CARTESIAN_POINT('',(-7.,-3.,-20.));
#515=CARTESIAN_POINT('',(-7.,3.,-20.));
#516=CARTESIAN_POINT('',(-7.,-11.,-20.));
#517=CARTESIAN_POINT('Origin',(-7.,0.,-20.));
#518=CARTESIAN_POINT('Origin',(-7.,0.,-20.));
#519=CARTESIAN_POINT('',(-7.,3.,-4.));
#520=CARTESIAN_POINT('',(-7.,3.,-20.));
#521=CARTESIAN_POINT('',(-7.,-3.,-4.));
#522=CARTESIAN_POINT('',(-7.,-3.,-20.));
#523=CARTESIAN_POINT('Origin',(-7.,0.,-4.));
#524=CARTESIAN_POINT('Origin',(-7.,0.,-4.));
#525=CARTESIAN_POINT('',(-7.,-11.,-4.));
#526=CARTESIAN_POINT('Origin',(-7.,-22.,-22.));
#527=CARTESIAN_POINT('',(-7.,-22.,-22.));
#528=CARTESIAN_POINT('',(-7.,22.,-22.));
#529=CARTESIAN_POINT('',(-7.,-11.,-22.));
#530=CARTESIAN_POINT('',(-7.,-22.,0.));
#531=CARTESIAN_POINT('',(-7.,-22.,-22.));
#532=CARTESIAN_POINT('',(-7.,22.,0.));
#533=CARTESIAN_POINT('',(-7.,-22.,0.));
#534=CARTESIAN_POINT('',(-7.,22.,-22.));
#535=CARTESIAN_POINT('Origin',(-22.,22.,-22.));
#536=CARTESIAN_POINT('',(-22.,22.,-22.));
#537=CARTESIAN_POINT('',(-22.,-22.,-22.));
#538=CARTESIAN_POINT('',(-22.,11.,-22.));
#539=CARTESIAN_POINT('',(-22.,22.,0.));
#540=CARTESIAN_POINT('',(-22.,22.,-22.));
#541=CARTESIAN_POINT('',(-22.,-22.,0.));
#542=CARTESIAN_POINT('',(-22.,22.,0.));
#543=CARTESIAN_POINT('',(-22.,-22.,-22.));
#544=CARTESIAN_POINT('Origin',(-14.5,0.,0.));
#545=CARTESIAN_POINT('',(-7.25,22.,0.));
#546=CARTESIAN_POINT('',(-20.75,-22.,0.));
#547=CARTESIAN_POINT('Origin',(-13.5,0.,-22.));
#548=CARTESIAN_POINT('',(0.,22.,-22.));
#549=CARTESIAN_POINT('',(-27.,-22.,-22.));
#550=CARTESIAN_POINT('Origin',(-13.5,0.,-22.));
#551=CARTESIAN_POINT('',(-27.,-22.,-22.));
#552=CARTESIAN_POINT('',(-27.,-22.,-22.));
#553=CARTESIAN_POINT('',(-27.,22.,-22.));
#554=CARTESIAN_POINT('',(-27.,22.,-22.));
#555=CARTESIAN_POINT('',(0.,22.,-22.));
#556=CARTESIAN_POINT('Origin',(-27.,-22.,-22.));
#557=CARTESIAN_POINT('',(0.,-22.,4.));
#558=CARTESIAN_POINT('',(0.,-22.,-22.));
#559=CARTESIAN_POINT('',(-27.,-22.,4.));
#560=CARTESIAN_POINT('',(-27.,-22.,4.));
#561=CARTESIAN_POINT('',(-27.,-22.,-22.));
#562=CARTESIAN_POINT('Origin',(0.,22.,-22.));
#563=CARTESIAN_POINT('',(-27.,22.,4.));
#564=CARTESIAN_POINT('',(-27.,22.,-22.));
#565=CARTESIAN_POINT('',(0.,22.,4.));
#566=CARTESIAN_POINT('',(0.,22.,4.));
#567=CARTESIAN_POINT('',(0.,22.,-22.));
#568=CARTESIAN_POINT('Origin',(0.,-22.,-22.));
#569=CARTESIAN_POINT('',(0.,-22.,4.));
#570=CARTESIAN_POINT('Origin',(-27.,22.,-22.));
#571=CARTESIAN_POINT('',(-27.,22.,4.));
#572=CARTESIAN_POINT('Origin',(-13.5,0.,4.));
#573=UNCERTAINTY_MEASURE_WITH_UNIT(LENGTH_MEASURE(0.01),#577,
'DISTANCE_ACCURACY_VALUE',
'Maximum model space distance between geometric entities at asserted c
onnectivities');
#574=UNCERTAINTY_MEASURE_WITH_UNIT(LENGTH_MEASURE(0.01),#577,
'DISTANCE_ACCURACY_VALUE',
'Maximum model space distance between geometric entities at asserted c
onnectivities');
#575=(
GEOMETRIC_REPRESENTATION_CONTEXT(3)
GLOBAL_UNCERTAINTY_ASSIGNED_CONTEXT((#573))
GLOBAL_UNIT_ASSIGNED_CONTEXT((#577,#579,#580))
REPRESENTATION_CONTEXT('','3D')
);
#576=(
GEOMETRIC_REPRESENTATION_CONTEXT(3)
GLOBAL_UNCERTAINTY_ASSIGNED_CONTEXT((#574))
GLOBAL_UNIT_ASSIGNED_CONTEXT((#577,#579,#580))
REPRESENTATION_CONTEXT('','3D')
);
#577=(
LENGTH_UNIT()
NAMED_UNIT(*)
SI_UNIT(.MILLI.,.METRE.)
);
#578=(
LENGTH_UNIT()
NAMED_UNIT(*)
SI_UNIT($,.METRE.)
);
#579=(
NAMED_UNIT(*)
PLANE_ANGLE_UNIT()
SI_UNIT($,.RADIAN.)
);
#580=(
NAMED_UNIT(*)
SI_UNIT($,.STERADIAN.)
SOLID_ANGLE_UNIT()
);
#581=SHAPE_DEFINITION_REPRESENTATION(#582,#583);
#582=PRODUCT_DEFINITION_SHAPE('',$,#585);
#583=SHAPE_REPRESENTATION('',(#361),#575);
#584=PRODUCT_DEFINITION_CONTEXT('part definition',#589,'design');
#585=PRODUCT_DEFINITION('Smart Bin - box hanger',
'Smart Bin - box hanger v1',#586,#584);
#586=PRODUCT_DEFINITION_FORMATION('',$,#591);
#587=PRODUCT_RELATED_PRODUCT_CATEGORY('Smart Bin - box hanger v1',
'Smart Bin - box hanger v1',(#591));
#588=APPLICATION_PROTOCOL_DEFINITION('international standard',
'automotive_design',2009,#589);
#589=APPLICATION_CONTEXT(
'Core Data for Automotive Mechanical Design Process');
#590=PRODUCT_CONTEXT('part definition',#589,'mechanical');
#591=PRODUCT('Smart Bin - box hanger','Smart Bin - box hanger v1',$,(#590));
#592=PRESENTATION_STYLE_ASSIGNMENT((#593));
#593=SURFACE_STYLE_USAGE(.BOTH.,#594);
#594=SURFACE_SIDE_STYLE('',(#595));
#595=SURFACE_STYLE_FILL_AREA(#596);
#596=FILL_AREA_STYLE('Steel - Satin',(#597));
#597=FILL_AREA_STYLE_COLOUR('Steel - Satin',#598);
#598=COLOUR_RGB('Steel - Satin',0.627450980392157,0.627450980392157,0.627450980392157);
ENDSEC;
END-ISO-10303-21;
