ISO-10303-21;
HEADER;
/* Generated by software containing ST-Developer
 * from STEP Tools, Inc. (www.steptools.com) 
 */

FILE_DESCRIPTION(
/* description */ (''),
/* implementation_level */ '2;1');

FILE_NAME(
/* name */ 'bracket.step',
/* time_stamp */ '2026-08-11T10:53:00+10:00',
/* author */ (''),
/* organization */ (''),
/* preprocessor_version */ 'ST-DEVELOPER v20.1',
/* originating_system */ 'Autodesk Translation Framework v15.8.0.0',
/* authorisation */ '');

FILE_SCHEMA (('AUTOMOTIVE_DESIGN { 1 0 10303 214 3 1 1 }'));
ENDSEC;

DATA;
#10=MECHANICAL_DESIGN_GEOMETRIC_PRESENTATION_REPRESENTATION('',(#13),#699);
#11=SHAPE_REPRESENTATION_RELATIONSHIP('SRR','None',#706,#12);
#12=ADVANCED_BREP_SHAPE_REPRESENTATION('',(#14),#698);
#13=STYLED_ITEM('',(#715),#14);
#14=MANIFOLD_SOLID_BREP('bracket',#419);
#15=FACE_BOUND('',#67,.T.);
#16=FACE_BOUND('',#71,.T.);
#17=FACE_BOUND('',#79,.T.);
#18=FACE_BOUND('',#88,.T.);
#19=FACE_BOUND('',#92,.T.);
#20=FACE_BOUND('',#93,.T.);
#21=PLANE('',#439);
#22=PLANE('',#443);
#23=PLANE('',#444);
#24=PLANE('',#445);
#25=PLANE('',#446);
#26=PLANE('',#447);
#27=PLANE('',#449);
#28=PLANE('',#451);
#29=PLANE('',#452);
#30=PLANE('',#453);
#31=PLANE('',#454);
#32=PLANE('',#455);
#33=PLANE('',#456);
#34=PLANE('',#457);
#35=PLANE('',#462);
#36=PLANE('',#463);
#37=PLANE('',#464);
#38=PLANE('',#465);
#39=PLANE('',#466);
#40=FACE_OUTER_BOUND('',#64,.T.);
#41=FACE_OUTER_BOUND('',#65,.T.);
#42=FACE_OUTER_BOUND('',#66,.T.);
#43=FACE_OUTER_BOUND('',#68,.T.);
#44=FACE_OUTER_BOUND('',#69,.T.);
#45=FACE_OUTER_BOUND('',#70,.T.);
#46=FACE_OUTER_BOUND('',#72,.T.);
#47=FACE_OUTER_BOUND('',#73,.T.);
#48=FACE_OUTER_BOUND('',#74,.T.);
#49=FACE_OUTER_BOUND('',#75,.T.);
#50=FACE_OUTER_BOUND('',#76,.T.);
#51=FACE_OUTER_BOUND('',#77,.T.);
#52=FACE_OUTER_BOUND('',#78,.T.);
#53=FACE_OUTER_BOUND('',#80,.T.);
#54=FACE_OUTER_BOUND('',#81,.T.);
#55=FACE_OUTER_BOUND('',#82,.T.);
#56=FACE_OUTER_BOUND('',#83,.T.);
#57=FACE_OUTER_BOUND('',#84,.T.);
#58=FACE_OUTER_BOUND('',#85,.T.);
#59=FACE_OUTER_BOUND('',#86,.T.);
#60=FACE_OUTER_BOUND('',#87,.T.);
#61=FACE_OUTER_BOUND('',#89,.T.);
#62=FACE_OUTER_BOUND('',#90,.T.);
#63=FACE_OUTER_BOUND('',#91,.T.);
#64=EDGE_LOOP('',(#282,#283,#284,#285));
#65=EDGE_LOOP('',(#286,#287,#288,#289));
#66=EDGE_LOOP('',(#290));
#67=EDGE_LOOP('',(#291));
#68=EDGE_LOOP('',(#292,#293,#294,#295));
#69=EDGE_LOOP('',(#296,#297,#298,#299));
#70=EDGE_LOOP('',(#300,#301,#302,#303));
#71=EDGE_LOOP('',(#304));
#72=EDGE_LOOP('',(#305,#306,#307,#308));
#73=EDGE_LOOP('',(#309,#310,#311,#312));
#74=EDGE_LOOP('',(#313));
#75=EDGE_LOOP('',(#314));
#76=EDGE_LOOP('',(#315,#316,#317,#318));
#77=EDGE_LOOP('',(#319,#320,#321,#322));
#78=EDGE_LOOP('',(#323,#324,#325,#326));
#79=EDGE_LOOP('',(#327));
#80=EDGE_LOOP('',(#328,#329,#330,#331));
#81=EDGE_LOOP('',(#332,#333,#334,#335));
#82=EDGE_LOOP('',(#336,#337,#338,#339));
#83=EDGE_LOOP('',(#340,#341,#342,#343));
#84=EDGE_LOOP('',(#344,#345,#346,#347));
#85=EDGE_LOOP('',(#348,#349,#350,#351));
#86=EDGE_LOOP('',(#352,#353,#354,#355));
#87=EDGE_LOOP('',(#356,#357,#358,#359,#360,#361,#362,#363,#364,#365));
#88=EDGE_LOOP('',(#366,#367,#368,#369));
#89=EDGE_LOOP('',(#370,#371,#372,#373));
#90=EDGE_LOOP('',(#374,#375,#376,#377,#378,#379,#380,#381,#382,#383));
#91=EDGE_LOOP('',(#384,#385,#386,#387));
#92=EDGE_LOOP('',(#388));
#93=EDGE_LOOP('',(#389));
#94=LINE('',#586,#138);
#95=LINE('',#592,#139);
#96=LINE('',#600,#140);
#97=LINE('',#603,#141);
#98=LINE('',#606,#142);
#99=LINE('',#608,#143);
#100=LINE('',#609,#144);
#101=LINE('',#612,#145);
#102=LINE('',#614,#146);
#103=LINE('',#615,#147);
#104=LINE('',#617,#148);
#105=LINE('',#618,#149);
#106=LINE('',#629,#150);
#107=LINE('',#631,#151);
#108=LINE('',#633,#152);
#109=LINE('',#634,#153);
#110=LINE('',#638,#154);
#111=LINE('',#640,#155);
#112=LINE('',#642,#156);
#113=LINE('',#643,#157);
#114=LINE('',#646,#158);
#115=LINE('',#648,#159);
#116=LINE('',#649,#160);
#117=LINE('',#652,#161);
#118=LINE('',#654,#162);
#119=LINE('',#655,#163);
#120=LINE('',#657,#164);
#121=LINE('',#658,#165);
#122=LINE('',#662,#166);
#123=LINE('',#664,#167);
#124=LINE('',#666,#168);
#125=LINE('',#667,#169);
#126=LINE('',#669,#170);
#127=LINE('',#670,#171);
#128=LINE('',#674,#172);
#129=LINE('',#678,#173);
#130=LINE('',#682,#174);
#131=LINE('',#683,#175);
#132=LINE('',#684,#176);
#133=LINE('',#687,#177);
#134=LINE('',#688,#178);
#135=LINE('',#691,#179);
#136=LINE('',#692,#180);
#137=LINE('',#694,#181);
#138=VECTOR('',#473,0.21);
#139=VECTOR('',#480,0.5);
#140=VECTOR('',#489,1.);
#141=VECTOR('',#492,1.);
#142=VECTOR('',#495,1.);
#143=VECTOR('',#496,1.);
#144=VECTOR('',#497,1.);
#145=VECTOR('',#500,1.);
#146=VECTOR('',#501,1.);
#147=VECTOR('',#502,1.);
#148=VECTOR('',#505,1.);
#149=VECTOR('',#506,1.);
#150=VECTOR('',#519,1.);
#151=VECTOR('',#520,1.);
#152=VECTOR('',#521,1.);
#153=VECTOR('',#522,1.);
#154=VECTOR('',#525,1.);
#155=VECTOR('',#526,1.);
#156=VECTOR('',#527,1.);
#157=VECTOR('',#528,1.);
#158=VECTOR('',#531,1.);
#159=VECTOR('',#532,1.);
#160=VECTOR('',#533,1.);
#161=VECTOR('',#536,1.);
#162=VECTOR('',#537,1.);
#163=VECTOR('',#538,1.);
#164=VECTOR('',#541,1.);
#165=VECTOR('',#542,1.);
#166=VECTOR('',#545,1.);
#167=VECTOR('',#546,1.);
#168=VECTOR('',#547,1.);
#169=VECTOR('',#548,1.);
#170=VECTOR('',#551,1.);
#171=VECTOR('',#552,1.);
#172=VECTOR('',#557,0.21);
#173=VECTOR('',#562,0.21);
#174=VECTOR('',#565,1.);
#175=VECTOR('',#566,1.);
#176=VECTOR('',#567,1.);
#177=VECTOR('',#570,1.);
#178=VECTOR('',#571,1.);
#179=VECTOR('',#574,1.);
#180=VECTOR('',#575,1.);
#181=VECTOR('',#578,1.);
#182=CIRCLE('',#434,0.21);
#183=CIRCLE('',#435,0.21);
#184=CIRCLE('',#437,0.5);
#185=CIRCLE('',#438,0.5);
#186=CIRCLE('',#441,1.0225);
#187=CIRCLE('',#442,1.0225);
#188=CIRCLE('',#448,0.21);
#189=CIRCLE('',#450,0.21);
#190=CIRCLE('',#459,0.21);
#191=CIRCLE('',#461,0.21);
#192=VERTEX_POINT('',#583);
#193=VERTEX_POINT('',#585);
#194=VERTEX_POINT('',#589);
#195=VERTEX_POINT('',#591);
#196=VERTEX_POINT('',#596);
#197=VERTEX_POINT('',#597);
#198=VERTEX_POINT('',#599);
#199=VERTEX_POINT('',#601);
#200=VERTEX_POINT('',#605);
#201=VERTEX_POINT('',#607);
#202=VERTEX_POINT('',#611);
#203=VERTEX_POINT('',#613);
#204=VERTEX_POINT('',#621);
#205=VERTEX_POINT('',#624);
#206=VERTEX_POINT('',#627);
#207=VERTEX_POINT('',#628);
#208=VERTEX_POINT('',#630);
#209=VERTEX_POINT('',#632);
#210=VERTEX_POINT('',#636);
#211=VERTEX_POINT('',#637);
#212=VERTEX_POINT('',#639);
#213=VERTEX_POINT('',#641);
#214=VERTEX_POINT('',#645);
#215=VERTEX_POINT('',#647);
#216=VERTEX_POINT('',#651);
#217=VERTEX_POINT('',#653);
#218=VERTEX_POINT('',#660);
#219=VERTEX_POINT('',#661);
#220=VERTEX_POINT('',#663);
#221=VERTEX_POINT('',#665);
#222=VERTEX_POINT('',#672);
#223=VERTEX_POINT('',#676);
#224=VERTEX_POINT('',#680);
#225=VERTEX_POINT('',#681);
#226=VERTEX_POINT('',#686);
#227=VERTEX_POINT('',#690);
#228=EDGE_CURVE('',#192,#192,#182,.T.);
#229=EDGE_CURVE('',#192,#193,#94,.T.);
#230=EDGE_CURVE('',#193,#193,#183,.T.);
#231=EDGE_CURVE('',#194,#194,#184,.T.);
#232=EDGE_CURVE('',#194,#195,#95,.T.);
#233=EDGE_CURVE('',#195,#195,#185,.T.);
#234=EDGE_CURVE('',#196,#197,#186,.T.);
#235=EDGE_CURVE('',#198,#196,#96,.T.);
#236=EDGE_CURVE('',#199,#198,#187,.T.);
#237=EDGE_CURVE('',#199,#197,#97,.T.);
#238=EDGE_CURVE('',#197,#200,#98,.T.);
#239=EDGE_CURVE('',#201,#199,#99,.T.);
#240=EDGE_CURVE('',#201,#200,#100,.T.);
#241=EDGE_CURVE('',#200,#202,#101,.T.);
#242=EDGE_CURVE('',#203,#201,#102,.T.);
#243=EDGE_CURVE('',#203,#202,#103,.T.);
#244=EDGE_CURVE('',#202,#196,#104,.T.);
#245=EDGE_CURVE('',#198,#203,#105,.T.);
#246=EDGE_CURVE('',#204,#204,#188,.T.);
#247=EDGE_CURVE('',#205,#205,#189,.T.);
#248=EDGE_CURVE('',#206,#207,#106,.T.);
#249=EDGE_CURVE('',#207,#208,#107,.T.);
#250=EDGE_CURVE('',#208,#209,#108,.T.);
#251=EDGE_CURVE('',#206,#209,#109,.T.);
#252=EDGE_CURVE('',#210,#211,#110,.T.);
#253=EDGE_CURVE('',#211,#212,#111,.T.);
#254=EDGE_CURVE('',#213,#212,#112,.T.);
#255=EDGE_CURVE('',#210,#213,#113,.T.);
#256=EDGE_CURVE('',#214,#210,#114,.T.);
#257=EDGE_CURVE('',#215,#213,#115,.T.);
#258=EDGE_CURVE('',#214,#215,#116,.T.);
#259=EDGE_CURVE('',#216,#214,#117,.T.);
#260=EDGE_CURVE('',#217,#215,#118,.T.);
#261=EDGE_CURVE('',#216,#217,#119,.T.);
#262=EDGE_CURVE('',#208,#216,#120,.T.);
#263=EDGE_CURVE('',#209,#217,#121,.T.);
#264=EDGE_CURVE('',#218,#219,#122,.T.);
#265=EDGE_CURVE('',#220,#219,#123,.T.);
#266=EDGE_CURVE('',#221,#220,#124,.T.);
#267=EDGE_CURVE('',#221,#218,#125,.T.);
#268=EDGE_CURVE('',#211,#221,#126,.T.);
#269=EDGE_CURVE('',#212,#220,#127,.T.);
#270=EDGE_CURVE('',#222,#222,#190,.T.);
#271=EDGE_CURVE('',#222,#205,#128,.T.);
#272=EDGE_CURVE('',#223,#223,#191,.T.);
#273=EDGE_CURVE('',#223,#204,#129,.T.);
#274=EDGE_CURVE('',#224,#225,#130,.T.);
#275=EDGE_CURVE('',#225,#207,#131,.T.);
#276=EDGE_CURVE('',#224,#206,#132,.T.);
#277=EDGE_CURVE('',#226,#224,#133,.T.);
#278=EDGE_CURVE('',#226,#219,#134,.T.);
#279=EDGE_CURVE('',#227,#226,#135,.T.);
#280=EDGE_CURVE('',#227,#218,#136,.T.);
#281=EDGE_CURVE('',#225,#227,#137,.T.);
#282=ORIENTED_EDGE('',*,*,#228,.F.);
#283=ORIENTED_EDGE('',*,*,#229,.T.);
#284=ORIENTED_EDGE('',*,*,#230,.F.);
#285=ORIENTED_EDGE('',*,*,#229,.F.);
#286=ORIENTED_EDGE('',*,*,#231,.F.);
#287=ORIENTED_EDGE('',*,*,#232,.T.);
#288=ORIENTED_EDGE('',*,*,#233,.F.);
#289=ORIENTED_EDGE('',*,*,#232,.F.);
#290=ORIENTED_EDGE('',*,*,#231,.T.);
#291=ORIENTED_EDGE('',*,*,#230,.T.);
#292=ORIENTED_EDGE('',*,*,#234,.F.);
#293=ORIENTED_EDGE('',*,*,#235,.F.);
#294=ORIENTED_EDGE('',*,*,#236,.F.);
#295=ORIENTED_EDGE('',*,*,#237,.T.);
#296=ORIENTED_EDGE('',*,*,#238,.F.);
#297=ORIENTED_EDGE('',*,*,#237,.F.);
#298=ORIENTED_EDGE('',*,*,#239,.F.);
#299=ORIENTED_EDGE('',*,*,#240,.T.);
#300=ORIENTED_EDGE('',*,*,#241,.F.);
#301=ORIENTED_EDGE('',*,*,#240,.F.);
#302=ORIENTED_EDGE('',*,*,#242,.F.);
#303=ORIENTED_EDGE('',*,*,#243,.T.);
#304=ORIENTED_EDGE('',*,*,#228,.T.);
#305=ORIENTED_EDGE('',*,*,#244,.F.);
#306=ORIENTED_EDGE('',*,*,#243,.F.);
#307=ORIENTED_EDGE('',*,*,#245,.F.);
#308=ORIENTED_EDGE('',*,*,#235,.T.);
#309=ORIENTED_EDGE('',*,*,#239,.T.);
#310=ORIENTED_EDGE('',*,*,#236,.T.);
#311=ORIENTED_EDGE('',*,*,#245,.T.);
#312=ORIENTED_EDGE('',*,*,#242,.T.);
#313=ORIENTED_EDGE('',*,*,#246,.T.);
#314=ORIENTED_EDGE('',*,*,#247,.T.);
#315=ORIENTED_EDGE('',*,*,#248,.T.);
#316=ORIENTED_EDGE('',*,*,#249,.T.);
#317=ORIENTED_EDGE('',*,*,#250,.T.);
#318=ORIENTED_EDGE('',*,*,#251,.F.);
#319=ORIENTED_EDGE('',*,*,#252,.T.);
#320=ORIENTED_EDGE('',*,*,#253,.T.);
#321=ORIENTED_EDGE('',*,*,#254,.F.);
#322=ORIENTED_EDGE('',*,*,#255,.F.);
#323=ORIENTED_EDGE('',*,*,#256,.T.);
#324=ORIENTED_EDGE('',*,*,#255,.T.);
#325=ORIENTED_EDGE('',*,*,#257,.F.);
#326=ORIENTED_EDGE('',*,*,#258,.F.);
#327=ORIENTED_EDGE('',*,*,#233,.T.);
#328=ORIENTED_EDGE('',*,*,#259,.T.);
#329=ORIENTED_EDGE('',*,*,#258,.T.);
#330=ORIENTED_EDGE('',*,*,#260,.F.);
#331=ORIENTED_EDGE('',*,*,#261,.F.);
#332=ORIENTED_EDGE('',*,*,#262,.T.);
#333=ORIENTED_EDGE('',*,*,#261,.T.);
#334=ORIENTED_EDGE('',*,*,#263,.F.);
#335=ORIENTED_EDGE('',*,*,#250,.F.);
#336=ORIENTED_EDGE('',*,*,#264,.T.);
#337=ORIENTED_EDGE('',*,*,#265,.F.);
#338=ORIENTED_EDGE('',*,*,#266,.F.);
#339=ORIENTED_EDGE('',*,*,#267,.T.);
#340=ORIENTED_EDGE('',*,*,#268,.T.);
#341=ORIENTED_EDGE('',*,*,#266,.T.);
#342=ORIENTED_EDGE('',*,*,#269,.F.);
#343=ORIENTED_EDGE('',*,*,#253,.F.);
#344=ORIENTED_EDGE('',*,*,#270,.F.);
#345=ORIENTED_EDGE('',*,*,#271,.T.);
#346=ORIENTED_EDGE('',*,*,#247,.F.);
#347=ORIENTED_EDGE('',*,*,#271,.F.);
#348=ORIENTED_EDGE('',*,*,#272,.F.);
#349=ORIENTED_EDGE('',*,*,#273,.T.);
#350=ORIENTED_EDGE('',*,*,#246,.F.);
#351=ORIENTED_EDGE('',*,*,#273,.F.);
#352=ORIENTED_EDGE('',*,*,#274,.T.);
#353=ORIENTED_EDGE('',*,*,#275,.T.);
#354=ORIENTED_EDGE('',*,*,#248,.F.);
#355=ORIENTED_EDGE('',*,*,#276,.F.);
#356=ORIENTED_EDGE('',*,*,#277,.T.);
#357=ORIENTED_EDGE('',*,*,#276,.T.);
#358=ORIENTED_EDGE('',*,*,#251,.T.);
#359=ORIENTED_EDGE('',*,*,#263,.T.);
#360=ORIENTED_EDGE('',*,*,#260,.T.);
#361=ORIENTED_EDGE('',*,*,#257,.T.);
#362=ORIENTED_EDGE('',*,*,#254,.T.);
#363=ORIENTED_EDGE('',*,*,#269,.T.);
#364=ORIENTED_EDGE('',*,*,#265,.T.);
#365=ORIENTED_EDGE('',*,*,#278,.F.);
#366=ORIENTED_EDGE('',*,*,#241,.T.);
#367=ORIENTED_EDGE('',*,*,#244,.T.);
#368=ORIENTED_EDGE('',*,*,#234,.T.);
#369=ORIENTED_EDGE('',*,*,#238,.T.);
#370=ORIENTED_EDGE('',*,*,#279,.T.);
#371=ORIENTED_EDGE('',*,*,#278,.T.);
#372=ORIENTED_EDGE('',*,*,#264,.F.);
#373=ORIENTED_EDGE('',*,*,#280,.F.);
#374=ORIENTED_EDGE('',*,*,#281,.T.);
#375=ORIENTED_EDGE('',*,*,#280,.T.);
#376=ORIENTED_EDGE('',*,*,#267,.F.);
#377=ORIENTED_EDGE('',*,*,#268,.F.);
#378=ORIENTED_EDGE('',*,*,#252,.F.);
#379=ORIENTED_EDGE('',*,*,#256,.F.);
#380=ORIENTED_EDGE('',*,*,#259,.F.);
#381=ORIENTED_EDGE('',*,*,#262,.F.);
#382=ORIENTED_EDGE('',*,*,#249,.F.);
#383=ORIENTED_EDGE('',*,*,#275,.F.);
#384=ORIENTED_EDGE('',*,*,#281,.F.);
#385=ORIENTED_EDGE('',*,*,#274,.F.);
#386=ORIENTED_EDGE('',*,*,#277,.F.);
#387=ORIENTED_EDGE('',*,*,#279,.F.);
#388=ORIENTED_EDGE('',*,*,#270,.T.);
#389=ORIENTED_EDGE('',*,*,#272,.T.);
#390=CYLINDRICAL_SURFACE('',#433,0.21);
#391=CYLINDRICAL_SURFACE('',#436,0.5);
#392=CYLINDRICAL_SURFACE('',#440,1.0225);
#393=CYLINDRICAL_SURFACE('',#458,0.21);
#394=CYLINDRICAL_SURFACE('',#460,0.21);
#395=ADVANCED_FACE('',(#40),#390,.F.);
#396=ADVANCED_FACE('',(#41),#391,.T.);
#397=ADVANCED_FACE('',(#42,#15),#21,.T.);
#398=ADVANCED_FACE('',(#43),#392,.F.);
#399=ADVANCED_FACE('',(#44),#22,.F.);
#400=ADVANCED_FACE('',(#45,#16),#23,.F.);
#401=ADVANCED_FACE('',(#46),#24,.F.);
#402=ADVANCED_FACE('',(#47),#25,.T.);
#403=ADVANCED_FACE('',(#48),#26,.T.);
#404=ADVANCED_FACE('',(#49),#27,.T.);
#405=ADVANCED_FACE('',(#50),#28,.T.);
#406=ADVANCED_FACE('',(#51),#29,.T.);
#407=ADVANCED_FACE('',(#52,#17),#30,.T.);
#408=ADVANCED_FACE('',(#53),#31,.T.);
#409=ADVANCED_FACE('',(#54),#32,.T.);
#410=ADVANCED_FACE('',(#55),#33,.T.);
#411=ADVANCED_FACE('',(#56),#34,.T.);
#412=ADVANCED_FACE('',(#57),#393,.F.);
#413=ADVANCED_FACE('',(#58),#394,.F.);
#414=ADVANCED_FACE('',(#59),#35,.T.);
#415=ADVANCED_FACE('',(#60,#18),#36,.T.);
#416=ADVANCED_FACE('',(#61),#37,.T.);
#417=ADVANCED_FACE('',(#62),#38,.T.);
#418=ADVANCED_FACE('',(#63,#19,#20),#39,.F.);
#419=CLOSED_SHELL('',(#395,#396,#397,#398,#399,#400,#401,#402,#403,#404,
#405,#406,#407,#408,#409,#410,#411,#412,#413,#414,#415,#416,#417,#418));
#420=DERIVED_UNIT_ELEMENT(#422,1.);
#421=DERIVED_UNIT_ELEMENT(#701,-3.);
#422=(
MASS_UNIT()
NAMED_UNIT(*)
SI_UNIT(.KILO.,.GRAM.)
);
#423=DERIVED_UNIT((#420,#421));
#424=MEASURE_REPRESENTATION_ITEM('density measure',
POSITIVE_RATIO_MEASURE(7850.),#423);
#425=PROPERTY_DEFINITION_REPRESENTATION(#430,#427);
#426=PROPERTY_DEFINITION_REPRESENTATION(#431,#428);
#427=REPRESENTATION('material name',(#429),#698);
#428=REPRESENTATION('density',(#424),#698);
#429=DESCRIPTIVE_REPRESENTATION_ITEM('Steel','Steel');
#430=PROPERTY_DEFINITION('material property','material name',#708);
#431=PROPERTY_DEFINITION('material property','density of part',#708);
#432=AXIS2_PLACEMENT_3D('',#581,#467,#468);
#433=AXIS2_PLACEMENT_3D('',#582,#469,#470);
#434=AXIS2_PLACEMENT_3D('',#584,#471,#472);
#435=AXIS2_PLACEMENT_3D('',#587,#474,#475);
#436=AXIS2_PLACEMENT_3D('',#588,#476,#477);
#437=AXIS2_PLACEMENT_3D('',#590,#478,#479);
#438=AXIS2_PLACEMENT_3D('',#593,#481,#482);
#439=AXIS2_PLACEMENT_3D('',#594,#483,#484);
#440=AXIS2_PLACEMENT_3D('',#595,#485,#486);
#441=AXIS2_PLACEMENT_3D('',#598,#487,#488);
#442=AXIS2_PLACEMENT_3D('',#602,#490,#491);
#443=AXIS2_PLACEMENT_3D('',#604,#493,#494);
#444=AXIS2_PLACEMENT_3D('',#610,#498,#499);
#445=AXIS2_PLACEMENT_3D('',#616,#503,#504);
#446=AXIS2_PLACEMENT_3D('',#619,#507,#508);
#447=AXIS2_PLACEMENT_3D('',#620,#509,#510);
#448=AXIS2_PLACEMENT_3D('',#622,#511,#512);
#449=AXIS2_PLACEMENT_3D('',#623,#513,#514);
#450=AXIS2_PLACEMENT_3D('',#625,#515,#516);
#451=AXIS2_PLACEMENT_3D('',#626,#517,#518);
#452=AXIS2_PLACEMENT_3D('',#635,#523,#524);
#453=AXIS2_PLACEMENT_3D('',#644,#529,#530);
#454=AXIS2_PLACEMENT_3D('',#650,#534,#535);
#455=AXIS2_PLACEMENT_3D('',#656,#539,#540);
#456=AXIS2_PLACEMENT_3D('',#659,#543,#544);
#457=AXIS2_PLACEMENT_3D('',#668,#549,#550);
#458=AXIS2_PLACEMENT_3D('',#671,#553,#554);
#459=AXIS2_PLACEMENT_3D('',#673,#555,#556);
#460=AXIS2_PLACEMENT_3D('',#675,#558,#559);
#461=AXIS2_PLACEMENT_3D('',#677,#560,#561);
#462=AXIS2_PLACEMENT_3D('',#679,#563,#564);
#463=AXIS2_PLACEMENT_3D('',#685,#568,#569);
#464=AXIS2_PLACEMENT_3D('',#689,#572,#573);
#465=AXIS2_PLACEMENT_3D('',#693,#576,#577);
#466=AXIS2_PLACEMENT_3D('',#695,#579,#580);
#467=DIRECTION('axis',(0.,0.,1.));
#468=DIRECTION('refdir',(1.,0.,0.));
#469=DIRECTION('center_axis',(0.,0.,1.));
#470=DIRECTION('ref_axis',(1.,0.,0.));
#471=DIRECTION('center_axis',(0.,0.,1.));
#472=DIRECTION('ref_axis',(1.,0.,0.));
#473=DIRECTION('',(0.,0.,1.));
#474=DIRECTION('center_axis',(0.,0.,-1.));
#475=DIRECTION('ref_axis',(1.,0.,0.));
#476=DIRECTION('center_axis',(0.,0.,1.));
#477=DIRECTION('ref_axis',(1.,0.,0.));
#478=DIRECTION('center_axis',(0.,0.,1.));
#479=DIRECTION('ref_axis',(1.,0.,0.));
#480=DIRECTION('',(0.,0.,-1.));
#481=DIRECTION('center_axis',(0.,0.,-1.));
#482=DIRECTION('ref_axis',(1.,0.,0.));
#483=DIRECTION('center_axis',(0.,0.,1.));
#484=DIRECTION('ref_axis',(1.,0.,0.));
#485=DIRECTION('center_axis',(1.,0.,0.));
#486=DIRECTION('ref_axis',(0.,-2.17158537823992E-16,-1.));
#487=DIRECTION('center_axis',(-1.,0.,0.));
#488=DIRECTION('ref_axis',(0.,-0.707106781186547,0.707106781186548));
#489=DIRECTION('',(1.,0.,0.));
#490=DIRECTION('center_axis',(1.,0.,0.));
#491=DIRECTION('ref_axis',(0.,-0.707106781186547,0.707106781186548));
#492=DIRECTION('',(1.,0.,0.));
#493=DIRECTION('center_axis',(0.,-0.707106781186547,0.707106781186548));
#494=DIRECTION('ref_axis',(0.,-0.707106781186548,-0.707106781186547));
#495=DIRECTION('',(0.,0.707106781186548,0.707106781186547));
#496=DIRECTION('',(0.,-0.707106781186548,-0.707106781186547));
#497=DIRECTION('',(1.,0.,0.));
#498=DIRECTION('center_axis',(0.,0.,1.));
#499=DIRECTION('ref_axis',(0.,-1.,0.));
#500=DIRECTION('',(0.,1.,0.));
#501=DIRECTION('',(0.,-1.,0.));
#502=DIRECTION('',(1.,0.,0.));
#503=DIRECTION('center_axis',(0.,0.707106781186547,0.707106781186548));
#504=DIRECTION('ref_axis',(0.,-0.707106781186548,0.707106781186547));
#505=DIRECTION('',(0.,0.707106781186548,-0.707106781186547));
#506=DIRECTION('',(0.,-0.707106781186548,0.707106781186547));
#507=DIRECTION('center_axis',(1.,0.,0.));
#508=DIRECTION('ref_axis',(0.,0.,-1.));
#509=DIRECTION('center_axis',(0.,0.,-1.));
#510=DIRECTION('ref_axis',(0.,1.,0.));
#511=DIRECTION('center_axis',(0.,0.,-1.));
#512=DIRECTION('ref_axis',(1.,0.,0.));
#513=DIRECTION('center_axis',(0.,0.,-1.));
#514=DIRECTION('ref_axis',(0.,1.,0.));
#515=DIRECTION('center_axis',(0.,0.,-1.));
#516=DIRECTION('ref_axis',(1.,0.,0.));
#517=DIRECTION('center_axis',(0.,0.,-1.));
#518=DIRECTION('ref_axis',(0.,1.,0.));
#519=DIRECTION('',(-1.,0.,0.));
#520=DIRECTION('',(0.,1.,0.));
#521=DIRECTION('',(1.,0.,0.));
#522=DIRECTION('',(0.,1.,0.));
#523=DIRECTION('center_axis',(0.,-0.994408591727349,0.105600912395825));
#524=DIRECTION('ref_axis',(0.,-0.105600912395825,-0.994408591727349));
#525=DIRECTION('',(0.,-0.105600912395825,-0.994408591727349));
#526=DIRECTION('',(1.,0.,0.));
#527=DIRECTION('',(0.,-0.105600912395825,-0.994408591727349));
#528=DIRECTION('',(1.,0.,0.));
#529=DIRECTION('center_axis',(0.,0.,1.));
#530=DIRECTION('ref_axis',(0.,-1.,0.));
#531=DIRECTION('',(0.,-1.,0.));
#532=DIRECTION('',(0.,-1.,0.));
#533=DIRECTION('',(1.,0.,0.));
#534=DIRECTION('center_axis',(0.,0.994408591727349,0.105600912395825));
#535=DIRECTION('ref_axis',(0.,-0.105600912395825,0.994408591727349));
#536=DIRECTION('',(0.,-0.105600912395825,0.994408591727349));
#537=DIRECTION('',(0.,-0.105600912395825,0.994408591727349));
#538=DIRECTION('',(1.,0.,0.));
#539=DIRECTION('center_axis',(0.,1.,0.));
#540=DIRECTION('ref_axis',(0.,0.,1.));
#541=DIRECTION('',(0.,0.,1.));
#542=DIRECTION('',(0.,0.,1.));
#543=DIRECTION('center_axis',(0.,0.,-1.));
#544=DIRECTION('ref_axis',(0.,1.,0.));
#545=DIRECTION('',(1.,0.,0.));
#546=DIRECTION('',(0.,1.,0.));
#547=DIRECTION('',(1.,0.,0.));
#548=DIRECTION('',(0.,1.,0.));
#549=DIRECTION('center_axis',(0.,-1.,0.));
#550=DIRECTION('ref_axis',(0.,0.,-1.));
#551=DIRECTION('',(0.,0.,-1.));
#552=DIRECTION('',(0.,0.,-1.));
#553=DIRECTION('center_axis',(0.,0.,1.));
#554=DIRECTION('ref_axis',(1.,0.,0.));
#555=DIRECTION('center_axis',(0.,0.,1.));
#556=DIRECTION('ref_axis',(1.,0.,0.));
#557=DIRECTION('',(0.,0.,1.));
#558=DIRECTION('center_axis',(0.,0.,1.));
#559=DIRECTION('ref_axis',(1.,0.,0.));
#560=DIRECTION('center_axis',(0.,0.,1.));
#561=DIRECTION('ref_axis',(1.,0.,0.));
#562=DIRECTION('',(0.,0.,1.));
#563=DIRECTION('center_axis',(0.,1.,0.));
#564=DIRECTION('ref_axis',(-1.,0.,0.));
#565=DIRECTION('',(-1.,0.,0.));
#566=DIRECTION('',(0.,0.,1.));
#567=DIRECTION('',(0.,0.,1.));
#568=DIRECTION('center_axis',(1.,0.,0.));
#569=DIRECTION('ref_axis',(0.,1.,0.));
#570=DIRECTION('',(0.,1.,0.));
#571=DIRECTION('',(0.,0.,1.));
#572=DIRECTION('center_axis',(0.,-1.,0.));
#573=DIRECTION('ref_axis',(1.,0.,0.));
#574=DIRECTION('',(1.,0.,0.));
#575=DIRECTION('',(0.,0.,1.));
#576=DIRECTION('center_axis',(-1.,0.,0.));
#577=DIRECTION('ref_axis',(0.,-1.,0.));
#578=DIRECTION('',(0.,-1.,0.));
#579=DIRECTION('center_axis',(0.,0.,1.));
#580=DIRECTION('ref_axis',(1.,0.,0.));
#581=CARTESIAN_POINT('',(0.,0.,0.));
#582=CARTESIAN_POINT('Origin',(2.3,0.,1.8425));
#583=CARTESIAN_POINT('',(2.09,-2.57175827820944E-17,3.015));
#584=CARTESIAN_POINT('Origin',(2.3,0.,3.015));
#585=CARTESIAN_POINT('',(2.09,2.57175827820944E-17,3.635));
#586=CARTESIAN_POINT('',(2.09,-2.57175827820944E-17,1.8425));
#587=CARTESIAN_POINT('Origin',(2.3,0.,3.635));
#588=CARTESIAN_POINT('Origin',(2.3,0.,3.335));
#589=CARTESIAN_POINT('',(1.8,-6.12323399573677E-17,3.635));
#590=CARTESIAN_POINT('Origin',(2.3,0.,3.635));
#591=CARTESIAN_POINT('',(1.8,-6.12323399573677E-17,3.335));
#592=CARTESIAN_POINT('',(1.8,-6.12323399573677E-17,3.335));
#593=CARTESIAN_POINT('Origin',(2.3,0.,3.335));
#594=CARTESIAN_POINT('Origin',(2.3,0.,3.635));
#595=CARTESIAN_POINT('Origin',(0.5,-2.22044604925031E-16,1.8425));
#596=CARTESIAN_POINT('',(3.2,0.723016683763245,2.56551668376325));
#597=CARTESIAN_POINT('',(3.2,-0.723016683763245,2.56551668376325));
#598=CARTESIAN_POINT('Origin',(3.2,-2.22044604925031E-16,1.8425));
#599=CARTESIAN_POINT('',(0.5,0.723016683763245,2.56551668376325));
#600=CARTESIAN_POINT('',(0.5,0.723016683763245,2.56551668376325));
#601=CARTESIAN_POINT('',(0.5,-0.723016683763245,2.56551668376325));
#602=CARTESIAN_POINT('Origin',(0.5,-2.22044604925031E-16,1.8425));
#603=CARTESIAN_POINT('',(0.5,-0.723016683763245,2.56551668376325));
#604=CARTESIAN_POINT('Origin',(0.5,-0.27353336752649,3.015));
#605=CARTESIAN_POINT('',(3.2,-0.27353336752649,3.015));
#606=CARTESIAN_POINT('',(3.2,-1.28390002564487,2.00463334188162));
#607=CARTESIAN_POINT('',(0.5,-0.27353336752649,3.015));
#608=CARTESIAN_POINT('',(0.5,-0.27353336752649,3.015));
#609=CARTESIAN_POINT('',(0.5,-0.27353336752649,3.015));
#610=CARTESIAN_POINT('Origin',(0.5,0.27353336752649,3.015));
#611=CARTESIAN_POINT('',(3.2,0.27353336752649,3.015));
#612=CARTESIAN_POINT('',(3.2,-0.513233316236755,3.015));
#613=CARTESIAN_POINT('',(0.5,0.27353336752649,3.015));
#614=CARTESIAN_POINT('',(0.5,0.27353336752649,3.015));
#615=CARTESIAN_POINT('',(0.5,0.27353336752649,3.015));
#616=CARTESIAN_POINT('Origin',(0.5,0.723016683763245,2.56551668376325));
#617=CARTESIAN_POINT('',(3.2,0.858641683763245,2.42989168376325));
#618=CARTESIAN_POINT('',(0.5,0.723016683763245,2.56551668376325));
#619=CARTESIAN_POINT('Origin',(0.5,-2.22044604925031E-16,1.9175));
#620=CARTESIAN_POINT('Origin',(0.,-1.32,0.5));
#621=CARTESIAN_POINT('',(2.19,-2.57175827820944E-17,0.5));
#622=CARTESIAN_POINT('Origin',(2.4,0.,0.5));
#623=CARTESIAN_POINT('Origin',(0.,-1.32,0.5));
#624=CARTESIAN_POINT('',(0.59,-2.57175827820944E-17,0.5));
#625=CARTESIAN_POINT('Origin',(0.8,0.,0.5));
#626=CARTESIAN_POINT('Origin',(0.,-1.32,0.5));
#627=CARTESIAN_POINT('',(3.2,1.3,0.5));
#628=CARTESIAN_POINT('',(0.,1.3,0.5));
#629=CARTESIAN_POINT('',(3.2,1.3,0.5));
#630=CARTESIAN_POINT('',(0.,1.32,0.5));
#631=CARTESIAN_POINT('',(0.,-1.32,0.5));
#632=CARTESIAN_POINT('',(3.2,1.32,0.5));
#633=CARTESIAN_POINT('',(0.,1.32,0.5));
#634=CARTESIAN_POINT('',(3.2,-1.32,0.5));
#635=CARTESIAN_POINT('Origin',(0.,-1.02,3.335));
#636=CARTESIAN_POINT('',(0.,-1.02,3.335));
#637=CARTESIAN_POINT('',(0.,-1.32,0.51));
#638=CARTESIAN_POINT('',(0.,-1.02,3.335));
#639=CARTESIAN_POINT('',(3.2,-1.32,0.51));
#640=CARTESIAN_POINT('',(0.,-1.32,0.51));
#641=CARTESIAN_POINT('',(3.2,-1.02,3.335));
#642=CARTESIAN_POINT('',(3.2,-1.02,3.335));
#643=CARTESIAN_POINT('',(0.,-1.02,3.335));
#644=CARTESIAN_POINT('Origin',(0.,1.02,3.335));
#645=CARTESIAN_POINT('',(0.,1.02,3.335));
#646=CARTESIAN_POINT('',(0.,1.02,3.335));
#647=CARTESIAN_POINT('',(3.2,1.02,3.335));
#648=CARTESIAN_POINT('',(3.2,1.02,3.335));
#649=CARTESIAN_POINT('',(0.,1.02,3.335));
#650=CARTESIAN_POINT('Origin',(0.,1.32,0.51));
#651=CARTESIAN_POINT('',(0.,1.32,0.51));
#652=CARTESIAN_POINT('',(0.,1.32,0.51));
#653=CARTESIAN_POINT('',(3.2,1.32,0.51));
#654=CARTESIAN_POINT('',(3.2,1.32,0.51));
#655=CARTESIAN_POINT('',(0.,1.32,0.51));
#656=CARTESIAN_POINT('Origin',(0.,1.32,0.5));
#657=CARTESIAN_POINT('',(0.,1.32,0.5));
#658=CARTESIAN_POINT('',(3.2,1.32,0.5));
#659=CARTESIAN_POINT('Origin',(0.,-1.32,0.5));
#660=CARTESIAN_POINT('',(0.,-1.3,0.5));
#661=CARTESIAN_POINT('',(3.2,-1.3,0.5));
#662=CARTESIAN_POINT('',(0.,-1.3,0.5));
#663=CARTESIAN_POINT('',(3.2,-1.32,0.5));
#664=CARTESIAN_POINT('',(3.2,-1.32,0.5));
#665=CARTESIAN_POINT('',(0.,-1.32,0.5));
#666=CARTESIAN_POINT('',(0.,-1.32,0.5));
#667=CARTESIAN_POINT('',(0.,-1.32,0.5));
#668=CARTESIAN_POINT('Origin',(0.,-1.32,0.51));
#669=CARTESIAN_POINT('',(0.,-1.32,0.51));
#670=CARTESIAN_POINT('',(3.2,-1.32,0.51));
#671=CARTESIAN_POINT('Origin',(0.8,0.,0.));
#672=CARTESIAN_POINT('',(0.59,-2.57175827820944E-17,0.));
#673=CARTESIAN_POINT('Origin',(0.8,0.,0.));
#674=CARTESIAN_POINT('',(0.59,-2.57175827820944E-17,0.));
#675=CARTESIAN_POINT('Origin',(2.4,0.,0.));
#676=CARTESIAN_POINT('',(2.19,-2.57175827820944E-17,0.));
#677=CARTESIAN_POINT('Origin',(2.4,0.,0.));
#678=CARTESIAN_POINT('',(2.19,-2.57175827820944E-17,0.));
#679=CARTESIAN_POINT('Origin',(3.2,1.3,0.));
#680=CARTESIAN_POINT('',(3.2,1.3,0.));
#681=CARTESIAN_POINT('',(0.,1.3,0.));
#682=CARTESIAN_POINT('',(3.2,1.3,0.));
#683=CARTESIAN_POINT('',(0.,1.3,0.));
#684=CARTESIAN_POINT('',(3.2,1.3,0.));
#685=CARTESIAN_POINT('Origin',(3.2,-1.3,0.));
#686=CARTESIAN_POINT('',(3.2,-1.3,0.));
#687=CARTESIAN_POINT('',(3.2,-1.3,0.));
#688=CARTESIAN_POINT('',(3.2,-1.3,0.));
#689=CARTESIAN_POINT('Origin',(0.,-1.3,0.));
#690=CARTESIAN_POINT('',(0.,-1.3,0.));
#691=CARTESIAN_POINT('',(0.,-1.3,0.));
#692=CARTESIAN_POINT('',(0.,-1.3,0.));
#693=CARTESIAN_POINT('Origin',(0.,1.3,0.));
#694=CARTESIAN_POINT('',(0.,1.3,0.));
#695=CARTESIAN_POINT('Origin',(1.6,0.,0.));
#696=UNCERTAINTY_MEASURE_WITH_UNIT(LENGTH_MEASURE(0.001),#700,
'DISTANCE_ACCURACY_VALUE',
'Maximum model space distance between geometric entities at asserted c
onnectivities');
#697=UNCERTAINTY_MEASURE_WITH_UNIT(LENGTH_MEASURE(0.001),#700,
'DISTANCE_ACCURACY_VALUE',
'Maximum model space distance between geometric entities at asserted c
onnectivities');
#698=(
GEOMETRIC_REPRESENTATION_CONTEXT(3)
GLOBAL_UNCERTAINTY_ASSIGNED_CONTEXT((#696))
GLOBAL_UNIT_ASSIGNED_CONTEXT((#700,#702,#703))
REPRESENTATION_CONTEXT('','3D')
);
#699=(
GEOMETRIC_REPRESENTATION_CONTEXT(3)
GLOBAL_UNCERTAINTY_ASSIGNED_CONTEXT((#697))
GLOBAL_UNIT_ASSIGNED_CONTEXT((#700,#702,#703))
REPRESENTATION_CONTEXT('','3D')
);
#700=(
LENGTH_UNIT()
NAMED_UNIT(*)
SI_UNIT(.CENTI.,.METRE.)
);
#701=(
LENGTH_UNIT()
NAMED_UNIT(*)
SI_UNIT($,.METRE.)
);
#702=(
NAMED_UNIT(*)
PLANE_ANGLE_UNIT()
SI_UNIT($,.RADIAN.)
);
#703=(
NAMED_UNIT(*)
SI_UNIT($,.STERADIAN.)
SOLID_ANGLE_UNIT()
);
#704=SHAPE_DEFINITION_REPRESENTATION(#705,#706);
#705=PRODUCT_DEFINITION_SHAPE('',$,#708);
#706=SHAPE_REPRESENTATION('',(#432),#698);
#707=PRODUCT_DEFINITION_CONTEXT('part definition',#712,'design');
#708=PRODUCT_DEFINITION('Smart Bin - leg bracket',
'Smart Bin - leg bracket v2',#709,#707);
#709=PRODUCT_DEFINITION_FORMATION('',$,#714);
#710=PRODUCT_RELATED_PRODUCT_CATEGORY('Smart Bin - leg bracket v2',
'Smart Bin - leg bracket v2',(#714));
#711=APPLICATION_PROTOCOL_DEFINITION('international standard',
'automotive_design',2009,#712);
#712=APPLICATION_CONTEXT(
'Core Data for Automotive Mechanical Design Process');
#713=PRODUCT_CONTEXT('part definition',#712,'mechanical');
#714=PRODUCT('Smart Bin - leg bracket','Smart Bin - leg bracket v2',$,(#713));
#715=PRESENTATION_STYLE_ASSIGNMENT((#716));
#716=SURFACE_STYLE_USAGE(.BOTH.,#717);
#717=SURFACE_SIDE_STYLE('',(#718));
#718=SURFACE_STYLE_FILL_AREA(#719);
#719=FILL_AREA_STYLE('Steel - Satin',(#720));
#720=FILL_AREA_STYLE_COLOUR('Steel - Satin',#721);
#721=COLOUR_RGB('Steel - Satin',0.627450980392157,0.627450980392157,0.627450980392157);
ENDSEC;
END-ISO-10303-21;
