ISO-10303-21;
HEADER;
/* Generated by software containing ST-Developer
 * from STEP Tools, Inc. (www.steptools.com) 
 */

FILE_DESCRIPTION(
/* description */ (''),
/* implementation_level */ '2;1');

FILE_NAME(
/* name */ 'camera_head.step',
/* time_stamp */ '2026-08-11T12:15:00+10:00',
/* author */ (''),
/* organization */ (''),
/* preprocessor_version */ 'ST-DEVELOPER v20.1',
/* originating_system */ 'Autodesk Translation Framework v15.8.0.0',
/* authorisation */ '');

FILE_SCHEMA (('AUTOMOTIVE_DESIGN { 1 0 10303 214 3 1 1 }'));
ENDSEC;

DATA;
#10=MECHANICAL_DESIGN_GEOMETRIC_PRESENTATION_REPRESENTATION('',(#13),#362);
#11=SHAPE_REPRESENTATION_RELATIONSHIP('SRR','None',#369,#12);
#12=ADVANCED_BREP_SHAPE_REPRESENTATION('',(#14),#361);
#13=STYLED_ITEM('',(#378),#14);
#14=MANIFOLD_SOLID_BREP('camera head',#208);
#15=FACE_BOUND('',#43,.T.);
#16=FACE_BOUND('',#48,.T.);
#17=FACE_BOUND('',#50,.T.);
#18=FACE_BOUND('',#57,.T.);
#19=PLANE('',#225);
#20=PLANE('',#235);
#21=PLANE('',#236);
#22=PLANE('',#237);
#23=PLANE('',#238);
#24=PLANE('',#239);
#25=PLANE('',#240);
#26=PLANE('',#241);
#27=PLANE('',#242);
#28=FACE_OUTER_BOUND('',#41,.T.);
#29=FACE_OUTER_BOUND('',#42,.T.);
#30=FACE_OUTER_BOUND('',#44,.T.);
#31=FACE_OUTER_BOUND('',#45,.T.);
#32=FACE_OUTER_BOUND('',#46,.T.);
#33=FACE_OUTER_BOUND('',#47,.T.);
#34=FACE_OUTER_BOUND('',#49,.T.);
#35=FACE_OUTER_BOUND('',#51,.T.);
#36=FACE_OUTER_BOUND('',#52,.T.);
#37=FACE_OUTER_BOUND('',#53,.T.);
#38=FACE_OUTER_BOUND('',#54,.T.);
#39=FACE_OUTER_BOUND('',#55,.T.);
#40=FACE_OUTER_BOUND('',#56,.T.);
#41=EDGE_LOOP('',(#141,#142,#143,#144));
#42=EDGE_LOOP('',(#145));
#43=EDGE_LOOP('',(#146));
#44=EDGE_LOOP('',(#147,#148,#149,#150));
#45=EDGE_LOOP('',(#151,#152,#153,#154));
#46=EDGE_LOOP('',(#155,#156,#157,#158));
#47=EDGE_LOOP('',(#159));
#48=EDGE_LOOP('',(#160));
#49=EDGE_LOOP('',(#161,#162,#163,#164,#165,#166));
#50=EDGE_LOOP('',(#167));
#51=EDGE_LOOP('',(#168,#169,#170,#171));
#52=EDGE_LOOP('',(#172,#173,#174,#175));
#53=EDGE_LOOP('',(#176,#177,#178,#179));
#54=EDGE_LOOP('',(#180,#181,#182,#183,#184));
#55=EDGE_LOOP('',(#185));
#56=EDGE_LOOP('',(#186,#187,#188,#189));
#57=EDGE_LOOP('',(#190));
#58=LINE('',#309,#75);
#59=LINE('',#316,#76);
#60=LINE('',#322,#77);
#61=LINE('',#328,#78);
#62=LINE('',#333,#79);
#63=LINE('',#335,#80);
#64=LINE('',#337,#81);
#65=LINE('',#339,#82);
#66=LINE('',#340,#83);
#67=LINE('',#344,#84);
#68=LINE('',#345,#85);
#69=LINE('',#346,#86);
#70=LINE('',#349,#87);
#71=LINE('',#350,#88);
#72=LINE('',#353,#89);
#73=LINE('',#354,#90);
#74=LINE('',#356,#91);
#75=VECTOR('',#249,5.75);
#76=VECTOR('',#258,3.3);
#77=VECTOR('',#265,10.23);
#78=VECTOR('',#272,13.2);
#79=VECTOR('',#279,10.);
#80=VECTOR('',#280,10.);
#81=VECTOR('',#281,10.);
#82=VECTOR('',#282,10.);
#83=VECTOR('',#283,10.);
#84=VECTOR('',#286,10.);
#85=VECTOR('',#287,10.);
#86=VECTOR('',#288,10.);
#87=VECTOR('',#291,10.);
#88=VECTOR('',#292,10.);
#89=VECTOR('',#295,10.);
#90=VECTOR('',#296,10.);
#91=VECTOR('',#299,10.);
#92=CIRCLE('',#223,5.75);
#93=CIRCLE('',#224,5.75);
#94=CIRCLE('',#226,3.3);
#95=CIRCLE('',#228,3.3);
#96=CIRCLE('',#230,10.23);
#97=CIRCLE('',#231,10.23);
#98=CIRCLE('',#233,13.2);
#99=CIRCLE('',#234,13.2);
#100=VERTEX_POINT('',#306);
#101=VERTEX_POINT('',#308);
#102=VERTEX_POINT('',#312);
#103=VERTEX_POINT('',#315);
#104=VERTEX_POINT('',#319);
#105=VERTEX_POINT('',#321);
#106=VERTEX_POINT('',#325);
#107=VERTEX_POINT('',#327);
#108=VERTEX_POINT('',#332);
#109=VERTEX_POINT('',#334);
#110=VERTEX_POINT('',#336);
#111=VERTEX_POINT('',#338);
#112=VERTEX_POINT('',#342);
#113=VERTEX_POINT('',#343);
#114=VERTEX_POINT('',#348);
#115=VERTEX_POINT('',#352);
#116=EDGE_CURVE('',#100,#100,#92,.T.);
#117=EDGE_CURVE('',#100,#101,#58,.T.);
#118=EDGE_CURVE('',#101,#101,#93,.T.);
#119=EDGE_CURVE('',#102,#102,#94,.T.);
#120=EDGE_CURVE('',#102,#103,#59,.T.);
#121=EDGE_CURVE('',#103,#103,#95,.T.);
#122=EDGE_CURVE('',#104,#104,#96,.T.);
#123=EDGE_CURVE('',#104,#105,#60,.T.);
#124=EDGE_CURVE('',#105,#105,#97,.T.);
#125=EDGE_CURVE('',#106,#106,#98,.T.);
#126=EDGE_CURVE('',#106,#107,#61,.T.);
#127=EDGE_CURVE('',#107,#107,#99,.T.);
#128=EDGE_CURVE('',#108,#107,#62,.T.);
#129=EDGE_CURVE('',#107,#109,#63,.T.);
#130=EDGE_CURVE('',#109,#110,#64,.T.);
#131=EDGE_CURVE('',#110,#111,#65,.T.);
#132=EDGE_CURVE('',#111,#108,#66,.T.);
#133=EDGE_CURVE('',#112,#113,#67,.T.);
#134=EDGE_CURVE('',#113,#108,#68,.T.);
#135=EDGE_CURVE('',#112,#111,#69,.T.);
#136=EDGE_CURVE('',#114,#112,#70,.T.);
#137=EDGE_CURVE('',#114,#110,#71,.T.);
#138=EDGE_CURVE('',#115,#114,#72,.T.);
#139=EDGE_CURVE('',#115,#109,#73,.T.);
#140=EDGE_CURVE('',#113,#115,#74,.T.);
#141=ORIENTED_EDGE('',*,*,#116,.F.);
#142=ORIENTED_EDGE('',*,*,#117,.T.);
#143=ORIENTED_EDGE('',*,*,#118,.T.);
#144=ORIENTED_EDGE('',*,*,#117,.F.);
#145=ORIENTED_EDGE('',*,*,#118,.F.);
#146=ORIENTED_EDGE('',*,*,#119,.F.);
#147=ORIENTED_EDGE('',*,*,#119,.T.);
#148=ORIENTED_EDGE('',*,*,#120,.T.);
#149=ORIENTED_EDGE('',*,*,#121,.F.);
#150=ORIENTED_EDGE('',*,*,#120,.F.);
#151=ORIENTED_EDGE('',*,*,#122,.F.);
#152=ORIENTED_EDGE('',*,*,#123,.T.);
#153=ORIENTED_EDGE('',*,*,#124,.F.);
#154=ORIENTED_EDGE('',*,*,#123,.F.);
#155=ORIENTED_EDGE('',*,*,#125,.F.);
#156=ORIENTED_EDGE('',*,*,#126,.T.);
#157=ORIENTED_EDGE('',*,*,#127,.F.);
#158=ORIENTED_EDGE('',*,*,#126,.F.);
#159=ORIENTED_EDGE('',*,*,#125,.T.);
#160=ORIENTED_EDGE('',*,*,#122,.T.);
#161=ORIENTED_EDGE('',*,*,#128,.T.);
#162=ORIENTED_EDGE('',*,*,#127,.T.);
#163=ORIENTED_EDGE('',*,*,#129,.T.);
#164=ORIENTED_EDGE('',*,*,#130,.T.);
#165=ORIENTED_EDGE('',*,*,#131,.T.);
#166=ORIENTED_EDGE('',*,*,#132,.T.);
#167=ORIENTED_EDGE('',*,*,#121,.T.);
#168=ORIENTED_EDGE('',*,*,#133,.T.);
#169=ORIENTED_EDGE('',*,*,#134,.T.);
#170=ORIENTED_EDGE('',*,*,#132,.F.);
#171=ORIENTED_EDGE('',*,*,#135,.F.);
#172=ORIENTED_EDGE('',*,*,#136,.T.);
#173=ORIENTED_EDGE('',*,*,#135,.T.);
#174=ORIENTED_EDGE('',*,*,#131,.F.);
#175=ORIENTED_EDGE('',*,*,#137,.F.);
#176=ORIENTED_EDGE('',*,*,#138,.T.);
#177=ORIENTED_EDGE('',*,*,#137,.T.);
#178=ORIENTED_EDGE('',*,*,#130,.F.);
#179=ORIENTED_EDGE('',*,*,#139,.F.);
#180=ORIENTED_EDGE('',*,*,#128,.F.);
#181=ORIENTED_EDGE('',*,*,#134,.F.);
#182=ORIENTED_EDGE('',*,*,#140,.T.);
#183=ORIENTED_EDGE('',*,*,#139,.T.);
#184=ORIENTED_EDGE('',*,*,#129,.F.);
#185=ORIENTED_EDGE('',*,*,#124,.T.);
#186=ORIENTED_EDGE('',*,*,#140,.F.);
#187=ORIENTED_EDGE('',*,*,#133,.F.);
#188=ORIENTED_EDGE('',*,*,#136,.F.);
#189=ORIENTED_EDGE('',*,*,#138,.F.);
#190=ORIENTED_EDGE('',*,*,#116,.T.);
#191=CYLINDRICAL_SURFACE('',#222,5.75);
#192=CYLINDRICAL_SURFACE('',#227,3.3);
#193=CYLINDRICAL_SURFACE('',#229,10.23);
#194=CYLINDRICAL_SURFACE('',#232,13.2);
#195=ADVANCED_FACE('',(#28),#191,.F.);
#196=ADVANCED_FACE('',(#29,#15),#19,.F.);
#197=ADVANCED_FACE('',(#30),#192,.F.);
#198=ADVANCED_FACE('',(#31),#193,.F.);
#199=ADVANCED_FACE('',(#32),#194,.T.);
#200=ADVANCED_FACE('',(#33,#16),#20,.T.);
#201=ADVANCED_FACE('',(#34,#17),#21,.T.);
#202=ADVANCED_FACE('',(#35),#22,.T.);
#203=ADVANCED_FACE('',(#36),#23,.T.);
#204=ADVANCED_FACE('',(#37),#24,.T.);
#205=ADVANCED_FACE('',(#38),#25,.T.);
#206=ADVANCED_FACE('',(#39),#26,.T.);
#207=ADVANCED_FACE('',(#40,#18),#27,.F.);
#208=CLOSED_SHELL('',(#195,#196,#197,#198,#199,#200,#201,#202,#203,#204,
#205,#206,#207));
#209=DERIVED_UNIT_ELEMENT(#211,1.);
#210=DERIVED_UNIT_ELEMENT(#364,-3.);
#211=(
MASS_UNIT()
NAMED_UNIT(*)
SI_UNIT(.KILO.,.GRAM.)
);
#212=DERIVED_UNIT((#209,#210));
#213=MEASURE_REPRESENTATION_ITEM('density measure',
POSITIVE_RATIO_MEASURE(7850.),#212);
#214=PROPERTY_DEFINITION_REPRESENTATION(#219,#216);
#215=PROPERTY_DEFINITION_REPRESENTATION(#220,#217);
#216=REPRESENTATION('material name',(#218),#361);
#217=REPRESENTATION('density',(#213),#361);
#218=DESCRIPTIVE_REPRESENTATION_ITEM('Steel','Steel');
#219=PROPERTY_DEFINITION('material property','material name',#371);
#220=PROPERTY_DEFINITION('material property','density of part',#371);
#221=AXIS2_PLACEMENT_3D('',#304,#243,#244);
#222=AXIS2_PLACEMENT_3D('',#305,#245,#246);
#223=AXIS2_PLACEMENT_3D('',#307,#247,#248);
#224=AXIS2_PLACEMENT_3D('',#310,#250,#251);
#225=AXIS2_PLACEMENT_3D('',#311,#252,#253);
#226=AXIS2_PLACEMENT_3D('',#313,#254,#255);
#227=AXIS2_PLACEMENT_3D('',#314,#256,#257);
#228=AXIS2_PLACEMENT_3D('',#317,#259,#260);
#229=AXIS2_PLACEMENT_3D('',#318,#261,#262);
#230=AXIS2_PLACEMENT_3D('',#320,#263,#264);
#231=AXIS2_PLACEMENT_3D('',#323,#266,#267);
#232=AXIS2_PLACEMENT_3D('',#324,#268,#269);
#233=AXIS2_PLACEMENT_3D('',#326,#270,#271);
#234=AXIS2_PLACEMENT_3D('',#329,#273,#274);
#235=AXIS2_PLACEMENT_3D('',#330,#275,#276);
#236=AXIS2_PLACEMENT_3D('',#331,#277,#278);
#237=AXIS2_PLACEMENT_3D('',#341,#284,#285);
#238=AXIS2_PLACEMENT_3D('',#347,#289,#290);
#239=AXIS2_PLACEMENT_3D('',#351,#293,#294);
#240=AXIS2_PLACEMENT_3D('',#355,#297,#298);
#241=AXIS2_PLACEMENT_3D('',#357,#300,#301);
#242=AXIS2_PLACEMENT_3D('',#358,#302,#303);
#243=DIRECTION('axis',(0.,0.,1.));
#244=DIRECTION('refdir',(1.,0.,0.));
#245=DIRECTION('center_axis',(0.,0.,1.));
#246=DIRECTION('ref_axis',(1.,0.,0.));
#247=DIRECTION('center_axis',(0.,0.,1.));
#248=DIRECTION('ref_axis',(1.,0.,0.));
#249=DIRECTION('',(0.,0.,1.));
#250=DIRECTION('center_axis',(0.,0.,1.));
#251=DIRECTION('ref_axis',(1.,0.,0.));
#252=DIRECTION('center_axis',(0.,0.,1.));
#253=DIRECTION('ref_axis',(1.,0.,0.));
#254=DIRECTION('center_axis',(0.,0.,-1.));
#255=DIRECTION('ref_axis',(1.,0.,0.));
#256=DIRECTION('center_axis',(0.,0.,1.));
#257=DIRECTION('ref_axis',(1.,0.,0.));
#258=DIRECTION('',(0.,0.,1.));
#259=DIRECTION('center_axis',(0.,0.,-1.));
#260=DIRECTION('ref_axis',(1.,0.,0.));
#261=DIRECTION('center_axis',(0.,0.,1.));
#262=DIRECTION('ref_axis',(1.,0.,0.));
#263=DIRECTION('center_axis',(0.,0.,-1.));
#264=DIRECTION('ref_axis',(1.,0.,0.));
#265=DIRECTION('',(0.,0.,-1.));
#266=DIRECTION('center_axis',(0.,0.,1.));
#267=DIRECTION('ref_axis',(1.,0.,0.));
#268=DIRECTION('center_axis',(0.,0.,1.));
#269=DIRECTION('ref_axis',(1.,0.,0.));
#270=DIRECTION('center_axis',(0.,0.,1.));
#271=DIRECTION('ref_axis',(1.,0.,0.));
#272=DIRECTION('',(0.,0.,-1.));
#273=DIRECTION('center_axis',(0.,0.,-1.));
#274=DIRECTION('ref_axis',(1.,0.,0.));
#275=DIRECTION('center_axis',(0.,0.,1.));
#276=DIRECTION('ref_axis',(1.,0.,0.));
#277=DIRECTION('center_axis',(0.,0.,1.));
#278=DIRECTION('ref_axis',(1.,0.,0.));
#279=DIRECTION('',(0.,-1.,0.));
#280=DIRECTION('',(0.,-1.,0.));
#281=DIRECTION('',(1.,0.,0.));
#282=DIRECTION('',(-1.38777878078145E-16,1.,0.));
#283=DIRECTION('',(-1.,0.,0.));
#284=DIRECTION('center_axis',(0.,1.,0.));
#285=DIRECTION('ref_axis',(-1.,0.,0.));
#286=DIRECTION('',(-1.,0.,0.));
#287=DIRECTION('',(0.,0.,1.));
#288=DIRECTION('',(0.,0.,1.));
#289=DIRECTION('center_axis',(1.,1.38777878078145E-16,0.));
#290=DIRECTION('ref_axis',(-1.38777878078145E-16,1.,0.));
#291=DIRECTION('',(-1.38777878078145E-16,1.,0.));
#292=DIRECTION('',(0.,0.,1.));
#293=DIRECTION('center_axis',(0.,-1.,0.));
#294=DIRECTION('ref_axis',(1.,0.,0.));
#295=DIRECTION('',(1.,0.,0.));
#296=DIRECTION('',(0.,0.,1.));
#297=DIRECTION('center_axis',(-1.,0.,0.));
#298=DIRECTION('ref_axis',(0.,-1.,0.));
#299=DIRECTION('',(0.,-1.,0.));
#300=DIRECTION('center_axis',(0.,0.,1.));
#301=DIRECTION('ref_axis',(1.,0.,0.));
#302=DIRECTION('center_axis',(0.,0.,1.));
#303=DIRECTION('ref_axis',(1.,0.,0.));
#304=CARTESIAN_POINT('',(0.,0.,0.));
#305=CARTESIAN_POINT('Origin',(20.,0.,-1.));
#306=CARTESIAN_POINT('',(14.25,-7.04171909509728E-16,0.));
#307=CARTESIAN_POINT('Origin',(20.,0.,0.));
#308=CARTESIAN_POINT('',(14.25,-7.04171909509728E-16,4.));
#309=CARTESIAN_POINT('',(14.25,-7.04171909509728E-16,-1.));
#310=CARTESIAN_POINT('Origin',(20.,0.,4.));
#311=CARTESIAN_POINT('Origin',(20.,0.,4.));
#312=CARTESIAN_POINT('',(16.7,4.04133443718627E-16,4.));
#313=CARTESIAN_POINT('Origin',(20.,0.,4.));
#314=CARTESIAN_POINT('Origin',(20.,0.,-1.));
#315=CARTESIAN_POINT('',(16.7,4.04133443718627E-16,8.));
#316=CARTESIAN_POINT('',(16.7,-4.04133443718627E-16,-1.));
#317=CARTESIAN_POINT('Origin',(20.,0.,8.));
#318=CARTESIAN_POINT('Origin',(0.,0.,0.));
#319=CARTESIAN_POINT('',(-10.23,-1.25281367552774E-15,38.));
#320=CARTESIAN_POINT('Origin',(0.,0.,38.));
#321=CARTESIAN_POINT('',(-10.23,-1.25281367552774E-15,8.));
#322=CARTESIAN_POINT('',(-10.23,-1.25281367552774E-15,0.));
#323=CARTESIAN_POINT('Origin',(0.,0.,8.));
#324=CARTESIAN_POINT('Origin',(0.,0.,0.));
#325=CARTESIAN_POINT('',(-13.2,-1.61653377487451E-15,38.));
#326=CARTESIAN_POINT('Origin',(0.,0.,38.));
#327=CARTESIAN_POINT('',(-13.2,0.,8.));
#328=CARTESIAN_POINT('',(-13.2,-1.61653377487451E-15,0.));
#329=CARTESIAN_POINT('Origin',(0.,0.,8.));
#330=CARTESIAN_POINT('Origin',(0.,0.,38.));
#331=CARTESIAN_POINT('Origin',(11.8,0.,8.));
#332=CARTESIAN_POINT('',(-13.2,16.,8.));
#333=CARTESIAN_POINT('',(-13.2,16.,8.));
#334=CARTESIAN_POINT('',(-13.2,-16.,8.));
#335=CARTESIAN_POINT('',(-13.2,16.,8.));
#336=CARTESIAN_POINT('',(36.8,-16.,8.));
#337=CARTESIAN_POINT('',(-13.2,-16.,8.));
#338=CARTESIAN_POINT('',(36.8,16.,8.));
#339=CARTESIAN_POINT('',(36.8,-16.,8.));
#340=CARTESIAN_POINT('',(36.8,16.,8.));
#341=CARTESIAN_POINT('Origin',(36.8,16.,0.));
#342=CARTESIAN_POINT('',(36.8,16.,0.));
#343=CARTESIAN_POINT('',(-13.2,16.,0.));
#344=CARTESIAN_POINT('',(36.8,16.,0.));
#345=CARTESIAN_POINT('',(-13.2,16.,0.));
#346=CARTESIAN_POINT('',(36.8,16.,0.));
#347=CARTESIAN_POINT('Origin',(36.8,-16.,0.));
#348=CARTESIAN_POINT('',(36.8,-16.,0.));
#349=CARTESIAN_POINT('',(36.8,-16.,0.));
#350=CARTESIAN_POINT('',(36.8,-16.,0.));
#351=CARTESIAN_POINT('Origin',(-13.2,-16.,0.));
#352=CARTESIAN_POINT('',(-13.2,-16.,0.));
#353=CARTESIAN_POINT('',(-13.2,-16.,0.));
#354=CARTESIAN_POINT('',(-13.2,-16.,0.));
#355=CARTESIAN_POINT('Origin',(-13.2,16.,0.));
#356=CARTESIAN_POINT('',(-13.2,16.,0.));
#357=CARTESIAN_POINT('Origin',(11.8,0.,8.));
#358=CARTESIAN_POINT('Origin',(11.8,0.,0.));
#359=UNCERTAINTY_MEASURE_WITH_UNIT(LENGTH_MEASURE(0.01),#363,
'DISTANCE_ACCURACY_VALUE',
'Maximum model space distance between geometric entities at asserted c
onnectivities');
#360=UNCERTAINTY_MEASURE_WITH_UNIT(LENGTH_MEASURE(0.01),#363,
'DISTANCE_ACCURACY_VALUE',
'Maximum model space distance between geometric entities at asserted c
onnectivities');
#361=(
GEOMETRIC_REPRESENTATION_CONTEXT(3)
GLOBAL_UNCERTAINTY_ASSIGNED_CONTEXT((#359))
GLOBAL_UNIT_ASSIGNED_CONTEXT((#363,#365,#366))
REPRESENTATION_CONTEXT('','3D')
);
#362=(
GEOMETRIC_REPRESENTATION_CONTEXT(3)
GLOBAL_UNCERTAINTY_ASSIGNED_CONTEXT((#360))
GLOBAL_UNIT_ASSIGNED_CONTEXT((#363,#365,#366))
REPRESENTATION_CONTEXT('','3D')
);
#363=(
LENGTH_UNIT()
NAMED_UNIT(*)
SI_UNIT(.MILLI.,.METRE.)
);
#364=(
LENGTH_UNIT()
NAMED_UNIT(*)
SI_UNIT($,.METRE.)
);
#365=(
NAMED_UNIT(*)
PLANE_ANGLE_UNIT()
SI_UNIT($,.RADIAN.)
);
#366=(
NAMED_UNIT(*)
SI_UNIT($,.STERADIAN.)
SOLID_ANGLE_UNIT()
);
#367=SHAPE_DEFINITION_REPRESENTATION(#368,#369);
#368=PRODUCT_DEFINITION_SHAPE('',$,#371);
#369=SHAPE_REPRESENTATION('',(#221),#361);
#370=PRODUCT_DEFINITION_CONTEXT('part definition',#375,'design');
#371=PRODUCT_DEFINITION('Smart Bin - camera head',
'Smart Bin - camera head v2',#372,#370);
#372=PRODUCT_DEFINITION_FORMATION('',$,#377);
#373=PRODUCT_RELATED_PRODUCT_CATEGORY('Smart Bin - camera head v2',
'Smart Bin - camera head v2',(#377));
#374=APPLICATION_PROTOCOL_DEFINITION('international standard',
'automotive_design',2009,#375);
#375=APPLICATION_CONTEXT(
'Core Data for Automotive Mechanical Design Process');
#376=PRODUCT_CONTEXT('part definition',#375,'mechanical');
#377=PRODUCT('Smart Bin - camera head','Smart Bin - camera head v2',$,(#376));
#378=PRESENTATION_STYLE_ASSIGNMENT((#379));
#379=SURFACE_STYLE_USAGE(.BOTH.,#380);
#380=SURFACE_SIDE_STYLE('',(#381));
#381=SURFACE_STYLE_FILL_AREA(#382);
#382=FILL_AREA_STYLE('Steel - Satin',(#383));
#383=FILL_AREA_STYLE_COLOUR('Steel - Satin',#384);
#384=COLOUR_RGB('Steel - Satin',0.627450980392157,0.627450980392157,0.627450980392157);
ENDSEC;
END-ISO-10303-21;
