ISO-10303-21;
HEADER;
/* Generated by software containing ST-Developer
 * from STEP Tools, Inc. (www.steptools.com) 
 */

FILE_DESCRIPTION(
/* description */ (''),
/* implementation_level */ '2;1');

FILE_NAME(
/* name */ 'camera_clamp.step',
/* time_stamp */ '2026-08-11T19:09:28+10:00',
/* author */ (''),
/* organization */ (''),
/* preprocessor_version */ 'ST-DEVELOPER v20.1',
/* originating_system */ 'Autodesk Translation Framework v15.8.0.0',
/* authorisation */ '');

FILE_SCHEMA (('AUTOMOTIVE_DESIGN { 1 0 10303 214 3 1 1 }'));
ENDSEC;

DATA;
#10=MECHANICAL_DESIGN_GEOMETRIC_PRESENTATION_REPRESENTATION('',(#13),#1318);
#11=SHAPE_REPRESENTATION_RELATIONSHIP('SRR','None',#1325,#12);
#12=ADVANCED_BREP_SHAPE_REPRESENTATION('',(#14),#1317);
#13=STYLED_ITEM('',(#1334),#14);
#14=MANIFOLD_SOLID_BREP('clamp',#790);
#15=FACE_BOUND('',#87,.T.);
#16=FACE_BOUND('',#91,.T.);
#17=FACE_BOUND('',#104,.T.);
#18=FACE_BOUND('',#107,.T.);
#19=FACE_BOUND('',#112,.T.);
#20=FACE_BOUND('',#116,.T.);
#21=CYLINDRICAL_SURFACE('',#806,1.2725);
#22=CYLINDRICAL_SURFACE('',#813,1.2725);
#23=CYLINDRICAL_SURFACE('',#822,1.32);
#24=CYLINDRICAL_SURFACE('',#831,1.023);
#25=CYLINDRICAL_SURFACE('',#836,0.21);
#26=CYLINDRICAL_SURFACE('',#841,0.3);
#27=CYLINDRICAL_SURFACE('',#854,0.21);
#28=CYLINDRICAL_SURFACE('',#857,0.5);
#29=CYLINDRICAL_SURFACE('',#862,1.0225);
#30=FACE_OUTER_BOUND('',#73,.T.);
#31=FACE_OUTER_BOUND('',#74,.T.);
#32=FACE_OUTER_BOUND('',#75,.T.);
#33=FACE_OUTER_BOUND('',#76,.T.);
#34=FACE_OUTER_BOUND('',#77,.T.);
#35=FACE_OUTER_BOUND('',#78,.T.);
#36=FACE_OUTER_BOUND('',#79,.T.);
#37=FACE_OUTER_BOUND('',#80,.T.);
#38=FACE_OUTER_BOUND('',#81,.T.);
#39=FACE_OUTER_BOUND('',#82,.T.);
#40=FACE_OUTER_BOUND('',#83,.T.);
#41=FACE_OUTER_BOUND('',#84,.T.);
#42=FACE_OUTER_BOUND('',#85,.T.);
#43=FACE_OUTER_BOUND('',#86,.T.);
#44=FACE_OUTER_BOUND('',#88,.T.);
#45=FACE_OUTER_BOUND('',#89,.T.);
#46=FACE_OUTER_BOUND('',#90,.T.);
#47=FACE_OUTER_BOUND('',#92,.T.);
#48=FACE_OUTER_BOUND('',#93,.T.);
#49=FACE_OUTER_BOUND('',#94,.T.);
#50=FACE_OUTER_BOUND('',#95,.T.);
#51=FACE_OUTER_BOUND('',#96,.T.);
#52=FACE_OUTER_BOUND('',#97,.T.);
#53=FACE_OUTER_BOUND('',#98,.T.);
#54=FACE_OUTER_BOUND('',#99,.T.);
#55=FACE_OUTER_BOUND('',#100,.T.);
#56=FACE_OUTER_BOUND('',#101,.T.);
#57=FACE_OUTER_BOUND('',#102,.T.);
#58=FACE_OUTER_BOUND('',#103,.T.);
#59=FACE_OUTER_BOUND('',#105,.T.);
#60=FACE_OUTER_BOUND('',#106,.T.);
#61=FACE_OUTER_BOUND('',#108,.T.);
#62=FACE_OUTER_BOUND('',#109,.T.);
#63=FACE_OUTER_BOUND('',#110,.T.);
#64=FACE_OUTER_BOUND('',#111,.T.);
#65=FACE_OUTER_BOUND('',#113,.T.);
#66=FACE_OUTER_BOUND('',#114,.T.);
#67=FACE_OUTER_BOUND('',#115,.T.);
#68=FACE_OUTER_BOUND('',#117,.T.);
#69=FACE_OUTER_BOUND('',#118,.T.);
#70=FACE_OUTER_BOUND('',#119,.T.);
#71=FACE_OUTER_BOUND('',#120,.T.);
#72=FACE_OUTER_BOUND('',#121,.T.);
#73=EDGE_LOOP('',(#495,#496,#497,#498));
#74=EDGE_LOOP('',(#499,#500,#501,#502,#503));
#75=EDGE_LOOP('',(#504,#505,#506,#507,#508,#509));
#76=EDGE_LOOP('',(#510,#511,#512,#513));
#77=EDGE_LOOP('',(#514,#515,#516,#517,#518,#519));
#78=EDGE_LOOP('',(#520,#521,#522,#523,#524));
#79=EDGE_LOOP('',(#525,#526,#527,#528));
#80=EDGE_LOOP('',(#529,#530,#531,#532,#533));
#81=EDGE_LOOP('',(#534,#535,#536,#537));
#82=EDGE_LOOP('',(#538,#539,#540,#541));
#83=EDGE_LOOP('',(#542,#543,#544,#545));
#84=EDGE_LOOP('',(#546,#547,#548,#549,#550,#551));
#85=EDGE_LOOP('',(#552,#553,#554,#555,#556));
#86=EDGE_LOOP('',(#557,#558,#559,#560,#561,#562,#563,#564,#565,#566));
#87=EDGE_LOOP('',(#567,#568,#569,#570));
#88=EDGE_LOOP('',(#571,#572,#573,#574,#575));
#89=EDGE_LOOP('',(#576,#577,#578,#579));
#90=EDGE_LOOP('',(#580));
#91=EDGE_LOOP('',(#581));
#92=EDGE_LOOP('',(#582));
#93=EDGE_LOOP('',(#583,#584,#585,#586));
#94=EDGE_LOOP('',(#587,#588,#589,#590));
#95=EDGE_LOOP('',(#591,#592,#593,#594));
#96=EDGE_LOOP('',(#595,#596,#597,#598));
#97=EDGE_LOOP('',(#599,#600,#601,#602,#603,#604,#605,#606));
#98=EDGE_LOOP('',(#607,#608,#609,#610,#611,#612,#613));
#99=EDGE_LOOP('',(#614,#615,#616,#617,#618,#619,#620,#621));
#100=EDGE_LOOP('',(#622,#623,#624,#625,#626,#627,#628,#629,#630,#631));
#101=EDGE_LOOP('',(#632,#633,#634,#635));
#102=EDGE_LOOP('',(#636,#637,#638,#639));
#103=EDGE_LOOP('',(#640,#641,#642,#643));
#104=EDGE_LOOP('',(#644));
#105=EDGE_LOOP('',(#645,#646,#647,#648));
#106=EDGE_LOOP('',(#649,#650,#651,#652,#653,#654,#655,#656));
#107=EDGE_LOOP('',(#657));
#108=EDGE_LOOP('',(#658,#659,#660,#661,#662,#663,#664));
#109=EDGE_LOOP('',(#665,#666,#667,#668));
#110=EDGE_LOOP('',(#669,#670,#671,#672,#673,#674));
#111=EDGE_LOOP('',(#675));
#112=EDGE_LOOP('',(#676));
#113=EDGE_LOOP('',(#677,#678,#679,#680));
#114=EDGE_LOOP('',(#681,#682,#683,#684));
#115=EDGE_LOOP('',(#685,#686,#687,#688));
#116=EDGE_LOOP('',(#689));
#117=EDGE_LOOP('',(#690,#691,#692,#693));
#118=EDGE_LOOP('',(#694,#695,#696,#697));
#119=EDGE_LOOP('',(#698,#699,#700,#701,#702));
#120=EDGE_LOOP('',(#703,#704,#705,#706,#707));
#121=EDGE_LOOP('',(#708,#709,#710,#711,#712));
#122=CIRCLE('',#805,1.2725);
#123=CIRCLE('',#807,1.2725);
#124=CIRCLE('',#808,1.2725);
#125=CIRCLE('',#811,1.2725);
#126=CIRCLE('',#814,1.2725);
#127=CIRCLE('',#815,1.2725);
#128=CIRCLE('',#820,0.5);
#129=CIRCLE('',#823,1.32);
#130=CIRCLE('',#824,1.32);
#131=CIRCLE('',#825,1.32);
#132=CIRCLE('',#826,1.32);
#133=CIRCLE('',#829,1.0225);
#134=CIRCLE('',#832,1.023);
#135=CIRCLE('',#833,1.023);
#136=CIRCLE('',#837,0.21);
#137=CIRCLE('',#838,0.21);
#138=CIRCLE('',#842,0.3);
#139=CIRCLE('',#843,0.3);
#140=CIRCLE('',#855,0.21);
#141=CIRCLE('',#856,0.21);
#142=CIRCLE('',#858,0.5);
#143=CIRCLE('',#859,0.5);
#144=CIRCLE('',#860,0.5);
#145=CIRCLE('',#863,1.0225);
#146=LINE('',#1096,#231);
#147=LINE('',#1100,#232);
#148=LINE('',#1101,#233);
#149=LINE('',#1106,#234);
#150=LINE('',#1109,#235);
#151=LINE('',#1112,#236);
#152=LINE('',#1114,#237);
#153=LINE('',#1116,#238);
#154=LINE('',#1117,#239);
#155=LINE('',#1121,#240);
#156=LINE('',#1123,#241);
#157=LINE('',#1126,#242);
#158=LINE('',#1130,#243);
#159=LINE('',#1131,#244);
#160=LINE('',#1133,#245);
#161=LINE('',#1135,#246);
#162=LINE('',#1136,#247);
#163=LINE('',#1141,#248);
#164=LINE('',#1145,#249);
#165=LINE('',#1147,#250);
#166=LINE('',#1148,#251);
#167=LINE('',#1151,#252);
#168=LINE('',#1153,#253);
#169=LINE('',#1155,#254);
#170=LINE('',#1156,#255);
#171=LINE('',#1158,#256);
#172=LINE('',#1159,#257);
#173=LINE('',#1164,#258);
#174=LINE('',#1165,#259);
#175=LINE('',#1173,#260);
#176=LINE('',#1178,#261);
#177=LINE('',#1180,#262);
#178=LINE('',#1181,#263);
#179=LINE('',#1183,#264);
#180=LINE('',#1184,#265);
#181=LINE('',#1185,#266);
#182=LINE('',#1188,#267);
#183=LINE('',#1190,#268);
#184=LINE('',#1193,#269);
#185=LINE('',#1195,#270);
#186=LINE('',#1200,#271);
#187=LINE('',#1208,#272);
#188=LINE('',#1213,#273);
#189=LINE('',#1215,#274);
#190=LINE('',#1217,#275);
#191=LINE('',#1218,#276);
#192=LINE('',#1222,#277);
#193=LINE('',#1224,#278);
#194=LINE('',#1226,#279);
#195=LINE('',#1227,#280);
#196=LINE('',#1232,#281);
#197=LINE('',#1233,#282);
#198=LINE('',#1236,#283);
#199=LINE('',#1238,#284);
#200=LINE('',#1240,#285);
#201=LINE('',#1241,#286);
#202=LINE('',#1244,#287);
#203=LINE('',#1245,#288);
#204=LINE('',#1247,#289);
#205=LINE('',#1248,#290);
#206=LINE('',#1251,#291);
#207=LINE('',#1253,#292);
#208=LINE('',#1255,#293);
#209=LINE('',#1257,#294);
#210=LINE('',#1259,#295);
#211=LINE('',#1260,#296);
#212=LINE('',#1263,#297);
#213=LINE('',#1265,#298);
#214=LINE('',#1266,#299);
#215=LINE('',#1269,#300);
#216=LINE('',#1271,#301);
#217=LINE('',#1272,#302);
#218=LINE('',#1274,#303);
#219=LINE('',#1276,#304);
#220=LINE('',#1278,#305);
#221=LINE('',#1284,#306);
#222=LINE('',#1290,#307);
#223=LINE('',#1296,#308);
#224=LINE('',#1299,#309);
#225=LINE('',#1302,#310);
#226=LINE('',#1303,#311);
#227=LINE('',#1306,#312);
#228=LINE('',#1307,#313);
#229=LINE('',#1309,#314);
#230=LINE('',#1313,#315);
#231=VECTOR('',#875,1.);
#232=VECTOR('',#878,1.);
#233=VECTOR('',#879,1.);
#234=VECTOR('',#884,1.);
#235=VECTOR('',#887,1.);
#236=VECTOR('',#890,1.);
#237=VECTOR('',#891,1.);
#238=VECTOR('',#892,1.);
#239=VECTOR('',#893,1.);
#240=VECTOR('',#896,1.);
#241=VECTOR('',#897,1.);
#242=VECTOR('',#900,1.);
#243=VECTOR('',#903,1.);
#244=VECTOR('',#904,1.);
#245=VECTOR('',#905,1.);
#246=VECTOR('',#906,1.);
#247=VECTOR('',#907,1.);
#248=VECTOR('',#912,1.);
#249=VECTOR('',#917,1.);
#250=VECTOR('',#918,1.);
#251=VECTOR('',#919,1.);
#252=VECTOR('',#922,1.);
#253=VECTOR('',#923,1.);
#254=VECTOR('',#924,1.);
#255=VECTOR('',#925,1.);
#256=VECTOR('',#928,1.);
#257=VECTOR('',#929,1.);
#258=VECTOR('',#936,1.);
#259=VECTOR('',#937,1.);
#260=VECTOR('',#944,1.32);
#261=VECTOR('',#951,1.);
#262=VECTOR('',#952,1.);
#263=VECTOR('',#953,1.);
#264=VECTOR('',#956,1.);
#265=VECTOR('',#957,1.);
#266=VECTOR('',#958,1.);
#267=VECTOR('',#959,1.);
#268=VECTOR('',#960,1.);
#269=VECTOR('',#963,1.);
#270=VECTOR('',#966,1.);
#271=VECTOR('',#971,1.023);
#272=VECTOR('',#982,0.21);
#273=VECTOR('',#987,1.);
#274=VECTOR('',#988,1.);
#275=VECTOR('',#989,1.);
#276=VECTOR('',#990,1.);
#277=VECTOR('',#993,1.);
#278=VECTOR('',#994,1.);
#279=VECTOR('',#995,1.);
#280=VECTOR('',#996,1.);
#281=VECTOR('',#1005,1.);
#282=VECTOR('',#1006,1.);
#283=VECTOR('',#1009,1.);
#284=VECTOR('',#1010,1.);
#285=VECTOR('',#1011,1.);
#286=VECTOR('',#1012,1.);
#287=VECTOR('',#1015,1.);
#288=VECTOR('',#1016,1.);
#289=VECTOR('',#1017,1.);
#290=VECTOR('',#1018,1.);
#291=VECTOR('',#1021,1.);
#292=VECTOR('',#1022,1.);
#293=VECTOR('',#1023,1.);
#294=VECTOR('',#1024,1.);
#295=VECTOR('',#1025,1.);
#296=VECTOR('',#1026,1.);
#297=VECTOR('',#1029,1.);
#298=VECTOR('',#1030,1.);
#299=VECTOR('',#1031,1.);
#300=VECTOR('',#1034,1.);
#301=VECTOR('',#1035,1.);
#302=VECTOR('',#1036,1.);
#303=VECTOR('',#1039,1.);
#304=VECTOR('',#1042,1.);
#305=VECTOR('',#1045,1.);
#306=VECTOR('',#1052,0.21);
#307=VECTOR('',#1059,0.5);
#308=VECTOR('',#1068,1.);
#309=VECTOR('',#1071,1.);
#310=VECTOR('',#1074,1.);
#311=VECTOR('',#1075,1.);
#312=VECTOR('',#1078,1.);
#313=VECTOR('',#1079,1.);
#314=VECTOR('',#1082,1.);
#315=VECTOR('',#1089,1.);
#316=VERTEX_POINT('',#1094);
#317=VERTEX_POINT('',#1095);
#318=VERTEX_POINT('',#1097);
#319=VERTEX_POINT('',#1099);
#320=VERTEX_POINT('',#1103);
#321=VERTEX_POINT('',#1104);
#322=VERTEX_POINT('',#1107);
#323=VERTEX_POINT('',#1111);
#324=VERTEX_POINT('',#1113);
#325=VERTEX_POINT('',#1115);
#326=VERTEX_POINT('',#1119);
#327=VERTEX_POINT('',#1120);
#328=VERTEX_POINT('',#1122);
#329=VERTEX_POINT('',#1124);
#330=VERTEX_POINT('',#1128);
#331=VERTEX_POINT('',#1129);
#332=VERTEX_POINT('',#1132);
#333=VERTEX_POINT('',#1134);
#334=VERTEX_POINT('',#1138);
#335=VERTEX_POINT('',#1140);
#336=VERTEX_POINT('',#1144);
#337=VERTEX_POINT('',#1146);
#338=VERTEX_POINT('',#1150);
#339=VERTEX_POINT('',#1152);
#340=VERTEX_POINT('',#1154);
#341=VERTEX_POINT('',#1163);
#342=VERTEX_POINT('',#1167);
#343=VERTEX_POINT('',#1168);
#344=VERTEX_POINT('',#1170);
#345=VERTEX_POINT('',#1172);
#346=VERTEX_POINT('',#1177);
#347=VERTEX_POINT('',#1179);
#348=VERTEX_POINT('',#1186);
#349=VERTEX_POINT('',#1187);
#350=VERTEX_POINT('',#1189);
#351=VERTEX_POINT('',#1191);
#352=VERTEX_POINT('',#1197);
#353=VERTEX_POINT('',#1199);
#354=VERTEX_POINT('',#1205);
#355=VERTEX_POINT('',#1207);
#356=VERTEX_POINT('',#1211);
#357=VERTEX_POINT('',#1212);
#358=VERTEX_POINT('',#1214);
#359=VERTEX_POINT('',#1216);
#360=VERTEX_POINT('',#1220);
#361=VERTEX_POINT('',#1221);
#362=VERTEX_POINT('',#1223);
#363=VERTEX_POINT('',#1225);
#364=VERTEX_POINT('',#1235);
#365=VERTEX_POINT('',#1237);
#366=VERTEX_POINT('',#1239);
#367=VERTEX_POINT('',#1243);
#368=VERTEX_POINT('',#1246);
#369=VERTEX_POINT('',#1250);
#370=VERTEX_POINT('',#1252);
#371=VERTEX_POINT('',#1254);
#372=VERTEX_POINT('',#1256);
#373=VERTEX_POINT('',#1258);
#374=VERTEX_POINT('',#1262);
#375=VERTEX_POINT('',#1264);
#376=VERTEX_POINT('',#1268);
#377=VERTEX_POINT('',#1270);
#378=VERTEX_POINT('',#1281);
#379=VERTEX_POINT('',#1283);
#380=VERTEX_POINT('',#1287);
#381=VERTEX_POINT('',#1289);
#382=VERTEX_POINT('',#1295);
#383=VERTEX_POINT('',#1297);
#384=VERTEX_POINT('',#1301);
#385=VERTEX_POINT('',#1305);
#386=EDGE_CURVE('',#316,#317,#146,.T.);
#387=EDGE_CURVE('',#318,#317,#122,.T.);
#388=EDGE_CURVE('',#319,#318,#147,.T.);
#389=EDGE_CURVE('',#319,#316,#148,.T.);
#390=EDGE_CURVE('',#320,#321,#123,.T.);
#391=EDGE_CURVE('',#320,#318,#149,.T.);
#392=EDGE_CURVE('',#322,#317,#124,.T.);
#393=EDGE_CURVE('',#321,#322,#150,.T.);
#394=EDGE_CURVE('',#323,#320,#151,.T.);
#395=EDGE_CURVE('',#324,#323,#152,.T.);
#396=EDGE_CURVE('',#325,#324,#153,.T.);
#397=EDGE_CURVE('',#319,#325,#154,.T.);
#398=EDGE_CURVE('',#326,#327,#155,.T.);
#399=EDGE_CURVE('',#328,#327,#156,.T.);
#400=EDGE_CURVE('',#329,#328,#125,.T.);
#401=EDGE_CURVE('',#329,#326,#157,.T.);
#402=EDGE_CURVE('',#330,#331,#158,.T.);
#403=EDGE_CURVE('',#330,#328,#159,.T.);
#404=EDGE_CURVE('',#332,#327,#160,.T.);
#405=EDGE_CURVE('',#333,#332,#161,.T.);
#406=EDGE_CURVE('',#331,#333,#162,.T.);
#407=EDGE_CURVE('',#334,#330,#126,.T.);
#408=EDGE_CURVE('',#335,#334,#163,.T.);
#409=EDGE_CURVE('',#329,#335,#127,.T.);
#410=EDGE_CURVE('',#336,#322,#164,.T.);
#411=EDGE_CURVE('',#337,#336,#165,.T.);
#412=EDGE_CURVE('',#337,#321,#166,.T.);
#413=EDGE_CURVE('',#335,#338,#167,.T.);
#414=EDGE_CURVE('',#338,#339,#168,.T.);
#415=EDGE_CURVE('',#339,#340,#169,.T.);
#416=EDGE_CURVE('',#340,#329,#170,.T.);
#417=EDGE_CURVE('',#325,#332,#171,.T.);
#418=EDGE_CURVE('',#327,#319,#172,.T.);
#419=EDGE_CURVE('',#324,#333,#128,.T.);
#420=EDGE_CURVE('',#334,#341,#173,.T.);
#421=EDGE_CURVE('',#341,#338,#174,.T.);
#422=EDGE_CURVE('',#342,#343,#129,.T.);
#423=EDGE_CURVE('',#344,#342,#130,.T.);
#424=EDGE_CURVE('',#344,#345,#175,.T.);
#425=EDGE_CURVE('',#345,#345,#131,.T.);
#426=EDGE_CURVE('',#343,#344,#132,.T.);
#427=EDGE_CURVE('',#343,#346,#176,.T.);
#428=EDGE_CURVE('',#347,#342,#177,.T.);
#429=EDGE_CURVE('',#346,#347,#178,.T.);
#430=EDGE_CURVE('',#337,#346,#179,.T.);
#431=EDGE_CURVE('',#341,#347,#180,.T.);
#432=EDGE_CURVE('',#323,#331,#181,.T.);
#433=EDGE_CURVE('',#348,#349,#182,.T.);
#434=EDGE_CURVE('',#349,#350,#183,.T.);
#435=EDGE_CURVE('',#350,#351,#133,.T.);
#436=EDGE_CURVE('',#351,#348,#184,.T.);
#437=EDGE_CURVE('',#342,#339,#185,.T.);
#438=EDGE_CURVE('',#352,#352,#134,.T.);
#439=EDGE_CURVE('',#352,#353,#186,.T.);
#440=EDGE_CURVE('',#353,#353,#135,.T.);
#441=EDGE_CURVE('',#354,#354,#136,.T.);
#442=EDGE_CURVE('',#354,#355,#187,.T.);
#443=EDGE_CURVE('',#355,#355,#137,.T.);
#444=EDGE_CURVE('',#356,#357,#188,.T.);
#445=EDGE_CURVE('',#356,#358,#189,.T.);
#446=EDGE_CURVE('',#359,#358,#190,.T.);
#447=EDGE_CURVE('',#357,#359,#191,.T.);
#448=EDGE_CURVE('',#360,#361,#192,.T.);
#449=EDGE_CURVE('',#360,#362,#193,.T.);
#450=EDGE_CURVE('',#363,#362,#194,.T.);
#451=EDGE_CURVE('',#361,#363,#195,.T.);
#452=EDGE_CURVE('',#361,#356,#138,.T.);
#453=EDGE_CURVE('',#358,#363,#139,.T.);
#454=EDGE_CURVE('',#362,#316,#196,.T.);
#455=EDGE_CURVE('',#326,#359,#197,.T.);
#456=EDGE_CURVE('',#364,#360,#198,.T.);
#457=EDGE_CURVE('',#365,#364,#199,.T.);
#458=EDGE_CURVE('',#365,#366,#200,.T.);
#459=EDGE_CURVE('',#317,#366,#201,.T.);
#460=EDGE_CURVE('',#343,#367,#202,.T.);
#461=EDGE_CURVE('',#366,#367,#203,.T.);
#462=EDGE_CURVE('',#368,#365,#204,.T.);
#463=EDGE_CURVE('',#340,#368,#205,.T.);
#464=EDGE_CURVE('',#357,#369,#206,.T.);
#465=EDGE_CURVE('',#369,#370,#207,.T.);
#466=EDGE_CURVE('',#370,#371,#208,.T.);
#467=EDGE_CURVE('',#371,#372,#209,.T.);
#468=EDGE_CURVE('',#372,#373,#210,.T.);
#469=EDGE_CURVE('',#373,#364,#211,.T.);
#470=EDGE_CURVE('',#370,#374,#212,.T.);
#471=EDGE_CURVE('',#375,#374,#213,.T.);
#472=EDGE_CURVE('',#371,#375,#214,.T.);
#473=EDGE_CURVE('',#372,#376,#215,.T.);
#474=EDGE_CURVE('',#377,#376,#216,.T.);
#475=EDGE_CURVE('',#373,#377,#217,.T.);
#476=EDGE_CURVE('',#376,#375,#218,.T.);
#477=EDGE_CURVE('',#374,#377,#219,.T.);
#478=EDGE_CURVE('',#368,#369,#220,.T.);
#479=EDGE_CURVE('',#378,#378,#140,.T.);
#480=EDGE_CURVE('',#378,#379,#221,.T.);
#481=EDGE_CURVE('',#379,#379,#141,.T.);
#482=EDGE_CURVE('',#380,#380,#142,.T.);
#483=EDGE_CURVE('',#380,#381,#222,.T.);
#484=EDGE_CURVE('',#333,#381,#143,.T.);
#485=EDGE_CURVE('',#381,#324,#144,.T.);
#486=EDGE_CURVE('',#350,#382,#223,.T.);
#487=EDGE_CURVE('',#382,#383,#145,.T.);
#488=EDGE_CURVE('',#351,#383,#224,.T.);
#489=EDGE_CURVE('',#383,#384,#225,.T.);
#490=EDGE_CURVE('',#348,#384,#226,.T.);
#491=EDGE_CURVE('',#384,#385,#227,.T.);
#492=EDGE_CURVE('',#349,#385,#228,.T.);
#493=EDGE_CURVE('',#385,#382,#229,.T.);
#494=EDGE_CURVE('',#367,#336,#230,.T.);
#495=ORIENTED_EDGE('',*,*,#386,.T.);
#496=ORIENTED_EDGE('',*,*,#387,.F.);
#497=ORIENTED_EDGE('',*,*,#388,.F.);
#498=ORIENTED_EDGE('',*,*,#389,.T.);
#499=ORIENTED_EDGE('',*,*,#390,.F.);
#500=ORIENTED_EDGE('',*,*,#391,.T.);
#501=ORIENTED_EDGE('',*,*,#387,.T.);
#502=ORIENTED_EDGE('',*,*,#392,.F.);
#503=ORIENTED_EDGE('',*,*,#393,.F.);
#504=ORIENTED_EDGE('',*,*,#394,.F.);
#505=ORIENTED_EDGE('',*,*,#395,.F.);
#506=ORIENTED_EDGE('',*,*,#396,.F.);
#507=ORIENTED_EDGE('',*,*,#397,.F.);
#508=ORIENTED_EDGE('',*,*,#388,.T.);
#509=ORIENTED_EDGE('',*,*,#391,.F.);
#510=ORIENTED_EDGE('',*,*,#398,.T.);
#511=ORIENTED_EDGE('',*,*,#399,.F.);
#512=ORIENTED_EDGE('',*,*,#400,.F.);
#513=ORIENTED_EDGE('',*,*,#401,.T.);
#514=ORIENTED_EDGE('',*,*,#402,.F.);
#515=ORIENTED_EDGE('',*,*,#403,.T.);
#516=ORIENTED_EDGE('',*,*,#399,.T.);
#517=ORIENTED_EDGE('',*,*,#404,.F.);
#518=ORIENTED_EDGE('',*,*,#405,.F.);
#519=ORIENTED_EDGE('',*,*,#406,.F.);
#520=ORIENTED_EDGE('',*,*,#407,.F.);
#521=ORIENTED_EDGE('',*,*,#408,.F.);
#522=ORIENTED_EDGE('',*,*,#409,.F.);
#523=ORIENTED_EDGE('',*,*,#400,.T.);
#524=ORIENTED_EDGE('',*,*,#403,.F.);
#525=ORIENTED_EDGE('',*,*,#393,.T.);
#526=ORIENTED_EDGE('',*,*,#410,.F.);
#527=ORIENTED_EDGE('',*,*,#411,.F.);
#528=ORIENTED_EDGE('',*,*,#412,.T.);
#529=ORIENTED_EDGE('',*,*,#409,.T.);
#530=ORIENTED_EDGE('',*,*,#413,.T.);
#531=ORIENTED_EDGE('',*,*,#414,.T.);
#532=ORIENTED_EDGE('',*,*,#415,.T.);
#533=ORIENTED_EDGE('',*,*,#416,.T.);
#534=ORIENTED_EDGE('',*,*,#397,.T.);
#535=ORIENTED_EDGE('',*,*,#417,.T.);
#536=ORIENTED_EDGE('',*,*,#404,.T.);
#537=ORIENTED_EDGE('',*,*,#418,.T.);
#538=ORIENTED_EDGE('',*,*,#396,.T.);
#539=ORIENTED_EDGE('',*,*,#419,.T.);
#540=ORIENTED_EDGE('',*,*,#405,.T.);
#541=ORIENTED_EDGE('',*,*,#417,.F.);
#542=ORIENTED_EDGE('',*,*,#408,.T.);
#543=ORIENTED_EDGE('',*,*,#420,.T.);
#544=ORIENTED_EDGE('',*,*,#421,.T.);
#545=ORIENTED_EDGE('',*,*,#413,.F.);
#546=ORIENTED_EDGE('',*,*,#422,.F.);
#547=ORIENTED_EDGE('',*,*,#423,.F.);
#548=ORIENTED_EDGE('',*,*,#424,.T.);
#549=ORIENTED_EDGE('',*,*,#425,.F.);
#550=ORIENTED_EDGE('',*,*,#424,.F.);
#551=ORIENTED_EDGE('',*,*,#426,.F.);
#552=ORIENTED_EDGE('',*,*,#427,.F.);
#553=ORIENTED_EDGE('',*,*,#426,.T.);
#554=ORIENTED_EDGE('',*,*,#423,.T.);
#555=ORIENTED_EDGE('',*,*,#428,.F.);
#556=ORIENTED_EDGE('',*,*,#429,.F.);
#557=ORIENTED_EDGE('',*,*,#390,.T.);
#558=ORIENTED_EDGE('',*,*,#412,.F.);
#559=ORIENTED_EDGE('',*,*,#430,.T.);
#560=ORIENTED_EDGE('',*,*,#429,.T.);
#561=ORIENTED_EDGE('',*,*,#431,.F.);
#562=ORIENTED_EDGE('',*,*,#420,.F.);
#563=ORIENTED_EDGE('',*,*,#407,.T.);
#564=ORIENTED_EDGE('',*,*,#402,.T.);
#565=ORIENTED_EDGE('',*,*,#432,.F.);
#566=ORIENTED_EDGE('',*,*,#394,.T.);
#567=ORIENTED_EDGE('',*,*,#433,.T.);
#568=ORIENTED_EDGE('',*,*,#434,.T.);
#569=ORIENTED_EDGE('',*,*,#435,.T.);
#570=ORIENTED_EDGE('',*,*,#436,.T.);
#571=ORIENTED_EDGE('',*,*,#428,.T.);
#572=ORIENTED_EDGE('',*,*,#437,.T.);
#573=ORIENTED_EDGE('',*,*,#414,.F.);
#574=ORIENTED_EDGE('',*,*,#421,.F.);
#575=ORIENTED_EDGE('',*,*,#431,.T.);
#576=ORIENTED_EDGE('',*,*,#438,.F.);
#577=ORIENTED_EDGE('',*,*,#439,.T.);
#578=ORIENTED_EDGE('',*,*,#440,.F.);
#579=ORIENTED_EDGE('',*,*,#439,.F.);
#580=ORIENTED_EDGE('',*,*,#425,.T.);
#581=ORIENTED_EDGE('',*,*,#438,.T.);
#582=ORIENTED_EDGE('',*,*,#440,.T.);
#583=ORIENTED_EDGE('',*,*,#441,.F.);
#584=ORIENTED_EDGE('',*,*,#442,.T.);
#585=ORIENTED_EDGE('',*,*,#443,.F.);
#586=ORIENTED_EDGE('',*,*,#442,.F.);
#587=ORIENTED_EDGE('',*,*,#444,.F.);
#588=ORIENTED_EDGE('',*,*,#445,.T.);
#589=ORIENTED_EDGE('',*,*,#446,.F.);
#590=ORIENTED_EDGE('',*,*,#447,.F.);
#591=ORIENTED_EDGE('',*,*,#448,.F.);
#592=ORIENTED_EDGE('',*,*,#449,.T.);
#593=ORIENTED_EDGE('',*,*,#450,.F.);
#594=ORIENTED_EDGE('',*,*,#451,.F.);
#595=ORIENTED_EDGE('',*,*,#452,.F.);
#596=ORIENTED_EDGE('',*,*,#451,.T.);
#597=ORIENTED_EDGE('',*,*,#453,.F.);
#598=ORIENTED_EDGE('',*,*,#445,.F.);
#599=ORIENTED_EDGE('',*,*,#453,.T.);
#600=ORIENTED_EDGE('',*,*,#450,.T.);
#601=ORIENTED_EDGE('',*,*,#454,.T.);
#602=ORIENTED_EDGE('',*,*,#389,.F.);
#603=ORIENTED_EDGE('',*,*,#418,.F.);
#604=ORIENTED_EDGE('',*,*,#398,.F.);
#605=ORIENTED_EDGE('',*,*,#455,.T.);
#606=ORIENTED_EDGE('',*,*,#446,.T.);
#607=ORIENTED_EDGE('',*,*,#456,.F.);
#608=ORIENTED_EDGE('',*,*,#457,.F.);
#609=ORIENTED_EDGE('',*,*,#458,.T.);
#610=ORIENTED_EDGE('',*,*,#459,.F.);
#611=ORIENTED_EDGE('',*,*,#386,.F.);
#612=ORIENTED_EDGE('',*,*,#454,.F.);
#613=ORIENTED_EDGE('',*,*,#449,.F.);
#614=ORIENTED_EDGE('',*,*,#460,.T.);
#615=ORIENTED_EDGE('',*,*,#461,.F.);
#616=ORIENTED_EDGE('',*,*,#458,.F.);
#617=ORIENTED_EDGE('',*,*,#462,.F.);
#618=ORIENTED_EDGE('',*,*,#463,.F.);
#619=ORIENTED_EDGE('',*,*,#415,.F.);
#620=ORIENTED_EDGE('',*,*,#437,.F.);
#621=ORIENTED_EDGE('',*,*,#422,.T.);
#622=ORIENTED_EDGE('',*,*,#448,.T.);
#623=ORIENTED_EDGE('',*,*,#452,.T.);
#624=ORIENTED_EDGE('',*,*,#444,.T.);
#625=ORIENTED_EDGE('',*,*,#464,.T.);
#626=ORIENTED_EDGE('',*,*,#465,.T.);
#627=ORIENTED_EDGE('',*,*,#466,.T.);
#628=ORIENTED_EDGE('',*,*,#467,.T.);
#629=ORIENTED_EDGE('',*,*,#468,.T.);
#630=ORIENTED_EDGE('',*,*,#469,.T.);
#631=ORIENTED_EDGE('',*,*,#456,.T.);
#632=ORIENTED_EDGE('',*,*,#466,.F.);
#633=ORIENTED_EDGE('',*,*,#470,.T.);
#634=ORIENTED_EDGE('',*,*,#471,.F.);
#635=ORIENTED_EDGE('',*,*,#472,.F.);
#636=ORIENTED_EDGE('',*,*,#468,.F.);
#637=ORIENTED_EDGE('',*,*,#473,.T.);
#638=ORIENTED_EDGE('',*,*,#474,.F.);
#639=ORIENTED_EDGE('',*,*,#475,.F.);
#640=ORIENTED_EDGE('',*,*,#467,.F.);
#641=ORIENTED_EDGE('',*,*,#472,.T.);
#642=ORIENTED_EDGE('',*,*,#476,.F.);
#643=ORIENTED_EDGE('',*,*,#473,.F.);
#644=ORIENTED_EDGE('',*,*,#441,.T.);
#645=ORIENTED_EDGE('',*,*,#476,.T.);
#646=ORIENTED_EDGE('',*,*,#471,.T.);
#647=ORIENTED_EDGE('',*,*,#477,.T.);
#648=ORIENTED_EDGE('',*,*,#474,.T.);
#649=ORIENTED_EDGE('',*,*,#465,.F.);
#650=ORIENTED_EDGE('',*,*,#478,.F.);
#651=ORIENTED_EDGE('',*,*,#462,.T.);
#652=ORIENTED_EDGE('',*,*,#457,.T.);
#653=ORIENTED_EDGE('',*,*,#469,.F.);
#654=ORIENTED_EDGE('',*,*,#475,.T.);
#655=ORIENTED_EDGE('',*,*,#477,.F.);
#656=ORIENTED_EDGE('',*,*,#470,.F.);
#657=ORIENTED_EDGE('',*,*,#443,.T.);
#658=ORIENTED_EDGE('',*,*,#463,.T.);
#659=ORIENTED_EDGE('',*,*,#478,.T.);
#660=ORIENTED_EDGE('',*,*,#464,.F.);
#661=ORIENTED_EDGE('',*,*,#447,.T.);
#662=ORIENTED_EDGE('',*,*,#455,.F.);
#663=ORIENTED_EDGE('',*,*,#401,.F.);
#664=ORIENTED_EDGE('',*,*,#416,.F.);
#665=ORIENTED_EDGE('',*,*,#479,.F.);
#666=ORIENTED_EDGE('',*,*,#480,.T.);
#667=ORIENTED_EDGE('',*,*,#481,.F.);
#668=ORIENTED_EDGE('',*,*,#480,.F.);
#669=ORIENTED_EDGE('',*,*,#482,.F.);
#670=ORIENTED_EDGE('',*,*,#483,.T.);
#671=ORIENTED_EDGE('',*,*,#484,.F.);
#672=ORIENTED_EDGE('',*,*,#419,.F.);
#673=ORIENTED_EDGE('',*,*,#485,.F.);
#674=ORIENTED_EDGE('',*,*,#483,.F.);
#675=ORIENTED_EDGE('',*,*,#482,.T.);
#676=ORIENTED_EDGE('',*,*,#481,.T.);
#677=ORIENTED_EDGE('',*,*,#435,.F.);
#678=ORIENTED_EDGE('',*,*,#486,.T.);
#679=ORIENTED_EDGE('',*,*,#487,.T.);
#680=ORIENTED_EDGE('',*,*,#488,.F.);
#681=ORIENTED_EDGE('',*,*,#436,.F.);
#682=ORIENTED_EDGE('',*,*,#488,.T.);
#683=ORIENTED_EDGE('',*,*,#489,.T.);
#684=ORIENTED_EDGE('',*,*,#490,.F.);
#685=ORIENTED_EDGE('',*,*,#433,.F.);
#686=ORIENTED_EDGE('',*,*,#490,.T.);
#687=ORIENTED_EDGE('',*,*,#491,.T.);
#688=ORIENTED_EDGE('',*,*,#492,.F.);
#689=ORIENTED_EDGE('',*,*,#479,.T.);
#690=ORIENTED_EDGE('',*,*,#434,.F.);
#691=ORIENTED_EDGE('',*,*,#492,.T.);
#692=ORIENTED_EDGE('',*,*,#493,.T.);
#693=ORIENTED_EDGE('',*,*,#486,.F.);
#694=ORIENTED_EDGE('',*,*,#493,.F.);
#695=ORIENTED_EDGE('',*,*,#491,.F.);
#696=ORIENTED_EDGE('',*,*,#489,.F.);
#697=ORIENTED_EDGE('',*,*,#487,.F.);
#698=ORIENTED_EDGE('',*,*,#395,.T.);
#699=ORIENTED_EDGE('',*,*,#432,.T.);
#700=ORIENTED_EDGE('',*,*,#406,.T.);
#701=ORIENTED_EDGE('',*,*,#484,.T.);
#702=ORIENTED_EDGE('',*,*,#485,.T.);
#703=ORIENTED_EDGE('',*,*,#427,.T.);
#704=ORIENTED_EDGE('',*,*,#430,.F.);
#705=ORIENTED_EDGE('',*,*,#411,.T.);
#706=ORIENTED_EDGE('',*,*,#494,.F.);
#707=ORIENTED_EDGE('',*,*,#460,.F.);
#708=ORIENTED_EDGE('',*,*,#392,.T.);
#709=ORIENTED_EDGE('',*,*,#459,.T.);
#710=ORIENTED_EDGE('',*,*,#461,.T.);
#711=ORIENTED_EDGE('',*,*,#494,.T.);
#712=ORIENTED_EDGE('',*,*,#410,.T.);
#713=PLANE('',#804);
#714=PLANE('',#809);
#715=PLANE('',#810);
#716=PLANE('',#812);
#717=PLANE('',#816);
#718=PLANE('',#817);
#719=PLANE('',#818);
#720=PLANE('',#819);
#721=PLANE('',#821);
#722=PLANE('',#827);
#723=PLANE('',#828);
#724=PLANE('',#830);
#725=PLANE('',#834);
#726=PLANE('',#835);
#727=PLANE('',#839);
#728=PLANE('',#840);
#729=PLANE('',#844);
#730=PLANE('',#845);
#731=PLANE('',#846);
#732=PLANE('',#847);
#733=PLANE('',#848);
#734=PLANE('',#849);
#735=PLANE('',#850);
#736=PLANE('',#851);
#737=PLANE('',#852);
#738=PLANE('',#853);
#739=PLANE('',#861);
#740=PLANE('',#864);
#741=PLANE('',#865);
#742=PLANE('',#866);
#743=PLANE('',#867);
#744=PLANE('',#868);
#745=PLANE('',#869);
#746=PLANE('',#870);
#747=ADVANCED_FACE('',(#30),#713,.F.);
#748=ADVANCED_FACE('',(#31),#21,.T.);
#749=ADVANCED_FACE('',(#32),#714,.F.);
#750=ADVANCED_FACE('',(#33),#715,.F.);
#751=ADVANCED_FACE('',(#34),#716,.F.);
#752=ADVANCED_FACE('',(#35),#22,.T.);
#753=ADVANCED_FACE('',(#36),#717,.T.);
#754=ADVANCED_FACE('',(#37),#718,.T.);
#755=ADVANCED_FACE('',(#38),#719,.T.);
#756=ADVANCED_FACE('',(#39),#720,.T.);
#757=ADVANCED_FACE('',(#40),#721,.T.);
#758=ADVANCED_FACE('',(#41),#23,.T.);
#759=ADVANCED_FACE('',(#42),#722,.F.);
#760=ADVANCED_FACE('',(#43,#15),#723,.F.);
#761=ADVANCED_FACE('',(#44),#724,.T.);
#762=ADVANCED_FACE('',(#45),#24,.F.);
#763=ADVANCED_FACE('',(#46,#16),#725,.F.);
#764=ADVANCED_FACE('',(#47),#726,.T.);
#765=ADVANCED_FACE('',(#48),#25,.F.);
#766=ADVANCED_FACE('',(#49),#727,.T.);
#767=ADVANCED_FACE('',(#50),#728,.T.);
#768=ADVANCED_FACE('',(#51),#26,.T.);
#769=ADVANCED_FACE('',(#52),#729,.T.);
#770=ADVANCED_FACE('',(#53),#730,.T.);
#771=ADVANCED_FACE('',(#54),#731,.T.);
#772=ADVANCED_FACE('',(#55),#732,.T.);
#773=ADVANCED_FACE('',(#56),#733,.T.);
#774=ADVANCED_FACE('',(#57),#734,.T.);
#775=ADVANCED_FACE('',(#58,#17),#735,.T.);
#776=ADVANCED_FACE('',(#59),#736,.T.);
#777=ADVANCED_FACE('',(#60,#18),#737,.T.);
#778=ADVANCED_FACE('',(#61),#738,.T.);
#779=ADVANCED_FACE('',(#62),#27,.F.);
#780=ADVANCED_FACE('',(#63),#28,.T.);
#781=ADVANCED_FACE('',(#64,#19),#739,.T.);
#782=ADVANCED_FACE('',(#65),#29,.F.);
#783=ADVANCED_FACE('',(#66),#740,.F.);
#784=ADVANCED_FACE('',(#67,#20),#741,.F.);
#785=ADVANCED_FACE('',(#68),#742,.F.);
#786=ADVANCED_FACE('',(#69),#743,.F.);
#787=ADVANCED_FACE('',(#70),#744,.T.);
#788=ADVANCED_FACE('',(#71),#745,.T.);
#789=ADVANCED_FACE('',(#72),#746,.T.);
#790=CLOSED_SHELL('',(#747,#748,#749,#750,#751,#752,#753,#754,#755,#756,
#757,#758,#759,#760,#761,#762,#763,#764,#765,#766,#767,#768,#769,#770,#771,
#772,#773,#774,#775,#776,#777,#778,#779,#780,#781,#782,#783,#784,#785,#786,
#787,#788,#789));
#791=DERIVED_UNIT_ELEMENT(#793,1.);
#792=DERIVED_UNIT_ELEMENT(#1320,-3.);
#793=(
MASS_UNIT()
NAMED_UNIT(*)
SI_UNIT(.KILO.,.GRAM.)
);
#794=DERIVED_UNIT((#791,#792));
#795=MEASURE_REPRESENTATION_ITEM('density measure',
POSITIVE_RATIO_MEASURE(7850.),#794);
#796=PROPERTY_DEFINITION_REPRESENTATION(#801,#798);
#797=PROPERTY_DEFINITION_REPRESENTATION(#802,#799);
#798=REPRESENTATION('material name',(#800),#1317);
#799=REPRESENTATION('density',(#795),#1317);
#800=DESCRIPTIVE_REPRESENTATION_ITEM('Steel','Steel');
#801=PROPERTY_DEFINITION('material property','material name',#1327);
#802=PROPERTY_DEFINITION('material property','density of part',#1327);
#803=AXIS2_PLACEMENT_3D('',#1092,#871,#872);
#804=AXIS2_PLACEMENT_3D('',#1093,#873,#874);
#805=AXIS2_PLACEMENT_3D('',#1098,#876,#877);
#806=AXIS2_PLACEMENT_3D('',#1102,#880,#881);
#807=AXIS2_PLACEMENT_3D('',#1105,#882,#883);
#808=AXIS2_PLACEMENT_3D('',#1108,#885,#886);
#809=AXIS2_PLACEMENT_3D('',#1110,#888,#889);
#810=AXIS2_PLACEMENT_3D('',#1118,#894,#895);
#811=AXIS2_PLACEMENT_3D('',#1125,#898,#899);
#812=AXIS2_PLACEMENT_3D('',#1127,#901,#902);
#813=AXIS2_PLACEMENT_3D('',#1137,#908,#909);
#814=AXIS2_PLACEMENT_3D('',#1139,#910,#911);
#815=AXIS2_PLACEMENT_3D('',#1142,#913,#914);
#816=AXIS2_PLACEMENT_3D('',#1143,#915,#916);
#817=AXIS2_PLACEMENT_3D('',#1149,#920,#921);
#818=AXIS2_PLACEMENT_3D('',#1157,#926,#927);
#819=AXIS2_PLACEMENT_3D('',#1160,#930,#931);
#820=AXIS2_PLACEMENT_3D('',#1161,#932,#933);
#821=AXIS2_PLACEMENT_3D('',#1162,#934,#935);
#822=AXIS2_PLACEMENT_3D('',#1166,#938,#939);
#823=AXIS2_PLACEMENT_3D('',#1169,#940,#941);
#824=AXIS2_PLACEMENT_3D('',#1171,#942,#943);
#825=AXIS2_PLACEMENT_3D('',#1174,#945,#946);
#826=AXIS2_PLACEMENT_3D('',#1175,#947,#948);
#827=AXIS2_PLACEMENT_3D('',#1176,#949,#950);
#828=AXIS2_PLACEMENT_3D('',#1182,#954,#955);
#829=AXIS2_PLACEMENT_3D('',#1192,#961,#962);
#830=AXIS2_PLACEMENT_3D('',#1194,#964,#965);
#831=AXIS2_PLACEMENT_3D('',#1196,#967,#968);
#832=AXIS2_PLACEMENT_3D('',#1198,#969,#970);
#833=AXIS2_PLACEMENT_3D('',#1201,#972,#973);
#834=AXIS2_PLACEMENT_3D('',#1202,#974,#975);
#835=AXIS2_PLACEMENT_3D('',#1203,#976,#977);
#836=AXIS2_PLACEMENT_3D('',#1204,#978,#979);
#837=AXIS2_PLACEMENT_3D('',#1206,#980,#981);
#838=AXIS2_PLACEMENT_3D('',#1209,#983,#984);
#839=AXIS2_PLACEMENT_3D('',#1210,#985,#986);
#840=AXIS2_PLACEMENT_3D('',#1219,#991,#992);
#841=AXIS2_PLACEMENT_3D('',#1228,#997,#998);
#842=AXIS2_PLACEMENT_3D('',#1229,#999,#1000);
#843=AXIS2_PLACEMENT_3D('',#1230,#1001,#1002);
#844=AXIS2_PLACEMENT_3D('',#1231,#1003,#1004);
#845=AXIS2_PLACEMENT_3D('',#1234,#1007,#1008);
#846=AXIS2_PLACEMENT_3D('',#1242,#1013,#1014);
#847=AXIS2_PLACEMENT_3D('',#1249,#1019,#1020);
#848=AXIS2_PLACEMENT_3D('',#1261,#1027,#1028);
#849=AXIS2_PLACEMENT_3D('',#1267,#1032,#1033);
#850=AXIS2_PLACEMENT_3D('',#1273,#1037,#1038);
#851=AXIS2_PLACEMENT_3D('',#1275,#1040,#1041);
#852=AXIS2_PLACEMENT_3D('',#1277,#1043,#1044);
#853=AXIS2_PLACEMENT_3D('',#1279,#1046,#1047);
#854=AXIS2_PLACEMENT_3D('',#1280,#1048,#1049);
#855=AXIS2_PLACEMENT_3D('',#1282,#1050,#1051);
#856=AXIS2_PLACEMENT_3D('',#1285,#1053,#1054);
#857=AXIS2_PLACEMENT_3D('',#1286,#1055,#1056);
#858=AXIS2_PLACEMENT_3D('',#1288,#1057,#1058);
#859=AXIS2_PLACEMENT_3D('',#1291,#1060,#1061);
#860=AXIS2_PLACEMENT_3D('',#1292,#1062,#1063);
#861=AXIS2_PLACEMENT_3D('',#1293,#1064,#1065);
#862=AXIS2_PLACEMENT_3D('',#1294,#1066,#1067);
#863=AXIS2_PLACEMENT_3D('',#1298,#1069,#1070);
#864=AXIS2_PLACEMENT_3D('',#1300,#1072,#1073);
#865=AXIS2_PLACEMENT_3D('',#1304,#1076,#1077);
#866=AXIS2_PLACEMENT_3D('',#1308,#1080,#1081);
#867=AXIS2_PLACEMENT_3D('',#1310,#1083,#1084);
#868=AXIS2_PLACEMENT_3D('',#1311,#1085,#1086);
#869=AXIS2_PLACEMENT_3D('',#1312,#1087,#1088);
#870=AXIS2_PLACEMENT_3D('',#1314,#1090,#1091);
#871=DIRECTION('axis',(0.,0.,1.));
#872=DIRECTION('refdir',(1.,0.,0.));
#873=DIRECTION('center_axis',(1.,0.,0.));
#874=DIRECTION('ref_axis',(0.,0.,-1.));
#875=DIRECTION('',(0.,0.,-1.));
#876=DIRECTION('center_axis',(-1.,0.,0.));
#877=DIRECTION('ref_axis',(0.,0.707106781186547,-0.707106781186547));
#878=DIRECTION('',(0.,0.55920032047893,-0.829032569671579));
#879=DIRECTION('',(0.,1.,0.));
#880=DIRECTION('center_axis',(1.,0.,0.));
#881=DIRECTION('ref_axis',(0.,0.707106781186547,-0.707106781186547));
#882=DIRECTION('center_axis',(-1.,0.,0.));
#883=DIRECTION('ref_axis',(0.,0.707106781186547,-0.707106781186547));
#884=DIRECTION('',(1.,0.,0.));
#885=DIRECTION('center_axis',(1.,0.,0.));
#886=DIRECTION('ref_axis',(0.,0.707106781186547,-0.707106781186547));
#887=DIRECTION('',(1.,0.,0.));
#888=DIRECTION('center_axis',(0.,-0.829032569671579,-0.55920032047893));
#889=DIRECTION('ref_axis',(0.,0.55920032047893,-0.829032569671579));
#890=DIRECTION('',(0.,0.55920032047893,-0.829032569671579));
#891=DIRECTION('',(-1.,0.,0.));
#892=DIRECTION('',(-1.,0.,0.));
#893=DIRECTION('',(0.,-0.55920032047893,0.829032569671579));
#894=DIRECTION('center_axis',(1.,0.,0.));
#895=DIRECTION('ref_axis',(0.,0.,-1.));
#896=DIRECTION('',(0.,1.,0.));
#897=DIRECTION('',(0.,0.55920032047893,0.829032569671579));
#898=DIRECTION('center_axis',(-1.,0.,0.));
#899=DIRECTION('ref_axis',(0.,-0.707106781186547,0.707106781186548));
#900=DIRECTION('',(0.,0.,1.));
#901=DIRECTION('center_axis',(0.,0.829032569671579,-0.55920032047893));
#902=DIRECTION('ref_axis',(0.,0.55920032047893,0.829032569671579));
#903=DIRECTION('',(0.,0.55920032047893,0.829032569671579));
#904=DIRECTION('',(1.,0.,0.));
#905=DIRECTION('',(0.,-0.55920032047893,-0.829032569671579));
#906=DIRECTION('',(1.,0.,0.));
#907=DIRECTION('',(1.,0.,0.));
#908=DIRECTION('center_axis',(1.,0.,0.));
#909=DIRECTION('ref_axis',(0.,-0.707106781186547,0.707106781186548));
#910=DIRECTION('center_axis',(-1.,0.,0.));
#911=DIRECTION('ref_axis',(0.,-0.707106781186547,0.707106781186548));
#912=DIRECTION('',(-1.,0.,0.));
#913=DIRECTION('center_axis',(1.,0.,0.));
#914=DIRECTION('ref_axis',(0.,-0.707106781186547,0.707106781186548));
#915=DIRECTION('center_axis',(0.,0.994408591727349,0.105600912395825));
#916=DIRECTION('ref_axis',(0.,-0.105600912395825,0.994408591727349));
#917=DIRECTION('',(0.,-0.105600912395825,0.994408591727349));
#918=DIRECTION('',(1.,0.,0.));
#919=DIRECTION('',(0.,-0.105600912395825,0.994408591727349));
#920=DIRECTION('center_axis',(1.,0.,0.));
#921=DIRECTION('ref_axis',(0.,0.,-1.));
#922=DIRECTION('',(0.,-0.105600912395825,-0.994408591727349));
#923=DIRECTION('',(0.,0.,-1.));
#924=DIRECTION('',(0.,1.,0.));
#925=DIRECTION('',(0.,0.,1.));
#926=DIRECTION('center_axis',(1.,0.,0.));
#927=DIRECTION('ref_axis',(0.,0.,-1.));
#928=DIRECTION('',(0.,-1.,0.));
#929=DIRECTION('',(0.,1.,0.));
#930=DIRECTION('center_axis',(0.,0.,1.));
#931=DIRECTION('ref_axis',(0.,-1.,0.));
#932=DIRECTION('center_axis',(0.,0.,-1.));
#933=DIRECTION('ref_axis',(1.,0.,0.));
#934=DIRECTION('center_axis',(0.,-0.994408591727349,0.105600912395825));
#935=DIRECTION('ref_axis',(0.,-0.105600912395825,-0.994408591727349));
#936=DIRECTION('',(0.,-0.105600912395825,-0.994408591727349));
#937=DIRECTION('',(1.,0.,0.));
#938=DIRECTION('center_axis',(0.,0.,-1.));
#939=DIRECTION('ref_axis',(1.,0.,0.));
#940=DIRECTION('center_axis',(0.,0.,1.));
#941=DIRECTION('ref_axis',(1.,0.,0.));
#942=DIRECTION('center_axis',(0.,0.,1.));
#943=DIRECTION('ref_axis',(1.,0.,0.));
#944=DIRECTION('',(0.,0.,-1.));
#945=DIRECTION('center_axis',(0.,0.,-1.));
#946=DIRECTION('ref_axis',(1.,0.,0.));
#947=DIRECTION('center_axis',(0.,0.,1.));
#948=DIRECTION('ref_axis',(1.,0.,0.));
#949=DIRECTION('center_axis',(0.,0.,1.));
#950=DIRECTION('ref_axis',(1.,0.,0.));
#951=DIRECTION('',(-1.,0.,0.));
#952=DIRECTION('',(1.,0.,0.));
#953=DIRECTION('',(0.,-1.,0.));
#954=DIRECTION('center_axis',(1.,0.,0.));
#955=DIRECTION('ref_axis',(0.,0.,-1.));
#956=DIRECTION('',(0.,0.,-1.));
#957=DIRECTION('',(0.,0.,-1.));
#958=DIRECTION('',(0.,-1.,0.));
#959=DIRECTION('',(0.,-1.,0.));
#960=DIRECTION('',(0.,-0.707106781186548,-0.707106781186547));
#961=DIRECTION('center_axis',(1.,0.,0.));
#962=DIRECTION('ref_axis',(0.,-0.707106781186548,0.707106781186547));
#963=DIRECTION('',(0.,-0.707106781186548,0.707106781186547));
#964=DIRECTION('center_axis',(0.,-1.,0.));
#965=DIRECTION('ref_axis',(0.,0.,-1.));
#966=DIRECTION('',(1.,0.,0.));
#967=DIRECTION('center_axis',(0.,0.,-1.));
#968=DIRECTION('ref_axis',(1.,0.,0.));
#969=DIRECTION('center_axis',(0.,0.,1.));
#970=DIRECTION('ref_axis',(1.,0.,0.));
#971=DIRECTION('',(0.,0.,1.));
#972=DIRECTION('center_axis',(0.,0.,-1.));
#973=DIRECTION('ref_axis',(1.,0.,0.));
#974=DIRECTION('center_axis',(0.,0.,1.));
#975=DIRECTION('ref_axis',(1.,0.,0.));
#976=DIRECTION('center_axis',(0.,0.,-1.));
#977=DIRECTION('ref_axis',(0.,1.,0.));
#978=DIRECTION('center_axis',(1.,0.,0.));
#979=DIRECTION('ref_axis',(0.,0.,-1.));
#980=DIRECTION('center_axis',(1.,0.,0.));
#981=DIRECTION('ref_axis',(0.,0.,-1.));
#982=DIRECTION('',(1.,0.,0.));
#983=DIRECTION('center_axis',(-1.,0.,0.));
#984=DIRECTION('ref_axis',(0.,0.,-1.));
#985=DIRECTION('center_axis',(1.,0.,0.));
#986=DIRECTION('ref_axis',(0.,1.,0.));
#987=DIRECTION('',(0.,-1.,0.));
#988=DIRECTION('',(0.,0.,1.));
#989=DIRECTION('',(0.,1.,0.));
#990=DIRECTION('',(0.,0.,1.));
#991=DIRECTION('center_axis',(1.,0.,0.));
#992=DIRECTION('ref_axis',(0.,1.,0.));
#993=DIRECTION('',(0.,-1.,0.));
#994=DIRECTION('',(0.,0.,1.));
#995=DIRECTION('',(0.,1.,0.));
#996=DIRECTION('',(0.,0.,1.));
#997=DIRECTION('center_axis',(0.,0.,1.));
#998=DIRECTION('ref_axis',(1.,0.,0.));
#999=DIRECTION('center_axis',(0.,0.,-1.));
#1000=DIRECTION('ref_axis',(1.,0.,0.));
#1001=DIRECTION('center_axis',(0.,0.,1.));
#1002=DIRECTION('ref_axis',(1.,0.,0.));
#1003=DIRECTION('center_axis',(0.,0.,1.));
#1004=DIRECTION('ref_axis',(1.,0.,0.));
#1005=DIRECTION('',(-1.,0.,0.));
#1006=DIRECTION('',(1.,0.,0.));
#1007=DIRECTION('center_axis',(0.,1.,0.));
#1008=DIRECTION('ref_axis',(-1.,0.,0.));
#1009=DIRECTION('',(-1.,0.,0.));
#1010=DIRECTION('',(0.,0.,1.));
#1011=DIRECTION('',(-1.,0.,0.));
#1012=DIRECTION('',(0.,0.,-1.));
#1013=DIRECTION('center_axis',(0.,0.,-1.));
#1014=DIRECTION('ref_axis',(0.,1.,0.));
#1015=DIRECTION('',(1.,0.,0.));
#1016=DIRECTION('',(0.,1.,0.));
#1017=DIRECTION('',(0.,1.,0.));
#1018=DIRECTION('',(1.,0.,0.));
#1019=DIRECTION('center_axis',(0.,0.,1.));
#1020=DIRECTION('ref_axis',(1.,0.,0.));
#1021=DIRECTION('',(1.,0.,0.));
#1022=DIRECTION('',(0.,1.,0.));
#1023=DIRECTION('',(-1.,0.,0.));
#1024=DIRECTION('',(0.,1.,0.));
#1025=DIRECTION('',(1.,0.,0.));
#1026=DIRECTION('',(0.,1.,0.));
#1027=DIRECTION('center_axis',(0.,-1.,0.));
#1028=DIRECTION('ref_axis',(1.,0.,0.));
#1029=DIRECTION('',(0.,0.,1.));
#1030=DIRECTION('',(1.,0.,0.));
#1031=DIRECTION('',(0.,0.,1.));
#1032=DIRECTION('center_axis',(0.,1.,0.));
#1033=DIRECTION('ref_axis',(-1.,0.,0.));
#1034=DIRECTION('',(0.,0.,1.));
#1035=DIRECTION('',(-1.,0.,0.));
#1036=DIRECTION('',(0.,0.,1.));
#1037=DIRECTION('center_axis',(-1.,0.,0.));
#1038=DIRECTION('ref_axis',(0.,-1.,0.));
#1039=DIRECTION('',(0.,-1.,0.));
#1040=DIRECTION('center_axis',(0.,0.,1.));
#1041=DIRECTION('ref_axis',(1.,0.,0.));
#1042=DIRECTION('',(0.,1.,0.));
#1043=DIRECTION('center_axis',(1.,0.,0.));
#1044=DIRECTION('ref_axis',(0.,1.,0.));
#1045=DIRECTION('',(0.,0.,1.));
#1046=DIRECTION('center_axis',(0.,-1.,0.));
#1047=DIRECTION('ref_axis',(1.,0.,0.));
#1048=DIRECTION('center_axis',(0.,0.,1.));
#1049=DIRECTION('ref_axis',(1.,0.,0.));
#1050=DIRECTION('center_axis',(0.,0.,1.));
#1051=DIRECTION('ref_axis',(1.,0.,0.));
#1052=DIRECTION('',(0.,0.,1.));
#1053=DIRECTION('center_axis',(0.,0.,-1.));
#1054=DIRECTION('ref_axis',(1.,0.,0.));
#1055=DIRECTION('center_axis',(0.,0.,1.));
#1056=DIRECTION('ref_axis',(1.,0.,0.));
#1057=DIRECTION('center_axis',(0.,0.,1.));
#1058=DIRECTION('ref_axis',(1.,0.,0.));
#1059=DIRECTION('',(0.,0.,-1.));
#1060=DIRECTION('center_axis',(0.,0.,-1.));
#1061=DIRECTION('ref_axis',(1.,0.,0.));
#1062=DIRECTION('center_axis',(0.,0.,-1.));
#1063=DIRECTION('ref_axis',(1.,0.,0.));
#1064=DIRECTION('center_axis',(0.,0.,1.));
#1065=DIRECTION('ref_axis',(1.,0.,0.));
#1066=DIRECTION('center_axis',(1.,0.,0.));
#1067=DIRECTION('ref_axis',(0.,0.,-1.));
#1068=DIRECTION('',(1.,0.,0.));
#1069=DIRECTION('center_axis',(1.,0.,0.));
#1070=DIRECTION('ref_axis',(0.,-0.707106781186548,0.707106781186547));
#1071=DIRECTION('',(1.,0.,0.));
#1072=DIRECTION('center_axis',(0.,0.707106781186547,0.707106781186548));
#1073=DIRECTION('ref_axis',(0.,-0.707106781186548,0.707106781186547));
#1074=DIRECTION('',(0.,-0.707106781186548,0.707106781186547));
#1075=DIRECTION('',(1.,0.,0.));
#1076=DIRECTION('center_axis',(0.,0.,1.));
#1077=DIRECTION('ref_axis',(0.,-1.,0.));
#1078=DIRECTION('',(0.,-1.,0.));
#1079=DIRECTION('',(1.,0.,0.));
#1080=DIRECTION('center_axis',(0.,-0.707106781186547,0.707106781186548));
#1081=DIRECTION('ref_axis',(0.,-0.707106781186548,-0.707106781186547));
#1082=DIRECTION('',(0.,-0.707106781186548,-0.707106781186547));
#1083=DIRECTION('center_axis',(1.,0.,0.));
#1084=DIRECTION('ref_axis',(0.,0.,-1.));
#1085=DIRECTION('center_axis',(0.,0.,1.));
#1086=DIRECTION('ref_axis',(0.,-1.,0.));
#1087=DIRECTION('center_axis',(0.,1.,0.));
#1088=DIRECTION('ref_axis',(0.,0.,1.));
#1089=DIRECTION('',(0.,0.,1.));
#1090=DIRECTION('center_axis',(1.,0.,0.));
#1091=DIRECTION('ref_axis',(0.,0.,-1.));
#1092=CARTESIAN_POINT('',(0.,0.,0.));
#1093=CARTESIAN_POINT('Origin',(3.2,0.806494319378109,2.39717849252281));
#1094=CARTESIAN_POINT('',(3.2,1.,2.5));
#1095=CARTESIAN_POINT('',(3.2,1.,2.12942836395698));
#1096=CARTESIAN_POINT('',(3.2,1.,0.70875));
#1097=CARTESIAN_POINT('',(3.2,0.899793379059882,2.24229337905988));
#1098=CARTESIAN_POINT('Origin',(3.2,0.,1.3425));
#1099=CARTESIAN_POINT('',(3.2,0.725964713828617,2.5));
#1100=CARTESIAN_POINT('',(3.2,0.899793379059882,2.24229337905988));
#1101=CARTESIAN_POINT('',(3.2,0.,2.5));
#1102=CARTESIAN_POINT('Origin',(0.,0.,1.3425));
#1103=CARTESIAN_POINT('',(0.,0.899793379059882,2.24229337905988));
#1104=CARTESIAN_POINT('',(0.,1.11298863875622,1.95935698504563));
#1105=CARTESIAN_POINT('Origin',(0.,0.,1.3425));
#1106=CARTESIAN_POINT('',(0.,0.899793379059882,2.24229337905988));
#1107=CARTESIAN_POINT('',(3.2,1.11298863875622,1.95935698504563));
#1108=CARTESIAN_POINT('Origin',(3.2,0.,1.3425));
#1109=CARTESIAN_POINT('',(0.,1.11298863875622,1.95935698504563));
#1110=CARTESIAN_POINT('Origin',(0.,0.5,2.835));
#1111=CARTESIAN_POINT('',(0.,0.5,2.835));
#1112=CARTESIAN_POINT('',(0.,0.750396904135707,2.46377848729478));
#1113=CARTESIAN_POINT('',(2.3,0.5,2.835));
#1114=CARTESIAN_POINT('',(0.,0.5,2.835));
#1115=CARTESIAN_POINT('',(3.2,0.5,2.835));
#1116=CARTESIAN_POINT('',(0.,0.5,2.835));
#1117=CARTESIAN_POINT('',(3.2,0.750396904135707,2.46377848729478));
#1118=CARTESIAN_POINT('Origin',(3.2,-0.806494319378108,2.39717849252282));
#1119=CARTESIAN_POINT('',(3.2,-1.,2.5));
#1120=CARTESIAN_POINT('',(3.2,-0.725964713828617,2.5));
#1121=CARTESIAN_POINT('',(3.2,0.,2.5));
#1122=CARTESIAN_POINT('',(3.2,-0.899793379059882,2.24229337905988));
#1123=CARTESIAN_POINT('',(3.2,-0.466273923309162,2.885));
#1124=CARTESIAN_POINT('',(3.2,-1.,2.12942836395698));
#1125=CARTESIAN_POINT('Origin',(3.2,0.,1.3425));
#1126=CARTESIAN_POINT('',(3.2,-1.,0.70875));
#1127=CARTESIAN_POINT('Origin',(0.,-0.899793379059882,2.24229337905988));
#1128=CARTESIAN_POINT('',(0.,-0.899793379059882,2.24229337905988));
#1129=CARTESIAN_POINT('',(0.,-0.5,2.835));
#1130=CARTESIAN_POINT('',(0.,-0.950293593665647,2.16742517682472));
#1131=CARTESIAN_POINT('',(0.,-0.899793379059882,2.24229337905988));
#1132=CARTESIAN_POINT('',(3.2,-0.5,2.835));
#1133=CARTESIAN_POINT('',(3.2,-0.950293593665647,2.16742517682472));
#1134=CARTESIAN_POINT('',(2.3,-0.5,2.835));
#1135=CARTESIAN_POINT('',(0.,-0.5,2.835));
#1136=CARTESIAN_POINT('',(0.,-0.5,2.835));
#1137=CARTESIAN_POINT('Origin',(0.,0.,1.3425));
#1138=CARTESIAN_POINT('',(0.,-1.11298863875622,1.95935698504563));
#1139=CARTESIAN_POINT('Origin',(0.,0.,1.3425));
#1140=CARTESIAN_POINT('',(3.2,-1.11298863875622,1.95935698504563));
#1141=CARTESIAN_POINT('',(0.,-1.11298863875622,1.95935698504563));
#1142=CARTESIAN_POINT('Origin',(3.2,0.,1.3425));
#1143=CARTESIAN_POINT('Origin',(0.,1.32,0.01));
#1144=CARTESIAN_POINT('',(3.2,1.32,0.01));
#1145=CARTESIAN_POINT('',(3.2,1.32,0.01));
#1146=CARTESIAN_POINT('',(0.,1.32,0.01));
#1147=CARTESIAN_POINT('',(0.,1.32,0.01));
#1148=CARTESIAN_POINT('',(0.,1.32,0.01));
#1149=CARTESIAN_POINT('Origin',(3.2,0.,1.4175));
#1150=CARTESIAN_POINT('',(3.2,-1.32,0.01));
#1151=CARTESIAN_POINT('',(3.2,-1.02,2.835));
#1152=CARTESIAN_POINT('',(3.2,-1.32,0.));
#1153=CARTESIAN_POINT('',(3.2,-1.32,0.01));
#1154=CARTESIAN_POINT('',(3.2,-1.,0.));
#1155=CARTESIAN_POINT('',(3.2,-1.32,0.));
#1156=CARTESIAN_POINT('',(3.2,-1.,0.70875));
#1157=CARTESIAN_POINT('Origin',(3.2,0.,1.4175));
#1158=CARTESIAN_POINT('',(3.2,1.02,2.835));
#1159=CARTESIAN_POINT('',(3.2,0.,2.5));
#1160=CARTESIAN_POINT('Origin',(0.,1.02,2.835));
#1161=CARTESIAN_POINT('Origin',(2.3,0.,2.835));
#1162=CARTESIAN_POINT('Origin',(0.,-1.02,2.835));
#1163=CARTESIAN_POINT('',(0.,-1.32,0.01));
#1164=CARTESIAN_POINT('',(0.,-1.02,2.835));
#1165=CARTESIAN_POINT('',(0.,-1.32,0.01));
#1166=CARTESIAN_POINT('Origin',(1.35,0.,0.));
#1167=CARTESIAN_POINT('',(1.35,-1.32,0.));
#1168=CARTESIAN_POINT('',(1.35,1.32,0.));
#1169=CARTESIAN_POINT('Origin',(1.35,0.,0.));
#1170=CARTESIAN_POINT('',(0.0300000000000002,1.61653377487451E-16,0.));
#1171=CARTESIAN_POINT('Origin',(1.35,0.,0.));
#1172=CARTESIAN_POINT('',(0.0300000000000002,1.61653377487451E-16,-3.5));
#1173=CARTESIAN_POINT('',(0.0300000000000002,1.61653377487451E-16,0.));
#1174=CARTESIAN_POINT('Origin',(1.35,0.,-3.5));
#1175=CARTESIAN_POINT('Origin',(1.35,0.,0.));
#1176=CARTESIAN_POINT('Origin',(0.675,0.,0.));
#1177=CARTESIAN_POINT('',(0.,1.32,0.));
#1178=CARTESIAN_POINT('',(0.3375,1.32,0.));
#1179=CARTESIAN_POINT('',(0.,-1.32,0.));
#1180=CARTESIAN_POINT('',(0.3375,-1.32,0.));
#1181=CARTESIAN_POINT('',(0.,0.,0.));
#1182=CARTESIAN_POINT('Origin',(0.,0.,1.4175));
#1183=CARTESIAN_POINT('',(0.,1.32,0.));
#1184=CARTESIAN_POINT('',(0.,-1.32,0.01));
#1185=CARTESIAN_POINT('',(0.,1.02,2.835));
#1186=CARTESIAN_POINT('',(0.,0.27353336752649,2.515));
#1187=CARTESIAN_POINT('',(0.,-0.27353336752649,2.515));
#1188=CARTESIAN_POINT('',(0.,0.136766683763245,2.515));
#1189=CARTESIAN_POINT('',(0.,-0.723016683763245,2.06551668376325));
#1190=CARTESIAN_POINT('',(0.,-0.479525025644867,2.30900834188162));
#1191=CARTESIAN_POINT('',(0.,0.723016683763245,2.06551668376325));
#1192=CARTESIAN_POINT('Origin',(0.,2.77555756156289E-16,1.3425));
#1193=CARTESIAN_POINT('',(0.,0.704266683763245,2.08426668376325));
#1194=CARTESIAN_POINT('Origin',(0.,-1.32,0.01));
#1195=CARTESIAN_POINT('',(0.,-1.32,0.));
#1196=CARTESIAN_POINT('Origin',(1.35,0.,0.));
#1197=CARTESIAN_POINT('',(0.327,-1.25281367552774E-16,-3.5));
#1198=CARTESIAN_POINT('Origin',(1.35,0.,-3.5));
#1199=CARTESIAN_POINT('',(0.327,-1.25281367552774E-16,0.));
#1200=CARTESIAN_POINT('',(0.327,1.25281367552774E-16,0.));
#1201=CARTESIAN_POINT('Origin',(1.35,0.,0.));
#1202=CARTESIAN_POINT('Origin',(1.35,0.,-3.5));
#1203=CARTESIAN_POINT('Origin',(0.,-1.32,0.));
#1204=CARTESIAN_POINT('Origin',(5.11243557,0.,1.25));
#1205=CARTESIAN_POINT('',(5.31243556529821,-2.57175827820944E-17,1.46));
#1206=CARTESIAN_POINT('Origin',(5.31243556529821,0.,1.25));
#1207=CARTESIAN_POINT('',(5.81243556529821,2.57175827820944E-17,1.46));
#1208=CARTESIAN_POINT('',(5.11243557,-2.57175827820944E-17,1.46));
#1209=CARTESIAN_POINT('Origin',(5.81243556529821,0.,1.25));
#1210=CARTESIAN_POINT('Origin',(3.7,-1.,0.));
#1211=CARTESIAN_POINT('',(3.7,-0.3,0.4));
#1212=CARTESIAN_POINT('',(3.7,-1.,0.4));
#1213=CARTESIAN_POINT('',(3.7,-0.5,0.4));
#1214=CARTESIAN_POINT('',(3.7,-0.3,2.5));
#1215=CARTESIAN_POINT('',(3.7,-0.3,0.));
#1216=CARTESIAN_POINT('',(3.7,-1.,2.5));
#1217=CARTESIAN_POINT('',(3.7,-1.,2.5));
#1218=CARTESIAN_POINT('',(3.7,-1.,0.));
#1219=CARTESIAN_POINT('Origin',(3.7,0.3,0.));
#1220=CARTESIAN_POINT('',(3.7,1.,0.4));
#1221=CARTESIAN_POINT('',(3.7,0.3,0.4));
#1222=CARTESIAN_POINT('',(3.7,0.15,0.4));
#1223=CARTESIAN_POINT('',(3.7,1.,2.5));
#1224=CARTESIAN_POINT('',(3.7,1.,0.));
#1225=CARTESIAN_POINT('',(3.7,0.3,2.5));
#1226=CARTESIAN_POINT('',(3.7,-1.,2.5));
#1227=CARTESIAN_POINT('',(3.7,0.3,0.));
#1228=CARTESIAN_POINT('Origin',(3.7,0.,0.));
#1229=CARTESIAN_POINT('Origin',(3.7,0.,0.4));
#1230=CARTESIAN_POINT('Origin',(3.7,0.,2.5));
#1231=CARTESIAN_POINT('Origin',(3.6,0.,2.5));
#1232=CARTESIAN_POINT('',(3.7,1.,2.5));
#1233=CARTESIAN_POINT('',(3.2,-1.,2.5));
#1234=CARTESIAN_POINT('Origin',(5.81243556529821,1.,0.));
#1235=CARTESIAN_POINT('',(5.81243556529821,1.,0.4));
#1236=CARTESIAN_POINT('',(5.81243556529821,1.,0.4));
#1237=CARTESIAN_POINT('',(5.81243556529821,1.,0.));
#1238=CARTESIAN_POINT('',(5.81243556529821,1.,0.));
#1239=CARTESIAN_POINT('',(3.2,1.,0.));
#1240=CARTESIAN_POINT('',(5.81243556529821,1.,0.));
#1241=CARTESIAN_POINT('',(3.2,1.,0.70875));
#1242=CARTESIAN_POINT('Origin',(0.,-1.32,0.));
#1243=CARTESIAN_POINT('',(3.2,1.32,0.));
#1244=CARTESIAN_POINT('',(0.,1.32,0.));
#1245=CARTESIAN_POINT('',(3.2,-1.32,0.));
#1246=CARTESIAN_POINT('',(5.81243556529821,-1.,0.));
#1247=CARTESIAN_POINT('',(5.81243556529821,-1.,0.));
#1248=CARTESIAN_POINT('',(3.2,-1.,0.));
#1249=CARTESIAN_POINT('Origin',(4.50621778264911,0.,0.4));
#1250=CARTESIAN_POINT('',(5.81243556529821,-1.,0.4));
#1251=CARTESIAN_POINT('',(3.2,-1.,0.4));
#1252=CARTESIAN_POINT('',(5.81243556529821,-0.45,0.4));
#1253=CARTESIAN_POINT('',(5.81243556529821,-1.,0.4));
#1254=CARTESIAN_POINT('',(5.31243556529821,-0.45,0.4));
#1255=CARTESIAN_POINT('',(4.90932667397366,-0.45,0.4));
#1256=CARTESIAN_POINT('',(5.31243556529821,0.45,0.4));
#1257=CARTESIAN_POINT('',(5.31243556529821,0.225,0.4));
#1258=CARTESIAN_POINT('',(5.81243556529821,0.45,0.4));
#1259=CARTESIAN_POINT('',(5.15932667397366,0.45,0.4));
#1260=CARTESIAN_POINT('',(5.81243556529821,-1.,0.4));
#1261=CARTESIAN_POINT('Origin',(5.31243556529821,-0.45,0.));
#1262=CARTESIAN_POINT('',(5.81243556529821,-0.45,2.5));
#1263=CARTESIAN_POINT('',(5.81243556529821,-0.45,0.));
#1264=CARTESIAN_POINT('',(5.31243556529821,-0.45,2.5));
#1265=CARTESIAN_POINT('',(5.31243556529821,-0.45,2.5));
#1266=CARTESIAN_POINT('',(5.31243556529821,-0.45,0.));
#1267=CARTESIAN_POINT('Origin',(5.81243556529821,0.45,0.));
#1268=CARTESIAN_POINT('',(5.31243556529821,0.45,2.5));
#1269=CARTESIAN_POINT('',(5.31243556529821,0.45,0.));
#1270=CARTESIAN_POINT('',(5.81243556529821,0.45,2.5));
#1271=CARTESIAN_POINT('',(5.81243556529821,0.45,2.5));
#1272=CARTESIAN_POINT('',(5.81243556529821,0.45,0.));
#1273=CARTESIAN_POINT('Origin',(5.31243556529821,0.45,0.));
#1274=CARTESIAN_POINT('',(5.31243556529821,0.45,2.5));
#1275=CARTESIAN_POINT('Origin',(5.56243556529821,0.,2.5));
#1276=CARTESIAN_POINT('',(5.81243556529821,-0.45,2.5));
#1277=CARTESIAN_POINT('Origin',(5.81243556529821,-1.,0.));
#1278=CARTESIAN_POINT('',(5.81243556529821,-1.,0.));
#1279=CARTESIAN_POINT('Origin',(3.2,-1.,0.));
#1280=CARTESIAN_POINT('Origin',(2.3,0.,1.3425));
#1281=CARTESIAN_POINT('',(2.09,-2.57175827820944E-17,2.515));
#1282=CARTESIAN_POINT('Origin',(2.3,0.,2.515));
#1283=CARTESIAN_POINT('',(2.09,2.57175827820944E-17,3.135));
#1284=CARTESIAN_POINT('',(2.09,-2.57175827820944E-17,1.3425));
#1285=CARTESIAN_POINT('Origin',(2.3,0.,3.135));
#1286=CARTESIAN_POINT('Origin',(2.3,0.,2.835));
#1287=CARTESIAN_POINT('',(1.8,-6.12323399573677E-17,3.135));
#1288=CARTESIAN_POINT('Origin',(2.3,0.,3.135));
#1289=CARTESIAN_POINT('',(1.8,-6.12323399573677E-17,2.835));
#1290=CARTESIAN_POINT('',(1.8,-6.12323399573677E-17,2.835));
#1291=CARTESIAN_POINT('Origin',(2.3,0.,2.835));
#1292=CARTESIAN_POINT('Origin',(2.3,0.,2.835));
#1293=CARTESIAN_POINT('Origin',(2.3,0.,3.135));
#1294=CARTESIAN_POINT('Origin',(-0.1,2.77555756156289E-16,1.3425));
#1295=CARTESIAN_POINT('',(2.7,-0.723016683763245,2.06551668376325));
#1296=CARTESIAN_POINT('',(-0.1,-0.723016683763245,2.06551668376325));
#1297=CARTESIAN_POINT('',(2.7,0.723016683763245,2.06551668376325));
#1298=CARTESIAN_POINT('Origin',(2.7,2.77555756156289E-16,1.3425));
#1299=CARTESIAN_POINT('',(-0.1,0.723016683763245,2.06551668376325));
#1300=CARTESIAN_POINT('Origin',(-0.1,0.723016683763245,2.06551668376325));
#1301=CARTESIAN_POINT('',(2.7,0.27353336752649,2.515));
#1302=CARTESIAN_POINT('',(2.7,0.723016683763245,2.06551668376325));
#1303=CARTESIAN_POINT('',(-0.1,0.27353336752649,2.515));
#1304=CARTESIAN_POINT('Origin',(-0.1,0.27353336752649,2.515));
#1305=CARTESIAN_POINT('',(2.7,-0.27353336752649,2.515));
#1306=CARTESIAN_POINT('',(2.7,0.27353336752649,2.515));
#1307=CARTESIAN_POINT('',(-0.1,-0.27353336752649,2.515));
#1308=CARTESIAN_POINT('Origin',(-0.1,-0.27353336752649,2.515));
#1309=CARTESIAN_POINT('',(2.7,-0.27353336752649,2.515));
#1310=CARTESIAN_POINT('Origin',(2.7,2.22044604925031E-16,1.4175));
#1311=CARTESIAN_POINT('Origin',(0.,1.02,2.835));
#1312=CARTESIAN_POINT('Origin',(0.,1.32,0.));
#1313=CARTESIAN_POINT('',(3.2,1.32,0.));
#1314=CARTESIAN_POINT('Origin',(3.2,0.,1.4175));
#1315=UNCERTAINTY_MEASURE_WITH_UNIT(LENGTH_MEASURE(0.001),#1319,
'DISTANCE_ACCURACY_VALUE',
'Maximum model space distance between geometric entities at asserted c
onnectivities');
#1316=UNCERTAINTY_MEASURE_WITH_UNIT(LENGTH_MEASURE(0.001),#1319,
'DISTANCE_ACCURACY_VALUE',
'Maximum model space distance between geometric entities at asserted c
onnectivities');
#1317=(
GEOMETRIC_REPRESENTATION_CONTEXT(3)
GLOBAL_UNCERTAINTY_ASSIGNED_CONTEXT((#1315))
GLOBAL_UNIT_ASSIGNED_CONTEXT((#1319,#1321,#1322))
REPRESENTATION_CONTEXT('','3D')
);
#1318=(
GEOMETRIC_REPRESENTATION_CONTEXT(3)
GLOBAL_UNCERTAINTY_ASSIGNED_CONTEXT((#1316))
GLOBAL_UNIT_ASSIGNED_CONTEXT((#1319,#1321,#1322))
REPRESENTATION_CONTEXT('','3D')
);
#1319=(
LENGTH_UNIT()
NAMED_UNIT(*)
SI_UNIT(.CENTI.,.METRE.)
);
#1320=(
LENGTH_UNIT()
NAMED_UNIT(*)
SI_UNIT($,.METRE.)
);
#1321=(
NAMED_UNIT(*)
PLANE_ANGLE_UNIT()
SI_UNIT($,.RADIAN.)
);
#1322=(
NAMED_UNIT(*)
SI_UNIT($,.STERADIAN.)
SOLID_ANGLE_UNIT()
);
#1323=SHAPE_DEFINITION_REPRESENTATION(#1324,#1325);
#1324=PRODUCT_DEFINITION_SHAPE('',$,#1327);
#1325=SHAPE_REPRESENTATION('',(#803),#1317);
#1326=PRODUCT_DEFINITION_CONTEXT('part definition',#1331,'design');
#1327=PRODUCT_DEFINITION('Smart Bin - camera clamp',
'Smart Bin - camera clamp v9',#1328,#1326);
#1328=PRODUCT_DEFINITION_FORMATION('',$,#1333);
#1329=PRODUCT_RELATED_PRODUCT_CATEGORY('Smart Bin - camera clamp v9',
'Smart Bin - camera clamp v9',(#1333));
#1330=APPLICATION_PROTOCOL_DEFINITION('international standard',
'automotive_design',2009,#1331);
#1331=APPLICATION_CONTEXT(
'Core Data for Automotive Mechanical Design Process');
#1332=PRODUCT_CONTEXT('part definition',#1331,'mechanical');
#1333=PRODUCT('Smart Bin - camera clamp','Smart Bin - camera clamp v9',
$,(#1332));
#1334=PRESENTATION_STYLE_ASSIGNMENT((#1335));
#1335=SURFACE_STYLE_USAGE(.BOTH.,#1336);
#1336=SURFACE_SIDE_STYLE('',(#1337));
#1337=SURFACE_STYLE_FILL_AREA(#1338);
#1338=FILL_AREA_STYLE('Steel - Satin',(#1339));
#1339=FILL_AREA_STYLE_COLOUR('Steel - Satin',#1340);
#1340=COLOUR_RGB('Steel - Satin',0.627450980392157,0.627450980392157,0.627450980392157);
ENDSEC;
END-ISO-10303-21;
