ISO-10303-21;
HEADER;
FILE_DESCRIPTION(('FreeCAD Model'),'2;1');
FILE_NAME('Open CASCADE Shape Model','2026-08-10T12:59:28',('FreeCAD'),(
    'FreeCAD'),'Open CASCADE STEP processor 7.8','FreeCAD','Unknown');
FILE_SCHEMA(('AUTOMOTIVE_DESIGN { 1 0 10303 214 1 1 1 1 }'));
ENDSEC;
DATA;
#1 = APPLICATION_PROTOCOL_DEFINITION('international standard',
  'automotive_design',2000,#2);
#2 = APPLICATION_CONTEXT(
  'core data for automotive mechanical design processes');
#3 = SHAPE_DEFINITION_REPRESENTATION(#4,#10);
#4 = PRODUCT_DEFINITION_SHAPE('','',#5);
#5 = PRODUCT_DEFINITION('design','',#6,#9);
#6 = PRODUCT_DEFINITION_FORMATION('','',#7);
#7 = PRODUCT('Open CASCADE STEP translator 7.8 3',
  'Open CASCADE STEP translator 7.8 3','',(#8));
#8 = PRODUCT_CONTEXT('',#2,'mechanical');
#9 = PRODUCT_DEFINITION_CONTEXT('part definition',#2,'design');
#10 = ADVANCED_BREP_SHAPE_REPRESENTATION('',(#11,#15),#2233);
#11 = AXIS2_PLACEMENT_3D('',#12,#13,#14);
#12 = CARTESIAN_POINT('',(0.,0.,0.));
#13 = DIRECTION('',(0.,0.,1.));
#14 = DIRECTION('',(1.,0.,-0.));
#15 = MANIFOLD_SOLID_BREP('',#16);
#16 = CLOSED_SHELL('',(#17,#57,#418,#449,#519,#547,#575,#587,#618,#642,
    #666,#707,#732,#757,#798,#822,#846,#870,#894,#918,#942,#966,#990,
    #1014,#1038,#1062,#1086,#1110,#1134,#1158,#1182,#1206,#1230,#1254,
    #1278,#1319,#1344,#1369,#1410,#1434,#1458,#1482,#1506,#1530,#1554,
    #1578,#1595,#1642,#1692,#1732,#1797,#1833,#1869,#1940,#1957,#1969,
    #1986,#1998,#2022,#2081,#2098,#2112,#2136,#2160,#2177,#2202,#2217));
#17 = ADVANCED_FACE('',(#18),#52,.F.);
#18 = FACE_BOUND('',#19,.F.);
#19 = EDGE_LOOP('',(#20,#30,#38,#46));
#20 = ORIENTED_EDGE('',*,*,#21,.T.);
#21 = EDGE_CURVE('',#22,#24,#26,.T.);
#22 = VERTEX_POINT('',#23);
#23 = CARTESIAN_POINT('',(0.,-13.2,0.1));
#24 = VERTEX_POINT('',#25);
#25 = CARTESIAN_POINT('',(32.,-13.2,0.1));
#26 = LINE('',#27,#28);
#27 = CARTESIAN_POINT('',(0.,-13.2,0.1));
#28 = VECTOR('',#29,1.);
#29 = DIRECTION('',(1.,0.,0.));
#30 = ORIENTED_EDGE('',*,*,#31,.T.);
#31 = EDGE_CURVE('',#24,#32,#34,.T.);
#32 = VERTEX_POINT('',#33);
#33 = CARTESIAN_POINT('',(32.,-13.2,0.));
#34 = LINE('',#35,#36);
#35 = CARTESIAN_POINT('',(32.,-13.2,0.1));
#36 = VECTOR('',#37,1.);
#37 = DIRECTION('',(0.,0.,-1.));
#38 = ORIENTED_EDGE('',*,*,#39,.F.);
#39 = EDGE_CURVE('',#40,#32,#42,.T.);
#40 = VERTEX_POINT('',#41);
#41 = CARTESIAN_POINT('',(0.,-13.2,0.));
#42 = LINE('',#43,#44);
#43 = CARTESIAN_POINT('',(0.,-13.2,0.));
#44 = VECTOR('',#45,1.);
#45 = DIRECTION('',(1.,0.,0.));
#46 = ORIENTED_EDGE('',*,*,#47,.F.);
#47 = EDGE_CURVE('',#22,#40,#48,.T.);
#48 = LINE('',#49,#50);
#49 = CARTESIAN_POINT('',(0.,-13.2,0.1));
#50 = VECTOR('',#51,1.);
#51 = DIRECTION('',(0.,0.,-1.));
#52 = PLANE('',#53);
#53 = AXIS2_PLACEMENT_3D('',#54,#55,#56);
#54 = CARTESIAN_POINT('',(0.,-13.2,0.1));
#55 = DIRECTION('',(0.,1.,0.));
#56 = DIRECTION('',(0.,0.,-1.));
#57 = ADVANCED_FACE('',(#58,#99),#413,.F.);
#58 = FACE_BOUND('',#59,.F.);
#59 = EDGE_LOOP('',(#60,#68,#76,#84,#92,#98));
#60 = ORIENTED_EDGE('',*,*,#61,.T.);
#61 = EDGE_CURVE('',#40,#62,#64,.T.);
#62 = VERTEX_POINT('',#63);
#63 = CARTESIAN_POINT('',(0.,13.2,0.));
#64 = LINE('',#65,#66);
#65 = CARTESIAN_POINT('',(0.,-13.2,0.));
#66 = VECTOR('',#67,1.);
#67 = DIRECTION('',(0.,1.,0.));
#68 = ORIENTED_EDGE('',*,*,#69,.T.);
#69 = EDGE_CURVE('',#62,#70,#72,.T.);
#70 = VERTEX_POINT('',#71);
#71 = CARTESIAN_POINT('',(0.,13.2,0.1));
#72 = LINE('',#73,#74);
#73 = CARTESIAN_POINT('',(0.,13.2,0.));
#74 = VECTOR('',#75,1.);
#75 = DIRECTION('',(0.,0.,1.));
#76 = ORIENTED_EDGE('',*,*,#77,.T.);
#77 = EDGE_CURVE('',#70,#78,#80,.T.);
#78 = VERTEX_POINT('',#79);
#79 = CARTESIAN_POINT('',(0.,10.2,28.35));
#80 = LINE('',#81,#82);
#81 = CARTESIAN_POINT('',(0.,13.2,0.1));
#82 = VECTOR('',#83,1.);
#83 = DIRECTION('',(0.,-0.105600912396,0.994408591727));
#84 = ORIENTED_EDGE('',*,*,#85,.T.);
#85 = EDGE_CURVE('',#78,#86,#88,.T.);
#86 = VERTEX_POINT('',#87);
#87 = CARTESIAN_POINT('',(0.,-10.2,28.35));
#88 = LINE('',#89,#90);
#89 = CARTESIAN_POINT('',(0.,10.2,28.35));
#90 = VECTOR('',#91,1.);
#91 = DIRECTION('',(0.,-1.,0.));
#92 = ORIENTED_EDGE('',*,*,#93,.T.);
#93 = EDGE_CURVE('',#86,#22,#94,.T.);
#94 = LINE('',#95,#96);
#95 = CARTESIAN_POINT('',(0.,-10.2,28.35));
#96 = VECTOR('',#97,1.);
#97 = DIRECTION('',(0.,-0.105600912396,-0.994408591727));
#98 = ORIENTED_EDGE('',*,*,#47,.T.);
#99 = FACE_BOUND('',#100,.F.);
#100 = EDGE_LOOP('',(#101,#111,#119,#127,#135,#143,#151,#159,#167,#175,
    #183,#191,#199,#207,#215,#223,#231,#239,#247,#255,#263,#271,#279,
    #287,#295,#303,#311,#319,#327,#335,#343,#351,#359,#367,#375,#383,
    #391,#399,#407));
#101 = ORIENTED_EDGE('',*,*,#102,.T.);
#102 = EDGE_CURVE('',#103,#105,#107,.T.);
#103 = VERTEX_POINT('',#104);
#104 = CARTESIAN_POINT('',(0.,-8.85511,18.5375));
#105 = VERTEX_POINT('',#106);
#106 = CARTESIAN_POINT('',(0.,-8.11204,19.64959));
#107 = LINE('',#108,#109);
#108 = CARTESIAN_POINT('',(0.,-8.313769655833,19.347678291877));
#109 = VECTOR('',#110,1.);
#110 = DIRECTION('',(0.,0.555567761526,0.831471263697));
#111 = ORIENTED_EDGE('',*,*,#112,.T.);
#112 = EDGE_CURVE('',#105,#113,#115,.T.);
#113 = VERTEX_POINT('',#114);
#114 = CARTESIAN_POINT('',(0.,-7.23017,20.65517));
#115 = LINE('',#116,#117);
#116 = CARTESIAN_POINT('',(0.,-7.467758003183,20.384252807851));
#117 = VECTOR('',#118,1.);
#118 = DIRECTION('',(0.,0.659345818626,0.751839804386));
#119 = ORIENTED_EDGE('',*,*,#120,.T.);
#120 = EDGE_CURVE('',#113,#121,#123,.T.);
#121 = VERTEX_POINT('',#122);
#122 = CARTESIAN_POINT('',(0.,-2.73533,25.15));
#123 = LINE('',#124,#125);
#124 = CARTESIAN_POINT('',(0.,-5.000013862377,22.885321176031));
#125 = VECTOR('',#126,1.);
#126 = DIRECTION('',(0.,0.707107567763,0.707105994609));
#127 = ORIENTED_EDGE('',*,*,#128,.T.);
#128 = EDGE_CURVE('',#121,#129,#131,.T.);
#129 = VERTEX_POINT('',#130);
#130 = CARTESIAN_POINT('',(0.,2.73533,25.15));
#131 = LINE('',#132,#133);
#132 = CARTESIAN_POINT('',(0.,1.367665,25.15));
#133 = VECTOR('',#134,1.);
#134 = DIRECTION('',(0.,1.,0.));
#135 = ORIENTED_EDGE('',*,*,#136,.T.);
#136 = EDGE_CURVE('',#129,#137,#139,.T.);
#137 = VERTEX_POINT('',#138);
#138 = CARTESIAN_POINT('',(0.,7.23017,20.65517));
#139 = LINE('',#140,#141);
#140 = CARTESIAN_POINT('',(0.,7.247433862377,20.637906176031));
#141 = VECTOR('',#142,1.);
#142 = DIRECTION('',(0.,0.707107567763,-0.707105994609));
#143 = ORIENTED_EDGE('',*,*,#144,.T.);
#144 = EDGE_CURVE('',#137,#145,#147,.T.);
#145 = VERTEX_POINT('',#146);
#146 = CARTESIAN_POINT('',(0.,8.11204,19.64959));
#147 = LINE('',#148,#149);
#148 = CARTESIAN_POINT('',(0.,7.908693003183,19.881462807851));
#149 = VECTOR('',#150,1.);
#150 = DIRECTION('',(0.,0.659345818626,-0.751839804386));
#151 = ORIENTED_EDGE('',*,*,#152,.T.);
#152 = EDGE_CURVE('',#145,#153,#155,.T.);
#153 = VERTEX_POINT('',#154);
#154 = CARTESIAN_POINT('',(0.,8.85511,18.5375));
#155 = LINE('',#156,#157);
#156 = CARTESIAN_POINT('',(0.,8.685304655833,18.791633291877));
#157 = VECTOR('',#158,1.);
#158 = DIRECTION('',(0.,0.555567761526,-0.831471263697));
#159 = ORIENTED_EDGE('',*,*,#160,.T.);
#160 = EDGE_CURVE('',#153,#161,#163,.T.);
#161 = VERTEX_POINT('',#162);
#162 = CARTESIAN_POINT('',(0.,9.44667,17.33794));
#163 = LINE('',#164,#165);
#164 = CARTESIAN_POINT('',(1.110223024625E-16,9.312475916487,
    17.610057544829));
#165 = VECTOR('',#166,1.);
#166 = DIRECTION('',(0.,0.442290177353,-0.896872008158));
#167 = ORIENTED_EDGE('',*,*,#168,.T.);
#168 = EDGE_CURVE('',#161,#169,#171,.T.);
#169 = VERTEX_POINT('',#170);
#170 = CARTESIAN_POINT('',(0.,9.87659,16.07142));
#171 = LINE('',#172,#173);
#172 = CARTESIAN_POINT('',(0.,9.779628202618,16.357063970088));
#173 = VECTOR('',#174,1.);
#174 = DIRECTION('',(0.,0.321435705668,-0.946931405711));
#175 = ORIENTED_EDGE('',*,*,#176,.T.);
#176 = EDGE_CURVE('',#169,#177,#179,.T.);
#177 = VERTEX_POINT('',#178);
#178 = CARTESIAN_POINT('',(0.,10.1375,14.75963));
#179 = LINE('',#180,#181);
#180 = CARTESIAN_POINT('',(0.,10.078895645547,15.054277986385));
#181 = VECTOR('',#182,1.);
#182 = DIRECTION('',(0.,0.195075035502,-0.980788320956));
#183 = ORIENTED_EDGE('',*,*,#184,.T.);
#184 = EDGE_CURVE('',#177,#185,#187,.T.);
#185 = VERTEX_POINT('',#186);
#186 = CARTESIAN_POINT('',(0.,10.225,13.425));
#187 = LINE('',#188,#189);
#188 = CARTESIAN_POINT('',(0.,10.20537362921,13.724359351398));
#189 = VECTOR('',#190,1.);
#190 = DIRECTION('',(0.,6.542079412312E-02,-0.997857765263));
#191 = ORIENTED_EDGE('',*,*,#192,.T.);
#192 = EDGE_CURVE('',#185,#193,#195,.T.);
#193 = VERTEX_POINT('',#194);
#194 = CARTESIAN_POINT('',(0.,10.1375,12.09037));
#195 = LINE('',#196,#197);
#196 = CARTESIAN_POINT('',(0.,10.157114594685,12.389549731473));
#197 = VECTOR('',#198,1.);
#198 = DIRECTION('',(0.,-6.542079412312E-02,-0.997857765263));
#199 = ORIENTED_EDGE('',*,*,#200,.T.);
#200 = EDGE_CURVE('',#193,#201,#203,.T.);
#201 = VERTEX_POINT('',#202);
#202 = CARTESIAN_POINT('',(0.,9.87659,10.77858));
#203 = LINE('',#204,#205);
#204 = CARTESIAN_POINT('',(0.,9.935225374101,11.07338394539));
#205 = VECTOR('',#206,1.);
#206 = DIRECTION('',(0.,-0.195075035502,-0.980788320956));
#207 = ORIENTED_EDGE('',*,*,#208,.T.);
#208 = EDGE_CURVE('',#201,#209,#211,.T.);
#209 = VERTEX_POINT('',#210);
#210 = CARTESIAN_POINT('',(0.,9.44667,9.51206));
#211 = LINE('',#212,#213);
#212 = CARTESIAN_POINT('',(0.,9.543644377001,9.797741028934));
#213 = VECTOR('',#214,1.);
#214 = DIRECTION('',(0.,-0.321435705668,-0.946931405711));
#215 = ORIENTED_EDGE('',*,*,#216,.T.);
#216 = EDGE_CURVE('',#209,#217,#219,.T.);
#217 = VERTEX_POINT('',#218);
#218 = CARTESIAN_POINT('',(0.,8.85511,8.3125));
#219 = LINE('',#220,#221);
#220 = CARTESIAN_POINT('',(1.110223024625E-16,8.989296780247,
    8.584602735333));
#221 = VECTOR('',#222,1.);
#222 = DIRECTION('',(0.,-0.442290177353,-0.896872008158));
#223 = ORIENTED_EDGE('',*,*,#224,.T.);
#224 = EDGE_CURVE('',#217,#225,#227,.T.);
#225 = VERTEX_POINT('',#226);
#226 = CARTESIAN_POINT('',(0.,8.11204,7.20041));
#227 = LINE('',#228,#229);
#228 = CARTESIAN_POINT('',(0.,8.281862845655,7.454569484873));
#229 = VECTOR('',#230,1.);
#230 = DIRECTION('',(0.,-0.555567761526,-0.831471263697));
#231 = ORIENTED_EDGE('',*,*,#232,.T.);
#232 = EDGE_CURVE('',#225,#233,#235,.T.);
#233 = VERTEX_POINT('',#234);
#234 = CARTESIAN_POINT('',(0.,7.23017,6.19483));
#235 = LINE('',#236,#237);
#236 = CARTESIAN_POINT('',(0.,7.433517693903,6.426703602725));
#237 = VECTOR('',#238,1.);
#238 = DIRECTION('',(0.,-0.659345818626,-0.751839804386));
#239 = ORIENTED_EDGE('',*,*,#240,.T.);
#240 = EDGE_CURVE('',#233,#241,#243,.T.);
#241 = VERTEX_POINT('',#242);
#242 = CARTESIAN_POINT('',(0.,6.22459,5.31296));
#243 = LINE('',#244,#245);
#244 = CARTESIAN_POINT('',(0.,6.458864447923,5.518413178653));
#245 = VECTOR('',#246,1.);
#246 = DIRECTION('',(0.,-0.751839804386,-0.659345818626));
#247 = ORIENTED_EDGE('',*,*,#248,.T.);
#248 = EDGE_CURVE('',#241,#249,#251,.T.);
#249 = VERTEX_POINT('',#250);
#250 = CARTESIAN_POINT('',(0.,5.1125,4.56989));
#251 = LINE('',#252,#253);
#252 = CARTESIAN_POINT('',(0.,5.374555998413,4.744989093365));
#253 = VECTOR('',#254,1.);
#254 = DIRECTION('',(0.,-0.831471263697,-0.555567761526));
#255 = ORIENTED_EDGE('',*,*,#256,.T.);
#256 = EDGE_CURVE('',#249,#257,#259,.T.);
#257 = VERTEX_POINT('',#258);
#258 = CARTESIAN_POINT('',(0.,3.91294,3.97833));
#259 = LINE('',#260,#261);
#260 = CARTESIAN_POINT('',(1.110223024625E-16,4.199137836629,
    4.119467744036));
#261 = VECTOR('',#262,1.);
#262 = DIRECTION('',(0.,-0.896872008158,-0.442290177353));
#263 = ORIENTED_EDGE('',*,*,#264,.T.);
#264 = EDGE_CURVE('',#257,#265,#267,.T.);
#265 = VERTEX_POINT('',#266);
#266 = CARTESIAN_POINT('',(0.,2.64642,3.54841));
#267 = LINE('',#268,#269);
#268 = CARTESIAN_POINT('',(0.,2.952519557768,3.652315443164));
#269 = VECTOR('',#270,1.);
#270 = DIRECTION('',(0.,-0.946931405711,-0.321435705668));
#271 = ORIENTED_EDGE('',*,*,#272,.T.);
#272 = EDGE_CURVE('',#265,#273,#275,.T.);
#273 = VERTEX_POINT('',#274);
#274 = CARTESIAN_POINT('',(0.,1.33463,3.2875));
#275 = LINE('',#276,#277);
#276 = CARTESIAN_POINT('',(0.,1.655891884774,3.351397756772));
#277 = VECTOR('',#278,1.);
#278 = DIRECTION('',(0.,-0.980788320956,-0.195075035502));
#279 = ORIENTED_EDGE('',*,*,#280,.T.);
#280 = EDGE_CURVE('',#273,#281,#283,.T.);
#281 = VERTEX_POINT('',#282);
#282 = CARTESIAN_POINT('',(0.,0.,3.2));
#283 = LINE('',#284,#285);
#284 = CARTESIAN_POINT('',(0.,0.3314927927,3.221733079102));
#285 = VECTOR('',#286,1.);
#286 = DIRECTION('',(0.,-0.997857765263,-6.542079412312E-02));
#287 = ORIENTED_EDGE('',*,*,#288,.T.);
#288 = EDGE_CURVE('',#281,#289,#291,.T.);
#289 = VERTEX_POINT('',#290);
#290 = CARTESIAN_POINT('',(0.,-1.33463,3.2875));
#291 = LINE('',#292,#293);
#292 = CARTESIAN_POINT('',(0.,-0.9988077927,3.265483079102));
#293 = VECTOR('',#294,1.);
#294 = DIRECTION('',(0.,-0.997857765263,6.542079412312E-02));
#295 = ORIENTED_EDGE('',*,*,#296,.T.);
#296 = EDGE_CURVE('',#289,#297,#299,.T.);
#297 = VERTEX_POINT('',#298);
#298 = CARTESIAN_POINT('',(0.,-2.64642,3.54841));
#299 = LINE('',#300,#301);
#300 = CARTESIAN_POINT('',(0.,-2.311786884774,3.481852756772));
#301 = VECTOR('',#302,1.);
#302 = DIRECTION('',(0.,-0.980788320956,0.195075035502));
#303 = ORIENTED_EDGE('',*,*,#304,.T.);
#304 = EDGE_CURVE('',#297,#305,#307,.T.);
#305 = VERTEX_POINT('',#306);
#306 = CARTESIAN_POINT('',(0.,-3.91294,3.97833));
#307 = LINE('',#308,#309);
#308 = CARTESIAN_POINT('',(0.,-3.585779557768,3.867275443164));
#309 = VECTOR('',#310,1.);
#310 = DIRECTION('',(0.,-0.946931405711,0.321435705668));
#311 = ORIENTED_EDGE('',*,*,#312,.T.);
#312 = EDGE_CURVE('',#305,#313,#315,.T.);
#313 = VERTEX_POINT('',#314);
#314 = CARTESIAN_POINT('',(0.,-5.1125,4.56989));
#315 = LINE('',#316,#317);
#316 = CARTESIAN_POINT('',(1.110223024625E-16,-4.798917836629,
    4.415247744036));
#317 = VECTOR('',#318,1.);
#318 = DIRECTION('',(0.,-0.896872008158,0.442290177353));
#319 = ORIENTED_EDGE('',*,*,#320,.T.);
#320 = EDGE_CURVE('',#313,#321,#323,.T.);
#321 = VERTEX_POINT('',#322);
#322 = CARTESIAN_POINT('',(0.,-6.22459,5.31296));
#323 = LINE('',#324,#325);
#324 = CARTESIAN_POINT('',(0.,-5.930600998413,5.116524093365));
#325 = VECTOR('',#326,1.);
#326 = DIRECTION('',(0.,-0.831471263697,0.555567761526));
#327 = ORIENTED_EDGE('',*,*,#328,.T.);
#328 = EDGE_CURVE('',#321,#329,#331,.T.);
#329 = VERTEX_POINT('',#330);
#330 = CARTESIAN_POINT('',(0.,-7.23017,6.19483));
#331 = LINE('',#332,#333);
#332 = CARTESIAN_POINT('',(0.,-6.961654447923,5.959348178653));
#333 = VECTOR('',#334,1.);
#334 = DIRECTION('',(0.,-0.751839804386,0.659345818626));
#335 = ORIENTED_EDGE('',*,*,#336,.T.);
#336 = EDGE_CURVE('',#329,#337,#339,.T.);
#337 = VERTEX_POINT('',#338);
#338 = CARTESIAN_POINT('',(0.,-8.11204,7.20041));
#339 = LINE('',#340,#341);
#340 = CARTESIAN_POINT('',(0.,-7.874452693903,6.929493602725));
#341 = VECTOR('',#342,1.);
#342 = DIRECTION('',(0.,-0.659345818626,0.751839804386));
#343 = ORIENTED_EDGE('',*,*,#344,.T.);
#344 = EDGE_CURVE('',#337,#345,#347,.T.);
#345 = VERTEX_POINT('',#346);
#346 = CARTESIAN_POINT('',(0.,-8.85511,8.3125));
#347 = LINE('',#348,#349);
#348 = CARTESIAN_POINT('',(0.,-8.653397845655,8.010614484873));
#349 = VECTOR('',#350,1.);
#350 = DIRECTION('',(0.,-0.555567761526,0.831471263697));
#351 = ORIENTED_EDGE('',*,*,#352,.T.);
#352 = EDGE_CURVE('',#345,#353,#355,.T.);
#353 = VERTEX_POINT('',#354);
#354 = CARTESIAN_POINT('',(0.,-9.44667,9.51206));
#355 = LINE('',#356,#357);
#356 = CARTESIAN_POINT('',(1.110223024625E-16,-9.285076780247,
    9.184382735333));
#357 = VECTOR('',#358,1.);
#358 = DIRECTION('',(0.,-0.442290177353,0.896872008158));
#359 = ORIENTED_EDGE('',*,*,#360,.T.);
#360 = EDGE_CURVE('',#353,#361,#363,.T.);
#361 = VERTEX_POINT('',#362);
#362 = CARTESIAN_POINT('',(0.,-9.87659,10.77858));
#363 = LINE('',#364,#365);
#364 = CARTESIAN_POINT('',(0.,-9.758604377001,10.431001028934));
#365 = VECTOR('',#366,1.);
#366 = DIRECTION('',(0.,-0.321435705668,0.946931405711));
#367 = ORIENTED_EDGE('',*,*,#368,.T.);
#368 = EDGE_CURVE('',#361,#369,#371,.T.);
#369 = VERTEX_POINT('',#370);
#370 = CARTESIAN_POINT('',(0.,-10.1375,12.09037));
#371 = LINE('',#372,#373);
#372 = CARTESIAN_POINT('',(0.,-10.0656803741,11.72927894539));
#373 = VECTOR('',#374,1.);
#374 = DIRECTION('',(0.,-0.195075035502,0.980788320956));
#375 = ORIENTED_EDGE('',*,*,#376,.T.);
#376 = EDGE_CURVE('',#369,#377,#379,.T.);
#377 = VERTEX_POINT('',#378);
#378 = CARTESIAN_POINT('',(0.,-10.225,13.425));
#379 = LINE('',#380,#381);
#380 = CARTESIAN_POINT('',(0.,-10.20086459468,13.056864731473));
#381 = VECTOR('',#382,1.);
#382 = DIRECTION('',(0.,-6.542079412312E-02,0.997857765263));
#383 = ORIENTED_EDGE('',*,*,#384,.T.);
#384 = EDGE_CURVE('',#377,#385,#387,.T.);
#385 = VERTEX_POINT('',#386);
#386 = CARTESIAN_POINT('',(0.,-10.1375,14.75963));
#387 = LINE('',#388,#389);
#388 = CARTESIAN_POINT('',(0.,-10.16162362921,14.391674351398));
#389 = VECTOR('',#390,1.);
#390 = DIRECTION('',(0.,6.542079412312E-02,0.997857765263));
#391 = ORIENTED_EDGE('',*,*,#392,.T.);
#392 = EDGE_CURVE('',#385,#393,#395,.T.);
#393 = VERTEX_POINT('',#394);
#394 = CARTESIAN_POINT('',(0.,-9.87659,16.07142));
#395 = LINE('',#396,#397);
#396 = CARTESIAN_POINT('',(0.,-9.948440645547,15.710172986385));
#397 = VECTOR('',#398,1.);
#398 = DIRECTION('',(0.,0.195075035502,0.980788320956));
#399 = ORIENTED_EDGE('',*,*,#400,.T.);
#400 = EDGE_CURVE('',#393,#401,#403,.T.);
#401 = VERTEX_POINT('',#402);
#402 = CARTESIAN_POINT('',(0.,-9.44667,17.33794));
#403 = LINE('',#404,#405);
#404 = CARTESIAN_POINT('',(0.,-9.564668202618,16.990323970088));
#405 = VECTOR('',#406,1.);
#406 = DIRECTION('',(0.,0.321435705668,0.946931405711));
#407 = ORIENTED_EDGE('',*,*,#408,.T.);
#408 = EDGE_CURVE('',#401,#103,#409,.T.);
#409 = LINE('',#410,#411);
#410 = CARTESIAN_POINT('',(1.110223024625E-16,-9.016695916487,
    18.209837544829));
#411 = VECTOR('',#412,1.);
#412 = DIRECTION('',(0.,0.442290177353,0.896872008158));
#413 = PLANE('',#414);
#414 = AXIS2_PLACEMENT_3D('',#415,#416,#417);
#415 = CARTESIAN_POINT('',(0.,2.074629717687E-16,13.355928464968));
#416 = DIRECTION('',(1.,0.,0.));
#417 = DIRECTION('',(0.,1.,0.));
#418 = ADVANCED_FACE('',(#419),#444,.F.);
#419 = FACE_BOUND('',#420,.F.);
#420 = EDGE_LOOP('',(#421,#429,#437,#443));
#421 = ORIENTED_EDGE('',*,*,#422,.T.);
#422 = EDGE_CURVE('',#62,#423,#425,.T.);
#423 = VERTEX_POINT('',#424);
#424 = CARTESIAN_POINT('',(32.,13.2,0.));
#425 = LINE('',#426,#427);
#426 = CARTESIAN_POINT('',(0.,13.2,0.));
#427 = VECTOR('',#428,1.);
#428 = DIRECTION('',(1.,0.,0.));
#429 = ORIENTED_EDGE('',*,*,#430,.T.);
#430 = EDGE_CURVE('',#423,#431,#433,.T.);
#431 = VERTEX_POINT('',#432);
#432 = CARTESIAN_POINT('',(32.,13.2,0.1));
#433 = LINE('',#434,#435);
#434 = CARTESIAN_POINT('',(32.,13.2,0.));
#435 = VECTOR('',#436,1.);
#436 = DIRECTION('',(0.,0.,1.));
#437 = ORIENTED_EDGE('',*,*,#438,.F.);
#438 = EDGE_CURVE('',#70,#431,#439,.T.);
#439 = LINE('',#440,#441);
#440 = CARTESIAN_POINT('',(0.,13.2,0.1));
#441 = VECTOR('',#442,1.);
#442 = DIRECTION('',(1.,0.,0.));
#443 = ORIENTED_EDGE('',*,*,#69,.F.);
#444 = PLANE('',#445);
#445 = AXIS2_PLACEMENT_3D('',#446,#447,#448);
#446 = CARTESIAN_POINT('',(0.,13.2,0.));
#447 = DIRECTION('',(0.,-1.,0.));
#448 = DIRECTION('',(0.,0.,1.));
#449 = ADVANCED_FACE('',(#450),#514,.T.);
#450 = FACE_BOUND('',#451,.T.);
#451 = EDGE_LOOP('',(#452,#453,#461,#469,#477,#485,#491,#492,#500,#508)
  );
#452 = ORIENTED_EDGE('',*,*,#31,.T.);
#453 = ORIENTED_EDGE('',*,*,#454,.T.);
#454 = EDGE_CURVE('',#32,#455,#457,.T.);
#455 = VERTEX_POINT('',#456);
#456 = CARTESIAN_POINT('',(32.,-10.,0.));
#457 = LINE('',#458,#459);
#458 = CARTESIAN_POINT('',(32.,-13.2,0.));
#459 = VECTOR('',#460,1.);
#460 = DIRECTION('',(0.,1.,0.));
#461 = ORIENTED_EDGE('',*,*,#462,.T.);
#462 = EDGE_CURVE('',#455,#463,#465,.T.);
#463 = VERTEX_POINT('',#464);
#464 = CARTESIAN_POINT('',(32.,-10.,25.));
#465 = LINE('',#466,#467);
#466 = CARTESIAN_POINT('',(32.,-10.,0.));
#467 = VECTOR('',#468,1.);
#468 = DIRECTION('',(0.,0.,1.));
#469 = ORIENTED_EDGE('',*,*,#470,.T.);
#470 = EDGE_CURVE('',#463,#471,#473,.T.);
#471 = VERTEX_POINT('',#472);
#472 = CARTESIAN_POINT('',(32.,10.,25.));
#473 = LINE('',#474,#475);
#474 = CARTESIAN_POINT('',(32.,-10.,25.));
#475 = VECTOR('',#476,1.);
#476 = DIRECTION('',(0.,1.,0.));
#477 = ORIENTED_EDGE('',*,*,#478,.F.);
#478 = EDGE_CURVE('',#479,#471,#481,.T.);
#479 = VERTEX_POINT('',#480);
#480 = CARTESIAN_POINT('',(32.,10.,0.));
#481 = LINE('',#482,#483);
#482 = CARTESIAN_POINT('',(32.,10.,0.));
#483 = VECTOR('',#484,1.);
#484 = DIRECTION('',(0.,0.,1.));
#485 = ORIENTED_EDGE('',*,*,#486,.T.);
#486 = EDGE_CURVE('',#479,#423,#487,.T.);
#487 = LINE('',#488,#489);
#488 = CARTESIAN_POINT('',(32.,-13.2,0.));
#489 = VECTOR('',#490,1.);
#490 = DIRECTION('',(0.,1.,0.));
#491 = ORIENTED_EDGE('',*,*,#430,.T.);
#492 = ORIENTED_EDGE('',*,*,#493,.T.);
#493 = EDGE_CURVE('',#431,#494,#496,.T.);
#494 = VERTEX_POINT('',#495);
#495 = CARTESIAN_POINT('',(32.,10.2,28.35));
#496 = LINE('',#497,#498);
#497 = CARTESIAN_POINT('',(32.,13.2,0.1));
#498 = VECTOR('',#499,1.);
#499 = DIRECTION('',(0.,-0.105600912396,0.994408591727));
#500 = ORIENTED_EDGE('',*,*,#501,.T.);
#501 = EDGE_CURVE('',#494,#502,#504,.T.);
#502 = VERTEX_POINT('',#503);
#503 = CARTESIAN_POINT('',(32.,-10.2,28.35));
#504 = LINE('',#505,#506);
#505 = CARTESIAN_POINT('',(32.,10.2,28.35));
#506 = VECTOR('',#507,1.);
#507 = DIRECTION('',(0.,-1.,0.));
#508 = ORIENTED_EDGE('',*,*,#509,.T.);
#509 = EDGE_CURVE('',#502,#24,#510,.T.);
#510 = LINE('',#511,#512);
#511 = CARTESIAN_POINT('',(32.,-10.2,28.35));
#512 = VECTOR('',#513,1.);
#513 = DIRECTION('',(0.,-0.105600912396,-0.994408591727));
#514 = PLANE('',#515);
#515 = AXIS2_PLACEMENT_3D('',#516,#517,#518);
#516 = CARTESIAN_POINT('',(32.,2.074629717687E-16,13.355928464968));
#517 = DIRECTION('',(1.,0.,0.));
#518 = DIRECTION('',(0.,1.,0.));
#519 = ADVANCED_FACE('',(#520,#531),#542,.F.);
#520 = FACE_BOUND('',#521,.F.);
#521 = EDGE_LOOP('',(#522,#528,#529,#530));
#522 = ORIENTED_EDGE('',*,*,#523,.T.);
#523 = EDGE_CURVE('',#86,#502,#524,.T.);
#524 = LINE('',#525,#526);
#525 = CARTESIAN_POINT('',(0.,-10.2,28.35));
#526 = VECTOR('',#527,1.);
#527 = DIRECTION('',(1.,0.,0.));
#528 = ORIENTED_EDGE('',*,*,#509,.T.);
#529 = ORIENTED_EDGE('',*,*,#21,.F.);
#530 = ORIENTED_EDGE('',*,*,#93,.F.);
#531 = FACE_BOUND('',#532,.F.);
#532 = EDGE_LOOP('',(#533));
#533 = ORIENTED_EDGE('',*,*,#534,.F.);
#534 = EDGE_CURVE('',#535,#535,#537,.T.);
#535 = VERTEX_POINT('',#536);
#536 = CARTESIAN_POINT('',(24.35,-11.78495575221,13.425));
#537 = ELLIPSE('',#538,1.35759084468,1.35);
#538 = AXIS2_PLACEMENT_3D('',#539,#540,#541);
#539 = CARTESIAN_POINT('',(23.,-11.78495575221,13.425));
#540 = DIRECTION('',(0.,0.994408591727,-0.105600912396));
#541 = DIRECTION('',(0.,0.105600912396,0.994408591727));
#542 = PLANE('',#543);
#543 = AXIS2_PLACEMENT_3D('',#544,#545,#546);
#544 = CARTESIAN_POINT('',(0.,-10.2,28.35));
#545 = DIRECTION('',(0.,0.994408591727,-0.105600912396));
#546 = DIRECTION('',(0.,-0.105600912396,-0.994408591727));
#547 = ADVANCED_FACE('',(#548,#559),#570,.F.);
#548 = FACE_BOUND('',#549,.F.);
#549 = EDGE_LOOP('',(#550,#551,#552,#558));
#550 = ORIENTED_EDGE('',*,*,#438,.T.);
#551 = ORIENTED_EDGE('',*,*,#493,.T.);
#552 = ORIENTED_EDGE('',*,*,#553,.F.);
#553 = EDGE_CURVE('',#78,#494,#554,.T.);
#554 = LINE('',#555,#556);
#555 = CARTESIAN_POINT('',(0.,10.2,28.35));
#556 = VECTOR('',#557,1.);
#557 = DIRECTION('',(1.,0.,0.));
#558 = ORIENTED_EDGE('',*,*,#77,.F.);
#559 = FACE_BOUND('',#560,.F.);
#560 = EDGE_LOOP('',(#561));
#561 = ORIENTED_EDGE('',*,*,#562,.F.);
#562 = EDGE_CURVE('',#563,#563,#565,.T.);
#563 = VERTEX_POINT('',#564);
#564 = CARTESIAN_POINT('',(24.35,11.784955752212,13.425));
#565 = ELLIPSE('',#566,1.35759084468,1.35);
#566 = AXIS2_PLACEMENT_3D('',#567,#568,#569);
#567 = CARTESIAN_POINT('',(23.,11.784955752212,13.425));
#568 = DIRECTION('',(0.,-0.994408591727,-0.105600912396));
#569 = DIRECTION('',(0.,0.105600912396,-0.994408591727));
#570 = PLANE('',#571);
#571 = AXIS2_PLACEMENT_3D('',#572,#573,#574);
#572 = CARTESIAN_POINT('',(0.,13.2,0.1));
#573 = DIRECTION('',(0.,-0.994408591727,-0.105600912396));
#574 = DIRECTION('',(0.,-0.105600912396,0.994408591727));
#575 = ADVANCED_FACE('',(#576),#582,.F.);
#576 = FACE_BOUND('',#577,.F.);
#577 = EDGE_LOOP('',(#578,#579,#580,#581));
#578 = ORIENTED_EDGE('',*,*,#553,.T.);
#579 = ORIENTED_EDGE('',*,*,#501,.T.);
#580 = ORIENTED_EDGE('',*,*,#523,.F.);
#581 = ORIENTED_EDGE('',*,*,#85,.F.);
#582 = PLANE('',#583);
#583 = AXIS2_PLACEMENT_3D('',#584,#585,#586);
#584 = CARTESIAN_POINT('',(0.,10.2,28.35));
#585 = DIRECTION('',(0.,0.,-1.));
#586 = DIRECTION('',(0.,-1.,0.));
#587 = ADVANCED_FACE('',(#588),#613,.T.);
#588 = FACE_BOUND('',#589,.T.);
#589 = EDGE_LOOP('',(#590,#591,#599,#607));
#590 = ORIENTED_EDGE('',*,*,#102,.T.);
#591 = ORIENTED_EDGE('',*,*,#592,.T.);
#592 = EDGE_CURVE('',#105,#593,#595,.T.);
#593 = VERTEX_POINT('',#594);
#594 = CARTESIAN_POINT('',(27.,-8.11204,19.64959));
#595 = LINE('',#596,#597);
#596 = CARTESIAN_POINT('',(-1.,-8.11204,19.64959));
#597 = VECTOR('',#598,1.);
#598 = DIRECTION('',(1.,0.,0.));
#599 = ORIENTED_EDGE('',*,*,#600,.T.);
#600 = EDGE_CURVE('',#593,#601,#603,.T.);
#601 = VERTEX_POINT('',#602);
#602 = CARTESIAN_POINT('',(27.,-8.85511,18.5375));
#603 = LINE('',#604,#605);
#604 = CARTESIAN_POINT('',(27.,-8.11204,19.64959));
#605 = VECTOR('',#606,1.);
#606 = DIRECTION('',(0.,-0.555567761526,-0.831471263697));
#607 = ORIENTED_EDGE('',*,*,#608,.F.);
#608 = EDGE_CURVE('',#103,#601,#609,.T.);
#609 = LINE('',#610,#611);
#610 = CARTESIAN_POINT('',(-1.,-8.85511,18.5375));
#611 = VECTOR('',#612,1.);
#612 = DIRECTION('',(1.,0.,0.));
#613 = PLANE('',#614);
#614 = AXIS2_PLACEMENT_3D('',#615,#616,#617);
#615 = CARTESIAN_POINT('',(-1.,-8.11204,19.64959));
#616 = DIRECTION('',(0.,0.831471263697,-0.555567761526));
#617 = DIRECTION('',(0.,-0.555567761526,-0.831471263697));
#618 = ADVANCED_FACE('',(#619),#637,.T.);
#619 = FACE_BOUND('',#620,.T.);
#620 = EDGE_LOOP('',(#621,#622,#623,#631));
#621 = ORIENTED_EDGE('',*,*,#408,.T.);
#622 = ORIENTED_EDGE('',*,*,#608,.T.);
#623 = ORIENTED_EDGE('',*,*,#624,.T.);
#624 = EDGE_CURVE('',#601,#625,#627,.T.);
#625 = VERTEX_POINT('',#626);
#626 = CARTESIAN_POINT('',(27.,-9.44667,17.33794));
#627 = LINE('',#628,#629);
#628 = CARTESIAN_POINT('',(27.,-8.85511,18.5375));
#629 = VECTOR('',#630,1.);
#630 = DIRECTION('',(0.,-0.442290177353,-0.896872008158));
#631 = ORIENTED_EDGE('',*,*,#632,.F.);
#632 = EDGE_CURVE('',#401,#625,#633,.T.);
#633 = LINE('',#634,#635);
#634 = CARTESIAN_POINT('',(-1.,-9.44667,17.33794));
#635 = VECTOR('',#636,1.);
#636 = DIRECTION('',(1.,0.,0.));
#637 = PLANE('',#638);
#638 = AXIS2_PLACEMENT_3D('',#639,#640,#641);
#639 = CARTESIAN_POINT('',(-1.,-8.85511,18.5375));
#640 = DIRECTION('',(0.,0.896872008158,-0.442290177353));
#641 = DIRECTION('',(0.,-0.442290177353,-0.896872008158));
#642 = ADVANCED_FACE('',(#643),#661,.T.);
#643 = FACE_BOUND('',#644,.T.);
#644 = EDGE_LOOP('',(#645,#646,#647,#655));
#645 = ORIENTED_EDGE('',*,*,#400,.T.);
#646 = ORIENTED_EDGE('',*,*,#632,.T.);
#647 = ORIENTED_EDGE('',*,*,#648,.T.);
#648 = EDGE_CURVE('',#625,#649,#651,.T.);
#649 = VERTEX_POINT('',#650);
#650 = CARTESIAN_POINT('',(27.,-9.87659,16.07142));
#651 = LINE('',#652,#653);
#652 = CARTESIAN_POINT('',(27.,-9.44667,17.33794));
#653 = VECTOR('',#654,1.);
#654 = DIRECTION('',(0.,-0.321435705668,-0.946931405711));
#655 = ORIENTED_EDGE('',*,*,#656,.F.);
#656 = EDGE_CURVE('',#393,#649,#657,.T.);
#657 = LINE('',#658,#659);
#658 = CARTESIAN_POINT('',(-1.,-9.87659,16.07142));
#659 = VECTOR('',#660,1.);
#660 = DIRECTION('',(1.,0.,0.));
#661 = PLANE('',#662);
#662 = AXIS2_PLACEMENT_3D('',#663,#664,#665);
#663 = CARTESIAN_POINT('',(-1.,-9.44667,17.33794));
#664 = DIRECTION('',(0.,0.946931405711,-0.321435705668));
#665 = DIRECTION('',(0.,-0.321435705668,-0.946931405711));
#666 = ADVANCED_FACE('',(#667),#702,.T.);
#667 = FACE_BOUND('',#668,.T.);
#668 = EDGE_LOOP('',(#669,#670,#671,#679,#687,#696));
#669 = ORIENTED_EDGE('',*,*,#392,.T.);
#670 = ORIENTED_EDGE('',*,*,#656,.T.);
#671 = ORIENTED_EDGE('',*,*,#672,.T.);
#672 = EDGE_CURVE('',#649,#673,#675,.T.);
#673 = VERTEX_POINT('',#674);
#674 = CARTESIAN_POINT('',(27.,-10.1375,14.75963));
#675 = LINE('',#676,#677);
#676 = CARTESIAN_POINT('',(27.,-9.87659,16.07142));
#677 = VECTOR('',#678,1.);
#678 = DIRECTION('',(0.,-0.195075035502,-0.980788320956));
#679 = ORIENTED_EDGE('',*,*,#680,.F.);
#680 = EDGE_CURVE('',#681,#673,#683,.T.);
#681 = VERTEX_POINT('',#682);
#682 = CARTESIAN_POINT('',(23.203132378266,-10.1375,14.75963));
#683 = LINE('',#684,#685);
#684 = CARTESIAN_POINT('',(-1.,-10.1375,14.75963));
#685 = VECTOR('',#686,1.);
#686 = DIRECTION('',(1.,0.,0.));
#687 = ORIENTED_EDGE('',*,*,#688,.F.);
#688 = EDGE_CURVE('',#689,#681,#691,.T.);
#689 = VERTEX_POINT('',#690);
#690 = CARTESIAN_POINT('',(22.796867621734,-10.1375,14.75963));
#691 = ELLIPSE('',#692,1.376443796439,1.35);
#692 = AXIS2_PLACEMENT_3D('',#693,#694,#695);
#693 = CARTESIAN_POINT('',(23.,-10.4029527884,13.425));
#694 = DIRECTION('',(0.,0.980788320956,-0.195075035502));
#695 = DIRECTION('',(0.,0.195075035502,0.980788320956));
#696 = ORIENTED_EDGE('',*,*,#697,.F.);
#697 = EDGE_CURVE('',#385,#689,#698,.T.);
#698 = LINE('',#699,#700);
#699 = CARTESIAN_POINT('',(-1.,-10.1375,14.75963));
#700 = VECTOR('',#701,1.);
#701 = DIRECTION('',(1.,0.,0.));
#702 = PLANE('',#703);
#703 = AXIS2_PLACEMENT_3D('',#704,#705,#706);
#704 = CARTESIAN_POINT('',(-1.,-9.87659,16.07142));
#705 = DIRECTION('',(0.,0.980788320956,-0.195075035502));
#706 = DIRECTION('',(0.,-0.195075035502,-0.980788320956));
#707 = ADVANCED_FACE('',(#708),#727,.T.);
#708 = FACE_BOUND('',#709,.T.);
#709 = EDGE_LOOP('',(#710,#711,#712,#721));
#710 = ORIENTED_EDGE('',*,*,#384,.T.);
#711 = ORIENTED_EDGE('',*,*,#697,.T.);
#712 = ORIENTED_EDGE('',*,*,#713,.F.);
#713 = EDGE_CURVE('',#714,#689,#716,.T.);
#714 = VERTEX_POINT('',#715);
#715 = CARTESIAN_POINT('',(21.65,-10.225,13.425));
#716 = ELLIPSE('',#717,1.352898225574,1.35);
#717 = AXIS2_PLACEMENT_3D('',#718,#719,#720);
#718 = CARTESIAN_POINT('',(23.,-10.225,13.425));
#719 = DIRECTION('',(0.,0.997857765263,-6.542079412312E-02));
#720 = DIRECTION('',(0.,6.542079412312E-02,0.997857765263));
#721 = ORIENTED_EDGE('',*,*,#722,.F.);
#722 = EDGE_CURVE('',#377,#714,#723,.T.);
#723 = LINE('',#724,#725);
#724 = CARTESIAN_POINT('',(-1.,-10.225,13.425));
#725 = VECTOR('',#726,1.);
#726 = DIRECTION('',(1.,0.,0.));
#727 = PLANE('',#728);
#728 = AXIS2_PLACEMENT_3D('',#729,#730,#731);
#729 = CARTESIAN_POINT('',(-1.,-10.1375,14.75963));
#730 = DIRECTION('',(0.,0.997857765263,-6.542079412312E-02));
#731 = DIRECTION('',(0.,-6.542079412312E-02,-0.997857765263));
#732 = ADVANCED_FACE('',(#733),#752,.T.);
#733 = FACE_BOUND('',#734,.T.);
#734 = EDGE_LOOP('',(#735,#736,#737,#746));
#735 = ORIENTED_EDGE('',*,*,#376,.T.);
#736 = ORIENTED_EDGE('',*,*,#722,.T.);
#737 = ORIENTED_EDGE('',*,*,#738,.F.);
#738 = EDGE_CURVE('',#739,#714,#741,.T.);
#739 = VERTEX_POINT('',#740);
#740 = CARTESIAN_POINT('',(22.796867621734,-10.1375,12.09037));
#741 = ELLIPSE('',#742,1.352898225574,1.35);
#742 = AXIS2_PLACEMENT_3D('',#743,#744,#745);
#743 = CARTESIAN_POINT('',(23.,-10.225,13.425));
#744 = DIRECTION('',(0.,0.997857765263,6.542079412312E-02));
#745 = DIRECTION('',(0.,6.542079412312E-02,-0.997857765263));
#746 = ORIENTED_EDGE('',*,*,#747,.F.);
#747 = EDGE_CURVE('',#369,#739,#748,.T.);
#748 = LINE('',#749,#750);
#749 = CARTESIAN_POINT('',(-1.,-10.1375,12.09037));
#750 = VECTOR('',#751,1.);
#751 = DIRECTION('',(1.,0.,0.));
#752 = PLANE('',#753);
#753 = AXIS2_PLACEMENT_3D('',#754,#755,#756);
#754 = CARTESIAN_POINT('',(-1.,-10.225,13.425));
#755 = DIRECTION('',(0.,0.997857765263,6.542079412312E-02));
#756 = DIRECTION('',(0.,6.542079412312E-02,-0.997857765263));
#757 = ADVANCED_FACE('',(#758),#793,.T.);
#758 = FACE_BOUND('',#759,.T.);
#759 = EDGE_LOOP('',(#760,#761,#762,#771,#779,#787));
#760 = ORIENTED_EDGE('',*,*,#368,.T.);
#761 = ORIENTED_EDGE('',*,*,#747,.T.);
#762 = ORIENTED_EDGE('',*,*,#763,.F.);
#763 = EDGE_CURVE('',#764,#739,#766,.T.);
#764 = VERTEX_POINT('',#765);
#765 = CARTESIAN_POINT('',(23.203132378266,-10.1375,12.09037));
#766 = ELLIPSE('',#767,1.376443796439,1.35);
#767 = AXIS2_PLACEMENT_3D('',#768,#769,#770);
#768 = CARTESIAN_POINT('',(23.,-10.4029527884,13.425));
#769 = DIRECTION('',(0.,0.980788320956,0.195075035502));
#770 = DIRECTION('',(0.,0.195075035502,-0.980788320956));
#771 = ORIENTED_EDGE('',*,*,#772,.T.);
#772 = EDGE_CURVE('',#764,#773,#775,.T.);
#773 = VERTEX_POINT('',#774);
#774 = CARTESIAN_POINT('',(27.,-10.1375,12.09037));
#775 = LINE('',#776,#777);
#776 = CARTESIAN_POINT('',(-1.,-10.1375,12.09037));
#777 = VECTOR('',#778,1.);
#778 = DIRECTION('',(1.,0.,0.));
#779 = ORIENTED_EDGE('',*,*,#780,.T.);
#780 = EDGE_CURVE('',#773,#781,#783,.T.);
#781 = VERTEX_POINT('',#782);
#782 = CARTESIAN_POINT('',(27.,-9.87659,10.77858));
#783 = LINE('',#784,#785);
#784 = CARTESIAN_POINT('',(27.,-10.1375,12.09037));
#785 = VECTOR('',#786,1.);
#786 = DIRECTION('',(0.,0.195075035502,-0.980788320956));
#787 = ORIENTED_EDGE('',*,*,#788,.F.);
#788 = EDGE_CURVE('',#361,#781,#789,.T.);
#789 = LINE('',#790,#791);
#790 = CARTESIAN_POINT('',(-1.,-9.87659,10.77858));
#791 = VECTOR('',#792,1.);
#792 = DIRECTION('',(1.,0.,0.));
#793 = PLANE('',#794);
#794 = AXIS2_PLACEMENT_3D('',#795,#796,#797);
#795 = CARTESIAN_POINT('',(-1.,-10.1375,12.09037));
#796 = DIRECTION('',(0.,0.980788320956,0.195075035502));
#797 = DIRECTION('',(0.,0.195075035502,-0.980788320956));
#798 = ADVANCED_FACE('',(#799),#817,.T.);
#799 = FACE_BOUND('',#800,.T.);
#800 = EDGE_LOOP('',(#801,#802,#803,#811));
#801 = ORIENTED_EDGE('',*,*,#360,.T.);
#802 = ORIENTED_EDGE('',*,*,#788,.T.);
#803 = ORIENTED_EDGE('',*,*,#804,.T.);
#804 = EDGE_CURVE('',#781,#805,#807,.T.);
#805 = VERTEX_POINT('',#806);
#806 = CARTESIAN_POINT('',(27.,-9.44667,9.51206));
#807 = LINE('',#808,#809);
#808 = CARTESIAN_POINT('',(27.,-9.87659,10.77858));
#809 = VECTOR('',#810,1.);
#810 = DIRECTION('',(0.,0.321435705668,-0.946931405711));
#811 = ORIENTED_EDGE('',*,*,#812,.F.);
#812 = EDGE_CURVE('',#353,#805,#813,.T.);
#813 = LINE('',#814,#815);
#814 = CARTESIAN_POINT('',(-1.,-9.44667,9.51206));
#815 = VECTOR('',#816,1.);
#816 = DIRECTION('',(1.,0.,0.));
#817 = PLANE('',#818);
#818 = AXIS2_PLACEMENT_3D('',#819,#820,#821);
#819 = CARTESIAN_POINT('',(-1.,-9.87659,10.77858));
#820 = DIRECTION('',(0.,0.946931405711,0.321435705668));
#821 = DIRECTION('',(0.,0.321435705668,-0.946931405711));
#822 = ADVANCED_FACE('',(#823),#841,.T.);
#823 = FACE_BOUND('',#824,.T.);
#824 = EDGE_LOOP('',(#825,#826,#827,#835));
#825 = ORIENTED_EDGE('',*,*,#352,.T.);
#826 = ORIENTED_EDGE('',*,*,#812,.T.);
#827 = ORIENTED_EDGE('',*,*,#828,.T.);
#828 = EDGE_CURVE('',#805,#829,#831,.T.);
#829 = VERTEX_POINT('',#830);
#830 = CARTESIAN_POINT('',(27.,-8.85511,8.3125));
#831 = LINE('',#832,#833);
#832 = CARTESIAN_POINT('',(27.,-9.44667,9.51206));
#833 = VECTOR('',#834,1.);
#834 = DIRECTION('',(0.,0.442290177353,-0.896872008158));
#835 = ORIENTED_EDGE('',*,*,#836,.F.);
#836 = EDGE_CURVE('',#345,#829,#837,.T.);
#837 = LINE('',#838,#839);
#838 = CARTESIAN_POINT('',(-1.,-8.85511,8.3125));
#839 = VECTOR('',#840,1.);
#840 = DIRECTION('',(1.,0.,0.));
#841 = PLANE('',#842);
#842 = AXIS2_PLACEMENT_3D('',#843,#844,#845);
#843 = CARTESIAN_POINT('',(-1.,-9.44667,9.51206));
#844 = DIRECTION('',(0.,0.896872008158,0.442290177353));
#845 = DIRECTION('',(0.,0.442290177353,-0.896872008158));
#846 = ADVANCED_FACE('',(#847),#865,.T.);
#847 = FACE_BOUND('',#848,.T.);
#848 = EDGE_LOOP('',(#849,#850,#851,#859));
#849 = ORIENTED_EDGE('',*,*,#344,.T.);
#850 = ORIENTED_EDGE('',*,*,#836,.T.);
#851 = ORIENTED_EDGE('',*,*,#852,.T.);
#852 = EDGE_CURVE('',#829,#853,#855,.T.);
#853 = VERTEX_POINT('',#854);
#854 = CARTESIAN_POINT('',(27.,-8.11204,7.20041));
#855 = LINE('',#856,#857);
#856 = CARTESIAN_POINT('',(27.,-8.85511,8.3125));
#857 = VECTOR('',#858,1.);
#858 = DIRECTION('',(0.,0.555567761526,-0.831471263697));
#859 = ORIENTED_EDGE('',*,*,#860,.F.);
#860 = EDGE_CURVE('',#337,#853,#861,.T.);
#861 = LINE('',#862,#863);
#862 = CARTESIAN_POINT('',(-1.,-8.11204,7.20041));
#863 = VECTOR('',#864,1.);
#864 = DIRECTION('',(1.,0.,0.));
#865 = PLANE('',#866);
#866 = AXIS2_PLACEMENT_3D('',#867,#868,#869);
#867 = CARTESIAN_POINT('',(-1.,-8.85511,8.3125));
#868 = DIRECTION('',(0.,0.831471263697,0.555567761526));
#869 = DIRECTION('',(0.,0.555567761526,-0.831471263697));
#870 = ADVANCED_FACE('',(#871),#889,.T.);
#871 = FACE_BOUND('',#872,.T.);
#872 = EDGE_LOOP('',(#873,#874,#875,#883));
#873 = ORIENTED_EDGE('',*,*,#336,.T.);
#874 = ORIENTED_EDGE('',*,*,#860,.T.);
#875 = ORIENTED_EDGE('',*,*,#876,.T.);
#876 = EDGE_CURVE('',#853,#877,#879,.T.);
#877 = VERTEX_POINT('',#878);
#878 = CARTESIAN_POINT('',(27.,-7.23017,6.19483));
#879 = LINE('',#880,#881);
#880 = CARTESIAN_POINT('',(27.,-8.11204,7.20041));
#881 = VECTOR('',#882,1.);
#882 = DIRECTION('',(0.,0.659345818626,-0.751839804386));
#883 = ORIENTED_EDGE('',*,*,#884,.F.);
#884 = EDGE_CURVE('',#329,#877,#885,.T.);
#885 = LINE('',#886,#887);
#886 = CARTESIAN_POINT('',(-1.,-7.23017,6.19483));
#887 = VECTOR('',#888,1.);
#888 = DIRECTION('',(1.,0.,0.));
#889 = PLANE('',#890);
#890 = AXIS2_PLACEMENT_3D('',#891,#892,#893);
#891 = CARTESIAN_POINT('',(-1.,-8.11204,7.20041));
#892 = DIRECTION('',(0.,0.751839804386,0.659345818626));
#893 = DIRECTION('',(0.,0.659345818626,-0.751839804386));
#894 = ADVANCED_FACE('',(#895),#913,.T.);
#895 = FACE_BOUND('',#896,.T.);
#896 = EDGE_LOOP('',(#897,#898,#899,#907));
#897 = ORIENTED_EDGE('',*,*,#328,.T.);
#898 = ORIENTED_EDGE('',*,*,#884,.T.);
#899 = ORIENTED_EDGE('',*,*,#900,.T.);
#900 = EDGE_CURVE('',#877,#901,#903,.T.);
#901 = VERTEX_POINT('',#902);
#902 = CARTESIAN_POINT('',(27.,-6.22459,5.31296));
#903 = LINE('',#904,#905);
#904 = CARTESIAN_POINT('',(27.,-7.23017,6.19483));
#905 = VECTOR('',#906,1.);
#906 = DIRECTION('',(0.,0.751839804386,-0.659345818626));
#907 = ORIENTED_EDGE('',*,*,#908,.F.);
#908 = EDGE_CURVE('',#321,#901,#909,.T.);
#909 = LINE('',#910,#911);
#910 = CARTESIAN_POINT('',(-1.,-6.22459,5.31296));
#911 = VECTOR('',#912,1.);
#912 = DIRECTION('',(1.,0.,0.));
#913 = PLANE('',#914);
#914 = AXIS2_PLACEMENT_3D('',#915,#916,#917);
#915 = CARTESIAN_POINT('',(-1.,-7.23017,6.19483));
#916 = DIRECTION('',(0.,0.659345818626,0.751839804386));
#917 = DIRECTION('',(0.,0.751839804386,-0.659345818626));
#918 = ADVANCED_FACE('',(#919),#937,.T.);
#919 = FACE_BOUND('',#920,.T.);
#920 = EDGE_LOOP('',(#921,#922,#923,#931));
#921 = ORIENTED_EDGE('',*,*,#320,.T.);
#922 = ORIENTED_EDGE('',*,*,#908,.T.);
#923 = ORIENTED_EDGE('',*,*,#924,.T.);
#924 = EDGE_CURVE('',#901,#925,#927,.T.);
#925 = VERTEX_POINT('',#926);
#926 = CARTESIAN_POINT('',(27.,-5.1125,4.56989));
#927 = LINE('',#928,#929);
#928 = CARTESIAN_POINT('',(27.,-6.22459,5.31296));
#929 = VECTOR('',#930,1.);
#930 = DIRECTION('',(0.,0.831471263697,-0.555567761526));
#931 = ORIENTED_EDGE('',*,*,#932,.F.);
#932 = EDGE_CURVE('',#313,#925,#933,.T.);
#933 = LINE('',#934,#935);
#934 = CARTESIAN_POINT('',(-1.,-5.1125,4.56989));
#935 = VECTOR('',#936,1.);
#936 = DIRECTION('',(1.,0.,0.));
#937 = PLANE('',#938);
#938 = AXIS2_PLACEMENT_3D('',#939,#940,#941);
#939 = CARTESIAN_POINT('',(-1.,-6.22459,5.31296));
#940 = DIRECTION('',(0.,0.555567761526,0.831471263697));
#941 = DIRECTION('',(0.,0.831471263697,-0.555567761526));
#942 = ADVANCED_FACE('',(#943),#961,.T.);
#943 = FACE_BOUND('',#944,.T.);
#944 = EDGE_LOOP('',(#945,#946,#947,#955));
#945 = ORIENTED_EDGE('',*,*,#312,.T.);
#946 = ORIENTED_EDGE('',*,*,#932,.T.);
#947 = ORIENTED_EDGE('',*,*,#948,.T.);
#948 = EDGE_CURVE('',#925,#949,#951,.T.);
#949 = VERTEX_POINT('',#950);
#950 = CARTESIAN_POINT('',(27.,-3.91294,3.97833));
#951 = LINE('',#952,#953);
#952 = CARTESIAN_POINT('',(27.,-5.1125,4.56989));
#953 = VECTOR('',#954,1.);
#954 = DIRECTION('',(0.,0.896872008158,-0.442290177353));
#955 = ORIENTED_EDGE('',*,*,#956,.F.);
#956 = EDGE_CURVE('',#305,#949,#957,.T.);
#957 = LINE('',#958,#959);
#958 = CARTESIAN_POINT('',(-1.,-3.91294,3.97833));
#959 = VECTOR('',#960,1.);
#960 = DIRECTION('',(1.,0.,0.));
#961 = PLANE('',#962);
#962 = AXIS2_PLACEMENT_3D('',#963,#964,#965);
#963 = CARTESIAN_POINT('',(-1.,-5.1125,4.56989));
#964 = DIRECTION('',(0.,0.442290177353,0.896872008158));
#965 = DIRECTION('',(0.,0.896872008158,-0.442290177353));
#966 = ADVANCED_FACE('',(#967),#985,.T.);
#967 = FACE_BOUND('',#968,.T.);
#968 = EDGE_LOOP('',(#969,#970,#971,#979));
#969 = ORIENTED_EDGE('',*,*,#304,.T.);
#970 = ORIENTED_EDGE('',*,*,#956,.T.);
#971 = ORIENTED_EDGE('',*,*,#972,.T.);
#972 = EDGE_CURVE('',#949,#973,#975,.T.);
#973 = VERTEX_POINT('',#974);
#974 = CARTESIAN_POINT('',(27.,-2.64642,3.54841));
#975 = LINE('',#976,#977);
#976 = CARTESIAN_POINT('',(27.,-3.91294,3.97833));
#977 = VECTOR('',#978,1.);
#978 = DIRECTION('',(0.,0.946931405711,-0.321435705668));
#979 = ORIENTED_EDGE('',*,*,#980,.F.);
#980 = EDGE_CURVE('',#297,#973,#981,.T.);
#981 = LINE('',#982,#983);
#982 = CARTESIAN_POINT('',(-1.,-2.64642,3.54841));
#983 = VECTOR('',#984,1.);
#984 = DIRECTION('',(1.,0.,0.));
#985 = PLANE('',#986);
#986 = AXIS2_PLACEMENT_3D('',#987,#988,#989);
#987 = CARTESIAN_POINT('',(-1.,-3.91294,3.97833));
#988 = DIRECTION('',(0.,0.321435705668,0.946931405711));
#989 = DIRECTION('',(0.,0.946931405711,-0.321435705668));
#990 = ADVANCED_FACE('',(#991),#1009,.T.);
#991 = FACE_BOUND('',#992,.T.);
#992 = EDGE_LOOP('',(#993,#994,#995,#1003));
#993 = ORIENTED_EDGE('',*,*,#296,.T.);
#994 = ORIENTED_EDGE('',*,*,#980,.T.);
#995 = ORIENTED_EDGE('',*,*,#996,.T.);
#996 = EDGE_CURVE('',#973,#997,#999,.T.);
#997 = VERTEX_POINT('',#998);
#998 = CARTESIAN_POINT('',(27.,-1.33463,3.2875));
#999 = LINE('',#1000,#1001);
#1000 = CARTESIAN_POINT('',(27.,-2.64642,3.54841));
#1001 = VECTOR('',#1002,1.);
#1002 = DIRECTION('',(0.,0.980788320956,-0.195075035502));
#1003 = ORIENTED_EDGE('',*,*,#1004,.F.);
#1004 = EDGE_CURVE('',#289,#997,#1005,.T.);
#1005 = LINE('',#1006,#1007);
#1006 = CARTESIAN_POINT('',(-1.,-1.33463,3.2875));
#1007 = VECTOR('',#1008,1.);
#1008 = DIRECTION('',(1.,0.,0.));
#1009 = PLANE('',#1010);
#1010 = AXIS2_PLACEMENT_3D('',#1011,#1012,#1013);
#1011 = CARTESIAN_POINT('',(-1.,-2.64642,3.54841));
#1012 = DIRECTION('',(0.,0.195075035502,0.980788320956));
#1013 = DIRECTION('',(0.,0.980788320956,-0.195075035502));
#1014 = ADVANCED_FACE('',(#1015),#1033,.T.);
#1015 = FACE_BOUND('',#1016,.T.);
#1016 = EDGE_LOOP('',(#1017,#1018,#1019,#1027));
#1017 = ORIENTED_EDGE('',*,*,#288,.T.);
#1018 = ORIENTED_EDGE('',*,*,#1004,.T.);
#1019 = ORIENTED_EDGE('',*,*,#1020,.T.);
#1020 = EDGE_CURVE('',#997,#1021,#1023,.T.);
#1021 = VERTEX_POINT('',#1022);
#1022 = CARTESIAN_POINT('',(27.,0.,3.2));
#1023 = LINE('',#1024,#1025);
#1024 = CARTESIAN_POINT('',(27.,-1.33463,3.2875));
#1025 = VECTOR('',#1026,1.);
#1026 = DIRECTION('',(0.,0.997857765263,-6.542079412312E-02));
#1027 = ORIENTED_EDGE('',*,*,#1028,.F.);
#1028 = EDGE_CURVE('',#281,#1021,#1029,.T.);
#1029 = LINE('',#1030,#1031);
#1030 = CARTESIAN_POINT('',(-1.,0.,3.2));
#1031 = VECTOR('',#1032,1.);
#1032 = DIRECTION('',(1.,0.,0.));
#1033 = PLANE('',#1034);
#1034 = AXIS2_PLACEMENT_3D('',#1035,#1036,#1037);
#1035 = CARTESIAN_POINT('',(-1.,-1.33463,3.2875));
#1036 = DIRECTION('',(0.,6.542079412312E-02,0.997857765263));
#1037 = DIRECTION('',(0.,0.997857765263,-6.542079412312E-02));
#1038 = ADVANCED_FACE('',(#1039),#1057,.T.);
#1039 = FACE_BOUND('',#1040,.T.);
#1040 = EDGE_LOOP('',(#1041,#1042,#1043,#1051));
#1041 = ORIENTED_EDGE('',*,*,#280,.T.);
#1042 = ORIENTED_EDGE('',*,*,#1028,.T.);
#1043 = ORIENTED_EDGE('',*,*,#1044,.T.);
#1044 = EDGE_CURVE('',#1021,#1045,#1047,.T.);
#1045 = VERTEX_POINT('',#1046);
#1046 = CARTESIAN_POINT('',(27.,1.33463,3.2875));
#1047 = LINE('',#1048,#1049);
#1048 = CARTESIAN_POINT('',(27.,0.,3.2));
#1049 = VECTOR('',#1050,1.);
#1050 = DIRECTION('',(0.,0.997857765263,6.542079412312E-02));
#1051 = ORIENTED_EDGE('',*,*,#1052,.F.);
#1052 = EDGE_CURVE('',#273,#1045,#1053,.T.);
#1053 = LINE('',#1054,#1055);
#1054 = CARTESIAN_POINT('',(-1.,1.33463,3.2875));
#1055 = VECTOR('',#1056,1.);
#1056 = DIRECTION('',(1.,0.,0.));
#1057 = PLANE('',#1058);
#1058 = AXIS2_PLACEMENT_3D('',#1059,#1060,#1061);
#1059 = CARTESIAN_POINT('',(-1.,0.,3.2));
#1060 = DIRECTION('',(0.,-6.542079412312E-02,0.997857765263));
#1061 = DIRECTION('',(0.,0.997857765263,6.542079412312E-02));
#1062 = ADVANCED_FACE('',(#1063),#1081,.T.);
#1063 = FACE_BOUND('',#1064,.T.);
#1064 = EDGE_LOOP('',(#1065,#1066,#1067,#1075));
#1065 = ORIENTED_EDGE('',*,*,#272,.T.);
#1066 = ORIENTED_EDGE('',*,*,#1052,.T.);
#1067 = ORIENTED_EDGE('',*,*,#1068,.T.);
#1068 = EDGE_CURVE('',#1045,#1069,#1071,.T.);
#1069 = VERTEX_POINT('',#1070);
#1070 = CARTESIAN_POINT('',(27.,2.64642,3.54841));
#1071 = LINE('',#1072,#1073);
#1072 = CARTESIAN_POINT('',(27.,1.33463,3.2875));
#1073 = VECTOR('',#1074,1.);
#1074 = DIRECTION('',(0.,0.980788320956,0.195075035502));
#1075 = ORIENTED_EDGE('',*,*,#1076,.F.);
#1076 = EDGE_CURVE('',#265,#1069,#1077,.T.);
#1077 = LINE('',#1078,#1079);
#1078 = CARTESIAN_POINT('',(-1.,2.64642,3.54841));
#1079 = VECTOR('',#1080,1.);
#1080 = DIRECTION('',(1.,0.,0.));
#1081 = PLANE('',#1082);
#1082 = AXIS2_PLACEMENT_3D('',#1083,#1084,#1085);
#1083 = CARTESIAN_POINT('',(-1.,1.33463,3.2875));
#1084 = DIRECTION('',(0.,-0.195075035502,0.980788320956));
#1085 = DIRECTION('',(0.,0.980788320956,0.195075035502));
#1086 = ADVANCED_FACE('',(#1087),#1105,.T.);
#1087 = FACE_BOUND('',#1088,.T.);
#1088 = EDGE_LOOP('',(#1089,#1090,#1091,#1099));
#1089 = ORIENTED_EDGE('',*,*,#264,.T.);
#1090 = ORIENTED_EDGE('',*,*,#1076,.T.);
#1091 = ORIENTED_EDGE('',*,*,#1092,.T.);
#1092 = EDGE_CURVE('',#1069,#1093,#1095,.T.);
#1093 = VERTEX_POINT('',#1094);
#1094 = CARTESIAN_POINT('',(27.,3.91294,3.97833));
#1095 = LINE('',#1096,#1097);
#1096 = CARTESIAN_POINT('',(27.,2.64642,3.54841));
#1097 = VECTOR('',#1098,1.);
#1098 = DIRECTION('',(0.,0.946931405711,0.321435705668));
#1099 = ORIENTED_EDGE('',*,*,#1100,.F.);
#1100 = EDGE_CURVE('',#257,#1093,#1101,.T.);
#1101 = LINE('',#1102,#1103);
#1102 = CARTESIAN_POINT('',(-1.,3.91294,3.97833));
#1103 = VECTOR('',#1104,1.);
#1104 = DIRECTION('',(1.,0.,0.));
#1105 = PLANE('',#1106);
#1106 = AXIS2_PLACEMENT_3D('',#1107,#1108,#1109);
#1107 = CARTESIAN_POINT('',(-1.,2.64642,3.54841));
#1108 = DIRECTION('',(0.,-0.321435705668,0.946931405711));
#1109 = DIRECTION('',(0.,0.946931405711,0.321435705668));
#1110 = ADVANCED_FACE('',(#1111),#1129,.T.);
#1111 = FACE_BOUND('',#1112,.T.);
#1112 = EDGE_LOOP('',(#1113,#1114,#1115,#1123));
#1113 = ORIENTED_EDGE('',*,*,#256,.T.);
#1114 = ORIENTED_EDGE('',*,*,#1100,.T.);
#1115 = ORIENTED_EDGE('',*,*,#1116,.T.);
#1116 = EDGE_CURVE('',#1093,#1117,#1119,.T.);
#1117 = VERTEX_POINT('',#1118);
#1118 = CARTESIAN_POINT('',(27.,5.1125,4.56989));
#1119 = LINE('',#1120,#1121);
#1120 = CARTESIAN_POINT('',(27.,3.91294,3.97833));
#1121 = VECTOR('',#1122,1.);
#1122 = DIRECTION('',(0.,0.896872008158,0.442290177353));
#1123 = ORIENTED_EDGE('',*,*,#1124,.F.);
#1124 = EDGE_CURVE('',#249,#1117,#1125,.T.);
#1125 = LINE('',#1126,#1127);
#1126 = CARTESIAN_POINT('',(-1.,5.1125,4.56989));
#1127 = VECTOR('',#1128,1.);
#1128 = DIRECTION('',(1.,0.,0.));
#1129 = PLANE('',#1130);
#1130 = AXIS2_PLACEMENT_3D('',#1131,#1132,#1133);
#1131 = CARTESIAN_POINT('',(-1.,3.91294,3.97833));
#1132 = DIRECTION('',(0.,-0.442290177353,0.896872008158));
#1133 = DIRECTION('',(0.,0.896872008158,0.442290177353));
#1134 = ADVANCED_FACE('',(#1135),#1153,.T.);
#1135 = FACE_BOUND('',#1136,.T.);
#1136 = EDGE_LOOP('',(#1137,#1138,#1139,#1147));
#1137 = ORIENTED_EDGE('',*,*,#248,.T.);
#1138 = ORIENTED_EDGE('',*,*,#1124,.T.);
#1139 = ORIENTED_EDGE('',*,*,#1140,.T.);
#1140 = EDGE_CURVE('',#1117,#1141,#1143,.T.);
#1141 = VERTEX_POINT('',#1142);
#1142 = CARTESIAN_POINT('',(27.,6.22459,5.31296));
#1143 = LINE('',#1144,#1145);
#1144 = CARTESIAN_POINT('',(27.,5.1125,4.56989));
#1145 = VECTOR('',#1146,1.);
#1146 = DIRECTION('',(0.,0.831471263697,0.555567761526));
#1147 = ORIENTED_EDGE('',*,*,#1148,.F.);
#1148 = EDGE_CURVE('',#241,#1141,#1149,.T.);
#1149 = LINE('',#1150,#1151);
#1150 = CARTESIAN_POINT('',(-1.,6.22459,5.31296));
#1151 = VECTOR('',#1152,1.);
#1152 = DIRECTION('',(1.,0.,0.));
#1153 = PLANE('',#1154);
#1154 = AXIS2_PLACEMENT_3D('',#1155,#1156,#1157);
#1155 = CARTESIAN_POINT('',(-1.,5.1125,4.56989));
#1156 = DIRECTION('',(0.,-0.555567761526,0.831471263697));
#1157 = DIRECTION('',(0.,0.831471263697,0.555567761526));
#1158 = ADVANCED_FACE('',(#1159),#1177,.T.);
#1159 = FACE_BOUND('',#1160,.T.);
#1160 = EDGE_LOOP('',(#1161,#1162,#1163,#1171));
#1161 = ORIENTED_EDGE('',*,*,#240,.T.);
#1162 = ORIENTED_EDGE('',*,*,#1148,.T.);
#1163 = ORIENTED_EDGE('',*,*,#1164,.T.);
#1164 = EDGE_CURVE('',#1141,#1165,#1167,.T.);
#1165 = VERTEX_POINT('',#1166);
#1166 = CARTESIAN_POINT('',(27.,7.23017,6.19483));
#1167 = LINE('',#1168,#1169);
#1168 = CARTESIAN_POINT('',(27.,6.22459,5.31296));
#1169 = VECTOR('',#1170,1.);
#1170 = DIRECTION('',(0.,0.751839804386,0.659345818626));
#1171 = ORIENTED_EDGE('',*,*,#1172,.F.);
#1172 = EDGE_CURVE('',#233,#1165,#1173,.T.);
#1173 = LINE('',#1174,#1175);
#1174 = CARTESIAN_POINT('',(-1.,7.23017,6.19483));
#1175 = VECTOR('',#1176,1.);
#1176 = DIRECTION('',(1.,0.,0.));
#1177 = PLANE('',#1178);
#1178 = AXIS2_PLACEMENT_3D('',#1179,#1180,#1181);
#1179 = CARTESIAN_POINT('',(-1.,6.22459,5.31296));
#1180 = DIRECTION('',(0.,-0.659345818626,0.751839804386));
#1181 = DIRECTION('',(0.,0.751839804386,0.659345818626));
#1182 = ADVANCED_FACE('',(#1183),#1201,.T.);
#1183 = FACE_BOUND('',#1184,.T.);
#1184 = EDGE_LOOP('',(#1185,#1186,#1187,#1195));
#1185 = ORIENTED_EDGE('',*,*,#232,.T.);
#1186 = ORIENTED_EDGE('',*,*,#1172,.T.);
#1187 = ORIENTED_EDGE('',*,*,#1188,.T.);
#1188 = EDGE_CURVE('',#1165,#1189,#1191,.T.);
#1189 = VERTEX_POINT('',#1190);
#1190 = CARTESIAN_POINT('',(27.,8.11204,7.20041));
#1191 = LINE('',#1192,#1193);
#1192 = CARTESIAN_POINT('',(27.,7.23017,6.19483));
#1193 = VECTOR('',#1194,1.);
#1194 = DIRECTION('',(0.,0.659345818626,0.751839804386));
#1195 = ORIENTED_EDGE('',*,*,#1196,.F.);
#1196 = EDGE_CURVE('',#225,#1189,#1197,.T.);
#1197 = LINE('',#1198,#1199);
#1198 = CARTESIAN_POINT('',(-1.,8.11204,7.20041));
#1199 = VECTOR('',#1200,1.);
#1200 = DIRECTION('',(1.,0.,0.));
#1201 = PLANE('',#1202);
#1202 = AXIS2_PLACEMENT_3D('',#1203,#1204,#1205);
#1203 = CARTESIAN_POINT('',(-1.,7.23017,6.19483));
#1204 = DIRECTION('',(0.,-0.751839804386,0.659345818626));
#1205 = DIRECTION('',(0.,0.659345818626,0.751839804386));
#1206 = ADVANCED_FACE('',(#1207),#1225,.T.);
#1207 = FACE_BOUND('',#1208,.T.);
#1208 = EDGE_LOOP('',(#1209,#1210,#1211,#1219));
#1209 = ORIENTED_EDGE('',*,*,#224,.T.);
#1210 = ORIENTED_EDGE('',*,*,#1196,.T.);
#1211 = ORIENTED_EDGE('',*,*,#1212,.T.);
#1212 = EDGE_CURVE('',#1189,#1213,#1215,.T.);
#1213 = VERTEX_POINT('',#1214);
#1214 = CARTESIAN_POINT('',(27.,8.85511,8.3125));
#1215 = LINE('',#1216,#1217);
#1216 = CARTESIAN_POINT('',(27.,8.11204,7.20041));
#1217 = VECTOR('',#1218,1.);
#1218 = DIRECTION('',(0.,0.555567761526,0.831471263697));
#1219 = ORIENTED_EDGE('',*,*,#1220,.F.);
#1220 = EDGE_CURVE('',#217,#1213,#1221,.T.);
#1221 = LINE('',#1222,#1223);
#1222 = CARTESIAN_POINT('',(-1.,8.85511,8.3125));
#1223 = VECTOR('',#1224,1.);
#1224 = DIRECTION('',(1.,0.,0.));
#1225 = PLANE('',#1226);
#1226 = AXIS2_PLACEMENT_3D('',#1227,#1228,#1229);
#1227 = CARTESIAN_POINT('',(-1.,8.11204,7.20041));
#1228 = DIRECTION('',(0.,-0.831471263697,0.555567761526));
#1229 = DIRECTION('',(0.,0.555567761526,0.831471263697));
#1230 = ADVANCED_FACE('',(#1231),#1249,.T.);
#1231 = FACE_BOUND('',#1232,.T.);
#1232 = EDGE_LOOP('',(#1233,#1234,#1235,#1243));
#1233 = ORIENTED_EDGE('',*,*,#216,.T.);
#1234 = ORIENTED_EDGE('',*,*,#1220,.T.);
#1235 = ORIENTED_EDGE('',*,*,#1236,.T.);
#1236 = EDGE_CURVE('',#1213,#1237,#1239,.T.);
#1237 = VERTEX_POINT('',#1238);
#1238 = CARTESIAN_POINT('',(27.,9.44667,9.51206));
#1239 = LINE('',#1240,#1241);
#1240 = CARTESIAN_POINT('',(27.,8.85511,8.3125));
#1241 = VECTOR('',#1242,1.);
#1242 = DIRECTION('',(0.,0.442290177353,0.896872008158));
#1243 = ORIENTED_EDGE('',*,*,#1244,.F.);
#1244 = EDGE_CURVE('',#209,#1237,#1245,.T.);
#1245 = LINE('',#1246,#1247);
#1246 = CARTESIAN_POINT('',(-1.,9.44667,9.51206));
#1247 = VECTOR('',#1248,1.);
#1248 = DIRECTION('',(1.,0.,0.));
#1249 = PLANE('',#1250);
#1250 = AXIS2_PLACEMENT_3D('',#1251,#1252,#1253);
#1251 = CARTESIAN_POINT('',(-1.,8.85511,8.3125));
#1252 = DIRECTION('',(0.,-0.896872008158,0.442290177353));
#1253 = DIRECTION('',(0.,0.442290177353,0.896872008158));
#1254 = ADVANCED_FACE('',(#1255),#1273,.T.);
#1255 = FACE_BOUND('',#1256,.T.);
#1256 = EDGE_LOOP('',(#1257,#1258,#1259,#1267));
#1257 = ORIENTED_EDGE('',*,*,#208,.T.);
#1258 = ORIENTED_EDGE('',*,*,#1244,.T.);
#1259 = ORIENTED_EDGE('',*,*,#1260,.T.);
#1260 = EDGE_CURVE('',#1237,#1261,#1263,.T.);
#1261 = VERTEX_POINT('',#1262);
#1262 = CARTESIAN_POINT('',(27.,9.87659,10.77858));
#1263 = LINE('',#1264,#1265);
#1264 = CARTESIAN_POINT('',(27.,9.44667,9.51206));
#1265 = VECTOR('',#1266,1.);
#1266 = DIRECTION('',(0.,0.321435705668,0.946931405711));
#1267 = ORIENTED_EDGE('',*,*,#1268,.F.);
#1268 = EDGE_CURVE('',#201,#1261,#1269,.T.);
#1269 = LINE('',#1270,#1271);
#1270 = CARTESIAN_POINT('',(-1.,9.87659,10.77858));
#1271 = VECTOR('',#1272,1.);
#1272 = DIRECTION('',(1.,0.,0.));
#1273 = PLANE('',#1274);
#1274 = AXIS2_PLACEMENT_3D('',#1275,#1276,#1277);
#1275 = CARTESIAN_POINT('',(-1.,9.44667,9.51206));
#1276 = DIRECTION('',(0.,-0.946931405711,0.321435705668));
#1277 = DIRECTION('',(0.,0.321435705668,0.946931405711));
#1278 = ADVANCED_FACE('',(#1279),#1314,.T.);
#1279 = FACE_BOUND('',#1280,.T.);
#1280 = EDGE_LOOP('',(#1281,#1282,#1283,#1291,#1299,#1308));
#1281 = ORIENTED_EDGE('',*,*,#200,.T.);
#1282 = ORIENTED_EDGE('',*,*,#1268,.T.);
#1283 = ORIENTED_EDGE('',*,*,#1284,.T.);
#1284 = EDGE_CURVE('',#1261,#1285,#1287,.T.);
#1285 = VERTEX_POINT('',#1286);
#1286 = CARTESIAN_POINT('',(27.,10.1375,12.09037));
#1287 = LINE('',#1288,#1289);
#1288 = CARTESIAN_POINT('',(27.,9.87659,10.77858));
#1289 = VECTOR('',#1290,1.);
#1290 = DIRECTION('',(0.,0.195075035502,0.980788320956));
#1291 = ORIENTED_EDGE('',*,*,#1292,.F.);
#1292 = EDGE_CURVE('',#1293,#1285,#1295,.T.);
#1293 = VERTEX_POINT('',#1294);
#1294 = CARTESIAN_POINT('',(23.203132378266,10.1375,12.09037));
#1295 = LINE('',#1296,#1297);
#1296 = CARTESIAN_POINT('',(-1.,10.1375,12.09037));
#1297 = VECTOR('',#1298,1.);
#1298 = DIRECTION('',(1.,0.,0.));
#1299 = ORIENTED_EDGE('',*,*,#1300,.F.);
#1300 = EDGE_CURVE('',#1301,#1293,#1303,.T.);
#1301 = VERTEX_POINT('',#1302);
#1302 = CARTESIAN_POINT('',(22.796867621734,10.1375,12.09037));
#1303 = ELLIPSE('',#1304,1.376443796439,1.35);
#1304 = AXIS2_PLACEMENT_3D('',#1305,#1306,#1307);
#1305 = CARTESIAN_POINT('',(23.,10.402952788404,13.425));
#1306 = DIRECTION('',(0.,-0.980788320956,0.195075035502));
#1307 = DIRECTION('',(0.,0.195075035502,0.980788320956));
#1308 = ORIENTED_EDGE('',*,*,#1309,.F.);
#1309 = EDGE_CURVE('',#193,#1301,#1310,.T.);
#1310 = LINE('',#1311,#1312);
#1311 = CARTESIAN_POINT('',(-1.,10.1375,12.09037));
#1312 = VECTOR('',#1313,1.);
#1313 = DIRECTION('',(1.,0.,0.));
#1314 = PLANE('',#1315);
#1315 = AXIS2_PLACEMENT_3D('',#1316,#1317,#1318);
#1316 = CARTESIAN_POINT('',(-1.,9.87659,10.77858));
#1317 = DIRECTION('',(0.,-0.980788320956,0.195075035502));
#1318 = DIRECTION('',(0.,0.195075035502,0.980788320956));
#1319 = ADVANCED_FACE('',(#1320),#1339,.T.);
#1320 = FACE_BOUND('',#1321,.T.);
#1321 = EDGE_LOOP('',(#1322,#1323,#1324,#1333));
#1322 = ORIENTED_EDGE('',*,*,#192,.T.);
#1323 = ORIENTED_EDGE('',*,*,#1309,.T.);
#1324 = ORIENTED_EDGE('',*,*,#1325,.F.);
#1325 = EDGE_CURVE('',#1326,#1301,#1328,.T.);
#1326 = VERTEX_POINT('',#1327);
#1327 = CARTESIAN_POINT('',(21.65,10.225,13.425));
#1328 = ELLIPSE('',#1329,1.352898225574,1.35);
#1329 = AXIS2_PLACEMENT_3D('',#1330,#1331,#1332);
#1330 = CARTESIAN_POINT('',(23.,10.225,13.425));
#1331 = DIRECTION('',(0.,-0.997857765263,6.542079412312E-02));
#1332 = DIRECTION('',(0.,6.542079412312E-02,0.997857765263));
#1333 = ORIENTED_EDGE('',*,*,#1334,.F.);
#1334 = EDGE_CURVE('',#185,#1326,#1335,.T.);
#1335 = LINE('',#1336,#1337);
#1336 = CARTESIAN_POINT('',(-1.,10.225,13.425));
#1337 = VECTOR('',#1338,1.);
#1338 = DIRECTION('',(1.,0.,0.));
#1339 = PLANE('',#1340);
#1340 = AXIS2_PLACEMENT_3D('',#1341,#1342,#1343);
#1341 = CARTESIAN_POINT('',(-1.,10.1375,12.09037));
#1342 = DIRECTION('',(0.,-0.997857765263,6.542079412312E-02));
#1343 = DIRECTION('',(0.,6.542079412312E-02,0.997857765263));
#1344 = ADVANCED_FACE('',(#1345),#1364,.T.);
#1345 = FACE_BOUND('',#1346,.T.);
#1346 = EDGE_LOOP('',(#1347,#1348,#1349,#1358));
#1347 = ORIENTED_EDGE('',*,*,#184,.T.);
#1348 = ORIENTED_EDGE('',*,*,#1334,.T.);
#1349 = ORIENTED_EDGE('',*,*,#1350,.F.);
#1350 = EDGE_CURVE('',#1351,#1326,#1353,.T.);
#1351 = VERTEX_POINT('',#1352);
#1352 = CARTESIAN_POINT('',(22.796867621734,10.1375,14.75963));
#1353 = ELLIPSE('',#1354,1.352898225574,1.35);
#1354 = AXIS2_PLACEMENT_3D('',#1355,#1356,#1357);
#1355 = CARTESIAN_POINT('',(23.,10.225,13.425));
#1356 = DIRECTION('',(0.,-0.997857765263,-6.542079412312E-02));
#1357 = DIRECTION('',(0.,6.542079412312E-02,-0.997857765263));
#1358 = ORIENTED_EDGE('',*,*,#1359,.F.);
#1359 = EDGE_CURVE('',#177,#1351,#1360,.T.);
#1360 = LINE('',#1361,#1362);
#1361 = CARTESIAN_POINT('',(-1.,10.1375,14.75963));
#1362 = VECTOR('',#1363,1.);
#1363 = DIRECTION('',(1.,0.,0.));
#1364 = PLANE('',#1365);
#1365 = AXIS2_PLACEMENT_3D('',#1366,#1367,#1368);
#1366 = CARTESIAN_POINT('',(-1.,10.225,13.425));
#1367 = DIRECTION('',(0.,-0.997857765263,-6.542079412312E-02));
#1368 = DIRECTION('',(0.,-6.542079412312E-02,0.997857765263));
#1369 = ADVANCED_FACE('',(#1370),#1405,.T.);
#1370 = FACE_BOUND('',#1371,.T.);
#1371 = EDGE_LOOP('',(#1372,#1373,#1374,#1383,#1391,#1399));
#1372 = ORIENTED_EDGE('',*,*,#176,.T.);
#1373 = ORIENTED_EDGE('',*,*,#1359,.T.);
#1374 = ORIENTED_EDGE('',*,*,#1375,.F.);
#1375 = EDGE_CURVE('',#1376,#1351,#1378,.T.);
#1376 = VERTEX_POINT('',#1377);
#1377 = CARTESIAN_POINT('',(23.203132378266,10.1375,14.75963));
#1378 = ELLIPSE('',#1379,1.376443796439,1.35);
#1379 = AXIS2_PLACEMENT_3D('',#1380,#1381,#1382);
#1380 = CARTESIAN_POINT('',(23.,10.402952788404,13.425));
#1381 = DIRECTION('',(0.,-0.980788320956,-0.195075035502));
#1382 = DIRECTION('',(0.,0.195075035502,-0.980788320956));
#1383 = ORIENTED_EDGE('',*,*,#1384,.T.);
#1384 = EDGE_CURVE('',#1376,#1385,#1387,.T.);
#1385 = VERTEX_POINT('',#1386);
#1386 = CARTESIAN_POINT('',(27.,10.1375,14.75963));
#1387 = LINE('',#1388,#1389);
#1388 = CARTESIAN_POINT('',(-1.,10.1375,14.75963));
#1389 = VECTOR('',#1390,1.);
#1390 = DIRECTION('',(1.,0.,0.));
#1391 = ORIENTED_EDGE('',*,*,#1392,.T.);
#1392 = EDGE_CURVE('',#1385,#1393,#1395,.T.);
#1393 = VERTEX_POINT('',#1394);
#1394 = CARTESIAN_POINT('',(27.,9.87659,16.07142));
#1395 = LINE('',#1396,#1397);
#1396 = CARTESIAN_POINT('',(27.,10.1375,14.75963));
#1397 = VECTOR('',#1398,1.);
#1398 = DIRECTION('',(0.,-0.195075035502,0.980788320956));
#1399 = ORIENTED_EDGE('',*,*,#1400,.F.);
#1400 = EDGE_CURVE('',#169,#1393,#1401,.T.);
#1401 = LINE('',#1402,#1403);
#1402 = CARTESIAN_POINT('',(-1.,9.87659,16.07142));
#1403 = VECTOR('',#1404,1.);
#1404 = DIRECTION('',(1.,0.,0.));
#1405 = PLANE('',#1406);
#1406 = AXIS2_PLACEMENT_3D('',#1407,#1408,#1409);
#1407 = CARTESIAN_POINT('',(-1.,10.1375,14.75963));
#1408 = DIRECTION('',(0.,-0.980788320956,-0.195075035502));
#1409 = DIRECTION('',(0.,-0.195075035502,0.980788320956));
#1410 = ADVANCED_FACE('',(#1411),#1429,.T.);
#1411 = FACE_BOUND('',#1412,.T.);
#1412 = EDGE_LOOP('',(#1413,#1414,#1415,#1423));
#1413 = ORIENTED_EDGE('',*,*,#168,.T.);
#1414 = ORIENTED_EDGE('',*,*,#1400,.T.);
#1415 = ORIENTED_EDGE('',*,*,#1416,.T.);
#1416 = EDGE_CURVE('',#1393,#1417,#1419,.T.);
#1417 = VERTEX_POINT('',#1418);
#1418 = CARTESIAN_POINT('',(27.,9.44667,17.33794));
#1419 = LINE('',#1420,#1421);
#1420 = CARTESIAN_POINT('',(27.,9.87659,16.07142));
#1421 = VECTOR('',#1422,1.);
#1422 = DIRECTION('',(0.,-0.321435705668,0.946931405711));
#1423 = ORIENTED_EDGE('',*,*,#1424,.F.);
#1424 = EDGE_CURVE('',#161,#1417,#1425,.T.);
#1425 = LINE('',#1426,#1427);
#1426 = CARTESIAN_POINT('',(-1.,9.44667,17.33794));
#1427 = VECTOR('',#1428,1.);
#1428 = DIRECTION('',(1.,0.,0.));
#1429 = PLANE('',#1430);
#1430 = AXIS2_PLACEMENT_3D('',#1431,#1432,#1433);
#1431 = CARTESIAN_POINT('',(-1.,9.87659,16.07142));
#1432 = DIRECTION('',(0.,-0.946931405711,-0.321435705668));
#1433 = DIRECTION('',(0.,-0.321435705668,0.946931405711));
#1434 = ADVANCED_FACE('',(#1435),#1453,.T.);
#1435 = FACE_BOUND('',#1436,.T.);
#1436 = EDGE_LOOP('',(#1437,#1438,#1439,#1447));
#1437 = ORIENTED_EDGE('',*,*,#160,.T.);
#1438 = ORIENTED_EDGE('',*,*,#1424,.T.);
#1439 = ORIENTED_EDGE('',*,*,#1440,.T.);
#1440 = EDGE_CURVE('',#1417,#1441,#1443,.T.);
#1441 = VERTEX_POINT('',#1442);
#1442 = CARTESIAN_POINT('',(27.,8.85511,18.5375));
#1443 = LINE('',#1444,#1445);
#1444 = CARTESIAN_POINT('',(27.,9.44667,17.33794));
#1445 = VECTOR('',#1446,1.);
#1446 = DIRECTION('',(0.,-0.442290177353,0.896872008158));
#1447 = ORIENTED_EDGE('',*,*,#1448,.F.);
#1448 = EDGE_CURVE('',#153,#1441,#1449,.T.);
#1449 = LINE('',#1450,#1451);
#1450 = CARTESIAN_POINT('',(-1.,8.85511,18.5375));
#1451 = VECTOR('',#1452,1.);
#1452 = DIRECTION('',(1.,0.,0.));
#1453 = PLANE('',#1454);
#1454 = AXIS2_PLACEMENT_3D('',#1455,#1456,#1457);
#1455 = CARTESIAN_POINT('',(-1.,9.44667,17.33794));
#1456 = DIRECTION('',(0.,-0.896872008158,-0.442290177353));
#1457 = DIRECTION('',(0.,-0.442290177353,0.896872008158));
#1458 = ADVANCED_FACE('',(#1459),#1477,.T.);
#1459 = FACE_BOUND('',#1460,.T.);
#1460 = EDGE_LOOP('',(#1461,#1462,#1463,#1471));
#1461 = ORIENTED_EDGE('',*,*,#152,.T.);
#1462 = ORIENTED_EDGE('',*,*,#1448,.T.);
#1463 = ORIENTED_EDGE('',*,*,#1464,.T.);
#1464 = EDGE_CURVE('',#1441,#1465,#1467,.T.);
#1465 = VERTEX_POINT('',#1466);
#1466 = CARTESIAN_POINT('',(27.,8.11204,19.64959));
#1467 = LINE('',#1468,#1469);
#1468 = CARTESIAN_POINT('',(27.,8.85511,18.5375));
#1469 = VECTOR('',#1470,1.);
#1470 = DIRECTION('',(0.,-0.555567761526,0.831471263697));
#1471 = ORIENTED_EDGE('',*,*,#1472,.F.);
#1472 = EDGE_CURVE('',#145,#1465,#1473,.T.);
#1473 = LINE('',#1474,#1475);
#1474 = CARTESIAN_POINT('',(-1.,8.11204,19.64959));
#1475 = VECTOR('',#1476,1.);
#1476 = DIRECTION('',(1.,0.,0.));
#1477 = PLANE('',#1478);
#1478 = AXIS2_PLACEMENT_3D('',#1479,#1480,#1481);
#1479 = CARTESIAN_POINT('',(-1.,8.85511,18.5375));
#1480 = DIRECTION('',(0.,-0.831471263697,-0.555567761526));
#1481 = DIRECTION('',(0.,-0.555567761526,0.831471263697));
#1482 = ADVANCED_FACE('',(#1483),#1501,.T.);
#1483 = FACE_BOUND('',#1484,.T.);
#1484 = EDGE_LOOP('',(#1485,#1486,#1487,#1495));
#1485 = ORIENTED_EDGE('',*,*,#144,.T.);
#1486 = ORIENTED_EDGE('',*,*,#1472,.T.);
#1487 = ORIENTED_EDGE('',*,*,#1488,.T.);
#1488 = EDGE_CURVE('',#1465,#1489,#1491,.T.);
#1489 = VERTEX_POINT('',#1490);
#1490 = CARTESIAN_POINT('',(27.,7.23017,20.65517));
#1491 = LINE('',#1492,#1493);
#1492 = CARTESIAN_POINT('',(27.,8.11204,19.64959));
#1493 = VECTOR('',#1494,1.);
#1494 = DIRECTION('',(0.,-0.659345818626,0.751839804386));
#1495 = ORIENTED_EDGE('',*,*,#1496,.F.);
#1496 = EDGE_CURVE('',#137,#1489,#1497,.T.);
#1497 = LINE('',#1498,#1499);
#1498 = CARTESIAN_POINT('',(-1.,7.23017,20.65517));
#1499 = VECTOR('',#1500,1.);
#1500 = DIRECTION('',(1.,0.,0.));
#1501 = PLANE('',#1502);
#1502 = AXIS2_PLACEMENT_3D('',#1503,#1504,#1505);
#1503 = CARTESIAN_POINT('',(-1.,8.11204,19.64959));
#1504 = DIRECTION('',(0.,-0.751839804386,-0.659345818626));
#1505 = DIRECTION('',(0.,-0.659345818626,0.751839804386));
#1506 = ADVANCED_FACE('',(#1507),#1525,.T.);
#1507 = FACE_BOUND('',#1508,.T.);
#1508 = EDGE_LOOP('',(#1509,#1510,#1511,#1519));
#1509 = ORIENTED_EDGE('',*,*,#136,.T.);
#1510 = ORIENTED_EDGE('',*,*,#1496,.T.);
#1511 = ORIENTED_EDGE('',*,*,#1512,.T.);
#1512 = EDGE_CURVE('',#1489,#1513,#1515,.T.);
#1513 = VERTEX_POINT('',#1514);
#1514 = CARTESIAN_POINT('',(27.,2.73533,25.15));
#1515 = LINE('',#1516,#1517);
#1516 = CARTESIAN_POINT('',(27.,7.23017,20.65517));
#1517 = VECTOR('',#1518,1.);
#1518 = DIRECTION('',(0.,-0.707107567763,0.707105994609));
#1519 = ORIENTED_EDGE('',*,*,#1520,.F.);
#1520 = EDGE_CURVE('',#129,#1513,#1521,.T.);
#1521 = LINE('',#1522,#1523);
#1522 = CARTESIAN_POINT('',(-1.,2.73533,25.15));
#1523 = VECTOR('',#1524,1.);
#1524 = DIRECTION('',(1.,0.,0.));
#1525 = PLANE('',#1526);
#1526 = AXIS2_PLACEMENT_3D('',#1527,#1528,#1529);
#1527 = CARTESIAN_POINT('',(-1.,7.23017,20.65517));
#1528 = DIRECTION('',(0.,-0.707105994609,-0.707107567763));
#1529 = DIRECTION('',(0.,-0.707107567763,0.707105994609));
#1530 = ADVANCED_FACE('',(#1531),#1549,.T.);
#1531 = FACE_BOUND('',#1532,.T.);
#1532 = EDGE_LOOP('',(#1533,#1534,#1535,#1543));
#1533 = ORIENTED_EDGE('',*,*,#128,.T.);
#1534 = ORIENTED_EDGE('',*,*,#1520,.T.);
#1535 = ORIENTED_EDGE('',*,*,#1536,.T.);
#1536 = EDGE_CURVE('',#1513,#1537,#1539,.T.);
#1537 = VERTEX_POINT('',#1538);
#1538 = CARTESIAN_POINT('',(27.,-2.73533,25.15));
#1539 = LINE('',#1540,#1541);
#1540 = CARTESIAN_POINT('',(27.,2.73533,25.15));
#1541 = VECTOR('',#1542,1.);
#1542 = DIRECTION('',(0.,-1.,0.));
#1543 = ORIENTED_EDGE('',*,*,#1544,.F.);
#1544 = EDGE_CURVE('',#121,#1537,#1545,.T.);
#1545 = LINE('',#1546,#1547);
#1546 = CARTESIAN_POINT('',(-1.,-2.73533,25.15));
#1547 = VECTOR('',#1548,1.);
#1548 = DIRECTION('',(1.,0.,0.));
#1549 = PLANE('',#1550);
#1550 = AXIS2_PLACEMENT_3D('',#1551,#1552,#1553);
#1551 = CARTESIAN_POINT('',(-1.,2.73533,25.15));
#1552 = DIRECTION('',(0.,0.,-1.));
#1553 = DIRECTION('',(0.,-1.,0.));
#1554 = ADVANCED_FACE('',(#1555),#1573,.T.);
#1555 = FACE_BOUND('',#1556,.T.);
#1556 = EDGE_LOOP('',(#1557,#1558,#1559,#1567));
#1557 = ORIENTED_EDGE('',*,*,#120,.T.);
#1558 = ORIENTED_EDGE('',*,*,#1544,.T.);
#1559 = ORIENTED_EDGE('',*,*,#1560,.T.);
#1560 = EDGE_CURVE('',#1537,#1561,#1563,.T.);
#1561 = VERTEX_POINT('',#1562);
#1562 = CARTESIAN_POINT('',(27.,-7.23017,20.65517));
#1563 = LINE('',#1564,#1565);
#1564 = CARTESIAN_POINT('',(27.,-2.73533,25.15));
#1565 = VECTOR('',#1566,1.);
#1566 = DIRECTION('',(0.,-0.707107567763,-0.707105994609));
#1567 = ORIENTED_EDGE('',*,*,#1568,.F.);
#1568 = EDGE_CURVE('',#113,#1561,#1569,.T.);
#1569 = LINE('',#1570,#1571);
#1570 = CARTESIAN_POINT('',(-1.,-7.23017,20.65517));
#1571 = VECTOR('',#1572,1.);
#1572 = DIRECTION('',(1.,0.,0.));
#1573 = PLANE('',#1574);
#1574 = AXIS2_PLACEMENT_3D('',#1575,#1576,#1577);
#1575 = CARTESIAN_POINT('',(-1.,-2.73533,25.15));
#1576 = DIRECTION('',(0.,0.707105994609,-0.707107567763));
#1577 = DIRECTION('',(0.,-0.707107567763,-0.707105994609));
#1578 = ADVANCED_FACE('',(#1579),#1590,.T.);
#1579 = FACE_BOUND('',#1580,.T.);
#1580 = EDGE_LOOP('',(#1581,#1582,#1583,#1589));
#1581 = ORIENTED_EDGE('',*,*,#112,.T.);
#1582 = ORIENTED_EDGE('',*,*,#1568,.T.);
#1583 = ORIENTED_EDGE('',*,*,#1584,.T.);
#1584 = EDGE_CURVE('',#1561,#593,#1585,.T.);
#1585 = LINE('',#1586,#1587);
#1586 = CARTESIAN_POINT('',(27.,-7.23017,20.65517));
#1587 = VECTOR('',#1588,1.);
#1588 = DIRECTION('',(0.,-0.659345818626,-0.751839804386));
#1589 = ORIENTED_EDGE('',*,*,#592,.F.);
#1590 = PLANE('',#1591);
#1591 = AXIS2_PLACEMENT_3D('',#1592,#1593,#1594);
#1592 = CARTESIAN_POINT('',(-1.,-7.23017,20.65517));
#1593 = DIRECTION('',(0.,0.751839804386,-0.659345818626));
#1594 = DIRECTION('',(0.,-0.659345818626,-0.751839804386));
#1595 = ADVANCED_FACE('',(#1596),#1637,.T.);
#1596 = FACE_BOUND('',#1597,.T.);
#1597 = EDGE_LOOP('',(#1598,#1599,#1607,#1615,#1623,#1631));
#1598 = ORIENTED_EDGE('',*,*,#478,.T.);
#1599 = ORIENTED_EDGE('',*,*,#1600,.T.);
#1600 = EDGE_CURVE('',#471,#1601,#1603,.T.);
#1601 = VERTEX_POINT('',#1602);
#1602 = CARTESIAN_POINT('',(37.,10.,25.));
#1603 = LINE('',#1604,#1605);
#1604 = CARTESIAN_POINT('',(32.,10.,25.));
#1605 = VECTOR('',#1606,1.);
#1606 = DIRECTION('',(1.,0.,0.));
#1607 = ORIENTED_EDGE('',*,*,#1608,.F.);
#1608 = EDGE_CURVE('',#1609,#1601,#1611,.T.);
#1609 = VERTEX_POINT('',#1610);
#1610 = CARTESIAN_POINT('',(37.,10.,4.));
#1611 = LINE('',#1612,#1613);
#1612 = CARTESIAN_POINT('',(37.,10.,0.));
#1613 = VECTOR('',#1614,1.);
#1614 = DIRECTION('',(0.,0.,1.));
#1615 = ORIENTED_EDGE('',*,*,#1616,.T.);
#1616 = EDGE_CURVE('',#1609,#1617,#1619,.T.);
#1617 = VERTEX_POINT('',#1618);
#1618 = CARTESIAN_POINT('',(60.4338,10.,4.));
#1619 = LINE('',#1620,#1621);
#1620 = CARTESIAN_POINT('',(32.,10.,4.));
#1621 = VECTOR('',#1622,1.);
#1622 = DIRECTION('',(1.,0.,0.));
#1623 = ORIENTED_EDGE('',*,*,#1624,.F.);
#1624 = EDGE_CURVE('',#1625,#1617,#1627,.T.);
#1625 = VERTEX_POINT('',#1626);
#1626 = CARTESIAN_POINT('',(60.4338,10.,0.));
#1627 = LINE('',#1628,#1629);
#1628 = CARTESIAN_POINT('',(60.4338,10.,0.));
#1629 = VECTOR('',#1630,1.);
#1630 = DIRECTION('',(0.,0.,1.));
#1631 = ORIENTED_EDGE('',*,*,#1632,.F.);
#1632 = EDGE_CURVE('',#479,#1625,#1633,.T.);
#1633 = LINE('',#1634,#1635);
#1634 = CARTESIAN_POINT('',(32.,10.,0.));
#1635 = VECTOR('',#1636,1.);
#1636 = DIRECTION('',(1.,0.,0.));
#1637 = PLANE('',#1638);
#1638 = AXIS2_PLACEMENT_3D('',#1639,#1640,#1641);
#1639 = CARTESIAN_POINT('',(41.612045020567,10.,7.895145020568));
#1640 = DIRECTION('',(0.,1.,0.));
#1641 = DIRECTION('',(0.,0.,1.));
#1642 = ADVANCED_FACE('',(#1643),#1687,.T.);
#1643 = FACE_BOUND('',#1644,.T.);
#1644 = EDGE_LOOP('',(#1645,#1646,#1647,#1655,#1663,#1672,#1681));
#1645 = ORIENTED_EDGE('',*,*,#1600,.F.);
#1646 = ORIENTED_EDGE('',*,*,#470,.F.);
#1647 = ORIENTED_EDGE('',*,*,#1648,.T.);
#1648 = EDGE_CURVE('',#463,#1649,#1651,.T.);
#1649 = VERTEX_POINT('',#1650);
#1650 = CARTESIAN_POINT('',(37.,-10.,25.));
#1651 = LINE('',#1652,#1653);
#1652 = CARTESIAN_POINT('',(32.,-10.,25.));
#1653 = VECTOR('',#1654,1.);
#1654 = DIRECTION('',(1.,0.,0.));
#1655 = ORIENTED_EDGE('',*,*,#1656,.T.);
#1656 = EDGE_CURVE('',#1649,#1657,#1659,.T.);
#1657 = VERTEX_POINT('',#1658);
#1658 = CARTESIAN_POINT('',(37.,-3.,25.));
#1659 = LINE('',#1660,#1661);
#1660 = CARTESIAN_POINT('',(37.,-10.,25.));
#1661 = VECTOR('',#1662,1.);
#1662 = DIRECTION('',(0.,1.,0.));
#1663 = ORIENTED_EDGE('',*,*,#1664,.T.);
#1664 = EDGE_CURVE('',#1657,#1665,#1667,.T.);
#1665 = VERTEX_POINT('',#1666);
#1666 = CARTESIAN_POINT('',(40.,-7.347880794884E-16,25.));
#1667 = CIRCLE('',#1668,3.);
#1668 = AXIS2_PLACEMENT_3D('',#1669,#1670,#1671);
#1669 = CARTESIAN_POINT('',(37.,0.,25.));
#1670 = DIRECTION('',(0.,0.,1.));
#1671 = DIRECTION('',(1.,0.,0.));
#1672 = ORIENTED_EDGE('',*,*,#1673,.T.);
#1673 = EDGE_CURVE('',#1665,#1674,#1676,.T.);
#1674 = VERTEX_POINT('',#1675);
#1675 = CARTESIAN_POINT('',(37.,3.,25.));
#1676 = CIRCLE('',#1677,3.);
#1677 = AXIS2_PLACEMENT_3D('',#1678,#1679,#1680);
#1678 = CARTESIAN_POINT('',(37.,0.,25.));
#1679 = DIRECTION('',(0.,0.,1.));
#1680 = DIRECTION('',(1.,0.,0.));
#1681 = ORIENTED_EDGE('',*,*,#1682,.T.);
#1682 = EDGE_CURVE('',#1674,#1601,#1683,.T.);
#1683 = LINE('',#1684,#1685);
#1684 = CARTESIAN_POINT('',(37.,-10.,25.));
#1685 = VECTOR('',#1686,1.);
#1686 = DIRECTION('',(0.,1.,0.));
#1687 = PLANE('',#1688);
#1688 = AXIS2_PLACEMENT_3D('',#1689,#1690,#1691);
#1689 = CARTESIAN_POINT('',(34.981650224725,1.332663623291E-16,25.));
#1690 = DIRECTION('',(0.,0.,1.));
#1691 = DIRECTION('',(1.,0.,0.));
#1692 = ADVANCED_FACE('',(#1693),#1727,.T.);
#1693 = FACE_BOUND('',#1694,.T.);
#1694 = EDGE_LOOP('',(#1695,#1703,#1711,#1719,#1725,#1726));
#1695 = ORIENTED_EDGE('',*,*,#1696,.T.);
#1696 = EDGE_CURVE('',#455,#1697,#1699,.T.);
#1697 = VERTEX_POINT('',#1698);
#1698 = CARTESIAN_POINT('',(60.4338,-10.,0.));
#1699 = LINE('',#1700,#1701);
#1700 = CARTESIAN_POINT('',(32.,-10.,0.));
#1701 = VECTOR('',#1702,1.);
#1702 = DIRECTION('',(1.,0.,0.));
#1703 = ORIENTED_EDGE('',*,*,#1704,.T.);
#1704 = EDGE_CURVE('',#1697,#1705,#1707,.T.);
#1705 = VERTEX_POINT('',#1706);
#1706 = CARTESIAN_POINT('',(60.4338,-10.,4.));
#1707 = LINE('',#1708,#1709);
#1708 = CARTESIAN_POINT('',(60.4338,-10.,0.));
#1709 = VECTOR('',#1710,1.);
#1710 = DIRECTION('',(0.,0.,1.));
#1711 = ORIENTED_EDGE('',*,*,#1712,.F.);
#1712 = EDGE_CURVE('',#1713,#1705,#1715,.T.);
#1713 = VERTEX_POINT('',#1714);
#1714 = CARTESIAN_POINT('',(37.,-10.,4.));
#1715 = LINE('',#1716,#1717);
#1716 = CARTESIAN_POINT('',(32.,-10.,4.));
#1717 = VECTOR('',#1718,1.);
#1718 = DIRECTION('',(1.,0.,0.));
#1719 = ORIENTED_EDGE('',*,*,#1720,.T.);
#1720 = EDGE_CURVE('',#1713,#1649,#1721,.T.);
#1721 = LINE('',#1722,#1723);
#1722 = CARTESIAN_POINT('',(37.,-10.,0.));
#1723 = VECTOR('',#1724,1.);
#1724 = DIRECTION('',(0.,0.,1.));
#1725 = ORIENTED_EDGE('',*,*,#1648,.F.);
#1726 = ORIENTED_EDGE('',*,*,#462,.F.);
#1727 = PLANE('',#1728);
#1728 = AXIS2_PLACEMENT_3D('',#1729,#1730,#1731);
#1729 = CARTESIAN_POINT('',(41.612045020568,-10.,7.895145020568));
#1730 = DIRECTION('',(-0.,-1.,-0.));
#1731 = DIRECTION('',(0.,0.,-1.));
#1732 = ADVANCED_FACE('',(#1733,#1781),#1792,.T.);
#1733 = FACE_BOUND('',#1734,.T.);
#1734 = EDGE_LOOP('',(#1735,#1743,#1744,#1750,#1751,#1759,#1767,#1775));
#1735 = ORIENTED_EDGE('',*,*,#1736,.F.);
#1736 = EDGE_CURVE('',#1705,#1737,#1739,.T.);
#1737 = VERTEX_POINT('',#1738);
#1738 = CARTESIAN_POINT('',(60.4338,-4.5,4.));
#1739 = LINE('',#1740,#1741);
#1740 = CARTESIAN_POINT('',(60.4338,-10.,4.));
#1741 = VECTOR('',#1742,1.);
#1742 = DIRECTION('',(0.,1.,0.));
#1743 = ORIENTED_EDGE('',*,*,#1704,.F.);
#1744 = ORIENTED_EDGE('',*,*,#1745,.T.);
#1745 = EDGE_CURVE('',#1697,#1625,#1746,.T.);
#1746 = LINE('',#1747,#1748);
#1747 = CARTESIAN_POINT('',(60.4338,-10.,0.));
#1748 = VECTOR('',#1749,1.);
#1749 = DIRECTION('',(0.,1.,0.));
#1750 = ORIENTED_EDGE('',*,*,#1624,.T.);
#1751 = ORIENTED_EDGE('',*,*,#1752,.F.);
#1752 = EDGE_CURVE('',#1753,#1617,#1755,.T.);
#1753 = VERTEX_POINT('',#1754);
#1754 = CARTESIAN_POINT('',(60.4338,4.5,4.));
#1755 = LINE('',#1756,#1757);
#1756 = CARTESIAN_POINT('',(60.4338,-10.,4.));
#1757 = VECTOR('',#1758,1.);
#1758 = DIRECTION('',(0.,1.,0.));
#1759 = ORIENTED_EDGE('',*,*,#1760,.T.);
#1760 = EDGE_CURVE('',#1753,#1761,#1763,.T.);
#1761 = VERTEX_POINT('',#1762);
#1762 = CARTESIAN_POINT('',(60.4338,4.5,25.));
#1763 = LINE('',#1764,#1765);
#1764 = CARTESIAN_POINT('',(60.4338,4.5,0.));
#1765 = VECTOR('',#1766,1.);
#1766 = DIRECTION('',(0.,0.,1.));
#1767 = ORIENTED_EDGE('',*,*,#1768,.F.);
#1768 = EDGE_CURVE('',#1769,#1761,#1771,.T.);
#1769 = VERTEX_POINT('',#1770);
#1770 = CARTESIAN_POINT('',(60.4338,-4.5,25.));
#1771 = LINE('',#1772,#1773);
#1772 = CARTESIAN_POINT('',(60.4338,-4.5,25.));
#1773 = VECTOR('',#1774,1.);
#1774 = DIRECTION('',(0.,1.,0.));
#1775 = ORIENTED_EDGE('',*,*,#1776,.F.);
#1776 = EDGE_CURVE('',#1737,#1769,#1777,.T.);
#1777 = LINE('',#1778,#1779);
#1778 = CARTESIAN_POINT('',(60.4338,-4.5,0.));
#1779 = VECTOR('',#1780,1.);
#1780 = DIRECTION('',(0.,0.,1.));
#1781 = FACE_BOUND('',#1782,.T.);
#1782 = EDGE_LOOP('',(#1783));
#1783 = ORIENTED_EDGE('',*,*,#1784,.F.);
#1784 = EDGE_CURVE('',#1785,#1785,#1787,.T.);
#1785 = VERTEX_POINT('',#1786);
#1786 = CARTESIAN_POINT('',(60.4338,-3.306546357698E-16,13.85));
#1787 = CIRCLE('',#1788,1.35);
#1788 = AXIS2_PLACEMENT_3D('',#1789,#1790,#1791);
#1789 = CARTESIAN_POINT('',(60.4338,0.,12.5));
#1790 = DIRECTION('',(1.,0.,2.22044604925E-16));
#1791 = DIRECTION('',(-2.22044604925E-16,0.,1.));
#1792 = PLANE('',#1793);
#1793 = AXIS2_PLACEMENT_3D('',#1794,#1795,#1796);
#1794 = CARTESIAN_POINT('',(60.4338,0.,9.933333333333));
#1795 = DIRECTION('',(1.,0.,2.227078307497E-16));
#1796 = DIRECTION('',(-2.227078307497E-16,0.,1.));
#1797 = ADVANCED_FACE('',(#1798),#1828,.F.);
#1798 = FACE_BOUND('',#1799,.T.);
#1799 = EDGE_LOOP('',(#1800,#1801,#1810,#1816,#1817,#1818,#1825,#1826,
    #1827));
#1800 = ORIENTED_EDGE('',*,*,#688,.T.);
#1801 = ORIENTED_EDGE('',*,*,#1802,.T.);
#1802 = EDGE_CURVE('',#681,#1803,#1805,.T.);
#1803 = VERTEX_POINT('',#1804);
#1804 = CARTESIAN_POINT('',(24.35,-10.225,13.425));
#1805 = ELLIPSE('',#1806,1.352898225574,1.35);
#1806 = AXIS2_PLACEMENT_3D('',#1807,#1808,#1809);
#1807 = CARTESIAN_POINT('',(23.,-10.225,13.425));
#1808 = DIRECTION('',(0.,0.997857765263,-6.542079412312E-02));
#1809 = DIRECTION('',(0.,6.542079412312E-02,0.997857765263));
#1810 = ORIENTED_EDGE('',*,*,#1811,.T.);
#1811 = EDGE_CURVE('',#1803,#535,#1812,.T.);
#1812 = LINE('',#1813,#1814);
#1813 = CARTESIAN_POINT('',(24.35,26.4,13.425));
#1814 = VECTOR('',#1815,1.);
#1815 = DIRECTION('',(0.,-1.,-2.22044604925E-16));
#1816 = ORIENTED_EDGE('',*,*,#534,.F.);
#1817 = ORIENTED_EDGE('',*,*,#1811,.F.);
#1818 = ORIENTED_EDGE('',*,*,#1819,.T.);
#1819 = EDGE_CURVE('',#1803,#764,#1820,.T.);
#1820 = ELLIPSE('',#1821,1.352898225574,1.35);
#1821 = AXIS2_PLACEMENT_3D('',#1822,#1823,#1824);
#1822 = CARTESIAN_POINT('',(23.,-10.225,13.425));
#1823 = DIRECTION('',(0.,0.997857765263,6.542079412312E-02));
#1824 = DIRECTION('',(0.,6.542079412312E-02,-0.997857765263));
#1825 = ORIENTED_EDGE('',*,*,#763,.T.);
#1826 = ORIENTED_EDGE('',*,*,#738,.T.);
#1827 = ORIENTED_EDGE('',*,*,#713,.T.);
#1828 = CYLINDRICAL_SURFACE('',#1829,1.35);
#1829 = AXIS2_PLACEMENT_3D('',#1830,#1831,#1832);
#1830 = CARTESIAN_POINT('',(23.,26.4,13.425));
#1831 = DIRECTION('',(-0.,1.,2.22044604925E-16));
#1832 = DIRECTION('',(1.,0.,0.));
#1833 = ADVANCED_FACE('',(#1834),#1864,.F.);
#1834 = FACE_BOUND('',#1835,.T.);
#1835 = EDGE_LOOP('',(#1836,#1837,#1845,#1852,#1853,#1854,#1855,#1856,
    #1863));
#1836 = ORIENTED_EDGE('',*,*,#562,.F.);
#1837 = ORIENTED_EDGE('',*,*,#1838,.T.);
#1838 = EDGE_CURVE('',#563,#1839,#1841,.T.);
#1839 = VERTEX_POINT('',#1840);
#1840 = CARTESIAN_POINT('',(24.35,10.225,13.425));
#1841 = LINE('',#1842,#1843);
#1842 = CARTESIAN_POINT('',(24.35,26.4,13.425));
#1843 = VECTOR('',#1844,1.);
#1844 = DIRECTION('',(0.,-1.,-2.22044604925E-16));
#1845 = ORIENTED_EDGE('',*,*,#1846,.T.);
#1846 = EDGE_CURVE('',#1839,#1376,#1847,.T.);
#1847 = ELLIPSE('',#1848,1.352898225574,1.35);
#1848 = AXIS2_PLACEMENT_3D('',#1849,#1850,#1851);
#1849 = CARTESIAN_POINT('',(23.,10.225,13.425));
#1850 = DIRECTION('',(0.,-0.997857765263,-6.542079412312E-02));
#1851 = DIRECTION('',(0.,6.542079412312E-02,-0.997857765263));
#1852 = ORIENTED_EDGE('',*,*,#1375,.T.);
#1853 = ORIENTED_EDGE('',*,*,#1350,.T.);
#1854 = ORIENTED_EDGE('',*,*,#1325,.T.);
#1855 = ORIENTED_EDGE('',*,*,#1300,.T.);
#1856 = ORIENTED_EDGE('',*,*,#1857,.T.);
#1857 = EDGE_CURVE('',#1293,#1839,#1858,.T.);
#1858 = ELLIPSE('',#1859,1.352898225574,1.35);
#1859 = AXIS2_PLACEMENT_3D('',#1860,#1861,#1862);
#1860 = CARTESIAN_POINT('',(23.,10.225,13.425));
#1861 = DIRECTION('',(0.,-0.997857765263,6.542079412312E-02));
#1862 = DIRECTION('',(0.,6.542079412312E-02,0.997857765263));
#1863 = ORIENTED_EDGE('',*,*,#1838,.F.);
#1864 = CYLINDRICAL_SURFACE('',#1865,1.35);
#1865 = AXIS2_PLACEMENT_3D('',#1866,#1867,#1868);
#1866 = CARTESIAN_POINT('',(23.,26.4,13.425));
#1867 = DIRECTION('',(-0.,1.,2.22044604925E-16));
#1868 = DIRECTION('',(1.,0.,0.));
#1869 = ADVANCED_FACE('',(#1870),#1935,.F.);
#1870 = FACE_BOUND('',#1871,.F.);
#1871 = EDGE_LOOP('',(#1872,#1873,#1874,#1875,#1876,#1877,#1885,#1891,
    #1892,#1893,#1894,#1895,#1896,#1897,#1898,#1899,#1900,#1901,#1902,
    #1903,#1904,#1905,#1906,#1907,#1908,#1909,#1910,#1911,#1912,#1913,
    #1921,#1927,#1928,#1929,#1930,#1931,#1932,#1933,#1934));
#1872 = ORIENTED_EDGE('',*,*,#1584,.T.);
#1873 = ORIENTED_EDGE('',*,*,#600,.T.);
#1874 = ORIENTED_EDGE('',*,*,#624,.T.);
#1875 = ORIENTED_EDGE('',*,*,#648,.T.);
#1876 = ORIENTED_EDGE('',*,*,#672,.T.);
#1877 = ORIENTED_EDGE('',*,*,#1878,.T.);
#1878 = EDGE_CURVE('',#673,#1879,#1881,.T.);
#1879 = VERTEX_POINT('',#1880);
#1880 = CARTESIAN_POINT('',(27.,-10.225,13.425));
#1881 = LINE('',#1882,#1883);
#1882 = CARTESIAN_POINT('',(27.,-10.1375,14.75963));
#1883 = VECTOR('',#1884,1.);
#1884 = DIRECTION('',(0.,-6.542079412312E-02,-0.997857765263));
#1885 = ORIENTED_EDGE('',*,*,#1886,.T.);
#1886 = EDGE_CURVE('',#1879,#773,#1887,.T.);
#1887 = LINE('',#1888,#1889);
#1888 = CARTESIAN_POINT('',(27.,-10.225,13.425));
#1889 = VECTOR('',#1890,1.);
#1890 = DIRECTION('',(0.,6.542079412312E-02,-0.997857765263));
#1891 = ORIENTED_EDGE('',*,*,#780,.T.);
#1892 = ORIENTED_EDGE('',*,*,#804,.T.);
#1893 = ORIENTED_EDGE('',*,*,#828,.T.);
#1894 = ORIENTED_EDGE('',*,*,#852,.T.);
#1895 = ORIENTED_EDGE('',*,*,#876,.T.);
#1896 = ORIENTED_EDGE('',*,*,#900,.T.);
#1897 = ORIENTED_EDGE('',*,*,#924,.T.);
#1898 = ORIENTED_EDGE('',*,*,#948,.T.);
#1899 = ORIENTED_EDGE('',*,*,#972,.T.);
#1900 = ORIENTED_EDGE('',*,*,#996,.T.);
#1901 = ORIENTED_EDGE('',*,*,#1020,.T.);
#1902 = ORIENTED_EDGE('',*,*,#1044,.T.);
#1903 = ORIENTED_EDGE('',*,*,#1068,.T.);
#1904 = ORIENTED_EDGE('',*,*,#1092,.T.);
#1905 = ORIENTED_EDGE('',*,*,#1116,.T.);
#1906 = ORIENTED_EDGE('',*,*,#1140,.T.);
#1907 = ORIENTED_EDGE('',*,*,#1164,.T.);
#1908 = ORIENTED_EDGE('',*,*,#1188,.T.);
#1909 = ORIENTED_EDGE('',*,*,#1212,.T.);
#1910 = ORIENTED_EDGE('',*,*,#1236,.T.);
#1911 = ORIENTED_EDGE('',*,*,#1260,.T.);
#1912 = ORIENTED_EDGE('',*,*,#1284,.T.);
#1913 = ORIENTED_EDGE('',*,*,#1914,.T.);
#1914 = EDGE_CURVE('',#1285,#1915,#1917,.T.);
#1915 = VERTEX_POINT('',#1916);
#1916 = CARTESIAN_POINT('',(27.,10.225,13.425));
#1917 = LINE('',#1918,#1919);
#1918 = CARTESIAN_POINT('',(27.,10.1375,12.09037));
#1919 = VECTOR('',#1920,1.);
#1920 = DIRECTION('',(0.,6.542079412312E-02,0.997857765263));
#1921 = ORIENTED_EDGE('',*,*,#1922,.T.);
#1922 = EDGE_CURVE('',#1915,#1385,#1923,.T.);
#1923 = LINE('',#1924,#1925);
#1924 = CARTESIAN_POINT('',(27.,10.225,13.425));
#1925 = VECTOR('',#1926,1.);
#1926 = DIRECTION('',(0.,-6.542079412312E-02,0.997857765263));
#1927 = ORIENTED_EDGE('',*,*,#1392,.T.);
#1928 = ORIENTED_EDGE('',*,*,#1416,.T.);
#1929 = ORIENTED_EDGE('',*,*,#1440,.T.);
#1930 = ORIENTED_EDGE('',*,*,#1464,.T.);
#1931 = ORIENTED_EDGE('',*,*,#1488,.T.);
#1932 = ORIENTED_EDGE('',*,*,#1512,.T.);
#1933 = ORIENTED_EDGE('',*,*,#1536,.T.);
#1934 = ORIENTED_EDGE('',*,*,#1560,.T.);
#1935 = PLANE('',#1936);
#1936 = AXIS2_PLACEMENT_3D('',#1937,#1938,#1939);
#1937 = CARTESIAN_POINT('',(27.,-1.606744994247E-16,13.984213961674));
#1938 = DIRECTION('',(1.,0.,0.));
#1939 = DIRECTION('',(0.,1.,0.));
#1940 = ADVANCED_FACE('',(#1941),#1952,.T.);
#1941 = FACE_BOUND('',#1942,.T.);
#1942 = EDGE_LOOP('',(#1943,#1944,#1945,#1946));
#1943 = ORIENTED_EDGE('',*,*,#1802,.F.);
#1944 = ORIENTED_EDGE('',*,*,#680,.T.);
#1945 = ORIENTED_EDGE('',*,*,#1878,.T.);
#1946 = ORIENTED_EDGE('',*,*,#1947,.F.);
#1947 = EDGE_CURVE('',#1803,#1879,#1948,.T.);
#1948 = LINE('',#1949,#1950);
#1949 = CARTESIAN_POINT('',(-1.,-10.225,13.425));
#1950 = VECTOR('',#1951,1.);
#1951 = DIRECTION('',(1.,0.,0.));
#1952 = PLANE('',#1953);
#1953 = AXIS2_PLACEMENT_3D('',#1954,#1955,#1956);
#1954 = CARTESIAN_POINT('',(-1.,-10.1375,14.75963));
#1955 = DIRECTION('',(0.,0.997857765263,-6.542079412312E-02));
#1956 = DIRECTION('',(0.,-6.542079412312E-02,-0.997857765263));
#1957 = ADVANCED_FACE('',(#1958),#1964,.T.);
#1958 = FACE_BOUND('',#1959,.T.);
#1959 = EDGE_LOOP('',(#1960,#1961,#1962,#1963));
#1960 = ORIENTED_EDGE('',*,*,#1819,.F.);
#1961 = ORIENTED_EDGE('',*,*,#1947,.T.);
#1962 = ORIENTED_EDGE('',*,*,#1886,.T.);
#1963 = ORIENTED_EDGE('',*,*,#772,.F.);
#1964 = PLANE('',#1965);
#1965 = AXIS2_PLACEMENT_3D('',#1966,#1967,#1968);
#1966 = CARTESIAN_POINT('',(-1.,-10.225,13.425));
#1967 = DIRECTION('',(0.,0.997857765263,6.542079412312E-02));
#1968 = DIRECTION('',(0.,6.542079412312E-02,-0.997857765263));
#1969 = ADVANCED_FACE('',(#1970),#1981,.T.);
#1970 = FACE_BOUND('',#1971,.T.);
#1971 = EDGE_LOOP('',(#1972,#1973,#1974,#1975));
#1972 = ORIENTED_EDGE('',*,*,#1857,.F.);
#1973 = ORIENTED_EDGE('',*,*,#1292,.T.);
#1974 = ORIENTED_EDGE('',*,*,#1914,.T.);
#1975 = ORIENTED_EDGE('',*,*,#1976,.F.);
#1976 = EDGE_CURVE('',#1839,#1915,#1977,.T.);
#1977 = LINE('',#1978,#1979);
#1978 = CARTESIAN_POINT('',(-1.,10.225,13.425));
#1979 = VECTOR('',#1980,1.);
#1980 = DIRECTION('',(1.,0.,0.));
#1981 = PLANE('',#1982);
#1982 = AXIS2_PLACEMENT_3D('',#1983,#1984,#1985);
#1983 = CARTESIAN_POINT('',(-1.,10.1375,12.09037));
#1984 = DIRECTION('',(0.,-0.997857765263,6.542079412312E-02));
#1985 = DIRECTION('',(0.,6.542079412312E-02,0.997857765263));
#1986 = ADVANCED_FACE('',(#1987),#1993,.T.);
#1987 = FACE_BOUND('',#1988,.T.);
#1988 = EDGE_LOOP('',(#1989,#1990,#1991,#1992));
#1989 = ORIENTED_EDGE('',*,*,#1846,.F.);
#1990 = ORIENTED_EDGE('',*,*,#1976,.T.);
#1991 = ORIENTED_EDGE('',*,*,#1922,.T.);
#1992 = ORIENTED_EDGE('',*,*,#1384,.F.);
#1993 = PLANE('',#1994);
#1994 = AXIS2_PLACEMENT_3D('',#1995,#1996,#1997);
#1995 = CARTESIAN_POINT('',(-1.,10.225,13.425));
#1996 = DIRECTION('',(0.,-0.997857765263,-6.542079412312E-02));
#1997 = DIRECTION('',(0.,-6.542079412312E-02,0.997857765263));
#1998 = ADVANCED_FACE('',(#1999),#2017,.T.);
#1999 = FACE_BOUND('',#2000,.T.);
#2000 = EDGE_LOOP('',(#2001,#2009,#2015,#2016));
#2001 = ORIENTED_EDGE('',*,*,#2002,.T.);
#2002 = EDGE_CURVE('',#1674,#2003,#2005,.T.);
#2003 = VERTEX_POINT('',#2004);
#2004 = CARTESIAN_POINT('',(37.,3.,4.));
#2005 = LINE('',#2006,#2007);
#2006 = CARTESIAN_POINT('',(37.,3.,0.));
#2007 = VECTOR('',#2008,1.);
#2008 = DIRECTION('',(-0.,-0.,-1.));
#2009 = ORIENTED_EDGE('',*,*,#2010,.T.);
#2010 = EDGE_CURVE('',#2003,#1609,#2011,.T.);
#2011 = LINE('',#2012,#2013);
#2012 = CARTESIAN_POINT('',(37.,-10.,4.));
#2013 = VECTOR('',#2014,1.);
#2014 = DIRECTION('',(0.,1.,0.));
#2015 = ORIENTED_EDGE('',*,*,#1608,.T.);
#2016 = ORIENTED_EDGE('',*,*,#1682,.F.);
#2017 = PLANE('',#2018);
#2018 = AXIS2_PLACEMENT_3D('',#2019,#2020,#2021);
#2019 = CARTESIAN_POINT('',(37.,-10.,0.));
#2020 = DIRECTION('',(1.,0.,0.));
#2021 = DIRECTION('',(0.,0.,1.));
#2022 = ADVANCED_FACE('',(#2023),#2076,.T.);
#2023 = FACE_BOUND('',#2024,.T.);
#2024 = EDGE_LOOP('',(#2025,#2033,#2034,#2035,#2043,#2051,#2057,#2058,
    #2059,#2060,#2069));
#2025 = ORIENTED_EDGE('',*,*,#2026,.F.);
#2026 = EDGE_CURVE('',#1713,#2027,#2029,.T.);
#2027 = VERTEX_POINT('',#2028);
#2028 = CARTESIAN_POINT('',(37.,-3.,4.));
#2029 = LINE('',#2030,#2031);
#2030 = CARTESIAN_POINT('',(37.,-10.,4.));
#2031 = VECTOR('',#2032,1.);
#2032 = DIRECTION('',(0.,1.,0.));
#2033 = ORIENTED_EDGE('',*,*,#1712,.T.);
#2034 = ORIENTED_EDGE('',*,*,#1736,.T.);
#2035 = ORIENTED_EDGE('',*,*,#2036,.T.);
#2036 = EDGE_CURVE('',#1737,#2037,#2039,.T.);
#2037 = VERTEX_POINT('',#2038);
#2038 = CARTESIAN_POINT('',(55.4338,-4.5,4.));
#2039 = LINE('',#2040,#2041);
#2040 = CARTESIAN_POINT('',(43.7169,-4.5,4.));
#2041 = VECTOR('',#2042,1.);
#2042 = DIRECTION('',(-1.,0.,0.));
#2043 = ORIENTED_EDGE('',*,*,#2044,.T.);
#2044 = EDGE_CURVE('',#2037,#2045,#2047,.T.);
#2045 = VERTEX_POINT('',#2046);
#2046 = CARTESIAN_POINT('',(55.4338,4.5,4.));
#2047 = LINE('',#2048,#2049);
#2048 = CARTESIAN_POINT('',(55.4338,-7.25,4.));
#2049 = VECTOR('',#2050,1.);
#2050 = DIRECTION('',(0.,1.,0.));
#2051 = ORIENTED_EDGE('',*,*,#2052,.F.);
#2052 = EDGE_CURVE('',#1753,#2045,#2053,.T.);
#2053 = LINE('',#2054,#2055);
#2054 = CARTESIAN_POINT('',(43.7169,4.5,4.));
#2055 = VECTOR('',#2056,1.);
#2056 = DIRECTION('',(-1.,0.,0.));
#2057 = ORIENTED_EDGE('',*,*,#1752,.T.);
#2058 = ORIENTED_EDGE('',*,*,#1616,.F.);
#2059 = ORIENTED_EDGE('',*,*,#2010,.F.);
#2060 = ORIENTED_EDGE('',*,*,#2061,.T.);
#2061 = EDGE_CURVE('',#2003,#2062,#2064,.T.);
#2062 = VERTEX_POINT('',#2063);
#2063 = CARTESIAN_POINT('',(40.,-7.347880794884E-16,4.));
#2064 = CIRCLE('',#2065,3.);
#2065 = AXIS2_PLACEMENT_3D('',#2066,#2067,#2068);
#2066 = CARTESIAN_POINT('',(37.,0.,4.));
#2067 = DIRECTION('',(0.,0.,-1.));
#2068 = DIRECTION('',(1.,0.,0.));
#2069 = ORIENTED_EDGE('',*,*,#2070,.T.);
#2070 = EDGE_CURVE('',#2062,#2027,#2071,.T.);
#2071 = CIRCLE('',#2072,3.);
#2072 = AXIS2_PLACEMENT_3D('',#2073,#2074,#2075);
#2073 = CARTESIAN_POINT('',(37.,0.,4.));
#2074 = DIRECTION('',(0.,0.,-1.));
#2075 = DIRECTION('',(1.,0.,0.));
#2076 = PLANE('',#2077);
#2077 = AXIS2_PLACEMENT_3D('',#2078,#2079,#2080);
#2078 = CARTESIAN_POINT('',(32.,-10.,4.));
#2079 = DIRECTION('',(0.,0.,1.));
#2080 = DIRECTION('',(1.,0.,0.));
#2081 = ADVANCED_FACE('',(#2082),#2093,.T.);
#2082 = FACE_BOUND('',#2083,.T.);
#2083 = EDGE_LOOP('',(#2084,#2085,#2086,#2092));
#2084 = ORIENTED_EDGE('',*,*,#1720,.F.);
#2085 = ORIENTED_EDGE('',*,*,#2026,.T.);
#2086 = ORIENTED_EDGE('',*,*,#2087,.F.);
#2087 = EDGE_CURVE('',#1657,#2027,#2088,.T.);
#2088 = LINE('',#2089,#2090);
#2089 = CARTESIAN_POINT('',(37.,-3.,0.));
#2090 = VECTOR('',#2091,1.);
#2091 = DIRECTION('',(-0.,-0.,-1.));
#2092 = ORIENTED_EDGE('',*,*,#1656,.F.);
#2093 = PLANE('',#2094);
#2094 = AXIS2_PLACEMENT_3D('',#2095,#2096,#2097);
#2095 = CARTESIAN_POINT('',(37.,-10.,0.));
#2096 = DIRECTION('',(1.,0.,0.));
#2097 = DIRECTION('',(0.,0.,1.));
#2098 = ADVANCED_FACE('',(#2099),#2107,.T.);
#2099 = FACE_BOUND('',#2100,.F.);
#2100 = EDGE_LOOP('',(#2101,#2102,#2103,#2104,#2105,#2106));
#2101 = ORIENTED_EDGE('',*,*,#2002,.T.);
#2102 = ORIENTED_EDGE('',*,*,#2061,.T.);
#2103 = ORIENTED_EDGE('',*,*,#2070,.T.);
#2104 = ORIENTED_EDGE('',*,*,#2087,.F.);
#2105 = ORIENTED_EDGE('',*,*,#1664,.T.);
#2106 = ORIENTED_EDGE('',*,*,#1673,.T.);
#2107 = CYLINDRICAL_SURFACE('',#2108,3.);
#2108 = AXIS2_PLACEMENT_3D('',#2109,#2110,#2111);
#2109 = CARTESIAN_POINT('',(37.,0.,0.));
#2110 = DIRECTION('',(-0.,-0.,-1.));
#2111 = DIRECTION('',(1.,0.,0.));
#2112 = ADVANCED_FACE('',(#2113),#2131,.F.);
#2113 = FACE_BOUND('',#2114,.F.);
#2114 = EDGE_LOOP('',(#2115,#2116,#2124,#2130));
#2115 = ORIENTED_EDGE('',*,*,#2036,.T.);
#2116 = ORIENTED_EDGE('',*,*,#2117,.T.);
#2117 = EDGE_CURVE('',#2037,#2118,#2120,.T.);
#2118 = VERTEX_POINT('',#2119);
#2119 = CARTESIAN_POINT('',(55.4338,-4.5,25.));
#2120 = LINE('',#2121,#2122);
#2121 = CARTESIAN_POINT('',(55.4338,-4.5,0.));
#2122 = VECTOR('',#2123,1.);
#2123 = DIRECTION('',(0.,0.,1.));
#2124 = ORIENTED_EDGE('',*,*,#2125,.T.);
#2125 = EDGE_CURVE('',#2118,#1769,#2126,.T.);
#2126 = LINE('',#2127,#2128);
#2127 = CARTESIAN_POINT('',(55.4338,-4.5,25.));
#2128 = VECTOR('',#2129,1.);
#2129 = DIRECTION('',(1.,0.,0.));
#2130 = ORIENTED_EDGE('',*,*,#1776,.F.);
#2131 = PLANE('',#2132);
#2132 = AXIS2_PLACEMENT_3D('',#2133,#2134,#2135);
#2133 = CARTESIAN_POINT('',(55.4338,-4.5,0.));
#2134 = DIRECTION('',(0.,1.,0.));
#2135 = DIRECTION('',(0.,0.,1.));
#2136 = ADVANCED_FACE('',(#2137),#2155,.T.);
#2137 = FACE_BOUND('',#2138,.T.);
#2138 = EDGE_LOOP('',(#2139,#2147,#2148,#2149));
#2139 = ORIENTED_EDGE('',*,*,#2140,.F.);
#2140 = EDGE_CURVE('',#2118,#2141,#2143,.T.);
#2141 = VERTEX_POINT('',#2142);
#2142 = CARTESIAN_POINT('',(55.4338,4.5,25.));
#2143 = LINE('',#2144,#2145);
#2144 = CARTESIAN_POINT('',(55.4338,-4.5,25.));
#2145 = VECTOR('',#2146,1.);
#2146 = DIRECTION('',(0.,1.,0.));
#2147 = ORIENTED_EDGE('',*,*,#2125,.T.);
#2148 = ORIENTED_EDGE('',*,*,#1768,.T.);
#2149 = ORIENTED_EDGE('',*,*,#2150,.F.);
#2150 = EDGE_CURVE('',#2141,#1761,#2151,.T.);
#2151 = LINE('',#2152,#2153);
#2152 = CARTESIAN_POINT('',(55.4338,4.5,25.));
#2153 = VECTOR('',#2154,1.);
#2154 = DIRECTION('',(1.,0.,0.));
#2155 = PLANE('',#2156);
#2156 = AXIS2_PLACEMENT_3D('',#2157,#2158,#2159);
#2157 = CARTESIAN_POINT('',(55.4338,-4.5,25.));
#2158 = DIRECTION('',(0.,0.,1.));
#2159 = DIRECTION('',(1.,0.,0.));
#2160 = ADVANCED_FACE('',(#2161),#2172,.T.);
#2161 = FACE_BOUND('',#2162,.T.);
#2162 = EDGE_LOOP('',(#2163,#2164,#2170,#2171));
#2163 = ORIENTED_EDGE('',*,*,#2052,.T.);
#2164 = ORIENTED_EDGE('',*,*,#2165,.T.);
#2165 = EDGE_CURVE('',#2045,#2141,#2166,.T.);
#2166 = LINE('',#2167,#2168);
#2167 = CARTESIAN_POINT('',(55.4338,4.5,0.));
#2168 = VECTOR('',#2169,1.);
#2169 = DIRECTION('',(0.,0.,1.));
#2170 = ORIENTED_EDGE('',*,*,#2150,.T.);
#2171 = ORIENTED_EDGE('',*,*,#1760,.F.);
#2172 = PLANE('',#2173);
#2173 = AXIS2_PLACEMENT_3D('',#2174,#2175,#2176);
#2174 = CARTESIAN_POINT('',(55.4338,4.5,0.));
#2175 = DIRECTION('',(0.,1.,0.));
#2176 = DIRECTION('',(0.,0.,1.));
#2177 = ADVANCED_FACE('',(#2178),#2197,.F.);
#2178 = FACE_BOUND('',#2179,.T.);
#2179 = EDGE_LOOP('',(#2180,#2181,#2189,#2196));
#2180 = ORIENTED_EDGE('',*,*,#1784,.T.);
#2181 = ORIENTED_EDGE('',*,*,#2182,.T.);
#2182 = EDGE_CURVE('',#1785,#2183,#2185,.T.);
#2183 = VERTEX_POINT('',#2184);
#2184 = CARTESIAN_POINT('',(55.4338,-3.306546357698E-16,13.85));
#2185 = LINE('',#2186,#2187);
#2186 = CARTESIAN_POINT('',(61.4338,-3.306546357698E-16,13.85));
#2187 = VECTOR('',#2188,1.);
#2188 = DIRECTION('',(-1.,0.,-2.22044604925E-16));
#2189 = ORIENTED_EDGE('',*,*,#2190,.F.);
#2190 = EDGE_CURVE('',#2183,#2183,#2191,.T.);
#2191 = CIRCLE('',#2192,1.35);
#2192 = AXIS2_PLACEMENT_3D('',#2193,#2194,#2195);
#2193 = CARTESIAN_POINT('',(55.4338,0.,12.5));
#2194 = DIRECTION('',(1.,0.,2.22044604925E-16));
#2195 = DIRECTION('',(-2.22044604925E-16,0.,1.));
#2196 = ORIENTED_EDGE('',*,*,#2182,.F.);
#2197 = CYLINDRICAL_SURFACE('',#2198,1.35);
#2198 = AXIS2_PLACEMENT_3D('',#2199,#2200,#2201);
#2199 = CARTESIAN_POINT('',(61.4338,0.,12.5));
#2200 = DIRECTION('',(1.,-0.,2.22044604925E-16));
#2201 = DIRECTION('',(-2.22044604925E-16,0.,1.));
#2202 = ADVANCED_FACE('',(#2203,#2209),#2212,.F.);
#2203 = FACE_BOUND('',#2204,.F.);
#2204 = EDGE_LOOP('',(#2205,#2206,#2207,#2208));
#2205 = ORIENTED_EDGE('',*,*,#2117,.F.);
#2206 = ORIENTED_EDGE('',*,*,#2044,.T.);
#2207 = ORIENTED_EDGE('',*,*,#2165,.T.);
#2208 = ORIENTED_EDGE('',*,*,#2140,.F.);
#2209 = FACE_BOUND('',#2210,.F.);
#2210 = EDGE_LOOP('',(#2211));
#2211 = ORIENTED_EDGE('',*,*,#2190,.F.);
#2212 = PLANE('',#2213);
#2213 = AXIS2_PLACEMENT_3D('',#2214,#2215,#2216);
#2214 = CARTESIAN_POINT('',(55.4338,-4.5,0.));
#2215 = DIRECTION('',(1.,0.,0.));
#2216 = DIRECTION('',(0.,0.,1.));
#2217 = ADVANCED_FACE('',(#2218),#2228,.T.);
#2218 = FACE_BOUND('',#2219,.T.);
#2219 = EDGE_LOOP('',(#2220,#2221,#2222,#2223,#2224,#2225,#2226,#2227));
#2220 = ORIENTED_EDGE('',*,*,#39,.F.);
#2221 = ORIENTED_EDGE('',*,*,#61,.T.);
#2222 = ORIENTED_EDGE('',*,*,#422,.T.);
#2223 = ORIENTED_EDGE('',*,*,#486,.F.);
#2224 = ORIENTED_EDGE('',*,*,#1632,.T.);
#2225 = ORIENTED_EDGE('',*,*,#1745,.F.);
#2226 = ORIENTED_EDGE('',*,*,#1696,.F.);
#2227 = ORIENTED_EDGE('',*,*,#454,.F.);
#2228 = PLANE('',#2229);
#2229 = AXIS2_PLACEMENT_3D('',#2230,#2231,#2232);
#2230 = CARTESIAN_POINT('',(29.169057339653,8.182789832532E-17,0.));
#2231 = DIRECTION('',(-0.,-0.,-1.));
#2232 = DIRECTION('',(-1.,0.,0.));
#2233 = ( GEOMETRIC_REPRESENTATION_CONTEXT(3) 
GLOBAL_UNCERTAINTY_ASSIGNED_CONTEXT((#2237)) 
GLOBAL_UNIT_ASSIGNED_CONTEXT((#2234,#2235,#2236)) REPRESENTATION_CONTEXT
('Context #1','3D Context with UNIT and UNCERTAINTY') );
#2234 = ( LENGTH_UNIT() NAMED_UNIT(*) SI_UNIT(.MILLI.,.METRE.) );
#2235 = ( NAMED_UNIT(*) PLANE_ANGLE_UNIT() SI_UNIT($,.RADIAN.) );
#2236 = ( NAMED_UNIT(*) SI_UNIT($,.STERADIAN.) SOLID_ANGLE_UNIT() );
#2237 = UNCERTAINTY_MEASURE_WITH_UNIT(LENGTH_MEASURE(1.E-05),#2234,
  'distance_accuracy_value','confusion accuracy');
#2238 = PRODUCT_RELATED_PRODUCT_CATEGORY('part',$,(#7));
ENDSEC;
END-ISO-10303-21;
