ISO-10303-21;
HEADER;
/* Generated by software containing ST-Developer
 * from STEP Tools, Inc. (www.steptools.com) 
 */

FILE_DESCRIPTION(
/* description */ (''),
/* implementation_level */ '2;1');

FILE_NAME(
/* name */ 'pan_ring.step',
/* time_stamp */ '2026-08-11T13:41:16+10:00',
/* author */ (''),
/* organization */ (''),
/* preprocessor_version */ 'ST-DEVELOPER v20.1',
/* originating_system */ 'Autodesk Translation Framework v15.8.0.0',
/* authorisation */ '');

FILE_SCHEMA (('AUTOMOTIVE_DESIGN { 1 0 10303 214 3 1 1 }'));
ENDSEC;

DATA;
#10=MECHANICAL_DESIGN_GEOMETRIC_PRESENTATION_REPRESENTATION('',(#13),#1747);
#11=SHAPE_REPRESENTATION_RELATIONSHIP('SRR','None',#1754,#12);
#12=ADVANCED_BREP_SHAPE_REPRESENTATION('',(#14),#1746);
#13=STYLED_ITEM('',(#1763),#14);
#14=MANIFOLD_SOLID_BREP('Body4',#1049);
#15=FACE_BOUND('',#164,.T.);
#16=FACE_BOUND('',#173,.T.);
#17=FACE_BOUND('',#174,.T.);
#18=FACE_BOUND('',#175,.T.);
#19=FACE_BOUND('',#176,.T.);
#20=FACE_BOUND('',#178,.T.);
#21=FACE_BOUND('',#184,.T.);
#22=FACE_BOUND('',#188,.T.);
#23=FACE_BOUND('',#189,.T.);
#24=FACE_BOUND('',#190,.T.);
#25=PLANE('',#1084);
#26=PLANE('',#1085);
#27=PLANE('',#1089);
#28=PLANE('',#1090);
#29=PLANE('',#1095);
#30=PLANE('',#1096);
#31=PLANE('',#1100);
#32=PLANE('',#1101);
#33=PLANE('',#1106);
#34=PLANE('',#1107);
#35=PLANE('',#1108);
#36=PLANE('',#1109);
#37=PLANE('',#1110);
#38=PLANE('',#1112);
#39=PLANE('',#1113);
#40=PLANE('',#1114);
#41=PLANE('',#1115);
#42=PLANE('',#1116);
#43=PLANE('',#1117);
#44=PLANE('',#1118);
#45=PLANE('',#1119);
#46=PLANE('',#1120);
#47=PLANE('',#1121);
#48=PLANE('',#1122);
#49=PLANE('',#1123);
#50=PLANE('',#1124);
#51=PLANE('',#1125);
#52=PLANE('',#1126);
#53=PLANE('',#1129);
#54=PLANE('',#1130);
#55=PLANE('',#1131);
#56=PLANE('',#1132);
#57=PLANE('',#1133);
#58=PLANE('',#1134);
#59=PLANE('',#1135);
#60=PLANE('',#1136);
#61=PLANE('',#1140);
#62=PLANE('',#1143);
#63=PLANE('',#1144);
#64=PLANE('',#1145);
#65=PLANE('',#1146);
#66=PLANE('',#1147);
#67=PLANE('',#1150);
#68=PLANE('',#1151);
#69=FACE_OUTER_BOUND('',#125,.T.);
#70=FACE_OUTER_BOUND('',#126,.T.);
#71=FACE_OUTER_BOUND('',#127,.T.);
#72=FACE_OUTER_BOUND('',#128,.T.);
#73=FACE_OUTER_BOUND('',#129,.T.);
#74=FACE_OUTER_BOUND('',#130,.T.);
#75=FACE_OUTER_BOUND('',#131,.T.);
#76=FACE_OUTER_BOUND('',#132,.T.);
#77=FACE_OUTER_BOUND('',#133,.T.);
#78=FACE_OUTER_BOUND('',#134,.T.);
#79=FACE_OUTER_BOUND('',#135,.T.);
#80=FACE_OUTER_BOUND('',#136,.T.);
#81=FACE_OUTER_BOUND('',#137,.T.);
#82=FACE_OUTER_BOUND('',#138,.T.);
#83=FACE_OUTER_BOUND('',#139,.T.);
#84=FACE_OUTER_BOUND('',#140,.T.);
#85=FACE_OUTER_BOUND('',#141,.T.);
#86=FACE_OUTER_BOUND('',#142,.T.);
#87=FACE_OUTER_BOUND('',#143,.T.);
#88=FACE_OUTER_BOUND('',#144,.T.);
#89=FACE_OUTER_BOUND('',#145,.T.);
#90=FACE_OUTER_BOUND('',#146,.T.);
#91=FACE_OUTER_BOUND('',#147,.T.);
#92=FACE_OUTER_BOUND('',#148,.T.);
#93=FACE_OUTER_BOUND('',#149,.T.);
#94=FACE_OUTER_BOUND('',#150,.T.);
#95=FACE_OUTER_BOUND('',#151,.T.);
#96=FACE_OUTER_BOUND('',#152,.T.);
#97=FACE_OUTER_BOUND('',#153,.T.);
#98=FACE_OUTER_BOUND('',#154,.T.);
#99=FACE_OUTER_BOUND('',#155,.T.);
#100=FACE_OUTER_BOUND('',#156,.T.);
#101=FACE_OUTER_BOUND('',#157,.T.);
#102=FACE_OUTER_BOUND('',#158,.T.);
#103=FACE_OUTER_BOUND('',#159,.T.);
#104=FACE_OUTER_BOUND('',#160,.T.);
#105=FACE_OUTER_BOUND('',#161,.T.);
#106=FACE_OUTER_BOUND('',#162,.T.);
#107=FACE_OUTER_BOUND('',#163,.T.);
#108=FACE_OUTER_BOUND('',#165,.T.);
#109=FACE_OUTER_BOUND('',#166,.T.);
#110=FACE_OUTER_BOUND('',#167,.T.);
#111=FACE_OUTER_BOUND('',#168,.T.);
#112=FACE_OUTER_BOUND('',#169,.T.);
#113=FACE_OUTER_BOUND('',#170,.T.);
#114=FACE_OUTER_BOUND('',#171,.T.);
#115=FACE_OUTER_BOUND('',#172,.T.);
#116=FACE_OUTER_BOUND('',#177,.T.);
#117=FACE_OUTER_BOUND('',#179,.T.);
#118=FACE_OUTER_BOUND('',#180,.T.);
#119=FACE_OUTER_BOUND('',#181,.T.);
#120=FACE_OUTER_BOUND('',#182,.T.);
#121=FACE_OUTER_BOUND('',#183,.T.);
#122=FACE_OUTER_BOUND('',#185,.T.);
#123=FACE_OUTER_BOUND('',#186,.T.);
#124=FACE_OUTER_BOUND('',#187,.T.);
#125=EDGE_LOOP('',(#689,#690,#691,#692));
#126=EDGE_LOOP('',(#693,#694,#695,#696));
#127=EDGE_LOOP('',(#697,#698,#699,#700));
#128=EDGE_LOOP('',(#701,#702,#703,#704));
#129=EDGE_LOOP('',(#705,#706,#707,#708));
#130=EDGE_LOOP('',(#709,#710,#711,#712));
#131=EDGE_LOOP('',(#713,#714,#715,#716));
#132=EDGE_LOOP('',(#717,#718));
#133=EDGE_LOOP('',(#719,#720));
#134=EDGE_LOOP('',(#721,#722,#723,#724));
#135=EDGE_LOOP('',(#725,#726));
#136=EDGE_LOOP('',(#727,#728));
#137=EDGE_LOOP('',(#729,#730,#731,#732,#733,#734,#735));
#138=EDGE_LOOP('',(#736,#737));
#139=EDGE_LOOP('',(#738));
#140=EDGE_LOOP('',(#739,#740,#741,#742));
#141=EDGE_LOOP('',(#743,#744));
#142=EDGE_LOOP('',(#745,#746));
#143=EDGE_LOOP('',(#747,#748,#749,#750,#751,#752,#753));
#144=EDGE_LOOP('',(#754,#755));
#145=EDGE_LOOP('',(#756));
#146=EDGE_LOOP('',(#757,#758,#759,#760,#761,#762,#763,#764));
#147=EDGE_LOOP('',(#765,#766,#767,#768,#769,#770,#771,#772));
#148=EDGE_LOOP('',(#773,#774,#775,#776));
#149=EDGE_LOOP('',(#777,#778,#779,#780));
#150=EDGE_LOOP('',(#781,#782,#783,#784));
#151=EDGE_LOOP('',(#785,#786,#787,#788));
#152=EDGE_LOOP('',(#789,#790,#791,#792));
#153=EDGE_LOOP('',(#793,#794,#795,#796));
#154=EDGE_LOOP('',(#797,#798,#799,#800));
#155=EDGE_LOOP('',(#801,#802,#803,#804));
#156=EDGE_LOOP('',(#805,#806,#807,#808));
#157=EDGE_LOOP('',(#809,#810,#811,#812));
#158=EDGE_LOOP('',(#813,#814,#815,#816));
#159=EDGE_LOOP('',(#817,#818,#819,#820,#821,#822,#823,#824,#825,#826));
#160=EDGE_LOOP('',(#827,#828,#829,#830,#831,#832,#833,#834));
#161=EDGE_LOOP('',(#835,#836,#837,#838,#839,#840,#841,#842,#843,#844));
#162=EDGE_LOOP('',(#845,#846,#847,#848,#849,#850,#851,#852));
#163=EDGE_LOOP('',(#853,#854,#855,#856,#857,#858,#859,#860,#861,#862,#863,
#864));
#164=EDGE_LOOP('',(#865));
#165=EDGE_LOOP('',(#866,#867,#868,#869));
#166=EDGE_LOOP('',(#870,#871,#872,#873));
#167=EDGE_LOOP('',(#874,#875,#876,#877));
#168=EDGE_LOOP('',(#878,#879,#880,#881));
#169=EDGE_LOOP('',(#882,#883,#884,#885));
#170=EDGE_LOOP('',(#886,#887,#888,#889));
#171=EDGE_LOOP('',(#890,#891,#892,#893));
#172=EDGE_LOOP('',(#894,#895,#896,#897,#898,#899,#900,#901,#902,#903,#904,
#905,#906,#907,#908,#909));
#173=EDGE_LOOP('',(#910));
#174=EDGE_LOOP('',(#911));
#175=EDGE_LOOP('',(#912));
#176=EDGE_LOOP('',(#913,#914,#915,#916));
#177=EDGE_LOOP('',(#917,#918,#919,#920,#921));
#178=EDGE_LOOP('',(#922));
#179=EDGE_LOOP('',(#923,#924,#925,#926));
#180=EDGE_LOOP('',(#927,#928,#929,#930));
#181=EDGE_LOOP('',(#931,#932,#933,#934));
#182=EDGE_LOOP('',(#935,#936,#937,#938));
#183=EDGE_LOOP('',(#939,#940,#941,#942,#943));
#184=EDGE_LOOP('',(#944));
#185=EDGE_LOOP('',(#945,#946,#947,#948));
#186=EDGE_LOOP('',(#949,#950,#951,#952));
#187=EDGE_LOOP('',(#953,#954,#955,#956,#957,#958,#959,#960,#961,#962,#963,
#964,#965,#966,#967,#968,#969,#970,#971,#972,#973,#974));
#188=EDGE_LOOP('',(#975,#976));
#189=EDGE_LOOP('',(#977,#978));
#190=EDGE_LOOP('',(#979,#980));
#191=CIRCLE('',#1064,6.);
#192=CIRCLE('',#1065,6.);
#193=CIRCLE('',#1067,6.);
#194=CIRCLE('',#1068,6.);
#195=CIRCLE('',#1070,6.);
#196=CIRCLE('',#1071,6.);
#197=CIRCLE('',#1073,2.1);
#198=CIRCLE('',#1074,2.1);
#199=CIRCLE('',#1076,2.1);
#200=CIRCLE('',#1077,2.1);
#201=CIRCLE('',#1079,2.1);
#202=CIRCLE('',#1080,2.1);
#203=CIRCLE('',#1082,6.);
#204=CIRCLE('',#1083,6.);
#205=CIRCLE('',#1087,6.);
#206=CIRCLE('',#1088,6.);
#207=CIRCLE('',#1092,6.);
#208=CIRCLE('',#1093,6.);
#209=CIRCLE('',#1094,6.);
#210=CIRCLE('',#1098,6.);
#211=CIRCLE('',#1099,6.);
#212=CIRCLE('',#1103,6.);
#213=CIRCLE('',#1104,6.);
#214=CIRCLE('',#1105,6.);
#215=CIRCLE('',#1111,30.);
#216=CIRCLE('',#1127,30.);
#217=CIRCLE('',#1128,30.);
#218=CIRCLE('',#1137,30.);
#219=CIRCLE('',#1138,30.);
#220=CIRCLE('',#1139,30.);
#221=CIRCLE('',#1141,30.);
#222=CIRCLE('',#1142,30.);
#223=CIRCLE('',#1148,30.);
#224=CIRCLE('',#1149,30.);
#225=LINE('',#1451,#337);
#226=LINE('',#1455,#338);
#227=LINE('',#1460,#339);
#228=LINE('',#1464,#340);
#229=LINE('',#1469,#341);
#230=LINE('',#1473,#342);
#231=LINE('',#1479,#343);
#232=LINE('',#1485,#344);
#233=LINE('',#1491,#345);
#234=LINE('',#1495,#346);
#235=LINE('',#1501,#347);
#236=LINE('',#1509,#348);
#237=LINE('',#1513,#349);
#238=LINE('',#1514,#350);
#239=LINE('',#1520,#351);
#240=LINE('',#1528,#352);
#241=LINE('',#1532,#353);
#242=LINE('',#1533,#354);
#243=LINE('',#1540,#355);
#244=LINE('',#1542,#356);
#245=LINE('',#1544,#357);
#246=LINE('',#1546,#358);
#247=LINE('',#1548,#359);
#248=LINE('',#1550,#360);
#249=LINE('',#1552,#361);
#250=LINE('',#1553,#362);
#251=LINE('',#1557,#363);
#252=LINE('',#1559,#364);
#253=LINE('',#1561,#365);
#254=LINE('',#1563,#366);
#255=LINE('',#1565,#367);
#256=LINE('',#1567,#368);
#257=LINE('',#1569,#369);
#258=LINE('',#1570,#370);
#259=LINE('',#1573,#371);
#260=LINE('',#1575,#372);
#261=LINE('',#1579,#373);
#262=LINE('',#1581,#374);
#263=LINE('',#1582,#375);
#264=LINE('',#1585,#376);
#265=LINE('',#1586,#377);
#266=LINE('',#1589,#378);
#267=LINE('',#1591,#379);
#268=LINE('',#1592,#380);
#269=LINE('',#1595,#381);
#270=LINE('',#1597,#382);
#271=LINE('',#1598,#383);
#272=LINE('',#1601,#384);
#273=LINE('',#1603,#385);
#274=LINE('',#1604,#386);
#275=LINE('',#1607,#387);
#276=LINE('',#1608,#388);
#277=LINE('',#1610,#389);
#278=LINE('',#1613,#390);
#279=LINE('',#1614,#391);
#280=LINE('',#1616,#392);
#281=LINE('',#1619,#393);
#282=LINE('',#1620,#394);
#283=LINE('',#1624,#395);
#284=LINE('',#1625,#396);
#285=LINE('',#1627,#397);
#286=LINE('',#1628,#398);
#287=LINE('',#1629,#399);
#288=LINE('',#1632,#400);
#289=LINE('',#1633,#401);
#290=LINE('',#1636,#402);
#291=LINE('',#1637,#403);
#292=LINE('',#1639,#404);
#293=LINE('',#1640,#405);
#294=LINE('',#1642,#406);
#295=LINE('',#1647,#407);
#296=LINE('',#1649,#408);
#297=LINE('',#1651,#409);
#298=LINE('',#1653,#410);
#299=LINE('',#1655,#411);
#300=LINE('',#1657,#412);
#301=LINE('',#1659,#413);
#302=LINE('',#1663,#414);
#303=LINE('',#1665,#415);
#304=LINE('',#1666,#416);
#305=LINE('',#1670,#417);
#306=LINE('',#1671,#418);
#307=LINE('',#1672,#419);
#308=LINE('',#1675,#420);
#309=LINE('',#1676,#421);
#310=LINE('',#1678,#422);
#311=LINE('',#1681,#423);
#312=LINE('',#1683,#424);
#313=LINE('',#1684,#425);
#314=LINE('',#1687,#426);
#315=LINE('',#1688,#427);
#316=LINE('',#1690,#428);
#317=LINE('',#1695,#429);
#318=LINE('',#1697,#430);
#319=LINE('',#1699,#431);
#320=LINE('',#1703,#432);
#321=LINE('',#1705,#433);
#322=LINE('',#1707,#434);
#323=LINE('',#1713,#435);
#324=LINE('',#1715,#436);
#325=LINE('',#1717,#437);
#326=LINE('',#1720,#438);
#327=LINE('',#1721,#439);
#328=LINE('',#1723,#440);
#329=LINE('',#1724,#441);
#330=LINE('',#1728,#442);
#331=LINE('',#1730,#443);
#332=LINE('',#1731,#444);
#333=LINE('',#1736,#445);
#334=LINE('',#1737,#446);
#335=LINE('',#1740,#447);
#336=LINE('',#1741,#448);
#337=VECTOR('',#1157,6.);
#338=VECTOR('',#1160,10.);
#339=VECTOR('',#1165,6.);
#340=VECTOR('',#1168,10.);
#341=VECTOR('',#1173,6.);
#342=VECTOR('',#1176,10.);
#343=VECTOR('',#1183,2.1);
#344=VECTOR('',#1190,2.1);
#345=VECTOR('',#1197,2.1);
#346=VECTOR('',#1204,10.);
#347=VECTOR('',#1215,10.);
#348=VECTOR('',#1226,6.);
#349=VECTOR('',#1229,10.);
#350=VECTOR('',#1230,10.);
#351=VECTOR('',#1241,10.);
#352=VECTOR('',#1252,6.);
#353=VECTOR('',#1255,10.);
#354=VECTOR('',#1256,10.);
#355=VECTOR('',#1265,10.);
#356=VECTOR('',#1266,10.);
#357=VECTOR('',#1267,10.);
#358=VECTOR('',#1268,10.);
#359=VECTOR('',#1269,10.);
#360=VECTOR('',#1270,10.);
#361=VECTOR('',#1271,10.);
#362=VECTOR('',#1272,10.);
#363=VECTOR('',#1275,10.);
#364=VECTOR('',#1276,10.);
#365=VECTOR('',#1277,10.);
#366=VECTOR('',#1278,10.);
#367=VECTOR('',#1279,10.);
#368=VECTOR('',#1280,10.);
#369=VECTOR('',#1281,10.);
#370=VECTOR('',#1282,10.);
#371=VECTOR('',#1285,10.);
#372=VECTOR('',#1286,10.);
#373=VECTOR('',#1291,10.);
#374=VECTOR('',#1292,10.);
#375=VECTOR('',#1293,10.);
#376=VECTOR('',#1296,10.);
#377=VECTOR('',#1297,10.);
#378=VECTOR('',#1300,10.);
#379=VECTOR('',#1301,10.);
#380=VECTOR('',#1302,10.);
#381=VECTOR('',#1305,10.);
#382=VECTOR('',#1306,10.);
#383=VECTOR('',#1307,10.);
#384=VECTOR('',#1310,10.);
#385=VECTOR('',#1311,10.);
#386=VECTOR('',#1312,10.);
#387=VECTOR('',#1315,10.);
#388=VECTOR('',#1316,10.);
#389=VECTOR('',#1319,10.);
#390=VECTOR('',#1322,10.);
#391=VECTOR('',#1323,10.);
#392=VECTOR('',#1326,10.);
#393=VECTOR('',#1329,10.);
#394=VECTOR('',#1330,10.);
#395=VECTOR('',#1333,10.);
#396=VECTOR('',#1334,10.);
#397=VECTOR('',#1335,10.);
#398=VECTOR('',#1336,10.);
#399=VECTOR('',#1337,10.);
#400=VECTOR('',#1340,10.);
#401=VECTOR('',#1341,10.);
#402=VECTOR('',#1344,10.);
#403=VECTOR('',#1345,10.);
#404=VECTOR('',#1346,10.);
#405=VECTOR('',#1347,10.);
#406=VECTOR('',#1350,10.);
#407=VECTOR('',#1355,10.);
#408=VECTOR('',#1356,10.);
#409=VECTOR('',#1357,10.);
#410=VECTOR('',#1358,10.);
#411=VECTOR('',#1359,10.);
#412=VECTOR('',#1360,10.);
#413=VECTOR('',#1361,10.);
#414=VECTOR('',#1366,10.);
#415=VECTOR('',#1367,10.);
#416=VECTOR('',#1368,10.);
#417=VECTOR('',#1371,10.);
#418=VECTOR('',#1372,10.);
#419=VECTOR('',#1373,10.);
#420=VECTOR('',#1376,10.);
#421=VECTOR('',#1377,10.);
#422=VECTOR('',#1380,10.);
#423=VECTOR('',#1383,10.);
#424=VECTOR('',#1384,10.);
#425=VECTOR('',#1385,10.);
#426=VECTOR('',#1388,10.);
#427=VECTOR('',#1389,10.);
#428=VECTOR('',#1392,10.);
#429=VECTOR('',#1397,10.);
#430=VECTOR('',#1398,10.);
#431=VECTOR('',#1399,10.);
#432=VECTOR('',#1402,10.);
#433=VECTOR('',#1403,10.);
#434=VECTOR('',#1404,10.);
#435=VECTOR('',#1411,10.);
#436=VECTOR('',#1412,10.);
#437=VECTOR('',#1413,10.);
#438=VECTOR('',#1418,10.);
#439=VECTOR('',#1419,10.);
#440=VECTOR('',#1422,10.);
#441=VECTOR('',#1423,10.);
#442=VECTOR('',#1428,10.);
#443=VECTOR('',#1429,10.);
#444=VECTOR('',#1430,10.);
#445=VECTOR('',#1435,10.);
#446=VECTOR('',#1436,10.);
#447=VECTOR('',#1441,10.);
#448=VECTOR('',#1442,10.);
#449=VERTEX_POINT('',#1449);
#450=VERTEX_POINT('',#1450);
#451=VERTEX_POINT('',#1452);
#452=VERTEX_POINT('',#1454);
#453=VERTEX_POINT('',#1458);
#454=VERTEX_POINT('',#1459);
#455=VERTEX_POINT('',#1461);
#456=VERTEX_POINT('',#1463);
#457=VERTEX_POINT('',#1467);
#458=VERTEX_POINT('',#1468);
#459=VERTEX_POINT('',#1470);
#460=VERTEX_POINT('',#1472);
#461=VERTEX_POINT('',#1476);
#462=VERTEX_POINT('',#1478);
#463=VERTEX_POINT('',#1482);
#464=VERTEX_POINT('',#1484);
#465=VERTEX_POINT('',#1488);
#466=VERTEX_POINT('',#1490);
#467=VERTEX_POINT('',#1506);
#468=VERTEX_POINT('',#1508);
#469=VERTEX_POINT('',#1510);
#470=VERTEX_POINT('',#1512);
#471=VERTEX_POINT('',#1525);
#472=VERTEX_POINT('',#1527);
#473=VERTEX_POINT('',#1529);
#474=VERTEX_POINT('',#1531);
#475=VERTEX_POINT('',#1538);
#476=VERTEX_POINT('',#1539);
#477=VERTEX_POINT('',#1541);
#478=VERTEX_POINT('',#1543);
#479=VERTEX_POINT('',#1545);
#480=VERTEX_POINT('',#1547);
#481=VERTEX_POINT('',#1549);
#482=VERTEX_POINT('',#1551);
#483=VERTEX_POINT('',#1555);
#484=VERTEX_POINT('',#1556);
#485=VERTEX_POINT('',#1558);
#486=VERTEX_POINT('',#1560);
#487=VERTEX_POINT('',#1562);
#488=VERTEX_POINT('',#1564);
#489=VERTEX_POINT('',#1566);
#490=VERTEX_POINT('',#1568);
#491=VERTEX_POINT('',#1572);
#492=VERTEX_POINT('',#1574);
#493=VERTEX_POINT('',#1578);
#494=VERTEX_POINT('',#1580);
#495=VERTEX_POINT('',#1584);
#496=VERTEX_POINT('',#1588);
#497=VERTEX_POINT('',#1590);
#498=VERTEX_POINT('',#1594);
#499=VERTEX_POINT('',#1596);
#500=VERTEX_POINT('',#1600);
#501=VERTEX_POINT('',#1602);
#502=VERTEX_POINT('',#1606);
#503=VERTEX_POINT('',#1612);
#504=VERTEX_POINT('',#1618);
#505=VERTEX_POINT('',#1622);
#506=VERTEX_POINT('',#1623);
#507=VERTEX_POINT('',#1626);
#508=VERTEX_POINT('',#1631);
#509=VERTEX_POINT('',#1635);
#510=VERTEX_POINT('',#1638);
#511=VERTEX_POINT('',#1644);
#512=VERTEX_POINT('',#1646);
#513=VERTEX_POINT('',#1648);
#514=VERTEX_POINT('',#1650);
#515=VERTEX_POINT('',#1652);
#516=VERTEX_POINT('',#1654);
#517=VERTEX_POINT('',#1656);
#518=VERTEX_POINT('',#1658);
#519=VERTEX_POINT('',#1662);
#520=VERTEX_POINT('',#1664);
#521=VERTEX_POINT('',#1668);
#522=VERTEX_POINT('',#1669);
#523=VERTEX_POINT('',#1674);
#524=VERTEX_POINT('',#1680);
#525=VERTEX_POINT('',#1682);
#526=VERTEX_POINT('',#1686);
#527=VERTEX_POINT('',#1692);
#528=VERTEX_POINT('',#1694);
#529=VERTEX_POINT('',#1696);
#530=VERTEX_POINT('',#1698);
#531=VERTEX_POINT('',#1700);
#532=VERTEX_POINT('',#1702);
#533=VERTEX_POINT('',#1704);
#534=VERTEX_POINT('',#1706);
#535=VERTEX_POINT('',#1710);
#536=VERTEX_POINT('',#1712);
#537=VERTEX_POINT('',#1714);
#538=VERTEX_POINT('',#1716);
#539=VERTEX_POINT('',#1727);
#540=VERTEX_POINT('',#1729);
#541=VERTEX_POINT('',#1733);
#542=VERTEX_POINT('',#1735);
#543=EDGE_CURVE('',#449,#450,#225,.T.);
#544=EDGE_CURVE('',#451,#449,#191,.T.);
#545=EDGE_CURVE('',#451,#452,#226,.T.);
#546=EDGE_CURVE('',#452,#450,#192,.T.);
#547=EDGE_CURVE('',#453,#454,#227,.T.);
#548=EDGE_CURVE('',#455,#453,#193,.T.);
#549=EDGE_CURVE('',#455,#456,#228,.T.);
#550=EDGE_CURVE('',#456,#454,#194,.T.);
#551=EDGE_CURVE('',#457,#458,#229,.T.);
#552=EDGE_CURVE('',#459,#457,#195,.T.);
#553=EDGE_CURVE('',#459,#460,#230,.T.);
#554=EDGE_CURVE('',#460,#458,#196,.T.);
#555=EDGE_CURVE('',#461,#461,#197,.T.);
#556=EDGE_CURVE('',#461,#462,#231,.T.);
#557=EDGE_CURVE('',#462,#462,#198,.T.);
#558=EDGE_CURVE('',#463,#463,#199,.T.);
#559=EDGE_CURVE('',#463,#464,#232,.T.);
#560=EDGE_CURVE('',#464,#464,#200,.T.);
#561=EDGE_CURVE('',#465,#465,#201,.T.);
#562=EDGE_CURVE('',#465,#466,#233,.T.);
#563=EDGE_CURVE('',#466,#466,#202,.T.);
#564=EDGE_CURVE('',#458,#460,#203,.T.);
#565=EDGE_CURVE('',#459,#460,#234,.T.);
#566=EDGE_CURVE('',#457,#459,#204,.T.);
#567=EDGE_CURVE('',#454,#456,#205,.T.);
#568=EDGE_CURVE('',#455,#456,#235,.T.);
#569=EDGE_CURVE('',#453,#455,#206,.T.);
#570=EDGE_CURVE('',#467,#467,#207,.T.);
#571=EDGE_CURVE('',#467,#468,#236,.T.);
#572=EDGE_CURVE('',#468,#469,#208,.T.);
#573=EDGE_CURVE('',#470,#469,#237,.T.);
#574=EDGE_CURVE('',#470,#469,#238,.T.);
#575=EDGE_CURVE('',#469,#468,#209,.T.);
#576=EDGE_CURVE('',#450,#452,#210,.T.);
#577=EDGE_CURVE('',#451,#452,#239,.T.);
#578=EDGE_CURVE('',#449,#451,#211,.T.);
#579=EDGE_CURVE('',#471,#471,#212,.T.);
#580=EDGE_CURVE('',#471,#472,#240,.T.);
#581=EDGE_CURVE('',#472,#473,#213,.T.);
#582=EDGE_CURVE('',#474,#473,#241,.T.);
#583=EDGE_CURVE('',#474,#473,#242,.T.);
#584=EDGE_CURVE('',#473,#472,#214,.T.);
#585=EDGE_CURVE('',#475,#476,#243,.T.);
#586=EDGE_CURVE('',#477,#475,#244,.T.);
#587=EDGE_CURVE('',#478,#477,#245,.T.);
#588=EDGE_CURVE('',#479,#478,#246,.T.);
#589=EDGE_CURVE('',#479,#480,#247,.T.);
#590=EDGE_CURVE('',#481,#480,#248,.T.);
#591=EDGE_CURVE('',#482,#481,#249,.T.);
#592=EDGE_CURVE('',#476,#482,#250,.T.);
#593=EDGE_CURVE('',#483,#484,#251,.T.);
#594=EDGE_CURVE('',#485,#483,#252,.T.);
#595=EDGE_CURVE('',#486,#485,#253,.T.);
#596=EDGE_CURVE('',#487,#486,#254,.T.);
#597=EDGE_CURVE('',#488,#487,#255,.T.);
#598=EDGE_CURVE('',#489,#488,#256,.T.);
#599=EDGE_CURVE('',#490,#489,#257,.T.);
#600=EDGE_CURVE('',#490,#484,#258,.T.);
#601=EDGE_CURVE('',#491,#481,#259,.T.);
#602=EDGE_CURVE('',#480,#492,#260,.T.);
#603=EDGE_CURVE('',#492,#491,#215,.T.);
#604=EDGE_CURVE('',#489,#493,#261,.T.);
#605=EDGE_CURVE('',#494,#493,#262,.T.);
#606=EDGE_CURVE('',#490,#494,#263,.T.);
#607=EDGE_CURVE('',#488,#495,#264,.T.);
#608=EDGE_CURVE('',#493,#495,#265,.T.);
#609=EDGE_CURVE('',#496,#476,#266,.T.);
#610=EDGE_CURVE('',#496,#497,#267,.T.);
#611=EDGE_CURVE('',#497,#475,#268,.T.);
#612=EDGE_CURVE('',#498,#485,#269,.T.);
#613=EDGE_CURVE('',#499,#498,#270,.T.);
#614=EDGE_CURVE('',#499,#486,#271,.T.);
#615=EDGE_CURVE('',#478,#500,#272,.T.);
#616=EDGE_CURVE('',#501,#500,#273,.T.);
#617=EDGE_CURVE('',#479,#501,#274,.T.);
#618=EDGE_CURVE('',#502,#487,#275,.T.);
#619=EDGE_CURVE('',#495,#502,#276,.T.);
#620=EDGE_CURVE('',#499,#502,#277,.T.);
#621=EDGE_CURVE('',#477,#503,#278,.T.);
#622=EDGE_CURVE('',#500,#503,#279,.T.);
#623=EDGE_CURVE('',#503,#497,#280,.T.);
#624=EDGE_CURVE('',#504,#482,#281,.T.);
#625=EDGE_CURVE('',#496,#504,#282,.T.);
#626=EDGE_CURVE('',#505,#506,#283,.T.);
#627=EDGE_CURVE('',#505,#504,#284,.T.);
#628=EDGE_CURVE('',#507,#491,#285,.T.);
#629=EDGE_CURVE('',#484,#507,#286,.T.);
#630=EDGE_CURVE('',#506,#494,#287,.T.);
#631=EDGE_CURVE('',#508,#505,#288,.T.);
#632=EDGE_CURVE('',#508,#501,#289,.T.);
#633=EDGE_CURVE('',#509,#508,#290,.T.);
#634=EDGE_CURVE('',#509,#498,#291,.T.);
#635=EDGE_CURVE('',#510,#483,#292,.T.);
#636=EDGE_CURVE('',#492,#510,#293,.T.);
#637=EDGE_CURVE('',#506,#509,#294,.T.);
#638=EDGE_CURVE('',#511,#507,#216,.T.);
#639=EDGE_CURVE('',#511,#512,#295,.T.);
#640=EDGE_CURVE('',#512,#513,#296,.T.);
#641=EDGE_CURVE('',#513,#514,#297,.T.);
#642=EDGE_CURVE('',#514,#515,#298,.T.);
#643=EDGE_CURVE('',#515,#516,#299,.T.);
#644=EDGE_CURVE('',#516,#517,#300,.T.);
#645=EDGE_CURVE('',#517,#518,#301,.T.);
#646=EDGE_CURVE('',#510,#518,#217,.T.);
#647=EDGE_CURVE('',#519,#511,#302,.T.);
#648=EDGE_CURVE('',#519,#520,#303,.T.);
#649=EDGE_CURVE('',#520,#512,#304,.T.);
#650=EDGE_CURVE('',#521,#522,#305,.T.);
#651=EDGE_CURVE('',#522,#515,#306,.T.);
#652=EDGE_CURVE('',#521,#514,#307,.T.);
#653=EDGE_CURVE('',#523,#521,#308,.T.);
#654=EDGE_CURVE('',#523,#513,#309,.T.);
#655=EDGE_CURVE('',#520,#523,#310,.T.);
#656=EDGE_CURVE('',#518,#524,#311,.T.);
#657=EDGE_CURVE('',#525,#517,#312,.T.);
#658=EDGE_CURVE('',#525,#524,#313,.T.);
#659=EDGE_CURVE('',#526,#525,#314,.T.);
#660=EDGE_CURVE('',#526,#516,#315,.T.);
#661=EDGE_CURVE('',#522,#526,#316,.T.);
#662=EDGE_CURVE('',#527,#519,#218,.T.);
#663=EDGE_CURVE('',#528,#527,#317,.T.);
#664=EDGE_CURVE('',#529,#528,#318,.T.);
#665=EDGE_CURVE('',#530,#529,#319,.T.);
#666=EDGE_CURVE('',#531,#530,#219,.T.);
#667=EDGE_CURVE('',#532,#531,#320,.T.);
#668=EDGE_CURVE('',#533,#532,#321,.T.);
#669=EDGE_CURVE('',#534,#533,#322,.T.);
#670=EDGE_CURVE('',#524,#534,#220,.T.);
#671=EDGE_CURVE('',#535,#474,#221,.T.);
#672=EDGE_CURVE('',#535,#536,#323,.T.);
#673=EDGE_CURVE('',#536,#537,#324,.T.);
#674=EDGE_CURVE('',#537,#538,#325,.T.);
#675=EDGE_CURVE('',#474,#538,#222,.T.);
#676=EDGE_CURVE('',#534,#535,#326,.T.);
#677=EDGE_CURVE('',#533,#536,#327,.T.);
#678=EDGE_CURVE('',#538,#531,#328,.T.);
#679=EDGE_CURVE('',#532,#537,#329,.T.);
#680=EDGE_CURVE('',#539,#527,#330,.T.);
#681=EDGE_CURVE('',#540,#539,#331,.T.);
#682=EDGE_CURVE('',#528,#540,#332,.T.);
#683=EDGE_CURVE('',#541,#470,#223,.T.);
#684=EDGE_CURVE('',#541,#542,#333,.T.);
#685=EDGE_CURVE('',#542,#540,#334,.T.);
#686=EDGE_CURVE('',#470,#539,#224,.T.);
#687=EDGE_CURVE('',#530,#541,#335,.T.);
#688=EDGE_CURVE('',#529,#542,#336,.T.);
#689=ORIENTED_EDGE('',*,*,#543,.F.);
#690=ORIENTED_EDGE('',*,*,#544,.F.);
#691=ORIENTED_EDGE('',*,*,#545,.T.);
#692=ORIENTED_EDGE('',*,*,#546,.T.);
#693=ORIENTED_EDGE('',*,*,#547,.F.);
#694=ORIENTED_EDGE('',*,*,#548,.F.);
#695=ORIENTED_EDGE('',*,*,#549,.T.);
#696=ORIENTED_EDGE('',*,*,#550,.T.);
#697=ORIENTED_EDGE('',*,*,#551,.F.);
#698=ORIENTED_EDGE('',*,*,#552,.F.);
#699=ORIENTED_EDGE('',*,*,#553,.T.);
#700=ORIENTED_EDGE('',*,*,#554,.T.);
#701=ORIENTED_EDGE('',*,*,#555,.F.);
#702=ORIENTED_EDGE('',*,*,#556,.T.);
#703=ORIENTED_EDGE('',*,*,#557,.F.);
#704=ORIENTED_EDGE('',*,*,#556,.F.);
#705=ORIENTED_EDGE('',*,*,#558,.F.);
#706=ORIENTED_EDGE('',*,*,#559,.T.);
#707=ORIENTED_EDGE('',*,*,#560,.F.);
#708=ORIENTED_EDGE('',*,*,#559,.F.);
#709=ORIENTED_EDGE('',*,*,#561,.F.);
#710=ORIENTED_EDGE('',*,*,#562,.T.);
#711=ORIENTED_EDGE('',*,*,#563,.F.);
#712=ORIENTED_EDGE('',*,*,#562,.F.);
#713=ORIENTED_EDGE('',*,*,#551,.T.);
#714=ORIENTED_EDGE('',*,*,#564,.T.);
#715=ORIENTED_EDGE('',*,*,#565,.F.);
#716=ORIENTED_EDGE('',*,*,#566,.F.);
#717=ORIENTED_EDGE('',*,*,#554,.F.);
#718=ORIENTED_EDGE('',*,*,#564,.F.);
#719=ORIENTED_EDGE('',*,*,#552,.T.);
#720=ORIENTED_EDGE('',*,*,#566,.T.);
#721=ORIENTED_EDGE('',*,*,#547,.T.);
#722=ORIENTED_EDGE('',*,*,#567,.T.);
#723=ORIENTED_EDGE('',*,*,#568,.F.);
#724=ORIENTED_EDGE('',*,*,#569,.F.);
#725=ORIENTED_EDGE('',*,*,#550,.F.);
#726=ORIENTED_EDGE('',*,*,#567,.F.);
#727=ORIENTED_EDGE('',*,*,#548,.T.);
#728=ORIENTED_EDGE('',*,*,#569,.T.);
#729=ORIENTED_EDGE('',*,*,#570,.F.);
#730=ORIENTED_EDGE('',*,*,#571,.T.);
#731=ORIENTED_EDGE('',*,*,#572,.T.);
#732=ORIENTED_EDGE('',*,*,#573,.F.);
#733=ORIENTED_EDGE('',*,*,#574,.T.);
#734=ORIENTED_EDGE('',*,*,#575,.T.);
#735=ORIENTED_EDGE('',*,*,#571,.F.);
#736=ORIENTED_EDGE('',*,*,#575,.F.);
#737=ORIENTED_EDGE('',*,*,#572,.F.);
#738=ORIENTED_EDGE('',*,*,#570,.T.);
#739=ORIENTED_EDGE('',*,*,#543,.T.);
#740=ORIENTED_EDGE('',*,*,#576,.T.);
#741=ORIENTED_EDGE('',*,*,#577,.F.);
#742=ORIENTED_EDGE('',*,*,#578,.F.);
#743=ORIENTED_EDGE('',*,*,#546,.F.);
#744=ORIENTED_EDGE('',*,*,#576,.F.);
#745=ORIENTED_EDGE('',*,*,#544,.T.);
#746=ORIENTED_EDGE('',*,*,#578,.T.);
#747=ORIENTED_EDGE('',*,*,#579,.F.);
#748=ORIENTED_EDGE('',*,*,#580,.T.);
#749=ORIENTED_EDGE('',*,*,#581,.T.);
#750=ORIENTED_EDGE('',*,*,#582,.F.);
#751=ORIENTED_EDGE('',*,*,#583,.T.);
#752=ORIENTED_EDGE('',*,*,#584,.T.);
#753=ORIENTED_EDGE('',*,*,#580,.F.);
#754=ORIENTED_EDGE('',*,*,#584,.F.);
#755=ORIENTED_EDGE('',*,*,#581,.F.);
#756=ORIENTED_EDGE('',*,*,#579,.T.);
#757=ORIENTED_EDGE('',*,*,#585,.F.);
#758=ORIENTED_EDGE('',*,*,#586,.F.);
#759=ORIENTED_EDGE('',*,*,#587,.F.);
#760=ORIENTED_EDGE('',*,*,#588,.F.);
#761=ORIENTED_EDGE('',*,*,#589,.T.);
#762=ORIENTED_EDGE('',*,*,#590,.F.);
#763=ORIENTED_EDGE('',*,*,#591,.F.);
#764=ORIENTED_EDGE('',*,*,#592,.F.);
#765=ORIENTED_EDGE('',*,*,#593,.F.);
#766=ORIENTED_EDGE('',*,*,#594,.F.);
#767=ORIENTED_EDGE('',*,*,#595,.F.);
#768=ORIENTED_EDGE('',*,*,#596,.F.);
#769=ORIENTED_EDGE('',*,*,#597,.F.);
#770=ORIENTED_EDGE('',*,*,#598,.F.);
#771=ORIENTED_EDGE('',*,*,#599,.F.);
#772=ORIENTED_EDGE('',*,*,#600,.T.);
#773=ORIENTED_EDGE('',*,*,#601,.T.);
#774=ORIENTED_EDGE('',*,*,#590,.T.);
#775=ORIENTED_EDGE('',*,*,#602,.T.);
#776=ORIENTED_EDGE('',*,*,#603,.T.);
#777=ORIENTED_EDGE('',*,*,#599,.T.);
#778=ORIENTED_EDGE('',*,*,#604,.T.);
#779=ORIENTED_EDGE('',*,*,#605,.F.);
#780=ORIENTED_EDGE('',*,*,#606,.F.);
#781=ORIENTED_EDGE('',*,*,#598,.T.);
#782=ORIENTED_EDGE('',*,*,#607,.T.);
#783=ORIENTED_EDGE('',*,*,#608,.F.);
#784=ORIENTED_EDGE('',*,*,#604,.F.);
#785=ORIENTED_EDGE('',*,*,#585,.T.);
#786=ORIENTED_EDGE('',*,*,#609,.F.);
#787=ORIENTED_EDGE('',*,*,#610,.T.);
#788=ORIENTED_EDGE('',*,*,#611,.T.);
#789=ORIENTED_EDGE('',*,*,#595,.T.);
#790=ORIENTED_EDGE('',*,*,#612,.F.);
#791=ORIENTED_EDGE('',*,*,#613,.F.);
#792=ORIENTED_EDGE('',*,*,#614,.T.);
#793=ORIENTED_EDGE('',*,*,#588,.T.);
#794=ORIENTED_EDGE('',*,*,#615,.T.);
#795=ORIENTED_EDGE('',*,*,#616,.F.);
#796=ORIENTED_EDGE('',*,*,#617,.F.);
#797=ORIENTED_EDGE('',*,*,#597,.T.);
#798=ORIENTED_EDGE('',*,*,#618,.F.);
#799=ORIENTED_EDGE('',*,*,#619,.F.);
#800=ORIENTED_EDGE('',*,*,#607,.F.);
#801=ORIENTED_EDGE('',*,*,#596,.T.);
#802=ORIENTED_EDGE('',*,*,#614,.F.);
#803=ORIENTED_EDGE('',*,*,#620,.T.);
#804=ORIENTED_EDGE('',*,*,#618,.T.);
#805=ORIENTED_EDGE('',*,*,#587,.T.);
#806=ORIENTED_EDGE('',*,*,#621,.T.);
#807=ORIENTED_EDGE('',*,*,#622,.F.);
#808=ORIENTED_EDGE('',*,*,#615,.F.);
#809=ORIENTED_EDGE('',*,*,#586,.T.);
#810=ORIENTED_EDGE('',*,*,#611,.F.);
#811=ORIENTED_EDGE('',*,*,#623,.F.);
#812=ORIENTED_EDGE('',*,*,#621,.F.);
#813=ORIENTED_EDGE('',*,*,#592,.T.);
#814=ORIENTED_EDGE('',*,*,#624,.F.);
#815=ORIENTED_EDGE('',*,*,#625,.F.);
#816=ORIENTED_EDGE('',*,*,#609,.T.);
#817=ORIENTED_EDGE('',*,*,#626,.F.);
#818=ORIENTED_EDGE('',*,*,#627,.T.);
#819=ORIENTED_EDGE('',*,*,#624,.T.);
#820=ORIENTED_EDGE('',*,*,#591,.T.);
#821=ORIENTED_EDGE('',*,*,#601,.F.);
#822=ORIENTED_EDGE('',*,*,#628,.F.);
#823=ORIENTED_EDGE('',*,*,#629,.F.);
#824=ORIENTED_EDGE('',*,*,#600,.F.);
#825=ORIENTED_EDGE('',*,*,#606,.T.);
#826=ORIENTED_EDGE('',*,*,#630,.F.);
#827=ORIENTED_EDGE('',*,*,#631,.F.);
#828=ORIENTED_EDGE('',*,*,#632,.T.);
#829=ORIENTED_EDGE('',*,*,#616,.T.);
#830=ORIENTED_EDGE('',*,*,#622,.T.);
#831=ORIENTED_EDGE('',*,*,#623,.T.);
#832=ORIENTED_EDGE('',*,*,#610,.F.);
#833=ORIENTED_EDGE('',*,*,#625,.T.);
#834=ORIENTED_EDGE('',*,*,#627,.F.);
#835=ORIENTED_EDGE('',*,*,#633,.F.);
#836=ORIENTED_EDGE('',*,*,#634,.T.);
#837=ORIENTED_EDGE('',*,*,#612,.T.);
#838=ORIENTED_EDGE('',*,*,#594,.T.);
#839=ORIENTED_EDGE('',*,*,#635,.F.);
#840=ORIENTED_EDGE('',*,*,#636,.F.);
#841=ORIENTED_EDGE('',*,*,#602,.F.);
#842=ORIENTED_EDGE('',*,*,#589,.F.);
#843=ORIENTED_EDGE('',*,*,#617,.T.);
#844=ORIENTED_EDGE('',*,*,#632,.F.);
#845=ORIENTED_EDGE('',*,*,#637,.F.);
#846=ORIENTED_EDGE('',*,*,#630,.T.);
#847=ORIENTED_EDGE('',*,*,#605,.T.);
#848=ORIENTED_EDGE('',*,*,#608,.T.);
#849=ORIENTED_EDGE('',*,*,#619,.T.);
#850=ORIENTED_EDGE('',*,*,#620,.F.);
#851=ORIENTED_EDGE('',*,*,#613,.T.);
#852=ORIENTED_EDGE('',*,*,#634,.F.);
#853=ORIENTED_EDGE('',*,*,#629,.T.);
#854=ORIENTED_EDGE('',*,*,#638,.F.);
#855=ORIENTED_EDGE('',*,*,#639,.T.);
#856=ORIENTED_EDGE('',*,*,#640,.T.);
#857=ORIENTED_EDGE('',*,*,#641,.T.);
#858=ORIENTED_EDGE('',*,*,#642,.T.);
#859=ORIENTED_EDGE('',*,*,#643,.T.);
#860=ORIENTED_EDGE('',*,*,#644,.T.);
#861=ORIENTED_EDGE('',*,*,#645,.T.);
#862=ORIENTED_EDGE('',*,*,#646,.F.);
#863=ORIENTED_EDGE('',*,*,#635,.T.);
#864=ORIENTED_EDGE('',*,*,#593,.T.);
#865=ORIENTED_EDGE('',*,*,#560,.T.);
#866=ORIENTED_EDGE('',*,*,#647,.F.);
#867=ORIENTED_EDGE('',*,*,#648,.T.);
#868=ORIENTED_EDGE('',*,*,#649,.T.);
#869=ORIENTED_EDGE('',*,*,#639,.F.);
#870=ORIENTED_EDGE('',*,*,#650,.T.);
#871=ORIENTED_EDGE('',*,*,#651,.T.);
#872=ORIENTED_EDGE('',*,*,#642,.F.);
#873=ORIENTED_EDGE('',*,*,#652,.F.);
#874=ORIENTED_EDGE('',*,*,#653,.T.);
#875=ORIENTED_EDGE('',*,*,#652,.T.);
#876=ORIENTED_EDGE('',*,*,#641,.F.);
#877=ORIENTED_EDGE('',*,*,#654,.F.);
#878=ORIENTED_EDGE('',*,*,#655,.T.);
#879=ORIENTED_EDGE('',*,*,#654,.T.);
#880=ORIENTED_EDGE('',*,*,#640,.F.);
#881=ORIENTED_EDGE('',*,*,#649,.F.);
#882=ORIENTED_EDGE('',*,*,#656,.F.);
#883=ORIENTED_EDGE('',*,*,#645,.F.);
#884=ORIENTED_EDGE('',*,*,#657,.F.);
#885=ORIENTED_EDGE('',*,*,#658,.T.);
#886=ORIENTED_EDGE('',*,*,#659,.T.);
#887=ORIENTED_EDGE('',*,*,#657,.T.);
#888=ORIENTED_EDGE('',*,*,#644,.F.);
#889=ORIENTED_EDGE('',*,*,#660,.F.);
#890=ORIENTED_EDGE('',*,*,#661,.T.);
#891=ORIENTED_EDGE('',*,*,#660,.T.);
#892=ORIENTED_EDGE('',*,*,#643,.F.);
#893=ORIENTED_EDGE('',*,*,#651,.F.);
#894=ORIENTED_EDGE('',*,*,#662,.F.);
#895=ORIENTED_EDGE('',*,*,#663,.F.);
#896=ORIENTED_EDGE('',*,*,#664,.F.);
#897=ORIENTED_EDGE('',*,*,#665,.F.);
#898=ORIENTED_EDGE('',*,*,#666,.F.);
#899=ORIENTED_EDGE('',*,*,#667,.F.);
#900=ORIENTED_EDGE('',*,*,#668,.F.);
#901=ORIENTED_EDGE('',*,*,#669,.F.);
#902=ORIENTED_EDGE('',*,*,#670,.F.);
#903=ORIENTED_EDGE('',*,*,#658,.F.);
#904=ORIENTED_EDGE('',*,*,#659,.F.);
#905=ORIENTED_EDGE('',*,*,#661,.F.);
#906=ORIENTED_EDGE('',*,*,#650,.F.);
#907=ORIENTED_EDGE('',*,*,#653,.F.);
#908=ORIENTED_EDGE('',*,*,#655,.F.);
#909=ORIENTED_EDGE('',*,*,#648,.F.);
#910=ORIENTED_EDGE('',*,*,#555,.T.);
#911=ORIENTED_EDGE('',*,*,#558,.T.);
#912=ORIENTED_EDGE('',*,*,#561,.T.);
#913=ORIENTED_EDGE('',*,*,#626,.T.);
#914=ORIENTED_EDGE('',*,*,#637,.T.);
#915=ORIENTED_EDGE('',*,*,#633,.T.);
#916=ORIENTED_EDGE('',*,*,#631,.T.);
#917=ORIENTED_EDGE('',*,*,#671,.F.);
#918=ORIENTED_EDGE('',*,*,#672,.T.);
#919=ORIENTED_EDGE('',*,*,#673,.T.);
#920=ORIENTED_EDGE('',*,*,#674,.T.);
#921=ORIENTED_EDGE('',*,*,#675,.F.);
#922=ORIENTED_EDGE('',*,*,#563,.T.);
#923=ORIENTED_EDGE('',*,*,#676,.F.);
#924=ORIENTED_EDGE('',*,*,#669,.T.);
#925=ORIENTED_EDGE('',*,*,#677,.T.);
#926=ORIENTED_EDGE('',*,*,#672,.F.);
#927=ORIENTED_EDGE('',*,*,#678,.F.);
#928=ORIENTED_EDGE('',*,*,#674,.F.);
#929=ORIENTED_EDGE('',*,*,#679,.F.);
#930=ORIENTED_EDGE('',*,*,#667,.T.);
#931=ORIENTED_EDGE('',*,*,#668,.T.);
#932=ORIENTED_EDGE('',*,*,#679,.T.);
#933=ORIENTED_EDGE('',*,*,#673,.F.);
#934=ORIENTED_EDGE('',*,*,#677,.F.);
#935=ORIENTED_EDGE('',*,*,#680,.F.);
#936=ORIENTED_EDGE('',*,*,#681,.F.);
#937=ORIENTED_EDGE('',*,*,#682,.F.);
#938=ORIENTED_EDGE('',*,*,#663,.T.);
#939=ORIENTED_EDGE('',*,*,#683,.F.);
#940=ORIENTED_EDGE('',*,*,#684,.T.);
#941=ORIENTED_EDGE('',*,*,#685,.T.);
#942=ORIENTED_EDGE('',*,*,#681,.T.);
#943=ORIENTED_EDGE('',*,*,#686,.F.);
#944=ORIENTED_EDGE('',*,*,#557,.T.);
#945=ORIENTED_EDGE('',*,*,#687,.F.);
#946=ORIENTED_EDGE('',*,*,#665,.T.);
#947=ORIENTED_EDGE('',*,*,#688,.T.);
#948=ORIENTED_EDGE('',*,*,#684,.F.);
#949=ORIENTED_EDGE('',*,*,#664,.T.);
#950=ORIENTED_EDGE('',*,*,#682,.T.);
#951=ORIENTED_EDGE('',*,*,#685,.F.);
#952=ORIENTED_EDGE('',*,*,#688,.F.);
#953=ORIENTED_EDGE('',*,*,#628,.T.);
#954=ORIENTED_EDGE('',*,*,#603,.F.);
#955=ORIENTED_EDGE('',*,*,#636,.T.);
#956=ORIENTED_EDGE('',*,*,#646,.T.);
#957=ORIENTED_EDGE('',*,*,#656,.T.);
#958=ORIENTED_EDGE('',*,*,#670,.T.);
#959=ORIENTED_EDGE('',*,*,#676,.T.);
#960=ORIENTED_EDGE('',*,*,#671,.T.);
#961=ORIENTED_EDGE('',*,*,#582,.T.);
#962=ORIENTED_EDGE('',*,*,#583,.F.);
#963=ORIENTED_EDGE('',*,*,#675,.T.);
#964=ORIENTED_EDGE('',*,*,#678,.T.);
#965=ORIENTED_EDGE('',*,*,#666,.T.);
#966=ORIENTED_EDGE('',*,*,#687,.T.);
#967=ORIENTED_EDGE('',*,*,#683,.T.);
#968=ORIENTED_EDGE('',*,*,#573,.T.);
#969=ORIENTED_EDGE('',*,*,#574,.F.);
#970=ORIENTED_EDGE('',*,*,#686,.T.);
#971=ORIENTED_EDGE('',*,*,#680,.T.);
#972=ORIENTED_EDGE('',*,*,#662,.T.);
#973=ORIENTED_EDGE('',*,*,#647,.T.);
#974=ORIENTED_EDGE('',*,*,#638,.T.);
#975=ORIENTED_EDGE('',*,*,#565,.T.);
#976=ORIENTED_EDGE('',*,*,#553,.F.);
#977=ORIENTED_EDGE('',*,*,#568,.T.);
#978=ORIENTED_EDGE('',*,*,#549,.F.);
#979=ORIENTED_EDGE('',*,*,#577,.T.);
#980=ORIENTED_EDGE('',*,*,#545,.F.);
#981=CYLINDRICAL_SURFACE('',#1063,6.);
#982=CYLINDRICAL_SURFACE('',#1066,6.);
#983=CYLINDRICAL_SURFACE('',#1069,6.);
#984=CYLINDRICAL_SURFACE('',#1072,2.1);
#985=CYLINDRICAL_SURFACE('',#1075,2.1);
#986=CYLINDRICAL_SURFACE('',#1078,2.1);
#987=CYLINDRICAL_SURFACE('',#1081,6.);
#988=CYLINDRICAL_SURFACE('',#1086,6.);
#989=CYLINDRICAL_SURFACE('',#1091,6.);
#990=CYLINDRICAL_SURFACE('',#1097,6.);
#991=CYLINDRICAL_SURFACE('',#1102,6.);
#992=CYLINDRICAL_SURFACE('',#1152,30.);
#993=ADVANCED_FACE('',(#69),#981,.F.);
#994=ADVANCED_FACE('',(#70),#982,.F.);
#995=ADVANCED_FACE('',(#71),#983,.F.);
#996=ADVANCED_FACE('',(#72),#984,.F.);
#997=ADVANCED_FACE('',(#73),#985,.F.);
#998=ADVANCED_FACE('',(#74),#986,.F.);
#999=ADVANCED_FACE('',(#75),#987,.F.);
#1000=ADVANCED_FACE('',(#76),#25,.F.);
#1001=ADVANCED_FACE('',(#77),#26,.T.);
#1002=ADVANCED_FACE('',(#78),#988,.F.);
#1003=ADVANCED_FACE('',(#79),#27,.F.);
#1004=ADVANCED_FACE('',(#80),#28,.T.);
#1005=ADVANCED_FACE('',(#81),#989,.F.);
#1006=ADVANCED_FACE('',(#82),#29,.F.);
#1007=ADVANCED_FACE('',(#83),#30,.T.);
#1008=ADVANCED_FACE('',(#84),#990,.F.);
#1009=ADVANCED_FACE('',(#85),#31,.F.);
#1010=ADVANCED_FACE('',(#86),#32,.T.);
#1011=ADVANCED_FACE('',(#87),#991,.F.);
#1012=ADVANCED_FACE('',(#88),#33,.F.);
#1013=ADVANCED_FACE('',(#89),#34,.T.);
#1014=ADVANCED_FACE('',(#90),#35,.F.);
#1015=ADVANCED_FACE('',(#91),#36,.F.);
#1016=ADVANCED_FACE('',(#92),#37,.T.);
#1017=ADVANCED_FACE('',(#93),#38,.F.);
#1018=ADVANCED_FACE('',(#94),#39,.F.);
#1019=ADVANCED_FACE('',(#95),#40,.F.);
#1020=ADVANCED_FACE('',(#96),#41,.F.);
#1021=ADVANCED_FACE('',(#97),#42,.F.);
#1022=ADVANCED_FACE('',(#98),#43,.F.);
#1023=ADVANCED_FACE('',(#99),#44,.F.);
#1024=ADVANCED_FACE('',(#100),#45,.F.);
#1025=ADVANCED_FACE('',(#101),#46,.F.);
#1026=ADVANCED_FACE('',(#102),#47,.F.);
#1027=ADVANCED_FACE('',(#103),#48,.F.);
#1028=ADVANCED_FACE('',(#104),#49,.F.);
#1029=ADVANCED_FACE('',(#105),#50,.F.);
#1030=ADVANCED_FACE('',(#106),#51,.F.);
#1031=ADVANCED_FACE('',(#107,#15),#52,.T.);
#1032=ADVANCED_FACE('',(#108),#53,.T.);
#1033=ADVANCED_FACE('',(#109),#54,.T.);
#1034=ADVANCED_FACE('',(#110),#55,.T.);
#1035=ADVANCED_FACE('',(#111),#56,.T.);
#1036=ADVANCED_FACE('',(#112),#57,.T.);
#1037=ADVANCED_FACE('',(#113),#58,.T.);
#1038=ADVANCED_FACE('',(#114),#59,.T.);
#1039=ADVANCED_FACE('',(#115,#16,#17,#18,#19),#60,.F.);
#1040=ADVANCED_FACE('',(#116,#20),#61,.T.);
#1041=ADVANCED_FACE('',(#117),#62,.T.);
#1042=ADVANCED_FACE('',(#118),#63,.T.);
#1043=ADVANCED_FACE('',(#119),#64,.T.);
#1044=ADVANCED_FACE('',(#120),#65,.T.);
#1045=ADVANCED_FACE('',(#121,#21),#66,.T.);
#1046=ADVANCED_FACE('',(#122),#67,.T.);
#1047=ADVANCED_FACE('',(#123),#68,.T.);
#1048=ADVANCED_FACE('',(#124,#22,#23,#24),#992,.T.);
#1049=CLOSED_SHELL('',(#993,#994,#995,#996,#997,#998,#999,#1000,#1001,#1002,
#1003,#1004,#1005,#1006,#1007,#1008,#1009,#1010,#1011,#1012,#1013,#1014,
#1015,#1016,#1017,#1018,#1019,#1020,#1021,#1022,#1023,#1024,#1025,#1026,
#1027,#1028,#1029,#1030,#1031,#1032,#1033,#1034,#1035,#1036,#1037,#1038,
#1039,#1040,#1041,#1042,#1043,#1044,#1045,#1046,#1047,#1048));
#1050=DERIVED_UNIT_ELEMENT(#1052,1.);
#1051=DERIVED_UNIT_ELEMENT(#1749,-3.);
#1052=(
MASS_UNIT()
NAMED_UNIT(*)
SI_UNIT(.KILO.,.GRAM.)
);
#1053=DERIVED_UNIT((#1050,#1051));
#1054=MEASURE_REPRESENTATION_ITEM('density measure',
POSITIVE_RATIO_MEASURE(7850.),#1053);
#1055=PROPERTY_DEFINITION_REPRESENTATION(#1060,#1057);
#1056=PROPERTY_DEFINITION_REPRESENTATION(#1061,#1058);
#1057=REPRESENTATION('material name',(#1059),#1746);
#1058=REPRESENTATION('density',(#1054),#1746);
#1059=DESCRIPTIVE_REPRESENTATION_ITEM('Steel','Steel');
#1060=PROPERTY_DEFINITION('material property','material name',#1756);
#1061=PROPERTY_DEFINITION('material property','density of part',#1756);
#1062=AXIS2_PLACEMENT_3D('',#1447,#1153,#1154);
#1063=AXIS2_PLACEMENT_3D('',#1448,#1155,#1156);
#1064=AXIS2_PLACEMENT_3D('',#1453,#1158,#1159);
#1065=AXIS2_PLACEMENT_3D('',#1456,#1161,#1162);
#1066=AXIS2_PLACEMENT_3D('',#1457,#1163,#1164);
#1067=AXIS2_PLACEMENT_3D('',#1462,#1166,#1167);
#1068=AXIS2_PLACEMENT_3D('',#1465,#1169,#1170);
#1069=AXIS2_PLACEMENT_3D('',#1466,#1171,#1172);
#1070=AXIS2_PLACEMENT_3D('',#1471,#1174,#1175);
#1071=AXIS2_PLACEMENT_3D('',#1474,#1177,#1178);
#1072=AXIS2_PLACEMENT_3D('',#1475,#1179,#1180);
#1073=AXIS2_PLACEMENT_3D('',#1477,#1181,#1182);
#1074=AXIS2_PLACEMENT_3D('',#1480,#1184,#1185);
#1075=AXIS2_PLACEMENT_3D('',#1481,#1186,#1187);
#1076=AXIS2_PLACEMENT_3D('',#1483,#1188,#1189);
#1077=AXIS2_PLACEMENT_3D('',#1486,#1191,#1192);
#1078=AXIS2_PLACEMENT_3D('',#1487,#1193,#1194);
#1079=AXIS2_PLACEMENT_3D('',#1489,#1195,#1196);
#1080=AXIS2_PLACEMENT_3D('',#1492,#1198,#1199);
#1081=AXIS2_PLACEMENT_3D('',#1493,#1200,#1201);
#1082=AXIS2_PLACEMENT_3D('',#1494,#1202,#1203);
#1083=AXIS2_PLACEMENT_3D('',#1496,#1205,#1206);
#1084=AXIS2_PLACEMENT_3D('',#1497,#1207,#1208);
#1085=AXIS2_PLACEMENT_3D('',#1498,#1209,#1210);
#1086=AXIS2_PLACEMENT_3D('',#1499,#1211,#1212);
#1087=AXIS2_PLACEMENT_3D('',#1500,#1213,#1214);
#1088=AXIS2_PLACEMENT_3D('',#1502,#1216,#1217);
#1089=AXIS2_PLACEMENT_3D('',#1503,#1218,#1219);
#1090=AXIS2_PLACEMENT_3D('',#1504,#1220,#1221);
#1091=AXIS2_PLACEMENT_3D('',#1505,#1222,#1223);
#1092=AXIS2_PLACEMENT_3D('',#1507,#1224,#1225);
#1093=AXIS2_PLACEMENT_3D('',#1511,#1227,#1228);
#1094=AXIS2_PLACEMENT_3D('',#1515,#1231,#1232);
#1095=AXIS2_PLACEMENT_3D('',#1516,#1233,#1234);
#1096=AXIS2_PLACEMENT_3D('',#1517,#1235,#1236);
#1097=AXIS2_PLACEMENT_3D('',#1518,#1237,#1238);
#1098=AXIS2_PLACEMENT_3D('',#1519,#1239,#1240);
#1099=AXIS2_PLACEMENT_3D('',#1521,#1242,#1243);
#1100=AXIS2_PLACEMENT_3D('',#1522,#1244,#1245);
#1101=AXIS2_PLACEMENT_3D('',#1523,#1246,#1247);
#1102=AXIS2_PLACEMENT_3D('',#1524,#1248,#1249);
#1103=AXIS2_PLACEMENT_3D('',#1526,#1250,#1251);
#1104=AXIS2_PLACEMENT_3D('',#1530,#1253,#1254);
#1105=AXIS2_PLACEMENT_3D('',#1534,#1257,#1258);
#1106=AXIS2_PLACEMENT_3D('',#1535,#1259,#1260);
#1107=AXIS2_PLACEMENT_3D('',#1536,#1261,#1262);
#1108=AXIS2_PLACEMENT_3D('',#1537,#1263,#1264);
#1109=AXIS2_PLACEMENT_3D('',#1554,#1273,#1274);
#1110=AXIS2_PLACEMENT_3D('',#1571,#1283,#1284);
#1111=AXIS2_PLACEMENT_3D('',#1576,#1287,#1288);
#1112=AXIS2_PLACEMENT_3D('',#1577,#1289,#1290);
#1113=AXIS2_PLACEMENT_3D('',#1583,#1294,#1295);
#1114=AXIS2_PLACEMENT_3D('',#1587,#1298,#1299);
#1115=AXIS2_PLACEMENT_3D('',#1593,#1303,#1304);
#1116=AXIS2_PLACEMENT_3D('',#1599,#1308,#1309);
#1117=AXIS2_PLACEMENT_3D('',#1605,#1313,#1314);
#1118=AXIS2_PLACEMENT_3D('',#1609,#1317,#1318);
#1119=AXIS2_PLACEMENT_3D('',#1611,#1320,#1321);
#1120=AXIS2_PLACEMENT_3D('',#1615,#1324,#1325);
#1121=AXIS2_PLACEMENT_3D('',#1617,#1327,#1328);
#1122=AXIS2_PLACEMENT_3D('',#1621,#1331,#1332);
#1123=AXIS2_PLACEMENT_3D('',#1630,#1338,#1339);
#1124=AXIS2_PLACEMENT_3D('',#1634,#1342,#1343);
#1125=AXIS2_PLACEMENT_3D('',#1641,#1348,#1349);
#1126=AXIS2_PLACEMENT_3D('',#1643,#1351,#1352);
#1127=AXIS2_PLACEMENT_3D('',#1645,#1353,#1354);
#1128=AXIS2_PLACEMENT_3D('',#1660,#1362,#1363);
#1129=AXIS2_PLACEMENT_3D('',#1661,#1364,#1365);
#1130=AXIS2_PLACEMENT_3D('',#1667,#1369,#1370);
#1131=AXIS2_PLACEMENT_3D('',#1673,#1374,#1375);
#1132=AXIS2_PLACEMENT_3D('',#1677,#1378,#1379);
#1133=AXIS2_PLACEMENT_3D('',#1679,#1381,#1382);
#1134=AXIS2_PLACEMENT_3D('',#1685,#1386,#1387);
#1135=AXIS2_PLACEMENT_3D('',#1689,#1390,#1391);
#1136=AXIS2_PLACEMENT_3D('',#1691,#1393,#1394);
#1137=AXIS2_PLACEMENT_3D('',#1693,#1395,#1396);
#1138=AXIS2_PLACEMENT_3D('',#1701,#1400,#1401);
#1139=AXIS2_PLACEMENT_3D('',#1708,#1405,#1406);
#1140=AXIS2_PLACEMENT_3D('',#1709,#1407,#1408);
#1141=AXIS2_PLACEMENT_3D('',#1711,#1409,#1410);
#1142=AXIS2_PLACEMENT_3D('',#1718,#1414,#1415);
#1143=AXIS2_PLACEMENT_3D('',#1719,#1416,#1417);
#1144=AXIS2_PLACEMENT_3D('',#1722,#1420,#1421);
#1145=AXIS2_PLACEMENT_3D('',#1725,#1424,#1425);
#1146=AXIS2_PLACEMENT_3D('',#1726,#1426,#1427);
#1147=AXIS2_PLACEMENT_3D('',#1732,#1431,#1432);
#1148=AXIS2_PLACEMENT_3D('',#1734,#1433,#1434);
#1149=AXIS2_PLACEMENT_3D('',#1738,#1437,#1438);
#1150=AXIS2_PLACEMENT_3D('',#1739,#1439,#1440);
#1151=AXIS2_PLACEMENT_3D('',#1742,#1443,#1444);
#1152=AXIS2_PLACEMENT_3D('',#1743,#1445,#1446);
#1153=DIRECTION('axis',(0.,0.,1.));
#1154=DIRECTION('refdir',(1.,0.,0.));
#1155=DIRECTION('center_axis',(0.,0.,1.));
#1156=DIRECTION('ref_axis',(1.,0.,0.));
#1157=DIRECTION('',(0.,0.,1.));
#1158=DIRECTION('center_axis',(0.,0.,1.));
#1159=DIRECTION('ref_axis',(1.,0.,0.));
#1160=DIRECTION('',(0.,0.,1.));
#1161=DIRECTION('center_axis',(0.,0.,1.));
#1162=DIRECTION('ref_axis',(1.,0.,0.));
#1163=DIRECTION('center_axis',(0.,0.,1.));
#1164=DIRECTION('ref_axis',(1.,0.,0.));
#1165=DIRECTION('',(0.,0.,1.));
#1166=DIRECTION('center_axis',(0.,0.,1.));
#1167=DIRECTION('ref_axis',(1.,0.,0.));
#1168=DIRECTION('',(0.,0.,1.));
#1169=DIRECTION('center_axis',(0.,0.,1.));
#1170=DIRECTION('ref_axis',(1.,0.,0.));
#1171=DIRECTION('center_axis',(0.,0.,1.));
#1172=DIRECTION('ref_axis',(1.,0.,0.));
#1173=DIRECTION('',(0.,0.,1.));
#1174=DIRECTION('center_axis',(0.,0.,1.));
#1175=DIRECTION('ref_axis',(1.,0.,0.));
#1176=DIRECTION('',(0.,0.,1.));
#1177=DIRECTION('center_axis',(0.,0.,1.));
#1178=DIRECTION('ref_axis',(1.,0.,0.));
#1179=DIRECTION('center_axis',(0.,0.,1.));
#1180=DIRECTION('ref_axis',(1.,0.,0.));
#1181=DIRECTION('center_axis',(0.,0.,1.));
#1182=DIRECTION('ref_axis',(1.,0.,0.));
#1183=DIRECTION('',(0.,0.,1.));
#1184=DIRECTION('center_axis',(0.,0.,-1.));
#1185=DIRECTION('ref_axis',(1.,0.,0.));
#1186=DIRECTION('center_axis',(0.,0.,1.));
#1187=DIRECTION('ref_axis',(1.,0.,0.));
#1188=DIRECTION('center_axis',(0.,0.,1.));
#1189=DIRECTION('ref_axis',(1.,0.,0.));
#1190=DIRECTION('',(0.,0.,1.));
#1191=DIRECTION('center_axis',(0.,0.,-1.));
#1192=DIRECTION('ref_axis',(1.,0.,0.));
#1193=DIRECTION('center_axis',(0.,0.,1.));
#1194=DIRECTION('ref_axis',(1.,0.,0.));
#1195=DIRECTION('center_axis',(0.,0.,1.));
#1196=DIRECTION('ref_axis',(1.,0.,0.));
#1197=DIRECTION('',(0.,0.,1.));
#1198=DIRECTION('center_axis',(0.,0.,-1.));
#1199=DIRECTION('ref_axis',(1.,0.,0.));
#1200=DIRECTION('center_axis',(0.,0.,1.));
#1201=DIRECTION('ref_axis',(1.,0.,0.));
#1202=DIRECTION('center_axis',(0.,0.,1.));
#1203=DIRECTION('ref_axis',(1.,0.,0.));
#1204=DIRECTION('',(0.,0.,1.));
#1205=DIRECTION('center_axis',(0.,0.,1.));
#1206=DIRECTION('ref_axis',(1.,0.,0.));
#1207=DIRECTION('center_axis',(0.,0.,1.));
#1208=DIRECTION('ref_axis',(1.,0.,0.));
#1209=DIRECTION('center_axis',(0.,0.,1.));
#1210=DIRECTION('ref_axis',(1.,0.,0.));
#1211=DIRECTION('center_axis',(0.,0.,1.));
#1212=DIRECTION('ref_axis',(1.,0.,0.));
#1213=DIRECTION('center_axis',(0.,0.,1.));
#1214=DIRECTION('ref_axis',(1.,0.,0.));
#1215=DIRECTION('',(0.,0.,1.));
#1216=DIRECTION('center_axis',(0.,0.,1.));
#1217=DIRECTION('ref_axis',(1.,0.,0.));
#1218=DIRECTION('center_axis',(0.,0.,1.));
#1219=DIRECTION('ref_axis',(1.,0.,0.));
#1220=DIRECTION('center_axis',(0.,0.,1.));
#1221=DIRECTION('ref_axis',(1.,0.,0.));
#1222=DIRECTION('center_axis',(0.,0.,1.));
#1223=DIRECTION('ref_axis',(1.,0.,0.));
#1224=DIRECTION('center_axis',(0.,0.,1.));
#1225=DIRECTION('ref_axis',(1.,0.,0.));
#1226=DIRECTION('',(0.,0.,1.));
#1227=DIRECTION('center_axis',(0.,0.,1.));
#1228=DIRECTION('ref_axis',(1.,0.,0.));
#1229=DIRECTION('',(0.,0.,1.));
#1230=DIRECTION('',(0.,0.,1.));
#1231=DIRECTION('center_axis',(0.,0.,1.));
#1232=DIRECTION('ref_axis',(1.,0.,0.));
#1233=DIRECTION('center_axis',(0.,0.,1.));
#1234=DIRECTION('ref_axis',(1.,0.,0.));
#1235=DIRECTION('center_axis',(0.,0.,1.));
#1236=DIRECTION('ref_axis',(1.,0.,0.));
#1237=DIRECTION('center_axis',(0.,0.,1.));
#1238=DIRECTION('ref_axis',(1.,0.,0.));
#1239=DIRECTION('center_axis',(0.,0.,1.));
#1240=DIRECTION('ref_axis',(1.,0.,0.));
#1241=DIRECTION('',(0.,0.,1.));
#1242=DIRECTION('center_axis',(0.,0.,1.));
#1243=DIRECTION('ref_axis',(1.,0.,0.));
#1244=DIRECTION('center_axis',(0.,0.,1.));
#1245=DIRECTION('ref_axis',(1.,0.,0.));
#1246=DIRECTION('center_axis',(0.,0.,1.));
#1247=DIRECTION('ref_axis',(1.,0.,0.));
#1248=DIRECTION('center_axis',(0.,0.,1.));
#1249=DIRECTION('ref_axis',(1.,0.,0.));
#1250=DIRECTION('center_axis',(0.,0.,1.));
#1251=DIRECTION('ref_axis',(1.,0.,0.));
#1252=DIRECTION('',(0.,0.,1.));
#1253=DIRECTION('center_axis',(0.,0.,1.));
#1254=DIRECTION('ref_axis',(1.,0.,0.));
#1255=DIRECTION('',(0.,0.,1.));
#1256=DIRECTION('',(0.,0.,1.));
#1257=DIRECTION('center_axis',(0.,0.,1.));
#1258=DIRECTION('ref_axis',(1.,0.,0.));
#1259=DIRECTION('center_axis',(0.,0.,1.));
#1260=DIRECTION('ref_axis',(1.,0.,0.));
#1261=DIRECTION('center_axis',(0.,0.,1.));
#1262=DIRECTION('ref_axis',(1.,0.,0.));
#1263=DIRECTION('center_axis',(1.,0.,0.));
#1264=DIRECTION('ref_axis',(0.,1.,0.));
#1265=DIRECTION('',(0.,0.,-1.));
#1266=DIRECTION('',(0.,1.,0.));
#1267=DIRECTION('',(0.,0.,1.));
#1268=DIRECTION('',(0.,1.,0.));
#1269=DIRECTION('',(0.,0.,1.));
#1270=DIRECTION('',(0.,-1.,0.));
#1271=DIRECTION('',(0.,0.,1.));
#1272=DIRECTION('',(0.,1.,0.));
#1273=DIRECTION('center_axis',(-1.,0.,0.));
#1274=DIRECTION('ref_axis',(0.,-1.,0.));
#1275=DIRECTION('',(0.,1.,0.));
#1276=DIRECTION('',(0.,0.,1.));
#1277=DIRECTION('',(0.,-1.,0.));
#1278=DIRECTION('',(0.,0.,-1.));
#1279=DIRECTION('',(0.,-1.,0.));
#1280=DIRECTION('',(0.,0.,1.));
#1281=DIRECTION('',(0.,-1.,0.));
#1282=DIRECTION('',(0.,0.,1.));
#1283=DIRECTION('center_axis',(0.,0.,1.));
#1284=DIRECTION('ref_axis',(1.,0.,0.));
#1285=DIRECTION('',(1.,0.,0.));
#1286=DIRECTION('',(-1.,0.,0.));
#1287=DIRECTION('center_axis',(0.,0.,1.));
#1288=DIRECTION('ref_axis',(1.,0.,0.));
#1289=DIRECTION('center_axis',(0.,0.,1.));
#1290=DIRECTION('ref_axis',(1.,0.,0.));
#1291=DIRECTION('',(-1.,0.,0.));
#1292=DIRECTION('',(0.,-1.,0.));
#1293=DIRECTION('',(-1.,0.,0.));
#1294=DIRECTION('center_axis',(0.,1.,0.));
#1295=DIRECTION('ref_axis',(-1.,0.,0.));
#1296=DIRECTION('',(-1.,0.,0.));
#1297=DIRECTION('',(0.,0.,1.));
#1298=DIRECTION('center_axis',(0.,1.,0.));
#1299=DIRECTION('ref_axis',(-1.,0.,0.));
#1300=DIRECTION('',(-1.,0.,0.));
#1301=DIRECTION('',(0.,0.,1.));
#1302=DIRECTION('',(-1.,0.,0.));
#1303=DIRECTION('center_axis',(0.,0.,1.));
#1304=DIRECTION('ref_axis',(1.,0.,0.));
#1305=DIRECTION('',(1.,0.,0.));
#1306=DIRECTION('',(0.,-1.,0.));
#1307=DIRECTION('',(1.,0.,0.));
#1308=DIRECTION('center_axis',(0.,0.,1.));
#1309=DIRECTION('ref_axis',(1.,0.,0.));
#1310=DIRECTION('',(1.,0.,0.));
#1311=DIRECTION('',(2.11471052309554E-16,1.,0.));
#1312=DIRECTION('',(1.,0.,0.));
#1313=DIRECTION('center_axis',(0.,0.,1.));
#1314=DIRECTION('ref_axis',(1.,0.,0.));
#1315=DIRECTION('',(1.,0.,0.));
#1316=DIRECTION('',(0.,-1.,0.));
#1317=DIRECTION('center_axis',(0.,-1.,0.));
#1318=DIRECTION('ref_axis',(1.,0.,0.));
#1319=DIRECTION('',(0.,0.,1.));
#1320=DIRECTION('center_axis',(0.,-1.,0.));
#1321=DIRECTION('ref_axis',(1.,0.,0.));
#1322=DIRECTION('',(1.,0.,0.));
#1323=DIRECTION('',(0.,0.,1.));
#1324=DIRECTION('center_axis',(0.,0.,1.));
#1325=DIRECTION('ref_axis',(1.,0.,0.));
#1326=DIRECTION('',(1.48029736616688E-15,1.,0.));
#1327=DIRECTION('center_axis',(0.,0.,1.));
#1328=DIRECTION('ref_axis',(1.,0.,0.));
#1329=DIRECTION('',(-1.,0.,0.));
#1330=DIRECTION('',(2.11471052309554E-16,1.,0.));
#1331=DIRECTION('center_axis',(0.,1.,0.));
#1332=DIRECTION('ref_axis',(-1.,0.,0.));
#1333=DIRECTION('',(-1.,0.,0.));
#1334=DIRECTION('',(0.,0.,1.));
#1335=DIRECTION('',(0.,0.,1.));
#1336=DIRECTION('',(1.,0.,0.));
#1337=DIRECTION('',(0.,0.,1.));
#1338=DIRECTION('center_axis',(1.,-2.11471052309554E-16,0.));
#1339=DIRECTION('ref_axis',(2.11471052309554E-16,1.,0.));
#1340=DIRECTION('',(2.11471052309554E-16,1.,0.));
#1341=DIRECTION('',(0.,0.,1.));
#1342=DIRECTION('center_axis',(0.,-1.,0.));
#1343=DIRECTION('ref_axis',(1.,0.,0.));
#1344=DIRECTION('',(1.,0.,0.));
#1345=DIRECTION('',(0.,0.,1.));
#1346=DIRECTION('',(-1.,0.,0.));
#1347=DIRECTION('',(0.,0.,-1.));
#1348=DIRECTION('center_axis',(-1.,0.,0.));
#1349=DIRECTION('ref_axis',(0.,-1.,0.));
#1350=DIRECTION('',(0.,-1.,0.));
#1351=DIRECTION('center_axis',(0.,0.,1.));
#1352=DIRECTION('ref_axis',(1.,0.,0.));
#1353=DIRECTION('center_axis',(0.,0.,1.));
#1354=DIRECTION('ref_axis',(1.,0.,0.));
#1355=DIRECTION('',(-1.,0.,0.));
#1356=DIRECTION('',(0.,-1.,0.));
#1357=DIRECTION('',(-1.,1.07440937866951E-16,0.));
#1358=DIRECTION('',(0.,-1.,0.));
#1359=DIRECTION('',(1.,-1.43254583822601E-16,0.));
#1360=DIRECTION('',(0.,-1.,0.));
#1361=DIRECTION('',(1.,0.,0.));
#1362=DIRECTION('center_axis',(0.,0.,1.));
#1363=DIRECTION('ref_axis',(1.,0.,0.));
#1364=DIRECTION('center_axis',(0.,1.,0.));
#1365=DIRECTION('ref_axis',(-1.,0.,0.));
#1366=DIRECTION('',(0.,0.,1.));
#1367=DIRECTION('',(-1.,0.,0.));
#1368=DIRECTION('',(0.,0.,1.));
#1369=DIRECTION('center_axis',(-1.,0.,0.));
#1370=DIRECTION('ref_axis',(0.,-1.,0.));
#1371=DIRECTION('',(0.,-1.,0.));
#1372=DIRECTION('',(0.,0.,1.));
#1373=DIRECTION('',(0.,0.,1.));
#1374=DIRECTION('center_axis',(1.07440937866951E-16,1.,0.));
#1375=DIRECTION('ref_axis',(-1.,1.07440937866951E-16,0.));
#1376=DIRECTION('',(-1.,1.07440937866951E-16,0.));
#1377=DIRECTION('',(0.,0.,1.));
#1378=DIRECTION('center_axis',(-1.,0.,0.));
#1379=DIRECTION('ref_axis',(0.,-1.,0.));
#1380=DIRECTION('',(0.,-1.,0.));
#1381=DIRECTION('center_axis',(0.,-1.,0.));
#1382=DIRECTION('ref_axis',(1.,0.,0.));
#1383=DIRECTION('',(0.,0.,-1.));
#1384=DIRECTION('',(0.,0.,1.));
#1385=DIRECTION('',(1.,0.,0.));
#1386=DIRECTION('center_axis',(-1.,0.,0.));
#1387=DIRECTION('ref_axis',(0.,-1.,0.));
#1388=DIRECTION('',(0.,-1.,0.));
#1389=DIRECTION('',(0.,0.,1.));
#1390=DIRECTION('center_axis',(-1.43254583822601E-16,-1.,0.));
#1391=DIRECTION('ref_axis',(1.,-1.43254583822601E-16,0.));
#1392=DIRECTION('',(1.,-1.43254583822601E-16,0.));
#1393=DIRECTION('center_axis',(0.,0.,1.));
#1394=DIRECTION('ref_axis',(1.,0.,0.));
#1395=DIRECTION('center_axis',(0.,0.,1.));
#1396=DIRECTION('ref_axis',(1.,0.,0.));
#1397=DIRECTION('',(-0.5,-0.866025403784439,0.));
#1398=DIRECTION('',(-0.866025403784439,0.5,0.));
#1399=DIRECTION('',(0.5,0.866025403784439,0.));
#1400=DIRECTION('center_axis',(0.,0.,1.));
#1401=DIRECTION('ref_axis',(1.,0.,0.));
#1402=DIRECTION('',(-0.5,0.866025403784439,0.));
#1403=DIRECTION('',(0.866025403784439,0.5,0.));
#1404=DIRECTION('',(0.5,-0.866025403784439,0.));
#1405=DIRECTION('center_axis',(0.,0.,1.));
#1406=DIRECTION('ref_axis',(1.,0.,0.));
#1407=DIRECTION('center_axis',(0.,0.,1.));
#1408=DIRECTION('ref_axis',(1.,0.,0.));
#1409=DIRECTION('center_axis',(0.,0.,1.));
#1410=DIRECTION('ref_axis',(1.,0.,0.));
#1411=DIRECTION('',(0.5,-0.866025403784439,0.));
#1412=DIRECTION('',(0.866025403784439,0.5,0.));
#1413=DIRECTION('',(-0.5,0.866025403784439,0.));
#1414=DIRECTION('center_axis',(0.,0.,1.));
#1415=DIRECTION('ref_axis',(1.,0.,0.));
#1416=DIRECTION('center_axis',(-0.866025403784439,-0.5,0.));
#1417=DIRECTION('ref_axis',(0.5,-0.866025403784439,0.));
#1418=DIRECTION('',(0.,0.,1.));
#1419=DIRECTION('',(0.,0.,1.));
#1420=DIRECTION('center_axis',(0.866025403784439,0.5,0.));
#1421=DIRECTION('ref_axis',(-0.5,0.866025403784439,0.));
#1422=DIRECTION('',(0.,0.,-1.));
#1423=DIRECTION('',(0.,0.,1.));
#1424=DIRECTION('center_axis',(0.5,-0.866025403784439,0.));
#1425=DIRECTION('ref_axis',(0.866025403784439,0.5,0.));
#1426=DIRECTION('center_axis',(-0.866025403784439,0.5,0.));
#1427=DIRECTION('ref_axis',(-0.5,-0.866025403784439,0.));
#1428=DIRECTION('',(0.,0.,-1.));
#1429=DIRECTION('',(-0.5,-0.866025403784439,0.));
#1430=DIRECTION('',(0.,0.,1.));
#1431=DIRECTION('center_axis',(0.,0.,1.));
#1432=DIRECTION('ref_axis',(1.,0.,0.));
#1433=DIRECTION('center_axis',(0.,0.,1.));
#1434=DIRECTION('ref_axis',(1.,0.,0.));
#1435=DIRECTION('',(0.5,0.866025403784439,0.));
#1436=DIRECTION('',(-0.866025403784439,0.5,0.));
#1437=DIRECTION('center_axis',(0.,0.,1.));
#1438=DIRECTION('ref_axis',(1.,0.,0.));
#1439=DIRECTION('center_axis',(0.866025403784439,-0.5,0.));
#1440=DIRECTION('ref_axis',(0.5,0.866025403784439,0.));
#1441=DIRECTION('',(0.,0.,1.));
#1442=DIRECTION('',(0.,0.,1.));
#1443=DIRECTION('center_axis',(0.5,0.866025403784439,0.));
#1444=DIRECTION('ref_axis',(-0.866025403784439,0.5,0.));
#1445=DIRECTION('center_axis',(0.,0.,1.));
#1446=DIRECTION('ref_axis',(1.,0.,0.));
#1447=CARTESIAN_POINT('',(0.,0.,0.));
#1448=CARTESIAN_POINT('Origin',(-12.,20.7846096908265,6.));
#1449=CARTESIAN_POINT('',(-18.,20.7846096908265,6.));
#1450=CARTESIAN_POINT('',(-18.,20.7846096908265,12.5));
#1451=CARTESIAN_POINT('',(-18.,20.7846096908265,6.));
#1452=CARTESIAN_POINT('',(-15.,25.9807621135332,6.));
#1453=CARTESIAN_POINT('Origin',(-12.,20.7846096908265,6.));
#1454=CARTESIAN_POINT('',(-15.,25.9807621135332,12.5));
#1455=CARTESIAN_POINT('',(-15.,25.9807621135332,6.));
#1456=CARTESIAN_POINT('Origin',(-12.,20.7846096908265,12.5));
#1457=CARTESIAN_POINT('Origin',(24.,0.,6.));
#1458=CARTESIAN_POINT('',(18.,-7.34788079488412E-16,6.));
#1459=CARTESIAN_POINT('',(18.,-7.34788079488412E-16,12.5));
#1460=CARTESIAN_POINT('',(18.,-7.34788079488412E-16,6.));
#1461=CARTESIAN_POINT('',(30.,0.,6.));
#1462=CARTESIAN_POINT('Origin',(24.,0.,6.));
#1463=CARTESIAN_POINT('',(30.,0.,12.5));
#1464=CARTESIAN_POINT('',(30.,0.,6.));
#1465=CARTESIAN_POINT('Origin',(24.,0.,12.5));
#1466=CARTESIAN_POINT('Origin',(-12.,-20.7846096908265,6.));
#1467=CARTESIAN_POINT('',(-18.,-20.7846096908265,6.));
#1468=CARTESIAN_POINT('',(-18.,-20.7846096908265,12.5));
#1469=CARTESIAN_POINT('',(-18.,-20.7846096908265,6.));
#1470=CARTESIAN_POINT('',(-15.,-25.9807621135332,6.));
#1471=CARTESIAN_POINT('Origin',(-12.,-20.7846096908265,6.));
#1472=CARTESIAN_POINT('',(-15.,-25.9807621135332,12.5));
#1473=CARTESIAN_POINT('',(-15.,-25.9807621135332,6.));
#1474=CARTESIAN_POINT('Origin',(-12.,-20.7846096908265,12.5));
#1475=CARTESIAN_POINT('Origin',(25.,43.3012701892219,4.));
#1476=CARTESIAN_POINT('',(22.9,43.3012701892219,4.));
#1477=CARTESIAN_POINT('Origin',(25.,43.3012701892219,4.));
#1478=CARTESIAN_POINT('',(22.9,43.3012701892219,10.));
#1479=CARTESIAN_POINT('',(22.9,43.3012701892219,4.));
#1480=CARTESIAN_POINT('Origin',(25.,43.3012701892219,10.));
#1481=CARTESIAN_POINT('Origin',(-50.,6.12323399573677E-15,4.));
#1482=CARTESIAN_POINT('',(-52.1,5.86605816791582E-15,4.));
#1483=CARTESIAN_POINT('Origin',(-50.,6.12323399573677E-15,4.));
#1484=CARTESIAN_POINT('',(-52.1,5.86605816791582E-15,10.));
#1485=CARTESIAN_POINT('',(-52.1,5.86605816791582E-15,4.));
#1486=CARTESIAN_POINT('Origin',(-50.,6.12323399573677E-15,10.));
#1487=CARTESIAN_POINT('Origin',(25.,-43.3012701892219,4.));
#1488=CARTESIAN_POINT('',(22.9,-43.3012701892219,4.));
#1489=CARTESIAN_POINT('Origin',(25.,-43.3012701892219,4.));
#1490=CARTESIAN_POINT('',(22.9,-43.3012701892219,10.));
#1491=CARTESIAN_POINT('',(22.9,-43.3012701892219,4.));
#1492=CARTESIAN_POINT('Origin',(25.,-43.3012701892219,10.));
#1493=CARTESIAN_POINT('Origin',(-12.,-20.7846096908265,6.));
#1494=CARTESIAN_POINT('Origin',(-12.,-20.7846096908265,12.5));
#1495=CARTESIAN_POINT('',(-15.,-25.9807621135332,6.));
#1496=CARTESIAN_POINT('Origin',(-12.,-20.7846096908265,6.));
#1497=CARTESIAN_POINT('Origin',(-12.,-20.7846096908265,12.5));
#1498=CARTESIAN_POINT('Origin',(-12.,-20.7846096908265,6.));
#1499=CARTESIAN_POINT('Origin',(24.,0.,6.));
#1500=CARTESIAN_POINT('Origin',(24.,0.,12.5));
#1501=CARTESIAN_POINT('',(30.,0.,6.));
#1502=CARTESIAN_POINT('Origin',(24.,0.,6.));
#1503=CARTESIAN_POINT('Origin',(24.,0.,12.5));
#1504=CARTESIAN_POINT('Origin',(24.,0.,6.));
#1505=CARTESIAN_POINT('Origin',(12.,20.7846096908265,6.));
#1506=CARTESIAN_POINT('',(6.00000000000001,20.7846096908265,6.));
#1507=CARTESIAN_POINT('Origin',(12.,20.7846096908265,6.));
#1508=CARTESIAN_POINT('',(6.00000000000001,20.7846096908265,12.5));
#1509=CARTESIAN_POINT('',(6.00000000000001,20.7846096908265,6.));
#1510=CARTESIAN_POINT('',(15.,25.9807621135332,12.5));
#1511=CARTESIAN_POINT('Origin',(12.,20.7846096908265,12.5));
#1512=CARTESIAN_POINT('',(15.,25.9807621135332,10.));
#1513=CARTESIAN_POINT('',(15.,25.9807621135332,6.));
#1514=CARTESIAN_POINT('',(15.,25.9807621135332,6.));
#1515=CARTESIAN_POINT('Origin',(12.,20.7846096908265,12.5));
#1516=CARTESIAN_POINT('Origin',(12.,20.7846096908265,12.5));
#1517=CARTESIAN_POINT('Origin',(12.,20.7846096908265,6.));
#1518=CARTESIAN_POINT('Origin',(-12.,20.7846096908265,6.));
#1519=CARTESIAN_POINT('Origin',(-12.,20.7846096908265,12.5));
#1520=CARTESIAN_POINT('',(-15.,25.9807621135332,6.));
#1521=CARTESIAN_POINT('Origin',(-12.,20.7846096908265,6.));
#1522=CARTESIAN_POINT('Origin',(-12.,20.7846096908265,12.5));
#1523=CARTESIAN_POINT('Origin',(-12.,20.7846096908265,6.));
#1524=CARTESIAN_POINT('Origin',(12.,-20.7846096908265,6.));
#1525=CARTESIAN_POINT('',(6.00000000000001,-20.7846096908265,6.));
#1526=CARTESIAN_POINT('Origin',(12.,-20.7846096908265,6.));
#1527=CARTESIAN_POINT('',(6.00000000000001,-20.7846096908265,12.5));
#1528=CARTESIAN_POINT('',(6.00000000000001,-20.7846096908265,6.));
#1529=CARTESIAN_POINT('',(15.,-25.9807621135332,12.5));
#1530=CARTESIAN_POINT('Origin',(12.,-20.7846096908265,12.5));
#1531=CARTESIAN_POINT('',(15.,-25.9807621135332,10.));
#1532=CARTESIAN_POINT('',(15.,-25.9807621135332,6.));
#1533=CARTESIAN_POINT('',(15.,-25.9807621135332,6.));
#1534=CARTESIAN_POINT('Origin',(12.,-20.7846096908265,12.5));
#1535=CARTESIAN_POINT('Origin',(12.,-20.7846096908265,12.5));
#1536=CARTESIAN_POINT('Origin',(12.,-20.7846096908265,6.));
#1537=CARTESIAN_POINT('Origin',(10.6,-10.5,6.));
#1538=CARTESIAN_POINT('',(10.6,1.5,7.2));
#1539=CARTESIAN_POINT('',(10.6,1.5,6.));
#1540=CARTESIAN_POINT('',(10.6,1.5,6.));
#1541=CARTESIAN_POINT('',(10.6,-1.5,7.2));
#1542=CARTESIAN_POINT('',(10.6,-5.25,7.2));
#1543=CARTESIAN_POINT('',(10.6,-1.5,6.));
#1544=CARTESIAN_POINT('',(10.6,-1.5,6.));
#1545=CARTESIAN_POINT('',(10.6,-10.5,6.));
#1546=CARTESIAN_POINT('',(10.6,-5.25,6.));
#1547=CARTESIAN_POINT('',(10.6,-10.5,15.5));
#1548=CARTESIAN_POINT('',(10.6,-10.5,6.));
#1549=CARTESIAN_POINT('',(10.6,10.5,15.5));
#1550=CARTESIAN_POINT('',(10.6,-5.25,15.5));
#1551=CARTESIAN_POINT('',(10.6,10.5,6.));
#1552=CARTESIAN_POINT('',(10.6,10.5,6.));
#1553=CARTESIAN_POINT('',(10.6,-5.25,6.));
#1554=CARTESIAN_POINT('Origin',(-31.,10.5,6.));
#1555=CARTESIAN_POINT('',(-31.,-10.5,10.));
#1556=CARTESIAN_POINT('',(-31.,10.5,10.));
#1557=CARTESIAN_POINT('',(-31.,5.25,10.));
#1558=CARTESIAN_POINT('',(-31.,-10.5,6.));
#1559=CARTESIAN_POINT('',(-31.,-10.5,6.));
#1560=CARTESIAN_POINT('',(-31.,-1.5,6.));
#1561=CARTESIAN_POINT('',(-31.,5.25,6.));
#1562=CARTESIAN_POINT('',(-31.,-1.5,7.2));
#1563=CARTESIAN_POINT('',(-31.,-1.5,6.));
#1564=CARTESIAN_POINT('',(-31.,1.5,7.2));
#1565=CARTESIAN_POINT('',(-31.,5.25,7.2));
#1566=CARTESIAN_POINT('',(-31.,1.5,6.));
#1567=CARTESIAN_POINT('',(-31.,1.5,6.));
#1568=CARTESIAN_POINT('',(-31.,10.5,6.));
#1569=CARTESIAN_POINT('',(-31.,5.25,6.));
#1570=CARTESIAN_POINT('',(-31.,10.5,6.));
#1571=CARTESIAN_POINT('Origin',(0.,0.,15.5));
#1572=CARTESIAN_POINT('',(-28.1024909927928,10.5,15.5));
#1573=CARTESIAN_POINT('',(5.3,10.5,15.5));
#1574=CARTESIAN_POINT('',(-28.1024909927928,-10.5,15.5));
#1575=CARTESIAN_POINT('',(-15.5,-10.5,15.5));
#1576=CARTESIAN_POINT('Origin',(0.,0.,15.5));
#1577=CARTESIAN_POINT('Origin',(-10.,0.,6.));
#1578=CARTESIAN_POINT('',(-37.3,1.5,6.));
#1579=CARTESIAN_POINT('',(3.65,1.5,6.));
#1580=CARTESIAN_POINT('',(-37.3,10.5,6.));
#1581=CARTESIAN_POINT('',(-37.3,10.5,6.));
#1582=CARTESIAN_POINT('',(17.3,10.5,6.));
#1583=CARTESIAN_POINT('Origin',(17.3,1.5,6.));
#1584=CARTESIAN_POINT('',(-37.3,1.5,7.2));
#1585=CARTESIAN_POINT('',(17.3,1.5,7.2));
#1586=CARTESIAN_POINT('',(-37.3,1.5,6.));
#1587=CARTESIAN_POINT('Origin',(17.3,1.5,6.));
#1588=CARTESIAN_POINT('',(17.3,1.5,6.));
#1589=CARTESIAN_POINT('',(3.65,1.5,6.));
#1590=CARTESIAN_POINT('',(17.3,1.5,7.2));
#1591=CARTESIAN_POINT('',(17.3,1.5,6.));
#1592=CARTESIAN_POINT('',(17.3,1.5,7.2));
#1593=CARTESIAN_POINT('Origin',(-10.,0.,6.));
#1594=CARTESIAN_POINT('',(-37.3,-10.5,6.));
#1595=CARTESIAN_POINT('',(-37.3,-10.5,6.));
#1596=CARTESIAN_POINT('',(-37.3,-1.5,6.));
#1597=CARTESIAN_POINT('',(-37.3,10.5,6.));
#1598=CARTESIAN_POINT('',(-23.65,-1.5,6.));
#1599=CARTESIAN_POINT('Origin',(-10.,0.,6.));
#1600=CARTESIAN_POINT('',(17.3,-1.5,6.));
#1601=CARTESIAN_POINT('',(-23.65,-1.5,6.));
#1602=CARTESIAN_POINT('',(17.3,-10.5,6.));
#1603=CARTESIAN_POINT('',(17.3,-10.5,6.));
#1604=CARTESIAN_POINT('',(-37.3,-10.5,6.));
#1605=CARTESIAN_POINT('Origin',(-10.,0.,7.2));
#1606=CARTESIAN_POINT('',(-37.3,-1.5,7.2));
#1607=CARTESIAN_POINT('',(-37.3,-1.5,7.2));
#1608=CARTESIAN_POINT('',(-37.3,1.5,7.2));
#1609=CARTESIAN_POINT('Origin',(-37.3,-1.5,6.));
#1610=CARTESIAN_POINT('',(-37.3,-1.5,6.));
#1611=CARTESIAN_POINT('Origin',(-37.3,-1.5,6.));
#1612=CARTESIAN_POINT('',(17.3,-1.5,7.2));
#1613=CARTESIAN_POINT('',(-37.3,-1.5,7.2));
#1614=CARTESIAN_POINT('',(17.3,-1.5,6.));
#1615=CARTESIAN_POINT('Origin',(-10.,0.,7.2));
#1616=CARTESIAN_POINT('',(17.3,-1.5,7.2));
#1617=CARTESIAN_POINT('Origin',(-10.,0.,6.));
#1618=CARTESIAN_POINT('',(17.3,10.5,6.));
#1619=CARTESIAN_POINT('',(17.3,10.5,6.));
#1620=CARTESIAN_POINT('',(17.3,-10.5,6.));
#1621=CARTESIAN_POINT('Origin',(17.3,10.5,4.));
#1622=CARTESIAN_POINT('',(17.3,10.5,4.));
#1623=CARTESIAN_POINT('',(-37.3,10.5,4.));
#1624=CARTESIAN_POINT('',(8.65,10.5,4.));
#1625=CARTESIAN_POINT('',(17.3,10.5,4.));
#1626=CARTESIAN_POINT('',(-28.1024909927928,10.5,10.));
#1627=CARTESIAN_POINT('',(-28.1024909927928,10.5,4.));
#1628=CARTESIAN_POINT('',(-4.325,10.5,10.));
#1629=CARTESIAN_POINT('',(-37.3,10.5,4.));
#1630=CARTESIAN_POINT('Origin',(17.3,-10.5,4.));
#1631=CARTESIAN_POINT('',(17.3,-10.5,4.));
#1632=CARTESIAN_POINT('',(17.3,-5.25,4.));
#1633=CARTESIAN_POINT('',(17.3,-10.5,4.));
#1634=CARTESIAN_POINT('Origin',(-37.3,-10.5,4.));
#1635=CARTESIAN_POINT('',(-37.3,-10.5,4.));
#1636=CARTESIAN_POINT('',(-18.65,-10.5,4.));
#1637=CARTESIAN_POINT('',(-37.3,-10.5,4.));
#1638=CARTESIAN_POINT('',(-28.1024909927928,-10.5,10.));
#1639=CARTESIAN_POINT('',(-25.125,-10.5,10.));
#1640=CARTESIAN_POINT('',(-28.1024909927928,-10.5,4.));
#1641=CARTESIAN_POINT('Origin',(-37.3,10.5,4.));
#1642=CARTESIAN_POINT('',(-37.3,5.25,4.));
#1643=CARTESIAN_POINT('Origin',(-19.25,0.,10.));
#1644=CARTESIAN_POINT('',(-26.7908566492376,13.5,10.));
#1645=CARTESIAN_POINT('Origin',(0.,0.,10.));
#1646=CARTESIAN_POINT('',(-41.,13.5,10.));
#1647=CARTESIAN_POINT('',(20.5,13.5,10.));
#1648=CARTESIAN_POINT('',(-41.,9.00000000000001,10.));
#1649=CARTESIAN_POINT('',(-41.,13.5,10.));
#1650=CARTESIAN_POINT('',(-59.,9.00000000000001,10.));
#1651=CARTESIAN_POINT('',(-28.,9.,10.));
#1652=CARTESIAN_POINT('',(-59.,-8.99999999999999,10.));
#1653=CARTESIAN_POINT('',(-59.,9.00000000000001,10.));
#1654=CARTESIAN_POINT('',(-41.,-8.99999999999999,10.));
#1655=CARTESIAN_POINT('',(-59.,-8.99999999999999,10.));
#1656=CARTESIAN_POINT('',(-41.,-13.5,10.));
#1657=CARTESIAN_POINT('',(-41.,13.5,10.));
#1658=CARTESIAN_POINT('',(-26.7908566492376,-13.5,10.));
#1659=CARTESIAN_POINT('',(-41.,-13.5,10.));
#1660=CARTESIAN_POINT('Origin',(0.,0.,10.));
#1661=CARTESIAN_POINT('Origin',(20.5,13.5,4.));
#1662=CARTESIAN_POINT('',(-26.7908566492376,13.5,4.));
#1663=CARTESIAN_POINT('',(-26.7908566492376,13.5,4.));
#1664=CARTESIAN_POINT('',(-41.,13.5,4.));
#1665=CARTESIAN_POINT('',(20.5,13.5,4.));
#1666=CARTESIAN_POINT('',(-41.,13.5,4.));
#1667=CARTESIAN_POINT('Origin',(-59.,9.00000000000001,4.));
#1668=CARTESIAN_POINT('',(-59.,9.00000000000001,4.));
#1669=CARTESIAN_POINT('',(-59.,-8.99999999999999,4.));
#1670=CARTESIAN_POINT('',(-59.,9.00000000000001,4.));
#1671=CARTESIAN_POINT('',(-59.,-8.99999999999999,4.));
#1672=CARTESIAN_POINT('',(-59.,9.00000000000001,4.));
#1673=CARTESIAN_POINT('Origin',(-41.,9.00000000000001,4.));
#1674=CARTESIAN_POINT('',(-41.,9.00000000000001,4.));
#1675=CARTESIAN_POINT('',(-28.,9.,4.));
#1676=CARTESIAN_POINT('',(-41.,9.00000000000001,4.));
#1677=CARTESIAN_POINT('Origin',(-41.,13.5,4.));
#1678=CARTESIAN_POINT('',(-41.,13.5,4.));
#1679=CARTESIAN_POINT('Origin',(-41.,-13.5,4.));
#1680=CARTESIAN_POINT('',(-26.7908566492376,-13.5,4.));
#1681=CARTESIAN_POINT('',(-26.7908566492376,-13.5,4.));
#1682=CARTESIAN_POINT('',(-41.,-13.5,4.));
#1683=CARTESIAN_POINT('',(-41.,-13.5,4.));
#1684=CARTESIAN_POINT('',(-41.,-13.5,4.));
#1685=CARTESIAN_POINT('Origin',(-41.,-8.99999999999999,4.));
#1686=CARTESIAN_POINT('',(-41.,-8.99999999999999,4.));
#1687=CARTESIAN_POINT('',(-41.,13.5,4.));
#1688=CARTESIAN_POINT('',(-41.,-8.99999999999999,4.));
#1689=CARTESIAN_POINT('Origin',(-59.,-8.99999999999999,4.));
#1690=CARTESIAN_POINT('',(-59.,-8.99999999999999,4.));
#1691=CARTESIAN_POINT('Origin',(0.,0.,4.));
#1692=CARTESIAN_POINT('',(6.51485938719424,29.2840674627875,4.));
#1693=CARTESIAN_POINT('Origin',(0.,0.,4.));
#1694=CARTESIAN_POINT('',(21.7057713659401,55.5954988232819,4.));
#1695=CARTESIAN_POINT('',(21.7057713659401,55.5954988232819,4.));
#1696=CARTESIAN_POINT('',(37.29422863406,46.5954988232819,4.));
#1697=CARTESIAN_POINT('',(37.29422863406,46.5954988232819,4.));
#1698=CARTESIAN_POINT('',(22.1033166553141,20.2840674627875,4.));
#1699=CARTESIAN_POINT('',(21.79422863406,19.7487113059643,4.));
#1700=CARTESIAN_POINT('',(22.1033166553141,-20.2840674627875,4.));
#1701=CARTESIAN_POINT('Origin',(0.,0.,4.));
#1702=CARTESIAN_POINT('',(37.29422863406,-46.5954988232819,4.));
#1703=CARTESIAN_POINT('',(37.29422863406,-46.5954988232819,4.));
#1704=CARTESIAN_POINT('',(21.7057713659401,-55.5954988232819,4.));
#1705=CARTESIAN_POINT('',(21.7057713659401,-55.5954988232819,4.));
#1706=CARTESIAN_POINT('',(6.51485938719424,-29.2840674627875,4.));
#1707=CARTESIAN_POINT('',(6.20577136594006,-28.7487113059643,4.));
#1708=CARTESIAN_POINT('Origin',(0.,0.,4.));
#1709=CARTESIAN_POINT('Origin',(21.75,-37.6721050646231,10.));
#1710=CARTESIAN_POINT('',(6.51485938719424,-29.2840674627875,10.));
#1711=CARTESIAN_POINT('Origin',(0.,0.,10.));
#1712=CARTESIAN_POINT('',(21.7057713659401,-55.5954988232819,10.));
#1713=CARTESIAN_POINT('',(6.20577136594006,-28.7487113059643,10.));
#1714=CARTESIAN_POINT('',(37.29422863406,-46.5954988232819,10.));
#1715=CARTESIAN_POINT('',(21.7057713659401,-55.5954988232819,10.));
#1716=CARTESIAN_POINT('',(22.1033166553141,-20.2840674627875,10.));
#1717=CARTESIAN_POINT('',(37.29422863406,-46.5954988232819,10.));
#1718=CARTESIAN_POINT('Origin',(0.,0.,10.));
#1719=CARTESIAN_POINT('Origin',(6.20577136594006,-28.7487113059643,4.));
#1720=CARTESIAN_POINT('',(6.51485938719424,-29.2840674627875,4.));
#1721=CARTESIAN_POINT('',(21.7057713659401,-55.5954988232819,4.));
#1722=CARTESIAN_POINT('Origin',(37.29422863406,-46.5954988232819,4.));
#1723=CARTESIAN_POINT('',(22.1033166553141,-20.2840674627875,4.));
#1724=CARTESIAN_POINT('',(37.29422863406,-46.5954988232819,4.));
#1725=CARTESIAN_POINT('Origin',(21.7057713659401,-55.5954988232819,4.));
#1726=CARTESIAN_POINT('Origin',(21.7057713659401,55.5954988232819,4.));
#1727=CARTESIAN_POINT('',(6.51485938719424,29.2840674627875,10.));
#1728=CARTESIAN_POINT('',(6.51485938719424,29.2840674627875,4.));
#1729=CARTESIAN_POINT('',(21.7057713659401,55.5954988232819,10.));
#1730=CARTESIAN_POINT('',(21.7057713659401,55.5954988232819,10.));
#1731=CARTESIAN_POINT('',(21.7057713659401,55.5954988232819,4.));
#1732=CARTESIAN_POINT('Origin',(21.75,37.6721050646231,10.));
#1733=CARTESIAN_POINT('',(22.1033166553141,20.2840674627875,10.));
#1734=CARTESIAN_POINT('Origin',(0.,0.,10.));
#1735=CARTESIAN_POINT('',(37.2942286340599,46.5954988232819,10.));
#1736=CARTESIAN_POINT('',(21.79422863406,19.7487113059643,10.));
#1737=CARTESIAN_POINT('',(37.29422863406,46.5954988232819,10.));
#1738=CARTESIAN_POINT('Origin',(0.,0.,10.));
#1739=CARTESIAN_POINT('Origin',(21.79422863406,19.7487113059643,4.));
#1740=CARTESIAN_POINT('',(22.1033166553141,20.2840674627874,4.));
#1741=CARTESIAN_POINT('',(37.29422863406,46.5954988232819,4.));
#1742=CARTESIAN_POINT('Origin',(37.29422863406,46.5954988232819,4.));
#1743=CARTESIAN_POINT('Origin',(0.,0.,4.));
#1744=UNCERTAINTY_MEASURE_WITH_UNIT(LENGTH_MEASURE(0.01),#1748,
'DISTANCE_ACCURACY_VALUE',
'Maximum model space distance between geometric entities at asserted c
onnectivities');
#1745=UNCERTAINTY_MEASURE_WITH_UNIT(LENGTH_MEASURE(0.01),#1748,
'DISTANCE_ACCURACY_VALUE',
'Maximum model space distance between geometric entities at asserted c
onnectivities');
#1746=(
GEOMETRIC_REPRESENTATION_CONTEXT(3)
GLOBAL_UNCERTAINTY_ASSIGNED_CONTEXT((#1744))
GLOBAL_UNIT_ASSIGNED_CONTEXT((#1748,#1750,#1751))
REPRESENTATION_CONTEXT('','3D')
);
#1747=(
GEOMETRIC_REPRESENTATION_CONTEXT(3)
GLOBAL_UNCERTAINTY_ASSIGNED_CONTEXT((#1745))
GLOBAL_UNIT_ASSIGNED_CONTEXT((#1748,#1750,#1751))
REPRESENTATION_CONTEXT('','3D')
);
#1748=(
LENGTH_UNIT()
NAMED_UNIT(*)
SI_UNIT(.MILLI.,.METRE.)
);
#1749=(
LENGTH_UNIT()
NAMED_UNIT(*)
SI_UNIT($,.METRE.)
);
#1750=(
NAMED_UNIT(*)
PLANE_ANGLE_UNIT()
SI_UNIT($,.RADIAN.)
);
#1751=(
NAMED_UNIT(*)
SI_UNIT($,.STERADIAN.)
SOLID_ANGLE_UNIT()
);
#1752=SHAPE_DEFINITION_REPRESENTATION(#1753,#1754);
#1753=PRODUCT_DEFINITION_SHAPE('',$,#1756);
#1754=SHAPE_REPRESENTATION('',(#1062),#1746);
#1755=PRODUCT_DEFINITION_CONTEXT('part definition',#1760,'design');
#1756=PRODUCT_DEFINITION('Smart Bin - pan ring',
'Smart Bin - pan ring v4',#1757,#1755);
#1757=PRODUCT_DEFINITION_FORMATION('',$,#1762);
#1758=PRODUCT_RELATED_PRODUCT_CATEGORY('Smart Bin - pan ring v4',
'Smart Bin - pan ring v4',(#1762));
#1759=APPLICATION_PROTOCOL_DEFINITION('international standard',
'automotive_design',2009,#1760);
#1760=APPLICATION_CONTEXT(
'Core Data for Automotive Mechanical Design Process');
#1761=PRODUCT_CONTEXT('part definition',#1760,'mechanical');
#1762=PRODUCT('Smart Bin - pan ring','Smart Bin - pan ring v4',$,(#1761));
#1763=PRESENTATION_STYLE_ASSIGNMENT((#1764));
#1764=SURFACE_STYLE_USAGE(.BOTH.,#1765);
#1765=SURFACE_SIDE_STYLE('',(#1766));
#1766=SURFACE_STYLE_FILL_AREA(#1767);
#1767=FILL_AREA_STYLE('Steel - Satin',(#1768));
#1768=FILL_AREA_STYLE_COLOUR('Steel - Satin',#1769);
#1769=COLOUR_RGB('Steel - Satin',0.627450980392157,0.627450980392157,0.627450980392157);
ENDSEC;
END-ISO-10303-21;
