ISO-10303-21;
HEADER;
/* Generated by software containing ST-Developer
 * from STEP Tools, Inc. (www.steptools.com) 
 */

FILE_DESCRIPTION(
/* description */ (''),
/* implementation_level */ '2;1');

FILE_NAME(
/* name */ 'plate.step',
/* time_stamp */ '2026-08-11T22:47:14+10:00',
/* author */ (''),
/* organization */ (''),
/* preprocessor_version */ 'ST-DEVELOPER v20.1',
/* originating_system */ 'Autodesk Translation Framework v15.8.0.0',
/* authorisation */ '');

FILE_SCHEMA (('AUTOMOTIVE_DESIGN { 1 0 10303 214 3 1 1 }'));
ENDSEC;

DATA;
#10=MECHANICAL_DESIGN_GEOMETRIC_PRESENTATION_REPRESENTATION('',(#13),#1510);
#11=SHAPE_REPRESENTATION_RELATIONSHIP('SRR','None',#1517,#12);
#12=ADVANCED_BREP_SHAPE_REPRESENTATION('',(#14),#1509);
#13=STYLED_ITEM('',(#1526),#14);
#14=MANIFOLD_SOLID_BREP('Body2',#900);
#15=FACE_BOUND('',#138,.T.);
#16=FACE_BOUND('',#139,.T.);
#17=FACE_BOUND('',#140,.T.);
#18=FACE_BOUND('',#141,.T.);
#19=FACE_BOUND('',#142,.T.);
#20=FACE_BOUND('',#143,.T.);
#21=FACE_BOUND('',#144,.T.);
#22=FACE_BOUND('',#145,.T.);
#23=FACE_BOUND('',#146,.T.);
#24=FACE_BOUND('',#147,.T.);
#25=FACE_BOUND('',#148,.T.);
#26=FACE_BOUND('',#149,.T.);
#27=FACE_BOUND('',#150,.T.);
#28=FACE_BOUND('',#171,.T.);
#29=FACE_BOUND('',#172,.T.);
#30=FACE_BOUND('',#173,.T.);
#31=FACE_BOUND('',#174,.T.);
#32=FACE_BOUND('',#175,.T.);
#33=FACE_BOUND('',#176,.T.);
#34=FACE_BOUND('',#177,.T.);
#35=FACE_BOUND('',#178,.T.);
#36=FACE_BOUND('',#179,.T.);
#37=FACE_BOUND('',#180,.T.);
#38=FACE_BOUND('',#181,.T.);
#39=FACE_BOUND('',#182,.T.);
#40=FACE_BOUND('',#183,.T.);
#41=PLANE('',#953);
#42=PLANE('',#954);
#43=PLANE('',#955);
#44=PLANE('',#956);
#45=PLANE('',#957);
#46=PLANE('',#958);
#47=PLANE('',#968);
#48=PLANE('',#975);
#49=PLANE('',#976);
#50=PLANE('',#981);
#51=PLANE('',#982);
#52=PLANE('',#985);
#53=PLANE('',#986);
#54=PLANE('',#987);
#55=PLANE('',#990);
#56=PLANE('',#991);
#57=PLANE('',#992);
#58=PLANE('',#995);
#59=PLANE('',#996);
#60=PLANE('',#997);
#61=PLANE('',#1000);
#62=CONICAL_SURFACE('',#923,0.17,0.694606135708703);
#63=CONICAL_SURFACE('',#926,0.17,0.694606135708703);
#64=CONICAL_SURFACE('',#929,0.17,0.694606135708703);
#65=CONICAL_SURFACE('',#932,0.17,0.694606135708703);
#66=CONICAL_SURFACE('',#935,0.17,0.694606135708703);
#67=CONICAL_SURFACE('',#938,0.17,0.694606135708703);
#68=FACE_OUTER_BOUND('',#113,.T.);
#69=FACE_OUTER_BOUND('',#114,.T.);
#70=FACE_OUTER_BOUND('',#115,.T.);
#71=FACE_OUTER_BOUND('',#116,.T.);
#72=FACE_OUTER_BOUND('',#117,.T.);
#73=FACE_OUTER_BOUND('',#118,.T.);
#74=FACE_OUTER_BOUND('',#119,.T.);
#75=FACE_OUTER_BOUND('',#120,.T.);
#76=FACE_OUTER_BOUND('',#121,.T.);
#77=FACE_OUTER_BOUND('',#122,.T.);
#78=FACE_OUTER_BOUND('',#123,.T.);
#79=FACE_OUTER_BOUND('',#124,.T.);
#80=FACE_OUTER_BOUND('',#125,.T.);
#81=FACE_OUTER_BOUND('',#126,.T.);
#82=FACE_OUTER_BOUND('',#127,.T.);
#83=FACE_OUTER_BOUND('',#128,.T.);
#84=FACE_OUTER_BOUND('',#129,.T.);
#85=FACE_OUTER_BOUND('',#130,.T.);
#86=FACE_OUTER_BOUND('',#131,.T.);
#87=FACE_OUTER_BOUND('',#132,.T.);
#88=FACE_OUTER_BOUND('',#133,.T.);
#89=FACE_OUTER_BOUND('',#134,.T.);
#90=FACE_OUTER_BOUND('',#135,.T.);
#91=FACE_OUTER_BOUND('',#136,.T.);
#92=FACE_OUTER_BOUND('',#137,.T.);
#93=FACE_OUTER_BOUND('',#151,.T.);
#94=FACE_OUTER_BOUND('',#152,.T.);
#95=FACE_OUTER_BOUND('',#153,.T.);
#96=FACE_OUTER_BOUND('',#154,.T.);
#97=FACE_OUTER_BOUND('',#155,.T.);
#98=FACE_OUTER_BOUND('',#156,.T.);
#99=FACE_OUTER_BOUND('',#157,.T.);
#100=FACE_OUTER_BOUND('',#158,.T.);
#101=FACE_OUTER_BOUND('',#159,.T.);
#102=FACE_OUTER_BOUND('',#160,.T.);
#103=FACE_OUTER_BOUND('',#161,.T.);
#104=FACE_OUTER_BOUND('',#162,.T.);
#105=FACE_OUTER_BOUND('',#163,.T.);
#106=FACE_OUTER_BOUND('',#164,.T.);
#107=FACE_OUTER_BOUND('',#165,.T.);
#108=FACE_OUTER_BOUND('',#166,.T.);
#109=FACE_OUTER_BOUND('',#167,.T.);
#110=FACE_OUTER_BOUND('',#168,.T.);
#111=FACE_OUTER_BOUND('',#169,.T.);
#112=FACE_OUTER_BOUND('',#170,.T.);
#113=EDGE_LOOP('',(#591,#592,#593,#594));
#114=EDGE_LOOP('',(#595,#596,#597,#598));
#115=EDGE_LOOP('',(#599,#600,#601,#602));
#116=EDGE_LOOP('',(#603,#604,#605,#606));
#117=EDGE_LOOP('',(#607,#608,#609,#610));
#118=EDGE_LOOP('',(#611,#612,#613,#614));
#119=EDGE_LOOP('',(#615,#616,#617,#618));
#120=EDGE_LOOP('',(#619,#620,#621,#622));
#121=EDGE_LOOP('',(#623,#624,#625,#626));
#122=EDGE_LOOP('',(#627,#628,#629,#630));
#123=EDGE_LOOP('',(#631,#632,#633,#634));
#124=EDGE_LOOP('',(#635,#636,#637,#638));
#125=EDGE_LOOP('',(#639,#640,#641,#642));
#126=EDGE_LOOP('',(#643,#644,#645,#646));
#127=EDGE_LOOP('',(#647,#648,#649,#650));
#128=EDGE_LOOP('',(#651,#652,#653,#654));
#129=EDGE_LOOP('',(#655,#656,#657,#658));
#130=EDGE_LOOP('',(#659,#660,#661,#662));
#131=EDGE_LOOP('',(#663,#664,#665,#666));
#132=EDGE_LOOP('',(#667,#668,#669,#670));
#133=EDGE_LOOP('',(#671,#672,#673,#674));
#134=EDGE_LOOP('',(#675,#676,#677,#678));
#135=EDGE_LOOP('',(#679,#680,#681,#682));
#136=EDGE_LOOP('',(#683,#684,#685,#686));
#137=EDGE_LOOP('',(#687,#688,#689,#690,#691,#692,#693,#694,#695,#696,#697,
#698));
#138=EDGE_LOOP('',(#699));
#139=EDGE_LOOP('',(#700));
#140=EDGE_LOOP('',(#701));
#141=EDGE_LOOP('',(#702));
#142=EDGE_LOOP('',(#703));
#143=EDGE_LOOP('',(#704));
#144=EDGE_LOOP('',(#705,#706,#707,#708));
#145=EDGE_LOOP('',(#709,#710,#711,#712));
#146=EDGE_LOOP('',(#713,#714,#715,#716));
#147=EDGE_LOOP('',(#717,#718,#719,#720));
#148=EDGE_LOOP('',(#721));
#149=EDGE_LOOP('',(#722));
#150=EDGE_LOOP('',(#723));
#151=EDGE_LOOP('',(#724,#725,#726,#727));
#152=EDGE_LOOP('',(#728,#729,#730,#731));
#153=EDGE_LOOP('',(#732,#733,#734,#735));
#154=EDGE_LOOP('',(#736,#737,#738,#739));
#155=EDGE_LOOP('',(#740,#741,#742,#743));
#156=EDGE_LOOP('',(#744,#745,#746,#747));
#157=EDGE_LOOP('',(#748,#749,#750,#751));
#158=EDGE_LOOP('',(#752,#753,#754,#755));
#159=EDGE_LOOP('',(#756,#757,#758,#759));
#160=EDGE_LOOP('',(#760,#761,#762,#763));
#161=EDGE_LOOP('',(#764,#765,#766,#767));
#162=EDGE_LOOP('',(#768,#769,#770,#771));
#163=EDGE_LOOP('',(#772,#773,#774,#775));
#164=EDGE_LOOP('',(#776,#777,#778,#779));
#165=EDGE_LOOP('',(#780,#781,#782,#783));
#166=EDGE_LOOP('',(#784,#785,#786,#787));
#167=EDGE_LOOP('',(#788,#789,#790,#791));
#168=EDGE_LOOP('',(#792,#793,#794,#795));
#169=EDGE_LOOP('',(#796,#797,#798,#799));
#170=EDGE_LOOP('',(#800,#801,#802,#803,#804,#805,#806,#807,#808,#809,#810,
#811));
#171=EDGE_LOOP('',(#812));
#172=EDGE_LOOP('',(#813));
#173=EDGE_LOOP('',(#814));
#174=EDGE_LOOP('',(#815));
#175=EDGE_LOOP('',(#816));
#176=EDGE_LOOP('',(#817));
#177=EDGE_LOOP('',(#818,#819,#820,#821));
#178=EDGE_LOOP('',(#822,#823,#824,#825));
#179=EDGE_LOOP('',(#826,#827,#828,#829));
#180=EDGE_LOOP('',(#830,#831,#832,#833));
#181=EDGE_LOOP('',(#834));
#182=EDGE_LOOP('',(#835));
#183=EDGE_LOOP('',(#836));
#184=LINE('',#1263,#265);
#185=LINE('',#1269,#266);
#186=LINE('',#1275,#267);
#187=LINE('',#1281,#268);
#188=LINE('',#1287,#269);
#189=LINE('',#1293,#270);
#190=LINE('',#1299,#271);
#191=LINE('',#1305,#272);
#192=LINE('',#1311,#273);
#193=LINE('',#1316,#274);
#194=LINE('',#1320,#275);
#195=LINE('',#1324,#276);
#196=LINE('',#1328,#277);
#197=LINE('',#1332,#278);
#198=LINE('',#1336,#279);
#199=LINE('',#1340,#280);
#200=LINE('',#1342,#281);
#201=LINE('',#1344,#282);
#202=LINE('',#1345,#283);
#203=LINE('',#1348,#284);
#204=LINE('',#1350,#285);
#205=LINE('',#1351,#286);
#206=LINE('',#1354,#287);
#207=LINE('',#1356,#288);
#208=LINE('',#1357,#289);
#209=LINE('',#1359,#290);
#210=LINE('',#1360,#291);
#211=LINE('',#1364,#292);
#212=LINE('',#1366,#293);
#213=LINE('',#1368,#294);
#214=LINE('',#1369,#295);
#215=LINE('',#1373,#296);
#216=LINE('',#1375,#297);
#217=LINE('',#1377,#298);
#218=LINE('',#1378,#299);
#219=LINE('',#1383,#300);
#220=LINE('',#1389,#301);
#221=LINE('',#1395,#302);
#222=LINE('',#1402,#303);
#223=LINE('',#1404,#304);
#224=LINE('',#1406,#305);
#225=LINE('',#1410,#306);
#226=LINE('',#1412,#307);
#227=LINE('',#1414,#308);
#228=LINE('',#1418,#309);
#229=LINE('',#1420,#310);
#230=LINE('',#1421,#311);
#231=LINE('',#1422,#312);
#232=LINE('',#1427,#313);
#233=LINE('',#1430,#314);
#234=LINE('',#1432,#315);
#235=LINE('',#1435,#316);
#236=LINE('',#1438,#317);
#237=LINE('',#1440,#318);
#238=LINE('',#1441,#319);
#239=LINE('',#1445,#320);
#240=LINE('',#1448,#321);
#241=LINE('',#1451,#322);
#242=LINE('',#1454,#323);
#243=LINE('',#1455,#324);
#244=LINE('',#1458,#325);
#245=LINE('',#1461,#326);
#246=LINE('',#1464,#327);
#247=LINE('',#1465,#328);
#248=LINE('',#1468,#329);
#249=LINE('',#1469,#330);
#250=LINE('',#1472,#331);
#251=LINE('',#1473,#332);
#252=LINE('',#1476,#333);
#253=LINE('',#1480,#334);
#254=LINE('',#1481,#335);
#255=LINE('',#1484,#336);
#256=LINE('',#1485,#337);
#257=LINE('',#1488,#338);
#258=LINE('',#1489,#339);
#259=LINE('',#1492,#340);
#260=LINE('',#1496,#341);
#261=LINE('',#1497,#342);
#262=LINE('',#1500,#343);
#263=LINE('',#1501,#344);
#264=LINE('',#1503,#345);
#265=VECTOR('',#1007,0.17);
#266=VECTOR('',#1014,0.17);
#267=VECTOR('',#1021,0.17);
#268=VECTOR('',#1028,0.17);
#269=VECTOR('',#1035,0.17);
#270=VECTOR('',#1042,0.17);
#271=VECTOR('',#1049,0.17);
#272=VECTOR('',#1056,0.17);
#273=VECTOR('',#1063,0.17);
#274=VECTOR('',#1070,0.17);
#275=VECTOR('',#1075,0.17);
#276=VECTOR('',#1080,0.17);
#277=VECTOR('',#1085,0.17);
#278=VECTOR('',#1090,0.17);
#279=VECTOR('',#1095,0.17);
#280=VECTOR('',#1098,1.);
#281=VECTOR('',#1099,1.);
#282=VECTOR('',#1100,1.);
#283=VECTOR('',#1101,1.);
#284=VECTOR('',#1104,1.);
#285=VECTOR('',#1105,1.);
#286=VECTOR('',#1106,1.);
#287=VECTOR('',#1109,1.);
#288=VECTOR('',#1110,1.);
#289=VECTOR('',#1111,1.);
#290=VECTOR('',#1114,1.);
#291=VECTOR('',#1115,1.);
#292=VECTOR('',#1118,1.);
#293=VECTOR('',#1119,1.);
#294=VECTOR('',#1120,1.);
#295=VECTOR('',#1121,1.);
#296=VECTOR('',#1124,1.);
#297=VECTOR('',#1125,1.);
#298=VECTOR('',#1126,1.);
#299=VECTOR('',#1127,1.);
#300=VECTOR('',#1132,1.);
#301=VECTOR('',#1139,1.);
#302=VECTOR('',#1146,1.);
#303=VECTOR('',#1153,1.);
#304=VECTOR('',#1154,1.);
#305=VECTOR('',#1155,1.);
#306=VECTOR('',#1158,1.);
#307=VECTOR('',#1159,1.);
#308=VECTOR('',#1160,1.);
#309=VECTOR('',#1163,1.);
#310=VECTOR('',#1164,1.);
#311=VECTOR('',#1165,1.);
#312=VECTOR('',#1166,1.);
#313=VECTOR('',#1169,1.);
#314=VECTOR('',#1172,1.);
#315=VECTOR('',#1173,1.);
#316=VECTOR('',#1178,1.);
#317=VECTOR('',#1181,1.);
#318=VECTOR('',#1182,1.);
#319=VECTOR('',#1183,1.);
#320=VECTOR('',#1188,1.);
#321=VECTOR('',#1191,1.);
#322=VECTOR('',#1196,1.);
#323=VECTOR('',#1199,1.);
#324=VECTOR('',#1200,1.);
#325=VECTOR('',#1203,1.);
#326=VECTOR('',#1206,1.);
#327=VECTOR('',#1209,1.);
#328=VECTOR('',#1210,1.);
#329=VECTOR('',#1213,1.);
#330=VECTOR('',#1214,1.);
#331=VECTOR('',#1217,1.);
#332=VECTOR('',#1218,1.);
#333=VECTOR('',#1221,1.);
#334=VECTOR('',#1226,1.);
#335=VECTOR('',#1227,1.);
#336=VECTOR('',#1230,1.);
#337=VECTOR('',#1231,1.);
#338=VECTOR('',#1234,1.);
#339=VECTOR('',#1235,1.);
#340=VECTOR('',#1238,1.);
#341=VECTOR('',#1243,1.);
#342=VECTOR('',#1244,1.);
#343=VECTOR('',#1247,1.);
#344=VECTOR('',#1248,1.);
#345=VECTOR('',#1251,1.);
#346=CIRCLE('',#915,0.17);
#347=CIRCLE('',#916,0.17);
#348=CIRCLE('',#918,0.17);
#349=CIRCLE('',#919,0.17);
#350=CIRCLE('',#921,0.17);
#351=CIRCLE('',#922,0.17);
#352=CIRCLE('',#924,0.17);
#353=CIRCLE('',#925,0.311628607055776);
#354=CIRCLE('',#927,0.17);
#355=CIRCLE('',#928,0.311628607055776);
#356=CIRCLE('',#930,0.17);
#357=CIRCLE('',#931,0.311628607055776);
#358=CIRCLE('',#933,0.17);
#359=CIRCLE('',#934,0.311628607055776);
#360=CIRCLE('',#936,0.17);
#361=CIRCLE('',#937,0.311628607055776);
#362=CIRCLE('',#939,0.17);
#363=CIRCLE('',#940,0.311628607055776);
#364=CIRCLE('',#942,0.17);
#365=CIRCLE('',#944,0.17);
#366=CIRCLE('',#946,0.17);
#367=CIRCLE('',#948,0.17);
#368=CIRCLE('',#950,0.17);
#369=CIRCLE('',#952,0.17);
#370=CIRCLE('',#960,2.1);
#371=CIRCLE('',#961,2.1);
#372=CIRCLE('',#963,5.6);
#373=CIRCLE('',#964,5.6);
#374=CIRCLE('',#966,5.6);
#375=CIRCLE('',#967,5.6);
#376=CIRCLE('',#969,6.6);
#377=CIRCLE('',#970,6.6);
#378=CIRCLE('',#971,6.6);
#379=CIRCLE('',#972,2.1);
#380=CIRCLE('',#973,5.6);
#381=CIRCLE('',#974,2.1);
#382=CIRCLE('',#978,2.1);
#383=CIRCLE('',#980,5.6);
#384=CIRCLE('',#984,6.6);
#385=CIRCLE('',#989,6.6);
#386=CIRCLE('',#994,6.6);
#387=CIRCLE('',#999,2.1);
#388=VERTEX_POINT('',#1260);
#389=VERTEX_POINT('',#1262);
#390=VERTEX_POINT('',#1266);
#391=VERTEX_POINT('',#1268);
#392=VERTEX_POINT('',#1272);
#393=VERTEX_POINT('',#1274);
#394=VERTEX_POINT('',#1278);
#395=VERTEX_POINT('',#1280);
#396=VERTEX_POINT('',#1284);
#397=VERTEX_POINT('',#1286);
#398=VERTEX_POINT('',#1290);
#399=VERTEX_POINT('',#1292);
#400=VERTEX_POINT('',#1296);
#401=VERTEX_POINT('',#1298);
#402=VERTEX_POINT('',#1302);
#403=VERTEX_POINT('',#1304);
#404=VERTEX_POINT('',#1308);
#405=VERTEX_POINT('',#1310);
#406=VERTEX_POINT('',#1314);
#407=VERTEX_POINT('',#1318);
#408=VERTEX_POINT('',#1322);
#409=VERTEX_POINT('',#1326);
#410=VERTEX_POINT('',#1330);
#411=VERTEX_POINT('',#1334);
#412=VERTEX_POINT('',#1338);
#413=VERTEX_POINT('',#1339);
#414=VERTEX_POINT('',#1341);
#415=VERTEX_POINT('',#1343);
#416=VERTEX_POINT('',#1347);
#417=VERTEX_POINT('',#1349);
#418=VERTEX_POINT('',#1353);
#419=VERTEX_POINT('',#1355);
#420=VERTEX_POINT('',#1362);
#421=VERTEX_POINT('',#1363);
#422=VERTEX_POINT('',#1365);
#423=VERTEX_POINT('',#1367);
#424=VERTEX_POINT('',#1371);
#425=VERTEX_POINT('',#1372);
#426=VERTEX_POINT('',#1374);
#427=VERTEX_POINT('',#1376);
#428=VERTEX_POINT('',#1380);
#429=VERTEX_POINT('',#1382);
#430=VERTEX_POINT('',#1386);
#431=VERTEX_POINT('',#1388);
#432=VERTEX_POINT('',#1392);
#433=VERTEX_POINT('',#1394);
#434=VERTEX_POINT('',#1398);
#435=VERTEX_POINT('',#1399);
#436=VERTEX_POINT('',#1401);
#437=VERTEX_POINT('',#1403);
#438=VERTEX_POINT('',#1405);
#439=VERTEX_POINT('',#1407);
#440=VERTEX_POINT('',#1409);
#441=VERTEX_POINT('',#1411);
#442=VERTEX_POINT('',#1413);
#443=VERTEX_POINT('',#1415);
#444=VERTEX_POINT('',#1417);
#445=VERTEX_POINT('',#1419);
#446=VERTEX_POINT('',#1423);
#447=VERTEX_POINT('',#1424);
#448=VERTEX_POINT('',#1426);
#449=VERTEX_POINT('',#1428);
#450=VERTEX_POINT('',#1431);
#451=VERTEX_POINT('',#1437);
#452=VERTEX_POINT('',#1439);
#453=VERTEX_POINT('',#1443);
#454=VERTEX_POINT('',#1447);
#455=VERTEX_POINT('',#1453);
#456=VERTEX_POINT('',#1457);
#457=VERTEX_POINT('',#1459);
#458=VERTEX_POINT('',#1463);
#459=VERTEX_POINT('',#1467);
#460=VERTEX_POINT('',#1471);
#461=VERTEX_POINT('',#1475);
#462=VERTEX_POINT('',#1479);
#463=VERTEX_POINT('',#1483);
#464=VERTEX_POINT('',#1487);
#465=VERTEX_POINT('',#1491);
#466=VERTEX_POINT('',#1495);
#467=VERTEX_POINT('',#1499);
#468=EDGE_CURVE('',#388,#388,#346,.T.);
#469=EDGE_CURVE('',#388,#389,#184,.T.);
#470=EDGE_CURVE('',#389,#389,#347,.T.);
#471=EDGE_CURVE('',#390,#390,#348,.T.);
#472=EDGE_CURVE('',#390,#391,#185,.T.);
#473=EDGE_CURVE('',#391,#391,#349,.T.);
#474=EDGE_CURVE('',#392,#392,#350,.T.);
#475=EDGE_CURVE('',#392,#393,#186,.T.);
#476=EDGE_CURVE('',#393,#393,#351,.T.);
#477=EDGE_CURVE('',#394,#394,#352,.T.);
#478=EDGE_CURVE('',#394,#395,#187,.T.);
#479=EDGE_CURVE('',#395,#395,#353,.T.);
#480=EDGE_CURVE('',#396,#396,#354,.T.);
#481=EDGE_CURVE('',#396,#397,#188,.T.);
#482=EDGE_CURVE('',#397,#397,#355,.T.);
#483=EDGE_CURVE('',#398,#398,#356,.T.);
#484=EDGE_CURVE('',#398,#399,#189,.T.);
#485=EDGE_CURVE('',#399,#399,#357,.T.);
#486=EDGE_CURVE('',#400,#400,#358,.T.);
#487=EDGE_CURVE('',#400,#401,#190,.T.);
#488=EDGE_CURVE('',#401,#401,#359,.T.);
#489=EDGE_CURVE('',#402,#402,#360,.T.);
#490=EDGE_CURVE('',#402,#403,#191,.T.);
#491=EDGE_CURVE('',#403,#403,#361,.T.);
#492=EDGE_CURVE('',#404,#404,#362,.T.);
#493=EDGE_CURVE('',#404,#405,#192,.T.);
#494=EDGE_CURVE('',#405,#405,#363,.T.);
#495=EDGE_CURVE('',#406,#406,#364,.T.);
#496=EDGE_CURVE('',#406,#394,#193,.T.);
#497=EDGE_CURVE('',#407,#407,#365,.T.);
#498=EDGE_CURVE('',#407,#396,#194,.T.);
#499=EDGE_CURVE('',#408,#408,#366,.T.);
#500=EDGE_CURVE('',#408,#398,#195,.T.);
#501=EDGE_CURVE('',#409,#409,#367,.T.);
#502=EDGE_CURVE('',#409,#400,#196,.T.);
#503=EDGE_CURVE('',#410,#410,#368,.T.);
#504=EDGE_CURVE('',#410,#402,#197,.T.);
#505=EDGE_CURVE('',#411,#411,#369,.T.);
#506=EDGE_CURVE('',#411,#404,#198,.T.);
#507=EDGE_CURVE('',#412,#413,#199,.T.);
#508=EDGE_CURVE('',#412,#414,#200,.T.);
#509=EDGE_CURVE('',#415,#414,#201,.T.);
#510=EDGE_CURVE('',#413,#415,#202,.T.);
#511=EDGE_CURVE('',#416,#412,#203,.T.);
#512=EDGE_CURVE('',#416,#417,#204,.T.);
#513=EDGE_CURVE('',#414,#417,#205,.T.);
#514=EDGE_CURVE('',#418,#416,#206,.T.);
#515=EDGE_CURVE('',#418,#419,#207,.T.);
#516=EDGE_CURVE('',#417,#419,#208,.T.);
#517=EDGE_CURVE('',#413,#418,#209,.T.);
#518=EDGE_CURVE('',#419,#415,#210,.T.);
#519=EDGE_CURVE('',#420,#421,#211,.T.);
#520=EDGE_CURVE('',#422,#420,#212,.T.);
#521=EDGE_CURVE('',#423,#422,#213,.T.);
#522=EDGE_CURVE('',#421,#423,#214,.T.);
#523=EDGE_CURVE('',#424,#425,#215,.T.);
#524=EDGE_CURVE('',#426,#424,#216,.T.);
#525=EDGE_CURVE('',#427,#426,#217,.T.);
#526=EDGE_CURVE('',#425,#427,#218,.T.);
#527=EDGE_CURVE('',#428,#425,#370,.T.);
#528=EDGE_CURVE('',#428,#429,#219,.T.);
#529=EDGE_CURVE('',#424,#429,#371,.T.);
#530=EDGE_CURVE('',#430,#426,#372,.T.);
#531=EDGE_CURVE('',#430,#431,#220,.T.);
#532=EDGE_CURVE('',#427,#431,#373,.T.);
#533=EDGE_CURVE('',#432,#422,#374,.T.);
#534=EDGE_CURVE('',#432,#433,#221,.T.);
#535=EDGE_CURVE('',#423,#433,#375,.T.);
#536=EDGE_CURVE('',#434,#435,#376,.T.);
#537=EDGE_CURVE('',#434,#436,#222,.T.);
#538=EDGE_CURVE('',#436,#437,#223,.T.);
#539=EDGE_CURVE('',#437,#438,#224,.T.);
#540=EDGE_CURVE('',#439,#438,#377,.T.);
#541=EDGE_CURVE('',#439,#440,#225,.T.);
#542=EDGE_CURVE('',#440,#441,#226,.T.);
#543=EDGE_CURVE('',#441,#442,#227,.T.);
#544=EDGE_CURVE('',#443,#442,#378,.T.);
#545=EDGE_CURVE('',#443,#444,#228,.T.);
#546=EDGE_CURVE('',#444,#445,#229,.T.);
#547=EDGE_CURVE('',#445,#435,#230,.T.);
#548=EDGE_CURVE('',#429,#430,#231,.T.);
#549=EDGE_CURVE('',#446,#447,#379,.T.);
#550=EDGE_CURVE('',#447,#448,#232,.T.);
#551=EDGE_CURVE('',#448,#449,#380,.T.);
#552=EDGE_CURVE('',#449,#446,#233,.T.);
#553=EDGE_CURVE('',#433,#450,#234,.T.);
#554=EDGE_CURVE('',#450,#421,#381,.T.);
#555=EDGE_CURVE('',#431,#428,#235,.T.);
#556=EDGE_CURVE('',#446,#451,#236,.T.);
#557=EDGE_CURVE('',#452,#449,#237,.T.);
#558=EDGE_CURVE('',#451,#452,#238,.T.);
#559=EDGE_CURVE('',#453,#451,#382,.T.);
#560=EDGE_CURVE('',#453,#447,#239,.T.);
#561=EDGE_CURVE('',#448,#454,#240,.T.);
#562=EDGE_CURVE('',#452,#454,#383,.T.);
#563=EDGE_CURVE('',#454,#453,#241,.T.);
#564=EDGE_CURVE('',#450,#455,#242,.T.);
#565=EDGE_CURVE('',#455,#432,#243,.T.);
#566=EDGE_CURVE('',#435,#456,#244,.T.);
#567=EDGE_CURVE('',#457,#456,#384,.T.);
#568=EDGE_CURVE('',#434,#457,#245,.T.);
#569=EDGE_CURVE('',#445,#458,#246,.T.);
#570=EDGE_CURVE('',#456,#458,#247,.T.);
#571=EDGE_CURVE('',#444,#459,#248,.T.);
#572=EDGE_CURVE('',#458,#459,#249,.T.);
#573=EDGE_CURVE('',#443,#460,#250,.T.);
#574=EDGE_CURVE('',#459,#460,#251,.T.);
#575=EDGE_CURVE('',#442,#461,#252,.T.);
#576=EDGE_CURVE('',#460,#461,#385,.T.);
#577=EDGE_CURVE('',#441,#462,#253,.T.);
#578=EDGE_CURVE('',#461,#462,#254,.T.);
#579=EDGE_CURVE('',#440,#463,#255,.T.);
#580=EDGE_CURVE('',#462,#463,#256,.T.);
#581=EDGE_CURVE('',#439,#464,#257,.T.);
#582=EDGE_CURVE('',#463,#464,#258,.T.);
#583=EDGE_CURVE('',#438,#465,#259,.T.);
#584=EDGE_CURVE('',#464,#465,#386,.T.);
#585=EDGE_CURVE('',#437,#466,#260,.T.);
#586=EDGE_CURVE('',#465,#466,#261,.T.);
#587=EDGE_CURVE('',#436,#467,#262,.T.);
#588=EDGE_CURVE('',#466,#467,#263,.T.);
#589=EDGE_CURVE('',#467,#457,#264,.T.);
#590=EDGE_CURVE('',#420,#455,#387,.T.);
#591=ORIENTED_EDGE('',*,*,#468,.F.);
#592=ORIENTED_EDGE('',*,*,#469,.T.);
#593=ORIENTED_EDGE('',*,*,#470,.F.);
#594=ORIENTED_EDGE('',*,*,#469,.F.);
#595=ORIENTED_EDGE('',*,*,#471,.F.);
#596=ORIENTED_EDGE('',*,*,#472,.T.);
#597=ORIENTED_EDGE('',*,*,#473,.F.);
#598=ORIENTED_EDGE('',*,*,#472,.F.);
#599=ORIENTED_EDGE('',*,*,#474,.F.);
#600=ORIENTED_EDGE('',*,*,#475,.T.);
#601=ORIENTED_EDGE('',*,*,#476,.F.);
#602=ORIENTED_EDGE('',*,*,#475,.F.);
#603=ORIENTED_EDGE('',*,*,#477,.F.);
#604=ORIENTED_EDGE('',*,*,#478,.T.);
#605=ORIENTED_EDGE('',*,*,#479,.F.);
#606=ORIENTED_EDGE('',*,*,#478,.F.);
#607=ORIENTED_EDGE('',*,*,#480,.F.);
#608=ORIENTED_EDGE('',*,*,#481,.T.);
#609=ORIENTED_EDGE('',*,*,#482,.F.);
#610=ORIENTED_EDGE('',*,*,#481,.F.);
#611=ORIENTED_EDGE('',*,*,#483,.F.);
#612=ORIENTED_EDGE('',*,*,#484,.T.);
#613=ORIENTED_EDGE('',*,*,#485,.F.);
#614=ORIENTED_EDGE('',*,*,#484,.F.);
#615=ORIENTED_EDGE('',*,*,#486,.F.);
#616=ORIENTED_EDGE('',*,*,#487,.T.);
#617=ORIENTED_EDGE('',*,*,#488,.F.);
#618=ORIENTED_EDGE('',*,*,#487,.F.);
#619=ORIENTED_EDGE('',*,*,#489,.F.);
#620=ORIENTED_EDGE('',*,*,#490,.T.);
#621=ORIENTED_EDGE('',*,*,#491,.F.);
#622=ORIENTED_EDGE('',*,*,#490,.F.);
#623=ORIENTED_EDGE('',*,*,#492,.F.);
#624=ORIENTED_EDGE('',*,*,#493,.T.);
#625=ORIENTED_EDGE('',*,*,#494,.F.);
#626=ORIENTED_EDGE('',*,*,#493,.F.);
#627=ORIENTED_EDGE('',*,*,#495,.F.);
#628=ORIENTED_EDGE('',*,*,#496,.T.);
#629=ORIENTED_EDGE('',*,*,#477,.T.);
#630=ORIENTED_EDGE('',*,*,#496,.F.);
#631=ORIENTED_EDGE('',*,*,#497,.F.);
#632=ORIENTED_EDGE('',*,*,#498,.T.);
#633=ORIENTED_EDGE('',*,*,#480,.T.);
#634=ORIENTED_EDGE('',*,*,#498,.F.);
#635=ORIENTED_EDGE('',*,*,#499,.F.);
#636=ORIENTED_EDGE('',*,*,#500,.T.);
#637=ORIENTED_EDGE('',*,*,#483,.T.);
#638=ORIENTED_EDGE('',*,*,#500,.F.);
#639=ORIENTED_EDGE('',*,*,#501,.F.);
#640=ORIENTED_EDGE('',*,*,#502,.T.);
#641=ORIENTED_EDGE('',*,*,#486,.T.);
#642=ORIENTED_EDGE('',*,*,#502,.F.);
#643=ORIENTED_EDGE('',*,*,#503,.F.);
#644=ORIENTED_EDGE('',*,*,#504,.T.);
#645=ORIENTED_EDGE('',*,*,#489,.T.);
#646=ORIENTED_EDGE('',*,*,#504,.F.);
#647=ORIENTED_EDGE('',*,*,#505,.F.);
#648=ORIENTED_EDGE('',*,*,#506,.T.);
#649=ORIENTED_EDGE('',*,*,#492,.T.);
#650=ORIENTED_EDGE('',*,*,#506,.F.);
#651=ORIENTED_EDGE('',*,*,#507,.F.);
#652=ORIENTED_EDGE('',*,*,#508,.T.);
#653=ORIENTED_EDGE('',*,*,#509,.F.);
#654=ORIENTED_EDGE('',*,*,#510,.F.);
#655=ORIENTED_EDGE('',*,*,#511,.F.);
#656=ORIENTED_EDGE('',*,*,#512,.T.);
#657=ORIENTED_EDGE('',*,*,#513,.F.);
#658=ORIENTED_EDGE('',*,*,#508,.F.);
#659=ORIENTED_EDGE('',*,*,#514,.F.);
#660=ORIENTED_EDGE('',*,*,#515,.T.);
#661=ORIENTED_EDGE('',*,*,#516,.F.);
#662=ORIENTED_EDGE('',*,*,#512,.F.);
#663=ORIENTED_EDGE('',*,*,#517,.F.);
#664=ORIENTED_EDGE('',*,*,#510,.T.);
#665=ORIENTED_EDGE('',*,*,#518,.F.);
#666=ORIENTED_EDGE('',*,*,#515,.F.);
#667=ORIENTED_EDGE('',*,*,#519,.F.);
#668=ORIENTED_EDGE('',*,*,#520,.F.);
#669=ORIENTED_EDGE('',*,*,#521,.F.);
#670=ORIENTED_EDGE('',*,*,#522,.F.);
#671=ORIENTED_EDGE('',*,*,#523,.F.);
#672=ORIENTED_EDGE('',*,*,#524,.F.);
#673=ORIENTED_EDGE('',*,*,#525,.F.);
#674=ORIENTED_EDGE('',*,*,#526,.F.);
#675=ORIENTED_EDGE('',*,*,#523,.T.);
#676=ORIENTED_EDGE('',*,*,#527,.F.);
#677=ORIENTED_EDGE('',*,*,#528,.T.);
#678=ORIENTED_EDGE('',*,*,#529,.F.);
#679=ORIENTED_EDGE('',*,*,#525,.T.);
#680=ORIENTED_EDGE('',*,*,#530,.F.);
#681=ORIENTED_EDGE('',*,*,#531,.T.);
#682=ORIENTED_EDGE('',*,*,#532,.F.);
#683=ORIENTED_EDGE('',*,*,#521,.T.);
#684=ORIENTED_EDGE('',*,*,#533,.F.);
#685=ORIENTED_EDGE('',*,*,#534,.T.);
#686=ORIENTED_EDGE('',*,*,#535,.F.);
#687=ORIENTED_EDGE('',*,*,#536,.F.);
#688=ORIENTED_EDGE('',*,*,#537,.T.);
#689=ORIENTED_EDGE('',*,*,#538,.T.);
#690=ORIENTED_EDGE('',*,*,#539,.T.);
#691=ORIENTED_EDGE('',*,*,#540,.F.);
#692=ORIENTED_EDGE('',*,*,#541,.T.);
#693=ORIENTED_EDGE('',*,*,#542,.T.);
#694=ORIENTED_EDGE('',*,*,#543,.T.);
#695=ORIENTED_EDGE('',*,*,#544,.F.);
#696=ORIENTED_EDGE('',*,*,#545,.T.);
#697=ORIENTED_EDGE('',*,*,#546,.T.);
#698=ORIENTED_EDGE('',*,*,#547,.T.);
#699=ORIENTED_EDGE('',*,*,#495,.T.);
#700=ORIENTED_EDGE('',*,*,#497,.T.);
#701=ORIENTED_EDGE('',*,*,#499,.T.);
#702=ORIENTED_EDGE('',*,*,#501,.T.);
#703=ORIENTED_EDGE('',*,*,#503,.T.);
#704=ORIENTED_EDGE('',*,*,#505,.T.);
#705=ORIENTED_EDGE('',*,*,#507,.T.);
#706=ORIENTED_EDGE('',*,*,#517,.T.);
#707=ORIENTED_EDGE('',*,*,#514,.T.);
#708=ORIENTED_EDGE('',*,*,#511,.T.);
#709=ORIENTED_EDGE('',*,*,#529,.T.);
#710=ORIENTED_EDGE('',*,*,#548,.T.);
#711=ORIENTED_EDGE('',*,*,#530,.T.);
#712=ORIENTED_EDGE('',*,*,#524,.T.);
#713=ORIENTED_EDGE('',*,*,#549,.T.);
#714=ORIENTED_EDGE('',*,*,#550,.T.);
#715=ORIENTED_EDGE('',*,*,#551,.T.);
#716=ORIENTED_EDGE('',*,*,#552,.T.);
#717=ORIENTED_EDGE('',*,*,#522,.T.);
#718=ORIENTED_EDGE('',*,*,#535,.T.);
#719=ORIENTED_EDGE('',*,*,#553,.T.);
#720=ORIENTED_EDGE('',*,*,#554,.T.);
#721=ORIENTED_EDGE('',*,*,#474,.T.);
#722=ORIENTED_EDGE('',*,*,#471,.T.);
#723=ORIENTED_EDGE('',*,*,#468,.T.);
#724=ORIENTED_EDGE('',*,*,#528,.F.);
#725=ORIENTED_EDGE('',*,*,#555,.F.);
#726=ORIENTED_EDGE('',*,*,#531,.F.);
#727=ORIENTED_EDGE('',*,*,#548,.F.);
#728=ORIENTED_EDGE('',*,*,#556,.F.);
#729=ORIENTED_EDGE('',*,*,#552,.F.);
#730=ORIENTED_EDGE('',*,*,#557,.F.);
#731=ORIENTED_EDGE('',*,*,#558,.F.);
#732=ORIENTED_EDGE('',*,*,#556,.T.);
#733=ORIENTED_EDGE('',*,*,#559,.F.);
#734=ORIENTED_EDGE('',*,*,#560,.T.);
#735=ORIENTED_EDGE('',*,*,#549,.F.);
#736=ORIENTED_EDGE('',*,*,#557,.T.);
#737=ORIENTED_EDGE('',*,*,#551,.F.);
#738=ORIENTED_EDGE('',*,*,#561,.T.);
#739=ORIENTED_EDGE('',*,*,#562,.F.);
#740=ORIENTED_EDGE('',*,*,#560,.F.);
#741=ORIENTED_EDGE('',*,*,#563,.F.);
#742=ORIENTED_EDGE('',*,*,#561,.F.);
#743=ORIENTED_EDGE('',*,*,#550,.F.);
#744=ORIENTED_EDGE('',*,*,#564,.F.);
#745=ORIENTED_EDGE('',*,*,#553,.F.);
#746=ORIENTED_EDGE('',*,*,#534,.F.);
#747=ORIENTED_EDGE('',*,*,#565,.F.);
#748=ORIENTED_EDGE('',*,*,#536,.T.);
#749=ORIENTED_EDGE('',*,*,#566,.T.);
#750=ORIENTED_EDGE('',*,*,#567,.F.);
#751=ORIENTED_EDGE('',*,*,#568,.F.);
#752=ORIENTED_EDGE('',*,*,#547,.F.);
#753=ORIENTED_EDGE('',*,*,#569,.T.);
#754=ORIENTED_EDGE('',*,*,#570,.F.);
#755=ORIENTED_EDGE('',*,*,#566,.F.);
#756=ORIENTED_EDGE('',*,*,#546,.F.);
#757=ORIENTED_EDGE('',*,*,#571,.T.);
#758=ORIENTED_EDGE('',*,*,#572,.F.);
#759=ORIENTED_EDGE('',*,*,#569,.F.);
#760=ORIENTED_EDGE('',*,*,#545,.F.);
#761=ORIENTED_EDGE('',*,*,#573,.T.);
#762=ORIENTED_EDGE('',*,*,#574,.F.);
#763=ORIENTED_EDGE('',*,*,#571,.F.);
#764=ORIENTED_EDGE('',*,*,#544,.T.);
#765=ORIENTED_EDGE('',*,*,#575,.T.);
#766=ORIENTED_EDGE('',*,*,#576,.F.);
#767=ORIENTED_EDGE('',*,*,#573,.F.);
#768=ORIENTED_EDGE('',*,*,#543,.F.);
#769=ORIENTED_EDGE('',*,*,#577,.T.);
#770=ORIENTED_EDGE('',*,*,#578,.F.);
#771=ORIENTED_EDGE('',*,*,#575,.F.);
#772=ORIENTED_EDGE('',*,*,#542,.F.);
#773=ORIENTED_EDGE('',*,*,#579,.T.);
#774=ORIENTED_EDGE('',*,*,#580,.F.);
#775=ORIENTED_EDGE('',*,*,#577,.F.);
#776=ORIENTED_EDGE('',*,*,#541,.F.);
#777=ORIENTED_EDGE('',*,*,#581,.T.);
#778=ORIENTED_EDGE('',*,*,#582,.F.);
#779=ORIENTED_EDGE('',*,*,#579,.F.);
#780=ORIENTED_EDGE('',*,*,#540,.T.);
#781=ORIENTED_EDGE('',*,*,#583,.T.);
#782=ORIENTED_EDGE('',*,*,#584,.F.);
#783=ORIENTED_EDGE('',*,*,#581,.F.);
#784=ORIENTED_EDGE('',*,*,#539,.F.);
#785=ORIENTED_EDGE('',*,*,#585,.T.);
#786=ORIENTED_EDGE('',*,*,#586,.F.);
#787=ORIENTED_EDGE('',*,*,#583,.F.);
#788=ORIENTED_EDGE('',*,*,#538,.F.);
#789=ORIENTED_EDGE('',*,*,#587,.T.);
#790=ORIENTED_EDGE('',*,*,#588,.F.);
#791=ORIENTED_EDGE('',*,*,#585,.F.);
#792=ORIENTED_EDGE('',*,*,#537,.F.);
#793=ORIENTED_EDGE('',*,*,#568,.T.);
#794=ORIENTED_EDGE('',*,*,#589,.F.);
#795=ORIENTED_EDGE('',*,*,#587,.F.);
#796=ORIENTED_EDGE('',*,*,#519,.T.);
#797=ORIENTED_EDGE('',*,*,#554,.F.);
#798=ORIENTED_EDGE('',*,*,#564,.T.);
#799=ORIENTED_EDGE('',*,*,#590,.F.);
#800=ORIENTED_EDGE('',*,*,#567,.T.);
#801=ORIENTED_EDGE('',*,*,#570,.T.);
#802=ORIENTED_EDGE('',*,*,#572,.T.);
#803=ORIENTED_EDGE('',*,*,#574,.T.);
#804=ORIENTED_EDGE('',*,*,#576,.T.);
#805=ORIENTED_EDGE('',*,*,#578,.T.);
#806=ORIENTED_EDGE('',*,*,#580,.T.);
#807=ORIENTED_EDGE('',*,*,#582,.T.);
#808=ORIENTED_EDGE('',*,*,#584,.T.);
#809=ORIENTED_EDGE('',*,*,#586,.T.);
#810=ORIENTED_EDGE('',*,*,#588,.T.);
#811=ORIENTED_EDGE('',*,*,#589,.T.);
#812=ORIENTED_EDGE('',*,*,#479,.T.);
#813=ORIENTED_EDGE('',*,*,#482,.T.);
#814=ORIENTED_EDGE('',*,*,#485,.T.);
#815=ORIENTED_EDGE('',*,*,#488,.T.);
#816=ORIENTED_EDGE('',*,*,#491,.T.);
#817=ORIENTED_EDGE('',*,*,#494,.T.);
#818=ORIENTED_EDGE('',*,*,#558,.T.);
#819=ORIENTED_EDGE('',*,*,#562,.T.);
#820=ORIENTED_EDGE('',*,*,#563,.T.);
#821=ORIENTED_EDGE('',*,*,#559,.T.);
#822=ORIENTED_EDGE('',*,*,#526,.T.);
#823=ORIENTED_EDGE('',*,*,#532,.T.);
#824=ORIENTED_EDGE('',*,*,#555,.T.);
#825=ORIENTED_EDGE('',*,*,#527,.T.);
#826=ORIENTED_EDGE('',*,*,#590,.T.);
#827=ORIENTED_EDGE('',*,*,#565,.T.);
#828=ORIENTED_EDGE('',*,*,#533,.T.);
#829=ORIENTED_EDGE('',*,*,#520,.T.);
#830=ORIENTED_EDGE('',*,*,#509,.T.);
#831=ORIENTED_EDGE('',*,*,#513,.T.);
#832=ORIENTED_EDGE('',*,*,#516,.T.);
#833=ORIENTED_EDGE('',*,*,#518,.T.);
#834=ORIENTED_EDGE('',*,*,#476,.T.);
#835=ORIENTED_EDGE('',*,*,#473,.T.);
#836=ORIENTED_EDGE('',*,*,#470,.T.);
#837=CYLINDRICAL_SURFACE('',#914,0.17);
#838=CYLINDRICAL_SURFACE('',#917,0.17);
#839=CYLINDRICAL_SURFACE('',#920,0.17);
#840=CYLINDRICAL_SURFACE('',#941,0.17);
#841=CYLINDRICAL_SURFACE('',#943,0.17);
#842=CYLINDRICAL_SURFACE('',#945,0.17);
#843=CYLINDRICAL_SURFACE('',#947,0.17);
#844=CYLINDRICAL_SURFACE('',#949,0.17);
#845=CYLINDRICAL_SURFACE('',#951,0.17);
#846=CYLINDRICAL_SURFACE('',#959,2.1);
#847=CYLINDRICAL_SURFACE('',#962,5.6);
#848=CYLINDRICAL_SURFACE('',#965,5.6);
#849=CYLINDRICAL_SURFACE('',#977,2.1);
#850=CYLINDRICAL_SURFACE('',#979,5.6);
#851=CYLINDRICAL_SURFACE('',#983,6.6);
#852=CYLINDRICAL_SURFACE('',#988,6.6);
#853=CYLINDRICAL_SURFACE('',#993,6.6);
#854=CYLINDRICAL_SURFACE('',#998,2.1);
#855=ADVANCED_FACE('',(#68),#837,.F.);
#856=ADVANCED_FACE('',(#69),#838,.F.);
#857=ADVANCED_FACE('',(#70),#839,.F.);
#858=ADVANCED_FACE('',(#71),#62,.F.);
#859=ADVANCED_FACE('',(#72),#63,.F.);
#860=ADVANCED_FACE('',(#73),#64,.F.);
#861=ADVANCED_FACE('',(#74),#65,.F.);
#862=ADVANCED_FACE('',(#75),#66,.F.);
#863=ADVANCED_FACE('',(#76),#67,.F.);
#864=ADVANCED_FACE('',(#77),#840,.F.);
#865=ADVANCED_FACE('',(#78),#841,.F.);
#866=ADVANCED_FACE('',(#79),#842,.F.);
#867=ADVANCED_FACE('',(#80),#843,.F.);
#868=ADVANCED_FACE('',(#81),#844,.F.);
#869=ADVANCED_FACE('',(#82),#845,.F.);
#870=ADVANCED_FACE('',(#83),#41,.F.);
#871=ADVANCED_FACE('',(#84),#42,.F.);
#872=ADVANCED_FACE('',(#85),#43,.F.);
#873=ADVANCED_FACE('',(#86),#44,.F.);
#874=ADVANCED_FACE('',(#87),#45,.T.);
#875=ADVANCED_FACE('',(#88),#46,.T.);
#876=ADVANCED_FACE('',(#89),#846,.T.);
#877=ADVANCED_FACE('',(#90),#847,.F.);
#878=ADVANCED_FACE('',(#91),#848,.F.);
#879=ADVANCED_FACE('',(#92,#15,#16,#17,#18,#19,#20,#21,#22,#23,#24,#25,
#26,#27),#47,.F.);
#880=ADVANCED_FACE('',(#93),#48,.T.);
#881=ADVANCED_FACE('',(#94),#49,.T.);
#882=ADVANCED_FACE('',(#95),#849,.T.);
#883=ADVANCED_FACE('',(#96),#850,.F.);
#884=ADVANCED_FACE('',(#97),#50,.T.);
#885=ADVANCED_FACE('',(#98),#51,.T.);
#886=ADVANCED_FACE('',(#99),#851,.T.);
#887=ADVANCED_FACE('',(#100),#52,.T.);
#888=ADVANCED_FACE('',(#101),#53,.T.);
#889=ADVANCED_FACE('',(#102),#54,.T.);
#890=ADVANCED_FACE('',(#103),#852,.T.);
#891=ADVANCED_FACE('',(#104),#55,.T.);
#892=ADVANCED_FACE('',(#105),#56,.T.);
#893=ADVANCED_FACE('',(#106),#57,.T.);
#894=ADVANCED_FACE('',(#107),#853,.T.);
#895=ADVANCED_FACE('',(#108),#58,.T.);
#896=ADVANCED_FACE('',(#109),#59,.T.);
#897=ADVANCED_FACE('',(#110),#60,.T.);
#898=ADVANCED_FACE('',(#111),#854,.T.);
#899=ADVANCED_FACE('',(#112,#28,#29,#30,#31,#32,#33,#34,#35,#36,#37,#38,
#39,#40),#61,.T.);
#900=CLOSED_SHELL('',(#855,#856,#857,#858,#859,#860,#861,#862,#863,#864,
#865,#866,#867,#868,#869,#870,#871,#872,#873,#874,#875,#876,#877,#878,#879,
#880,#881,#882,#883,#884,#885,#886,#887,#888,#889,#890,#891,#892,#893,#894,
#895,#896,#897,#898,#899));
#901=DERIVED_UNIT_ELEMENT(#903,1.);
#902=DERIVED_UNIT_ELEMENT(#1512,-3.);
#903=(
MASS_UNIT()
NAMED_UNIT(*)
SI_UNIT(.KILO.,.GRAM.)
);
#904=DERIVED_UNIT((#901,#902));
#905=MEASURE_REPRESENTATION_ITEM('density measure',
POSITIVE_RATIO_MEASURE(7850.),#904);
#906=PROPERTY_DEFINITION_REPRESENTATION(#911,#908);
#907=PROPERTY_DEFINITION_REPRESENTATION(#912,#909);
#908=REPRESENTATION('material name',(#910),#1509);
#909=REPRESENTATION('density',(#905),#1509);
#910=DESCRIPTIVE_REPRESENTATION_ITEM('Steel','Steel');
#911=PROPERTY_DEFINITION('material property','material name',#1519);
#912=PROPERTY_DEFINITION('material property','density of part',#1519);
#913=AXIS2_PLACEMENT_3D('',#1258,#1001,#1002);
#914=AXIS2_PLACEMENT_3D('',#1259,#1003,#1004);
#915=AXIS2_PLACEMENT_3D('',#1261,#1005,#1006);
#916=AXIS2_PLACEMENT_3D('',#1264,#1008,#1009);
#917=AXIS2_PLACEMENT_3D('',#1265,#1010,#1011);
#918=AXIS2_PLACEMENT_3D('',#1267,#1012,#1013);
#919=AXIS2_PLACEMENT_3D('',#1270,#1015,#1016);
#920=AXIS2_PLACEMENT_3D('',#1271,#1017,#1018);
#921=AXIS2_PLACEMENT_3D('',#1273,#1019,#1020);
#922=AXIS2_PLACEMENT_3D('',#1276,#1022,#1023);
#923=AXIS2_PLACEMENT_3D('',#1277,#1024,#1025);
#924=AXIS2_PLACEMENT_3D('',#1279,#1026,#1027);
#925=AXIS2_PLACEMENT_3D('',#1282,#1029,#1030);
#926=AXIS2_PLACEMENT_3D('',#1283,#1031,#1032);
#927=AXIS2_PLACEMENT_3D('',#1285,#1033,#1034);
#928=AXIS2_PLACEMENT_3D('',#1288,#1036,#1037);
#929=AXIS2_PLACEMENT_3D('',#1289,#1038,#1039);
#930=AXIS2_PLACEMENT_3D('',#1291,#1040,#1041);
#931=AXIS2_PLACEMENT_3D('',#1294,#1043,#1044);
#932=AXIS2_PLACEMENT_3D('',#1295,#1045,#1046);
#933=AXIS2_PLACEMENT_3D('',#1297,#1047,#1048);
#934=AXIS2_PLACEMENT_3D('',#1300,#1050,#1051);
#935=AXIS2_PLACEMENT_3D('',#1301,#1052,#1053);
#936=AXIS2_PLACEMENT_3D('',#1303,#1054,#1055);
#937=AXIS2_PLACEMENT_3D('',#1306,#1057,#1058);
#938=AXIS2_PLACEMENT_3D('',#1307,#1059,#1060);
#939=AXIS2_PLACEMENT_3D('',#1309,#1061,#1062);
#940=AXIS2_PLACEMENT_3D('',#1312,#1064,#1065);
#941=AXIS2_PLACEMENT_3D('',#1313,#1066,#1067);
#942=AXIS2_PLACEMENT_3D('',#1315,#1068,#1069);
#943=AXIS2_PLACEMENT_3D('',#1317,#1071,#1072);
#944=AXIS2_PLACEMENT_3D('',#1319,#1073,#1074);
#945=AXIS2_PLACEMENT_3D('',#1321,#1076,#1077);
#946=AXIS2_PLACEMENT_3D('',#1323,#1078,#1079);
#947=AXIS2_PLACEMENT_3D('',#1325,#1081,#1082);
#948=AXIS2_PLACEMENT_3D('',#1327,#1083,#1084);
#949=AXIS2_PLACEMENT_3D('',#1329,#1086,#1087);
#950=AXIS2_PLACEMENT_3D('',#1331,#1088,#1089);
#951=AXIS2_PLACEMENT_3D('',#1333,#1091,#1092);
#952=AXIS2_PLACEMENT_3D('',#1335,#1093,#1094);
#953=AXIS2_PLACEMENT_3D('',#1337,#1096,#1097);
#954=AXIS2_PLACEMENT_3D('',#1346,#1102,#1103);
#955=AXIS2_PLACEMENT_3D('',#1352,#1107,#1108);
#956=AXIS2_PLACEMENT_3D('',#1358,#1112,#1113);
#957=AXIS2_PLACEMENT_3D('',#1361,#1116,#1117);
#958=AXIS2_PLACEMENT_3D('',#1370,#1122,#1123);
#959=AXIS2_PLACEMENT_3D('',#1379,#1128,#1129);
#960=AXIS2_PLACEMENT_3D('',#1381,#1130,#1131);
#961=AXIS2_PLACEMENT_3D('',#1384,#1133,#1134);
#962=AXIS2_PLACEMENT_3D('',#1385,#1135,#1136);
#963=AXIS2_PLACEMENT_3D('',#1387,#1137,#1138);
#964=AXIS2_PLACEMENT_3D('',#1390,#1140,#1141);
#965=AXIS2_PLACEMENT_3D('',#1391,#1142,#1143);
#966=AXIS2_PLACEMENT_3D('',#1393,#1144,#1145);
#967=AXIS2_PLACEMENT_3D('',#1396,#1147,#1148);
#968=AXIS2_PLACEMENT_3D('',#1397,#1149,#1150);
#969=AXIS2_PLACEMENT_3D('',#1400,#1151,#1152);
#970=AXIS2_PLACEMENT_3D('',#1408,#1156,#1157);
#971=AXIS2_PLACEMENT_3D('',#1416,#1161,#1162);
#972=AXIS2_PLACEMENT_3D('',#1425,#1167,#1168);
#973=AXIS2_PLACEMENT_3D('',#1429,#1170,#1171);
#974=AXIS2_PLACEMENT_3D('',#1433,#1174,#1175);
#975=AXIS2_PLACEMENT_3D('',#1434,#1176,#1177);
#976=AXIS2_PLACEMENT_3D('',#1436,#1179,#1180);
#977=AXIS2_PLACEMENT_3D('',#1442,#1184,#1185);
#978=AXIS2_PLACEMENT_3D('',#1444,#1186,#1187);
#979=AXIS2_PLACEMENT_3D('',#1446,#1189,#1190);
#980=AXIS2_PLACEMENT_3D('',#1449,#1192,#1193);
#981=AXIS2_PLACEMENT_3D('',#1450,#1194,#1195);
#982=AXIS2_PLACEMENT_3D('',#1452,#1197,#1198);
#983=AXIS2_PLACEMENT_3D('',#1456,#1201,#1202);
#984=AXIS2_PLACEMENT_3D('',#1460,#1204,#1205);
#985=AXIS2_PLACEMENT_3D('',#1462,#1207,#1208);
#986=AXIS2_PLACEMENT_3D('',#1466,#1211,#1212);
#987=AXIS2_PLACEMENT_3D('',#1470,#1215,#1216);
#988=AXIS2_PLACEMENT_3D('',#1474,#1219,#1220);
#989=AXIS2_PLACEMENT_3D('',#1477,#1222,#1223);
#990=AXIS2_PLACEMENT_3D('',#1478,#1224,#1225);
#991=AXIS2_PLACEMENT_3D('',#1482,#1228,#1229);
#992=AXIS2_PLACEMENT_3D('',#1486,#1232,#1233);
#993=AXIS2_PLACEMENT_3D('',#1490,#1236,#1237);
#994=AXIS2_PLACEMENT_3D('',#1493,#1239,#1240);
#995=AXIS2_PLACEMENT_3D('',#1494,#1241,#1242);
#996=AXIS2_PLACEMENT_3D('',#1498,#1245,#1246);
#997=AXIS2_PLACEMENT_3D('',#1502,#1249,#1250);
#998=AXIS2_PLACEMENT_3D('',#1504,#1252,#1253);
#999=AXIS2_PLACEMENT_3D('',#1505,#1254,#1255);
#1000=AXIS2_PLACEMENT_3D('',#1506,#1256,#1257);
#1001=DIRECTION('axis',(0.,0.,1.));
#1002=DIRECTION('refdir',(1.,0.,0.));
#1003=DIRECTION('center_axis',(0.,0.,1.));
#1004=DIRECTION('ref_axis',(1.,0.,0.));
#1005=DIRECTION('center_axis',(0.,0.,1.));
#1006=DIRECTION('ref_axis',(1.,0.,0.));
#1007=DIRECTION('',(0.,0.,1.));
#1008=DIRECTION('center_axis',(0.,0.,-1.));
#1009=DIRECTION('ref_axis',(1.,0.,0.));
#1010=DIRECTION('center_axis',(0.,0.,1.));
#1011=DIRECTION('ref_axis',(1.,0.,0.));
#1012=DIRECTION('center_axis',(0.,0.,1.));
#1013=DIRECTION('ref_axis',(1.,0.,0.));
#1014=DIRECTION('',(0.,0.,1.));
#1015=DIRECTION('center_axis',(0.,0.,-1.));
#1016=DIRECTION('ref_axis',(1.,0.,0.));
#1017=DIRECTION('center_axis',(0.,0.,1.));
#1018=DIRECTION('ref_axis',(1.,0.,0.));
#1019=DIRECTION('center_axis',(0.,0.,1.));
#1020=DIRECTION('ref_axis',(1.,0.,0.));
#1021=DIRECTION('',(0.,0.,1.));
#1022=DIRECTION('center_axis',(0.,0.,-1.));
#1023=DIRECTION('ref_axis',(1.,0.,0.));
#1024=DIRECTION('center_axis',(0.,0.,1.));
#1025=DIRECTION('ref_axis',(1.,0.,0.));
#1026=DIRECTION('center_axis',(0.,0.,1.));
#1027=DIRECTION('ref_axis',(1.,0.,0.));
#1028=DIRECTION('',(-0.640082880940833,-7.83875451333207E-17,0.768305867169114));
#1029=DIRECTION('center_axis',(0.,0.,-1.));
#1030=DIRECTION('ref_axis',(1.,0.,0.));
#1031=DIRECTION('center_axis',(0.,0.,1.));
#1032=DIRECTION('ref_axis',(1.,0.,0.));
#1033=DIRECTION('center_axis',(0.,0.,1.));
#1034=DIRECTION('ref_axis',(1.,0.,0.));
#1035=DIRECTION('',(-0.640082880940833,-7.83875451333207E-17,0.768305867169114));
#1036=DIRECTION('center_axis',(0.,0.,-1.));
#1037=DIRECTION('ref_axis',(1.,0.,0.));
#1038=DIRECTION('center_axis',(0.,0.,1.));
#1039=DIRECTION('ref_axis',(1.,0.,0.));
#1040=DIRECTION('center_axis',(0.,0.,1.));
#1041=DIRECTION('ref_axis',(1.,0.,0.));
#1042=DIRECTION('',(-0.640082880940833,-7.83875451333207E-17,0.768305867169114));
#1043=DIRECTION('center_axis',(0.,0.,-1.));
#1044=DIRECTION('ref_axis',(1.,0.,0.));
#1045=DIRECTION('center_axis',(0.,0.,1.));
#1046=DIRECTION('ref_axis',(1.,0.,0.));
#1047=DIRECTION('center_axis',(0.,0.,1.));
#1048=DIRECTION('ref_axis',(1.,0.,0.));
#1049=DIRECTION('',(-0.640082880940833,-7.83875451333207E-17,0.768305867169114));
#1050=DIRECTION('center_axis',(0.,0.,-1.));
#1051=DIRECTION('ref_axis',(1.,0.,0.));
#1052=DIRECTION('center_axis',(0.,0.,1.));
#1053=DIRECTION('ref_axis',(1.,0.,0.));
#1054=DIRECTION('center_axis',(0.,0.,1.));
#1055=DIRECTION('ref_axis',(1.,0.,0.));
#1056=DIRECTION('',(-0.640082880940833,-7.83875451333207E-17,0.768305867169114));
#1057=DIRECTION('center_axis',(0.,0.,-1.));
#1058=DIRECTION('ref_axis',(1.,0.,0.));
#1059=DIRECTION('center_axis',(0.,0.,1.));
#1060=DIRECTION('ref_axis',(1.,0.,0.));
#1061=DIRECTION('center_axis',(0.,0.,1.));
#1062=DIRECTION('ref_axis',(1.,0.,0.));
#1063=DIRECTION('',(-0.640082880940833,-7.83875451333207E-17,0.768305867169114));
#1064=DIRECTION('center_axis',(0.,0.,-1.));
#1065=DIRECTION('ref_axis',(1.,0.,0.));
#1066=DIRECTION('center_axis',(0.,0.,1.));
#1067=DIRECTION('ref_axis',(1.,0.,0.));
#1068=DIRECTION('center_axis',(0.,0.,1.));
#1069=DIRECTION('ref_axis',(1.,0.,0.));
#1070=DIRECTION('',(0.,0.,1.));
#1071=DIRECTION('center_axis',(0.,0.,1.));
#1072=DIRECTION('ref_axis',(1.,0.,0.));
#1073=DIRECTION('center_axis',(0.,0.,1.));
#1074=DIRECTION('ref_axis',(1.,0.,0.));
#1075=DIRECTION('',(0.,0.,1.));
#1076=DIRECTION('center_axis',(0.,0.,1.));
#1077=DIRECTION('ref_axis',(1.,0.,0.));
#1078=DIRECTION('center_axis',(0.,0.,1.));
#1079=DIRECTION('ref_axis',(1.,0.,0.));
#1080=DIRECTION('',(0.,0.,1.));
#1081=DIRECTION('center_axis',(0.,0.,1.));
#1082=DIRECTION('ref_axis',(1.,0.,0.));
#1083=DIRECTION('center_axis',(0.,0.,1.));
#1084=DIRECTION('ref_axis',(1.,0.,0.));
#1085=DIRECTION('',(0.,0.,1.));
#1086=DIRECTION('center_axis',(0.,0.,1.));
#1087=DIRECTION('ref_axis',(1.,0.,0.));
#1088=DIRECTION('center_axis',(0.,0.,1.));
#1089=DIRECTION('ref_axis',(1.,0.,0.));
#1090=DIRECTION('',(0.,0.,1.));
#1091=DIRECTION('center_axis',(0.,0.,1.));
#1092=DIRECTION('ref_axis',(1.,0.,0.));
#1093=DIRECTION('center_axis',(0.,0.,1.));
#1094=DIRECTION('ref_axis',(1.,0.,0.));
#1095=DIRECTION('',(0.,0.,1.));
#1096=DIRECTION('center_axis',(0.,1.,0.));
#1097=DIRECTION('ref_axis',(-1.,0.,0.));
#1098=DIRECTION('',(-1.,0.,0.));
#1099=DIRECTION('',(0.,0.,1.));
#1100=DIRECTION('',(1.,0.,0.));
#1101=DIRECTION('',(0.,0.,1.));
#1102=DIRECTION('center_axis',(1.,0.,0.));
#1103=DIRECTION('ref_axis',(0.,1.,0.));
#1104=DIRECTION('',(0.,1.,0.));
#1105=DIRECTION('',(0.,0.,1.));
#1106=DIRECTION('',(0.,-1.,0.));
#1107=DIRECTION('center_axis',(0.,-1.,0.));
#1108=DIRECTION('ref_axis',(1.,0.,0.));
#1109=DIRECTION('',(1.,0.,0.));
#1110=DIRECTION('',(0.,0.,1.));
#1111=DIRECTION('',(-1.,0.,0.));
#1112=DIRECTION('center_axis',(-1.,0.,0.));
#1113=DIRECTION('ref_axis',(0.,-1.,0.));
#1114=DIRECTION('',(0.,-1.,0.));
#1115=DIRECTION('',(0.,1.,0.));
#1116=DIRECTION('center_axis',(0.866025403784439,0.5,0.));
#1117=DIRECTION('ref_axis',(-0.5,0.866025403784439,0.));
#1118=DIRECTION('',(0.,0.,-1.));
#1119=DIRECTION('',(-0.5,0.866025403784439,0.));
#1120=DIRECTION('',(0.,0.,1.));
#1121=DIRECTION('',(0.5,-0.866025403784439,0.));
#1122=DIRECTION('center_axis',(-0.866025403784439,-0.5,0.));
#1123=DIRECTION('ref_axis',(0.5,-0.866025403784439,0.));
#1124=DIRECTION('',(0.,0.,1.));
#1125=DIRECTION('',(-0.5,0.866025403784439,0.));
#1126=DIRECTION('',(0.,0.,-1.));
#1127=DIRECTION('',(0.5,-0.866025403784439,0.));
#1128=DIRECTION('center_axis',(0.,0.,1.));
#1129=DIRECTION('ref_axis',(1.,0.,0.));
#1130=DIRECTION('center_axis',(0.,0.,1.));
#1131=DIRECTION('ref_axis',(1.,0.,0.));
#1132=DIRECTION('',(0.,0.,-1.));
#1133=DIRECTION('center_axis',(0.,0.,-1.));
#1134=DIRECTION('ref_axis',(1.,0.,0.));
#1135=DIRECTION('center_axis',(0.,0.,1.));
#1136=DIRECTION('ref_axis',(1.,0.,0.));
#1137=DIRECTION('center_axis',(0.,0.,1.));
#1138=DIRECTION('ref_axis',(1.,0.,0.));
#1139=DIRECTION('',(0.,0.,1.));
#1140=DIRECTION('center_axis',(0.,0.,-1.));
#1141=DIRECTION('ref_axis',(1.,0.,0.));
#1142=DIRECTION('center_axis',(0.,0.,1.));
#1143=DIRECTION('ref_axis',(1.,0.,0.));
#1144=DIRECTION('center_axis',(0.,0.,-1.));
#1145=DIRECTION('ref_axis',(1.,0.,0.));
#1146=DIRECTION('',(0.,0.,-1.));
#1147=DIRECTION('center_axis',(0.,0.,1.));
#1148=DIRECTION('ref_axis',(1.,0.,0.));
#1149=DIRECTION('center_axis',(0.,0.,1.));
#1150=DIRECTION('ref_axis',(1.,0.,0.));
#1151=DIRECTION('center_axis',(0.,0.,1.));
#1152=DIRECTION('ref_axis',(1.,0.,0.));
#1153=DIRECTION('',(0.5,-0.866025403784439,0.));
#1154=DIRECTION('',(-0.866025403784439,-0.5,0.));
#1155=DIRECTION('',(-0.5,0.866025403784439,0.));
#1156=DIRECTION('center_axis',(0.,0.,1.));
#1157=DIRECTION('ref_axis',(1.,0.,0.));
#1158=DIRECTION('',(-1.,3.70074341541719E-16,0.));
#1159=DIRECTION('',(0.,1.,0.));
#1160=DIRECTION('',(1.,-3.70074341541719E-16,0.));
#1161=DIRECTION('center_axis',(0.,0.,1.));
#1162=DIRECTION('ref_axis',(1.,0.,0.));
#1163=DIRECTION('',(0.5,0.866025403784439,0.));
#1164=DIRECTION('',(0.866025403784439,-0.5,0.));
#1165=DIRECTION('',(-0.5,-0.866025403784439,0.));
#1166=DIRECTION('',(-1.,1.11022302462516E-16,0.));
#1167=DIRECTION('center_axis',(0.,0.,-1.));
#1168=DIRECTION('ref_axis',(1.,0.,0.));
#1169=DIRECTION('',(0.5,0.866025403784439,0.));
#1170=DIRECTION('center_axis',(0.,0.,1.));
#1171=DIRECTION('ref_axis',(1.,0.,0.));
#1172=DIRECTION('',(1.,-1.11022302462516E-16,0.));
#1173=DIRECTION('',(-0.5,-0.866025403784439,0.));
#1174=DIRECTION('center_axis',(0.,0.,-1.));
#1175=DIRECTION('ref_axis',(1.,0.,0.));
#1176=DIRECTION('center_axis',(-1.11022302462516E-16,-1.,0.));
#1177=DIRECTION('ref_axis',(1.,-1.11022302462516E-16,0.));
#1178=DIRECTION('',(1.,-1.11022302462516E-16,0.));
#1179=DIRECTION('center_axis',(1.11022302462516E-16,1.,0.));
#1180=DIRECTION('ref_axis',(-1.,1.11022302462516E-16,0.));
#1181=DIRECTION('',(0.,0.,1.));
#1182=DIRECTION('',(0.,0.,-1.));
#1183=DIRECTION('',(-1.,1.11022302462516E-16,0.));
#1184=DIRECTION('center_axis',(0.,0.,1.));
#1185=DIRECTION('ref_axis',(1.,0.,0.));
#1186=DIRECTION('center_axis',(0.,0.,1.));
#1187=DIRECTION('ref_axis',(1.,0.,0.));
#1188=DIRECTION('',(0.,0.,-1.));
#1189=DIRECTION('center_axis',(0.,0.,1.));
#1190=DIRECTION('ref_axis',(1.,0.,0.));
#1191=DIRECTION('',(0.,0.,1.));
#1192=DIRECTION('center_axis',(0.,0.,-1.));
#1193=DIRECTION('ref_axis',(1.,0.,0.));
#1194=DIRECTION('center_axis',(-0.866025403784439,0.5,0.));
#1195=DIRECTION('ref_axis',(-0.5,-0.866025403784439,0.));
#1196=DIRECTION('',(-0.5,-0.866025403784439,0.));
#1197=DIRECTION('center_axis',(0.866025403784439,-0.5,0.));
#1198=DIRECTION('ref_axis',(0.5,0.866025403784439,0.));
#1199=DIRECTION('',(0.,0.,1.));
#1200=DIRECTION('',(0.5,0.866025403784439,0.));
#1201=DIRECTION('center_axis',(0.,0.,1.));
#1202=DIRECTION('ref_axis',(1.,0.,0.));
#1203=DIRECTION('',(0.,0.,1.));
#1204=DIRECTION('center_axis',(0.,0.,1.));
#1205=DIRECTION('ref_axis',(1.,0.,0.));
#1206=DIRECTION('',(0.,0.,1.));
#1207=DIRECTION('center_axis',(0.866025403784439,-0.5,0.));
#1208=DIRECTION('ref_axis',(0.5,0.866025403784439,0.));
#1209=DIRECTION('',(0.,0.,1.));
#1210=DIRECTION('',(0.5,0.866025403784439,0.));
#1211=DIRECTION('center_axis',(0.5,0.866025403784439,0.));
#1212=DIRECTION('ref_axis',(-0.866025403784439,0.5,0.));
#1213=DIRECTION('',(0.,0.,1.));
#1214=DIRECTION('',(-0.866025403784439,0.5,0.));
#1215=DIRECTION('center_axis',(-0.866025403784439,0.5,0.));
#1216=DIRECTION('ref_axis',(-0.5,-0.866025403784439,0.));
#1217=DIRECTION('',(0.,0.,1.));
#1218=DIRECTION('',(-0.5,-0.866025403784439,0.));
#1219=DIRECTION('center_axis',(0.,0.,1.));
#1220=DIRECTION('ref_axis',(1.,0.,0.));
#1221=DIRECTION('',(0.,0.,1.));
#1222=DIRECTION('center_axis',(0.,0.,1.));
#1223=DIRECTION('ref_axis',(1.,0.,0.));
#1224=DIRECTION('center_axis',(3.70074341541719E-16,1.,0.));
#1225=DIRECTION('ref_axis',(-1.,3.70074341541719E-16,0.));
#1226=DIRECTION('',(0.,0.,1.));
#1227=DIRECTION('',(-1.,3.70074341541719E-16,0.));
#1228=DIRECTION('center_axis',(-1.,0.,0.));
#1229=DIRECTION('ref_axis',(0.,-1.,0.));
#1230=DIRECTION('',(0.,0.,1.));
#1231=DIRECTION('',(0.,-1.,0.));
#1232=DIRECTION('center_axis',(-3.70074341541719E-16,-1.,0.));
#1233=DIRECTION('ref_axis',(1.,-3.70074341541719E-16,0.));
#1234=DIRECTION('',(0.,0.,1.));
#1235=DIRECTION('',(1.,-3.70074341541719E-16,0.));
#1236=DIRECTION('center_axis',(0.,0.,1.));
#1237=DIRECTION('ref_axis',(1.,0.,0.));
#1238=DIRECTION('',(0.,0.,1.));
#1239=DIRECTION('center_axis',(0.,0.,1.));
#1240=DIRECTION('ref_axis',(1.,0.,0.));
#1241=DIRECTION('center_axis',(-0.866025403784439,-0.5,0.));
#1242=DIRECTION('ref_axis',(0.5,-0.866025403784439,0.));
#1243=DIRECTION('',(0.,0.,1.));
#1244=DIRECTION('',(0.5,-0.866025403784439,0.));
#1245=DIRECTION('center_axis',(0.5,-0.866025403784439,0.));
#1246=DIRECTION('ref_axis',(0.866025403784439,0.5,0.));
#1247=DIRECTION('',(0.,0.,1.));
#1248=DIRECTION('',(0.866025403784439,0.5,0.));
#1249=DIRECTION('center_axis',(0.866025403784439,0.5,0.));
#1250=DIRECTION('ref_axis',(-0.5,0.866025403784439,0.));
#1251=DIRECTION('',(-0.5,0.866025403784439,0.));
#1252=DIRECTION('center_axis',(0.,0.,1.));
#1253=DIRECTION('ref_axis',(1.,0.,0.));
#1254=DIRECTION('center_axis',(0.,0.,1.));
#1255=DIRECTION('ref_axis',(1.,0.,0.));
#1256=DIRECTION('center_axis',(0.,0.,1.));
#1257=DIRECTION('ref_axis',(1.,0.,0.));
#1258=CARTESIAN_POINT('',(0.,0.,0.));
#1259=CARTESIAN_POINT('Origin',(2.5,4.33012701892219,0.));
#1260=CARTESIAN_POINT('',(2.33,4.33012701892219,0.));
#1261=CARTESIAN_POINT('Origin',(2.5,4.33012701892219,0.));
#1262=CARTESIAN_POINT('',(2.33,4.33012701892219,0.4));
#1263=CARTESIAN_POINT('',(2.33,4.33012701892219,0.));
#1264=CARTESIAN_POINT('Origin',(2.5,4.33012701892219,0.4));
#1265=CARTESIAN_POINT('Origin',(-5.,6.12323399573677E-16,0.));
#1266=CARTESIAN_POINT('',(-5.17,5.91504403988172E-16,0.));
#1267=CARTESIAN_POINT('Origin',(-5.,6.12323399573677E-16,0.));
#1268=CARTESIAN_POINT('',(-5.17,5.91504403988172E-16,0.4));
#1269=CARTESIAN_POINT('',(-5.17,5.91504403988172E-16,0.));
#1270=CARTESIAN_POINT('Origin',(-5.,6.12323399573677E-16,0.4));
#1271=CARTESIAN_POINT('Origin',(2.5,-4.33012701892219,0.));
#1272=CARTESIAN_POINT('',(2.33,-4.33012701892219,0.));
#1273=CARTESIAN_POINT('Origin',(2.5,-4.33012701892219,0.));
#1274=CARTESIAN_POINT('',(2.33,-4.33012701892219,0.4));
#1275=CARTESIAN_POINT('',(2.33,-4.33012701892219,0.));
#1276=CARTESIAN_POINT('Origin',(2.5,-4.33012701892219,0.4));
#1277=CARTESIAN_POINT('Origin',(2.1,-3.63730669589464,0.23));
#1278=CARTESIAN_POINT('',(1.93,-3.63730669589464,0.23));
#1279=CARTESIAN_POINT('Origin',(2.1,-3.63730669589464,0.23));
#1280=CARTESIAN_POINT('',(1.78837139294422,-3.63730669589464,0.4));
#1281=CARTESIAN_POINT('',(1.93,-3.63730669589464,0.23));
#1282=CARTESIAN_POINT('Origin',(2.1,-3.63730669589464,0.4));
#1283=CARTESIAN_POINT('Origin',(2.1,3.63730669589464,0.23));
#1284=CARTESIAN_POINT('',(1.93,3.63730669589464,0.23));
#1285=CARTESIAN_POINT('Origin',(2.1,3.63730669589464,0.23));
#1286=CARTESIAN_POINT('',(1.78837139294422,3.63730669589464,0.4));
#1287=CARTESIAN_POINT('',(1.93,3.63730669589464,0.23));
#1288=CARTESIAN_POINT('Origin',(2.1,3.63730669589464,0.4));
#1289=CARTESIAN_POINT('Origin',(2.9,5.02294734194974,0.23));
#1290=CARTESIAN_POINT('',(2.73,5.02294734194974,0.23));
#1291=CARTESIAN_POINT('Origin',(2.9,5.02294734194974,0.23));
#1292=CARTESIAN_POINT('',(2.58837139294423,5.02294734194974,0.4));
#1293=CARTESIAN_POINT('',(2.73,5.02294734194974,0.23));
#1294=CARTESIAN_POINT('Origin',(2.9,5.02294734194974,0.4));
#1295=CARTESIAN_POINT('Origin',(-4.2,5.14351655641888E-16,0.23));
#1296=CARTESIAN_POINT('',(-4.37,4.93532660056383E-16,0.23));
#1297=CARTESIAN_POINT('Origin',(-4.2,5.14351655641888E-16,0.23));
#1298=CARTESIAN_POINT('',(-4.51162860705578,4.76188158026528E-16,0.4));
#1299=CARTESIAN_POINT('',(-4.37,4.93532660056383E-16,0.23));
#1300=CARTESIAN_POINT('Origin',(-4.2,5.14351655641888E-16,0.4));
#1301=CARTESIAN_POINT('Origin',(-5.8,7.10295143505465E-16,0.23));
#1302=CARTESIAN_POINT('',(-5.97,6.8947614791996E-16,0.23));
#1303=CARTESIAN_POINT('Origin',(-5.8,7.10295143505465E-16,0.23));
#1304=CARTESIAN_POINT('',(-6.11162860705578,6.72131645890104E-16,0.4));
#1305=CARTESIAN_POINT('',(-5.97,6.8947614791996E-16,0.23));
#1306=CARTESIAN_POINT('Origin',(-5.8,7.10295143505465E-16,0.4));
#1307=CARTESIAN_POINT('Origin',(2.9,-5.02294734194974,0.23));
#1308=CARTESIAN_POINT('',(2.73,-5.02294734194974,0.23));
#1309=CARTESIAN_POINT('Origin',(2.9,-5.02294734194974,0.23));
#1310=CARTESIAN_POINT('',(2.58837139294423,-5.02294734194974,0.4));
#1311=CARTESIAN_POINT('',(2.73,-5.02294734194974,0.23));
#1312=CARTESIAN_POINT('Origin',(2.9,-5.02294734194974,0.4));
#1313=CARTESIAN_POINT('Origin',(2.1,-3.63730669589464,0.));
#1314=CARTESIAN_POINT('',(1.93,-3.63730669589464,0.));
#1315=CARTESIAN_POINT('Origin',(2.1,-3.63730669589464,0.));
#1316=CARTESIAN_POINT('',(1.93,-3.63730669589464,0.));
#1317=CARTESIAN_POINT('Origin',(2.1,3.63730669589464,0.));
#1318=CARTESIAN_POINT('',(1.93,3.63730669589464,0.));
#1319=CARTESIAN_POINT('Origin',(2.1,3.63730669589464,0.));
#1320=CARTESIAN_POINT('',(1.93,3.63730669589464,0.));
#1321=CARTESIAN_POINT('Origin',(2.9,5.02294734194974,0.));
#1322=CARTESIAN_POINT('',(2.73,5.02294734194974,0.));
#1323=CARTESIAN_POINT('Origin',(2.9,5.02294734194974,0.));
#1324=CARTESIAN_POINT('',(2.73,5.02294734194974,0.));
#1325=CARTESIAN_POINT('Origin',(-4.2,5.14351655641888E-16,0.));
#1326=CARTESIAN_POINT('',(-4.37,4.93532660056383E-16,0.));
#1327=CARTESIAN_POINT('Origin',(-4.2,5.14351655641888E-16,0.));
#1328=CARTESIAN_POINT('',(-4.37,4.93532660056383E-16,0.));
#1329=CARTESIAN_POINT('Origin',(-5.8,7.10295143505465E-16,0.));
#1330=CARTESIAN_POINT('',(-5.97,6.8947614791996E-16,0.));
#1331=CARTESIAN_POINT('Origin',(-5.8,7.10295143505465E-16,0.));
#1332=CARTESIAN_POINT('',(-5.97,6.8947614791996E-16,0.));
#1333=CARTESIAN_POINT('Origin',(2.9,-5.02294734194974,0.));
#1334=CARTESIAN_POINT('',(2.73,-5.02294734194974,0.));
#1335=CARTESIAN_POINT('Origin',(2.9,-5.02294734194974,0.));
#1336=CARTESIAN_POINT('',(2.73,-5.02294734194974,0.));
#1337=CARTESIAN_POINT('Origin',(1.06,1.05,0.));
#1338=CARTESIAN_POINT('',(1.06,1.05,0.));
#1339=CARTESIAN_POINT('',(-3.1,1.05,0.));
#1340=CARTESIAN_POINT('',(0.53,1.05,0.));
#1341=CARTESIAN_POINT('',(1.06,1.05,0.4));
#1342=CARTESIAN_POINT('',(1.06,1.05,0.));
#1343=CARTESIAN_POINT('',(-3.1,1.05,0.4));
#1344=CARTESIAN_POINT('',(0.53,1.05,0.4));
#1345=CARTESIAN_POINT('',(-3.1,1.05,0.));
#1346=CARTESIAN_POINT('Origin',(1.06,-1.05,0.));
#1347=CARTESIAN_POINT('',(1.06,-1.05,0.));
#1348=CARTESIAN_POINT('',(1.06,-0.525,0.));
#1349=CARTESIAN_POINT('',(1.06,-1.05,0.4));
#1350=CARTESIAN_POINT('',(1.06,-1.05,0.));
#1351=CARTESIAN_POINT('',(1.06,-0.525,0.4));
#1352=CARTESIAN_POINT('Origin',(-3.1,-1.05,0.));
#1353=CARTESIAN_POINT('',(-3.1,-1.05,0.));
#1354=CARTESIAN_POINT('',(-1.55,-1.05,0.));
#1355=CARTESIAN_POINT('',(-3.1,-1.05,0.4));
#1356=CARTESIAN_POINT('',(-3.1,-1.05,0.));
#1357=CARTESIAN_POINT('',(-1.55,-1.05,0.4));
#1358=CARTESIAN_POINT('Origin',(-3.1,1.05,0.));
#1359=CARTESIAN_POINT('',(-3.1,0.525,0.));
#1360=CARTESIAN_POINT('',(-3.1,0.525,0.4));
#1361=CARTESIAN_POINT('Origin',(3.92583302491977,-4.19974226119286,0.));
#1362=CARTESIAN_POINT('',(1.9504541500433,-0.77828568570857,0.4));
#1363=CARTESIAN_POINT('',(1.9504541500433,-0.778285685708569,0.));
#1364=CARTESIAN_POINT('',(1.9504541500433,-0.778285685708569,0.));
#1365=CARTESIAN_POINT('',(3.84934179119904,-4.06725555805492,0.4));
#1366=CARTESIAN_POINT('',(1.92583302491977,-0.735640646055102,0.4));
#1367=CARTESIAN_POINT('',(3.84934179119903,-4.06725555805492,0.));
#1368=CARTESIAN_POINT('',(3.84934179119903,-4.06725555805492,0.));
#1369=CARTESIAN_POINT('',(1.92583302491977,-0.735640646055102,0.));
#1370=CARTESIAN_POINT('Origin',(-0.32583302491977,-2.0356406460551,0.));
#1371=CARTESIAN_POINT('',(-0.301211899796238,-2.07828568570857,0.));
#1372=CARTESIAN_POINT('',(-0.301211899796238,-2.07828568570857,0.4));
#1373=CARTESIAN_POINT('',(-0.301211899796238,-2.07828568570857,0.));
#1374=CARTESIAN_POINT('',(1.59767574135949,-5.36725555805492,0.));
#1375=CARTESIAN_POINT('',(1.67416697508023,-5.49974226119286,0.));
#1376=CARTESIAN_POINT('',(1.59767574135949,-5.36725555805492,0.4));
#1377=CARTESIAN_POINT('',(1.59767574135949,-5.36725555805492,0.));
#1378=CARTESIAN_POINT('',(1.67416697508023,-5.49974226119286,0.4));
#1379=CARTESIAN_POINT('Origin',(0.,0.,0.));
#1380=CARTESIAN_POINT('',(-1.64924225024706,-1.3,0.4));
#1381=CARTESIAN_POINT('Origin',(0.,0.,0.4));
#1382=CARTESIAN_POINT('',(-1.64924225024706,-1.3,0.));
#1383=CARTESIAN_POINT('',(-1.64924225024706,-1.3,0.));
#1384=CARTESIAN_POINT('Origin',(0.,0.,0.));
#1385=CARTESIAN_POINT('Origin',(0.,0.,0.));
#1386=CARTESIAN_POINT('',(-5.44701753255853,-1.3,0.));
#1387=CARTESIAN_POINT('Origin',(0.,0.,0.));
#1388=CARTESIAN_POINT('',(-5.44701753255853,-1.3,0.4));
#1389=CARTESIAN_POINT('',(-5.44701753255853,-1.3,0.));
#1390=CARTESIAN_POINT('Origin',(0.,0.,0.4));
#1391=CARTESIAN_POINT('Origin',(0.,0.,0.));
#1392=CARTESIAN_POINT('',(3.84934179119904,4.06725555805492,0.4));
#1393=CARTESIAN_POINT('Origin',(0.,0.,0.4));
#1394=CARTESIAN_POINT('',(3.84934179119904,4.06725555805492,0.));
#1395=CARTESIAN_POINT('',(3.84934179119904,4.06725555805492,0.));
#1396=CARTESIAN_POINT('Origin',(0.,0.,0.));
#1397=CARTESIAN_POINT('Origin',(0.,0.,0.));
#1398=CARTESIAN_POINT('',(4.36118462868713,-4.95379335807451,0.));
#1399=CARTESIAN_POINT('',(4.36118462868713,4.95379335807451,0.));
#1400=CARTESIAN_POINT('Origin',(0.,0.,0.));
#1401=CARTESIAN_POINT('',(4.42583302491977,-5.06576766497729,0.));
#1402=CARTESIAN_POINT('',(4.12583302491977,-4.54615242270663,0.));
#1403=CARTESIAN_POINT('',(2.17416697508023,-6.36576766497729,0.));
#1404=CARTESIAN_POINT('',(4.42583302491977,-5.06576766497729,0.));
#1405=CARTESIAN_POINT('',(2.10951857884759,-6.25379335807451,0.));
#1406=CARTESIAN_POINT('',(2.17416697508023,-6.36576766497729,0.));
#1407=CARTESIAN_POINT('',(-6.47070320753471,-1.3,0.));
#1408=CARTESIAN_POINT('Origin',(0.,0.,0.));
#1409=CARTESIAN_POINT('',(-6.6,-1.3,0.));
#1410=CARTESIAN_POINT('',(-6.,-1.3,0.));
#1411=CARTESIAN_POINT('',(-6.6,1.3,0.));
#1412=CARTESIAN_POINT('',(-6.6,-1.3,0.));
#1413=CARTESIAN_POINT('',(-6.47070320753471,1.3,0.));
#1414=CARTESIAN_POINT('',(-6.6,1.3,0.));
#1415=CARTESIAN_POINT('',(2.10951857884759,6.25379335807451,0.));
#1416=CARTESIAN_POINT('Origin',(0.,0.,0.));
#1417=CARTESIAN_POINT('',(2.17416697508023,6.36576766497729,0.));
#1418=CARTESIAN_POINT('',(1.87416697508023,5.84615242270663,0.));
#1419=CARTESIAN_POINT('',(4.42583302491977,5.06576766497729,0.));
#1420=CARTESIAN_POINT('',(2.17416697508023,6.36576766497729,0.));
#1421=CARTESIAN_POINT('',(4.42583302491977,5.06576766497729,0.));
#1422=CARTESIAN_POINT('',(-1.6,-1.3,0.));
#1423=CARTESIAN_POINT('',(-1.64924225024706,1.3,0.));
#1424=CARTESIAN_POINT('',(-0.301211899796238,2.07828568570857,0.));
#1425=CARTESIAN_POINT('Origin',(0.,0.,0.));
#1426=CARTESIAN_POINT('',(1.59767574135949,5.36725555805492,0.));
#1427=CARTESIAN_POINT('',(-0.32583302491977,2.0356406460551,0.));
#1428=CARTESIAN_POINT('',(-5.44701753255853,1.3,0.));
#1429=CARTESIAN_POINT('Origin',(0.,0.,0.));
#1430=CARTESIAN_POINT('',(-5.6,1.3,0.));
#1431=CARTESIAN_POINT('',(1.9504541500433,0.778285685708569,0.));
#1432=CARTESIAN_POINT('',(3.92583302491977,4.19974226119286,0.));
#1433=CARTESIAN_POINT('Origin',(0.,0.,0.));
#1434=CARTESIAN_POINT('Origin',(-5.6,-1.3,0.));
#1435=CARTESIAN_POINT('',(-1.6,-1.3,0.4));
#1436=CARTESIAN_POINT('Origin',(-1.6,1.3,0.));
#1437=CARTESIAN_POINT('',(-1.64924225024706,1.3,0.4));
#1438=CARTESIAN_POINT('',(-1.64924225024706,1.3,0.));
#1439=CARTESIAN_POINT('',(-5.44701753255853,1.3,0.4));
#1440=CARTESIAN_POINT('',(-5.44701753255853,1.3,0.));
#1441=CARTESIAN_POINT('',(-5.6,1.3,0.4));
#1442=CARTESIAN_POINT('Origin',(0.,0.,0.));
#1443=CARTESIAN_POINT('',(-0.301211899796238,2.07828568570857,0.4));
#1444=CARTESIAN_POINT('Origin',(0.,0.,0.4));
#1445=CARTESIAN_POINT('',(-0.301211899796239,2.07828568570857,0.));
#1446=CARTESIAN_POINT('Origin',(0.,0.,0.));
#1447=CARTESIAN_POINT('',(1.59767574135949,5.36725555805492,0.4));
#1448=CARTESIAN_POINT('',(1.59767574135949,5.36725555805492,0.));
#1449=CARTESIAN_POINT('Origin',(0.,0.,0.4));
#1450=CARTESIAN_POINT('Origin',(1.67416697508023,5.49974226119286,0.));
#1451=CARTESIAN_POINT('',(-0.32583302491977,2.0356406460551,0.4));
#1452=CARTESIAN_POINT('Origin',(1.92583302491977,0.735640646055101,0.));
#1453=CARTESIAN_POINT('',(1.9504541500433,0.778285685708569,0.4));
#1454=CARTESIAN_POINT('',(1.9504541500433,0.778285685708569,0.));
#1455=CARTESIAN_POINT('',(3.92583302491977,4.19974226119286,0.4));
#1456=CARTESIAN_POINT('Origin',(0.,0.,0.));
#1457=CARTESIAN_POINT('',(4.36118462868713,4.95379335807451,0.4));
#1458=CARTESIAN_POINT('',(4.36118462868713,4.95379335807451,0.));
#1459=CARTESIAN_POINT('',(4.36118462868713,-4.95379335807451,0.4));
#1460=CARTESIAN_POINT('Origin',(0.,0.,0.4));
#1461=CARTESIAN_POINT('',(4.36118462868713,-4.95379335807451,0.));
#1462=CARTESIAN_POINT('Origin',(4.36118462868713,4.95379335807451,0.));
#1463=CARTESIAN_POINT('',(4.42583302491977,5.06576766497729,0.4));
#1464=CARTESIAN_POINT('',(4.42583302491977,5.06576766497729,0.));
#1465=CARTESIAN_POINT('',(4.42583302491977,5.06576766497729,0.4));
#1466=CARTESIAN_POINT('Origin',(4.42583302491977,5.06576766497729,0.));
#1467=CARTESIAN_POINT('',(2.17416697508023,6.36576766497729,0.4));
#1468=CARTESIAN_POINT('',(2.17416697508023,6.36576766497729,0.));
#1469=CARTESIAN_POINT('',(2.17416697508023,6.36576766497729,0.4));
#1470=CARTESIAN_POINT('Origin',(2.17416697508023,6.36576766497729,0.));
#1471=CARTESIAN_POINT('',(2.10951857884759,6.25379335807451,0.4));
#1472=CARTESIAN_POINT('',(2.10951857884759,6.25379335807451,0.));
#1473=CARTESIAN_POINT('',(1.87416697508023,5.84615242270663,0.4));
#1474=CARTESIAN_POINT('Origin',(0.,0.,0.));
#1475=CARTESIAN_POINT('',(-6.47070320753471,1.3,0.4));
#1476=CARTESIAN_POINT('',(-6.47070320753471,1.3,0.));
#1477=CARTESIAN_POINT('Origin',(0.,0.,0.4));
#1478=CARTESIAN_POINT('Origin',(-6.47070320753471,1.3,0.));
#1479=CARTESIAN_POINT('',(-6.6,1.3,0.4));
#1480=CARTESIAN_POINT('',(-6.6,1.3,0.));
#1481=CARTESIAN_POINT('',(-6.6,1.3,0.4));
#1482=CARTESIAN_POINT('Origin',(-6.6,1.3,0.));
#1483=CARTESIAN_POINT('',(-6.6,-1.3,0.4));
#1484=CARTESIAN_POINT('',(-6.6,-1.3,0.));
#1485=CARTESIAN_POINT('',(-6.6,-1.3,0.4));
#1486=CARTESIAN_POINT('Origin',(-6.6,-1.3,0.));
#1487=CARTESIAN_POINT('',(-6.47070320753471,-1.3,0.4));
#1488=CARTESIAN_POINT('',(-6.47070320753471,-1.3,0.));
#1489=CARTESIAN_POINT('',(-6.,-1.3,0.4));
#1490=CARTESIAN_POINT('Origin',(0.,0.,0.));
#1491=CARTESIAN_POINT('',(2.10951857884759,-6.25379335807451,0.4));
#1492=CARTESIAN_POINT('',(2.10951857884759,-6.25379335807451,0.));
#1493=CARTESIAN_POINT('Origin',(0.,0.,0.4));
#1494=CARTESIAN_POINT('Origin',(2.10951857884759,-6.25379335807451,0.));
#1495=CARTESIAN_POINT('',(2.17416697508023,-6.36576766497729,0.4));
#1496=CARTESIAN_POINT('',(2.17416697508023,-6.36576766497729,0.));
#1497=CARTESIAN_POINT('',(2.17416697508023,-6.36576766497729,0.4));
#1498=CARTESIAN_POINT('Origin',(2.17416697508023,-6.36576766497729,0.));
#1499=CARTESIAN_POINT('',(4.42583302491977,-5.06576766497729,0.4));
#1500=CARTESIAN_POINT('',(4.42583302491977,-5.06576766497729,0.));
#1501=CARTESIAN_POINT('',(4.42583302491977,-5.06576766497729,0.4));
#1502=CARTESIAN_POINT('Origin',(4.42583302491977,-5.06576766497729,0.));
#1503=CARTESIAN_POINT('',(4.12583302491977,-4.54615242270663,0.4));
#1504=CARTESIAN_POINT('Origin',(0.,0.,0.));
#1505=CARTESIAN_POINT('Origin',(0.,0.,0.4));
#1506=CARTESIAN_POINT('Origin',(0.,0.,0.4));
#1507=UNCERTAINTY_MEASURE_WITH_UNIT(LENGTH_MEASURE(0.001),#1511,
'DISTANCE_ACCURACY_VALUE',
'Maximum model space distance between geometric entities at asserted c
onnectivities');
#1508=UNCERTAINTY_MEASURE_WITH_UNIT(LENGTH_MEASURE(0.001),#1511,
'DISTANCE_ACCURACY_VALUE',
'Maximum model space distance between geometric entities at asserted c
onnectivities');
#1509=(
GEOMETRIC_REPRESENTATION_CONTEXT(3)
GLOBAL_UNCERTAINTY_ASSIGNED_CONTEXT((#1507))
GLOBAL_UNIT_ASSIGNED_CONTEXT((#1511,#1513,#1514))
REPRESENTATION_CONTEXT('','3D')
);
#1510=(
GEOMETRIC_REPRESENTATION_CONTEXT(3)
GLOBAL_UNCERTAINTY_ASSIGNED_CONTEXT((#1508))
GLOBAL_UNIT_ASSIGNED_CONTEXT((#1511,#1513,#1514))
REPRESENTATION_CONTEXT('','3D')
);
#1511=(
LENGTH_UNIT()
NAMED_UNIT(*)
SI_UNIT(.CENTI.,.METRE.)
);
#1512=(
LENGTH_UNIT()
NAMED_UNIT(*)
SI_UNIT($,.METRE.)
);
#1513=(
NAMED_UNIT(*)
PLANE_ANGLE_UNIT()
SI_UNIT($,.RADIAN.)
);
#1514=(
NAMED_UNIT(*)
SI_UNIT($,.STERADIAN.)
SOLID_ANGLE_UNIT()
);
#1515=SHAPE_DEFINITION_REPRESENTATION(#1516,#1517);
#1516=PRODUCT_DEFINITION_SHAPE('',$,#1519);
#1517=SHAPE_REPRESENTATION('',(#913),#1509);
#1518=PRODUCT_DEFINITION_CONTEXT('part definition',#1523,'design');
#1519=PRODUCT_DEFINITION('Smart Bin - hub plate',
'Smart Bin - hub plate v2',#1520,#1518);
#1520=PRODUCT_DEFINITION_FORMATION('',$,#1525);
#1521=PRODUCT_RELATED_PRODUCT_CATEGORY('Smart Bin - hub plate v2',
'Smart Bin - hub plate v2',(#1525));
#1522=APPLICATION_PROTOCOL_DEFINITION('international standard',
'automotive_design',2009,#1523);
#1523=APPLICATION_CONTEXT(
'Core Data for Automotive Mechanical Design Process');
#1524=PRODUCT_CONTEXT('part definition',#1523,'mechanical');
#1525=PRODUCT('Smart Bin - hub plate','Smart Bin - hub plate v2',$,(#1524));
#1526=PRESENTATION_STYLE_ASSIGNMENT((#1527));
#1527=SURFACE_STYLE_USAGE(.BOTH.,#1528);
#1528=SURFACE_SIDE_STYLE('',(#1529));
#1529=SURFACE_STYLE_FILL_AREA(#1530);
#1530=FILL_AREA_STYLE('Steel - Satin',(#1531));
#1531=FILL_AREA_STYLE_COLOUR('Steel - Satin',#1532);
#1532=COLOUR_RGB('Steel - Satin',0.627450980392157,0.627450980392157,0.627450980392157);
ENDSEC;
END-ISO-10303-21;
