ISO-10303-21;
HEADER;
/* Generated by software containing ST-Developer
 * from STEP Tools, Inc. (www.steptools.com) 
 */

FILE_DESCRIPTION(
/* description */ (''),
/* implementation_level */ '2;1');

FILE_NAME(
/* name */ 'tilt_cradle.step',
/* time_stamp */ '2026-08-11T13:41:12+10:00',
/* author */ (''),
/* organization */ (''),
/* preprocessor_version */ 'ST-DEVELOPER v20.1',
/* originating_system */ 'Autodesk Translation Framework v15.8.0.0',
/* authorisation */ '');

FILE_SCHEMA (('AUTOMOTIVE_DESIGN { 1 0 10303 214 3 1 1 }'));
ENDSEC;

DATA;
#10=MECHANICAL_DESIGN_GEOMETRIC_PRESENTATION_REPRESENTATION('',(#13),#1218);
#11=SHAPE_REPRESENTATION_RELATIONSHIP('SRR','None',#1225,#12);
#12=ADVANCED_BREP_SHAPE_REPRESENTATION('',(#14),#1217);
#13=STYLED_ITEM('',(#1234),#14);
#14=MANIFOLD_SOLID_BREP('Body4',#722);
#15=FACE_BOUND('',#120,.T.);
#16=FACE_BOUND('',#121,.T.);
#17=FACE_BOUND('',#122,.T.);
#18=FACE_BOUND('',#123,.T.);
#19=FACE_BOUND('',#124,.T.);
#20=FACE_BOUND('',#127,.T.);
#21=FACE_BOUND('',#131,.T.);
#22=FACE_BOUND('',#132,.T.);
#23=FACE_BOUND('',#133,.T.);
#24=FACE_BOUND('',#134,.T.);
#25=FACE_BOUND('',#135,.T.);
#26=FACE_BOUND('',#139,.T.);
#27=FACE_BOUND('',#140,.T.);
#28=FACE_BOUND('',#141,.T.);
#29=FACE_BOUND('',#142,.T.);
#30=FACE_BOUND('',#154,.T.);
#31=FACE_BOUND('',#156,.T.);
#32=FACE_BOUND('',#158,.T.);
#33=FACE_BOUND('',#159,.T.);
#34=FACE_BOUND('',#160,.T.);
#35=FACE_BOUND('',#161,.T.);
#36=PLANE('',#739);
#37=PLANE('',#743);
#38=PLANE('',#747);
#39=PLANE('',#751);
#40=PLANE('',#770);
#41=PLANE('',#774);
#42=PLANE('',#775);
#43=PLANE('',#776);
#44=PLANE('',#777);
#45=PLANE('',#778);
#46=PLANE('',#779);
#47=PLANE('',#780);
#48=PLANE('',#787);
#49=PLANE('',#790);
#50=PLANE('',#793);
#51=PLANE('',#796);
#52=PLANE('',#797);
#53=PLANE('',#798);
#54=PLANE('',#799);
#55=PLANE('',#800);
#56=PLANE('',#801);
#57=PLANE('',#802);
#58=PLANE('',#803);
#59=PLANE('',#804);
#60=PLANE('',#805);
#61=PLANE('',#806);
#62=PLANE('',#807);
#63=FACE_OUTER_BOUND('',#105,.T.);
#64=FACE_OUTER_BOUND('',#106,.T.);
#65=FACE_OUTER_BOUND('',#107,.T.);
#66=FACE_OUTER_BOUND('',#108,.T.);
#67=FACE_OUTER_BOUND('',#109,.T.);
#68=FACE_OUTER_BOUND('',#110,.T.);
#69=FACE_OUTER_BOUND('',#111,.T.);
#70=FACE_OUTER_BOUND('',#112,.T.);
#71=FACE_OUTER_BOUND('',#113,.T.);
#72=FACE_OUTER_BOUND('',#114,.T.);
#73=FACE_OUTER_BOUND('',#115,.T.);
#74=FACE_OUTER_BOUND('',#116,.T.);
#75=FACE_OUTER_BOUND('',#117,.T.);
#76=FACE_OUTER_BOUND('',#118,.T.);
#77=FACE_OUTER_BOUND('',#119,.T.);
#78=FACE_OUTER_BOUND('',#125,.T.);
#79=FACE_OUTER_BOUND('',#126,.T.);
#80=FACE_OUTER_BOUND('',#128,.T.);
#81=FACE_OUTER_BOUND('',#129,.T.);
#82=FACE_OUTER_BOUND('',#130,.T.);
#83=FACE_OUTER_BOUND('',#136,.T.);
#84=FACE_OUTER_BOUND('',#137,.T.);
#85=FACE_OUTER_BOUND('',#138,.T.);
#86=FACE_OUTER_BOUND('',#143,.T.);
#87=FACE_OUTER_BOUND('',#144,.T.);
#88=FACE_OUTER_BOUND('',#145,.T.);
#89=FACE_OUTER_BOUND('',#146,.T.);
#90=FACE_OUTER_BOUND('',#147,.T.);
#91=FACE_OUTER_BOUND('',#148,.T.);
#92=FACE_OUTER_BOUND('',#149,.T.);
#93=FACE_OUTER_BOUND('',#150,.T.);
#94=FACE_OUTER_BOUND('',#151,.T.);
#95=FACE_OUTER_BOUND('',#152,.T.);
#96=FACE_OUTER_BOUND('',#153,.T.);
#97=FACE_OUTER_BOUND('',#155,.T.);
#98=FACE_OUTER_BOUND('',#157,.T.);
#99=FACE_OUTER_BOUND('',#162,.T.);
#100=FACE_OUTER_BOUND('',#163,.T.);
#101=FACE_OUTER_BOUND('',#164,.T.);
#102=FACE_OUTER_BOUND('',#165,.T.);
#103=FACE_OUTER_BOUND('',#166,.T.);
#104=FACE_OUTER_BOUND('',#167,.T.);
#105=EDGE_LOOP('',(#479,#480,#481,#482));
#106=EDGE_LOOP('',(#483));
#107=EDGE_LOOP('',(#484,#485,#486,#487));
#108=EDGE_LOOP('',(#488));
#109=EDGE_LOOP('',(#489,#490,#491,#492));
#110=EDGE_LOOP('',(#493));
#111=EDGE_LOOP('',(#494,#495,#496,#497));
#112=EDGE_LOOP('',(#498));
#113=EDGE_LOOP('',(#499,#500,#501,#502));
#114=EDGE_LOOP('',(#503,#504,#505,#506));
#115=EDGE_LOOP('',(#507,#508,#509,#510));
#116=EDGE_LOOP('',(#511,#512,#513,#514));
#117=EDGE_LOOP('',(#515,#516,#517,#518));
#118=EDGE_LOOP('',(#519,#520,#521,#522));
#119=EDGE_LOOP('',(#523));
#120=EDGE_LOOP('',(#524));
#121=EDGE_LOOP('',(#525));
#122=EDGE_LOOP('',(#526));
#123=EDGE_LOOP('',(#527));
#124=EDGE_LOOP('',(#528));
#125=EDGE_LOOP('',(#529,#530,#531,#532));
#126=EDGE_LOOP('',(#533,#534,#535,#536));
#127=EDGE_LOOP('',(#537));
#128=EDGE_LOOP('',(#538,#539,#540,#541));
#129=EDGE_LOOP('',(#542,#543,#544,#545,#546,#547));
#130=EDGE_LOOP('',(#548,#549,#550,#551));
#131=EDGE_LOOP('',(#552));
#132=EDGE_LOOP('',(#553));
#133=EDGE_LOOP('',(#554));
#134=EDGE_LOOP('',(#555));
#135=EDGE_LOOP('',(#556));
#136=EDGE_LOOP('',(#557,#558,#559,#560));
#137=EDGE_LOOP('',(#561,#562,#563,#564,#565,#566));
#138=EDGE_LOOP('',(#567,#568,#569,#570,#571,#572,#573,#574,#575,#576,#577,
#578));
#139=EDGE_LOOP('',(#579));
#140=EDGE_LOOP('',(#580));
#141=EDGE_LOOP('',(#581));
#142=EDGE_LOOP('',(#582));
#143=EDGE_LOOP('',(#583,#584,#585,#586));
#144=EDGE_LOOP('',(#587));
#145=EDGE_LOOP('',(#588,#589,#590,#591));
#146=EDGE_LOOP('',(#592));
#147=EDGE_LOOP('',(#593,#594,#595,#596));
#148=EDGE_LOOP('',(#597));
#149=EDGE_LOOP('',(#598,#599,#600,#601));
#150=EDGE_LOOP('',(#602));
#151=EDGE_LOOP('',(#603,#604,#605,#606,#607,#608));
#152=EDGE_LOOP('',(#609,#610,#611,#612,#613,#614));
#153=EDGE_LOOP('',(#615,#616,#617,#618));
#154=EDGE_LOOP('',(#619));
#155=EDGE_LOOP('',(#620,#621,#622,#623));
#156=EDGE_LOOP('',(#624));
#157=EDGE_LOOP('',(#625,#626,#627,#628,#629,#630,#631,#632,#633,#634,#635,
#636));
#158=EDGE_LOOP('',(#637));
#159=EDGE_LOOP('',(#638));
#160=EDGE_LOOP('',(#639));
#161=EDGE_LOOP('',(#640));
#162=EDGE_LOOP('',(#641,#642,#643,#644));
#163=EDGE_LOOP('',(#645,#646,#647,#648));
#164=EDGE_LOOP('',(#649,#650,#651,#652));
#165=EDGE_LOOP('',(#653,#654,#655,#656));
#166=EDGE_LOOP('',(#657,#658,#659,#660));
#167=EDGE_LOOP('',(#661,#662,#663,#664));
#168=LINE('',#1022,#231);
#169=LINE('',#1029,#232);
#170=LINE('',#1036,#233);
#171=LINE('',#1043,#234);
#172=LINE('',#1050,#235);
#173=LINE('',#1056,#236);
#174=LINE('',#1062,#237);
#175=LINE('',#1068,#238);
#176=LINE('',#1074,#239);
#177=LINE('',#1080,#240);
#178=LINE('',#1087,#241);
#179=LINE('',#1092,#242);
#180=LINE('',#1094,#243);
#181=LINE('',#1096,#244);
#182=LINE('',#1097,#245);
#183=LINE('',#1100,#246);
#184=LINE('',#1102,#247);
#185=LINE('',#1103,#248);
#186=LINE('',#1106,#249);
#187=LINE('',#1108,#250);
#188=LINE('',#1110,#251);
#189=LINE('',#1111,#252);
#190=LINE('',#1115,#253);
#191=LINE('',#1117,#254);
#192=LINE('',#1119,#255);
#193=LINE('',#1120,#256);
#194=LINE('',#1123,#257);
#195=LINE('',#1125,#258);
#196=LINE('',#1126,#259);
#197=LINE('',#1129,#260);
#198=LINE('',#1131,#261);
#199=LINE('',#1133,#262);
#200=LINE('',#1134,#263);
#201=LINE('',#1137,#264);
#202=LINE('',#1139,#265);
#203=LINE('',#1141,#266);
#204=LINE('',#1142,#267);
#205=LINE('',#1144,#268);
#206=LINE('',#1146,#269);
#207=LINE('',#1148,#270);
#208=LINE('',#1149,#271);
#209=LINE('',#1160,#272);
#210=LINE('',#1165,#273);
#211=LINE('',#1170,#274);
#212=LINE('',#1175,#275);
#213=LINE('',#1181,#276);
#214=LINE('',#1182,#277);
#215=LINE('',#1183,#278);
#216=LINE('',#1187,#279);
#217=LINE('',#1188,#280);
#218=LINE('',#1189,#281);
#219=LINE('',#1191,#282);
#220=LINE('',#1193,#283);
#221=LINE('',#1196,#284);
#222=LINE('',#1198,#285);
#223=LINE('',#1199,#286);
#224=LINE('',#1201,#287);
#225=LINE('',#1203,#288);
#226=LINE('',#1204,#289);
#227=LINE('',#1206,#290);
#228=LINE('',#1208,#291);
#229=LINE('',#1210,#292);
#230=LINE('',#1212,#293);
#231=VECTOR('',#814,2.1);
#232=VECTOR('',#823,2.1);
#233=VECTOR('',#832,2.1);
#234=VECTOR('',#841,2.1);
#235=VECTOR('',#850,5.15);
#236=VECTOR('',#857,1.25);
#237=VECTOR('',#864,1.25);
#238=VECTOR('',#871,1.25);
#239=VECTOR('',#878,4.5);
#240=VECTOR('',#885,1.25);
#241=VECTOR('',#894,12.75);
#242=VECTOR('',#899,10.);
#243=VECTOR('',#900,10.);
#244=VECTOR('',#901,10.);
#245=VECTOR('',#902,10.);
#246=VECTOR('',#905,10.);
#247=VECTOR('',#906,10.);
#248=VECTOR('',#907,10.);
#249=VECTOR('',#910,10.);
#250=VECTOR('',#911,10.);
#251=VECTOR('',#912,10.);
#252=VECTOR('',#913,10.);
#253=VECTOR('',#916,10.);
#254=VECTOR('',#917,10.);
#255=VECTOR('',#918,10.);
#256=VECTOR('',#919,10.);
#257=VECTOR('',#922,10.);
#258=VECTOR('',#923,10.);
#259=VECTOR('',#924,10.);
#260=VECTOR('',#927,10.);
#261=VECTOR('',#928,10.);
#262=VECTOR('',#929,10.);
#263=VECTOR('',#930,10.);
#264=VECTOR('',#933,10.);
#265=VECTOR('',#934,10.);
#266=VECTOR('',#935,10.);
#267=VECTOR('',#936,10.);
#268=VECTOR('',#937,10.);
#269=VECTOR('',#938,10.);
#270=VECTOR('',#939,10.);
#271=VECTOR('',#940,10.);
#272=VECTOR('',#951,5.5);
#273=VECTOR('',#958,5.5);
#274=VECTOR('',#965,5.5);
#275=VECTOR('',#972,5.5);
#276=VECTOR('',#979,10.);
#277=VECTOR('',#980,10.);
#278=VECTOR('',#981,10.);
#279=VECTOR('',#984,10.);
#280=VECTOR('',#985,10.);
#281=VECTOR('',#986,10.);
#282=VECTOR('',#989,10.);
#283=VECTOR('',#992,10.);
#284=VECTOR('',#995,10.);
#285=VECTOR('',#996,10.);
#286=VECTOR('',#997,10.);
#287=VECTOR('',#998,10.);
#288=VECTOR('',#999,10.);
#289=VECTOR('',#1000,10.);
#290=VECTOR('',#1003,10.);
#291=VECTOR('',#1006,10.);
#292=VECTOR('',#1009,10.);
#293=VECTOR('',#1012,10.);
#294=CIRCLE('',#737,2.1);
#295=CIRCLE('',#738,2.1);
#296=CIRCLE('',#741,2.1);
#297=CIRCLE('',#742,2.1);
#298=CIRCLE('',#745,2.1);
#299=CIRCLE('',#746,2.1);
#300=CIRCLE('',#749,2.1);
#301=CIRCLE('',#750,2.1);
#302=CIRCLE('',#753,5.15);
#303=CIRCLE('',#754,5.15);
#304=CIRCLE('',#756,1.25);
#305=CIRCLE('',#757,1.25);
#306=CIRCLE('',#759,1.25);
#307=CIRCLE('',#760,1.25);
#308=CIRCLE('',#762,1.25);
#309=CIRCLE('',#763,1.25);
#310=CIRCLE('',#765,4.5);
#311=CIRCLE('',#766,4.5);
#312=CIRCLE('',#768,1.25);
#313=CIRCLE('',#769,1.25);
#314=CIRCLE('',#771,12.75);
#315=CIRCLE('',#773,12.75);
#316=CIRCLE('',#781,5.5);
#317=CIRCLE('',#782,5.5);
#318=CIRCLE('',#783,5.5);
#319=CIRCLE('',#784,5.5);
#320=CIRCLE('',#786,5.5);
#321=CIRCLE('',#789,5.5);
#322=CIRCLE('',#792,5.5);
#323=CIRCLE('',#795,5.5);
#324=VERTEX_POINT('',#1019);
#325=VERTEX_POINT('',#1021);
#326=VERTEX_POINT('',#1026);
#327=VERTEX_POINT('',#1028);
#328=VERTEX_POINT('',#1033);
#329=VERTEX_POINT('',#1035);
#330=VERTEX_POINT('',#1040);
#331=VERTEX_POINT('',#1042);
#332=VERTEX_POINT('',#1047);
#333=VERTEX_POINT('',#1049);
#334=VERTEX_POINT('',#1053);
#335=VERTEX_POINT('',#1055);
#336=VERTEX_POINT('',#1059);
#337=VERTEX_POINT('',#1061);
#338=VERTEX_POINT('',#1065);
#339=VERTEX_POINT('',#1067);
#340=VERTEX_POINT('',#1071);
#341=VERTEX_POINT('',#1073);
#342=VERTEX_POINT('',#1077);
#343=VERTEX_POINT('',#1079);
#344=VERTEX_POINT('',#1083);
#345=VERTEX_POINT('',#1086);
#346=VERTEX_POINT('',#1090);
#347=VERTEX_POINT('',#1091);
#348=VERTEX_POINT('',#1093);
#349=VERTEX_POINT('',#1095);
#350=VERTEX_POINT('',#1099);
#351=VERTEX_POINT('',#1101);
#352=VERTEX_POINT('',#1105);
#353=VERTEX_POINT('',#1107);
#354=VERTEX_POINT('',#1109);
#355=VERTEX_POINT('',#1113);
#356=VERTEX_POINT('',#1114);
#357=VERTEX_POINT('',#1116);
#358=VERTEX_POINT('',#1118);
#359=VERTEX_POINT('',#1122);
#360=VERTEX_POINT('',#1124);
#361=VERTEX_POINT('',#1128);
#362=VERTEX_POINT('',#1130);
#363=VERTEX_POINT('',#1132);
#364=VERTEX_POINT('',#1136);
#365=VERTEX_POINT('',#1138);
#366=VERTEX_POINT('',#1140);
#367=VERTEX_POINT('',#1143);
#368=VERTEX_POINT('',#1145);
#369=VERTEX_POINT('',#1147);
#370=VERTEX_POINT('',#1150);
#371=VERTEX_POINT('',#1152);
#372=VERTEX_POINT('',#1154);
#373=VERTEX_POINT('',#1156);
#374=VERTEX_POINT('',#1159);
#375=VERTEX_POINT('',#1164);
#376=VERTEX_POINT('',#1169);
#377=VERTEX_POINT('',#1174);
#378=VERTEX_POINT('',#1179);
#379=VERTEX_POINT('',#1180);
#380=VERTEX_POINT('',#1185);
#381=VERTEX_POINT('',#1186);
#382=VERTEX_POINT('',#1195);
#383=VERTEX_POINT('',#1197);
#384=VERTEX_POINT('',#1200);
#385=VERTEX_POINT('',#1202);
#386=EDGE_CURVE('',#324,#324,#294,.T.);
#387=EDGE_CURVE('',#324,#325,#168,.T.);
#388=EDGE_CURVE('',#325,#325,#295,.T.);
#389=EDGE_CURVE('',#326,#326,#296,.T.);
#390=EDGE_CURVE('',#326,#327,#169,.T.);
#391=EDGE_CURVE('',#327,#327,#297,.T.);
#392=EDGE_CURVE('',#328,#328,#298,.T.);
#393=EDGE_CURVE('',#328,#329,#170,.T.);
#394=EDGE_CURVE('',#329,#329,#299,.T.);
#395=EDGE_CURVE('',#330,#330,#300,.T.);
#396=EDGE_CURVE('',#330,#331,#171,.T.);
#397=EDGE_CURVE('',#331,#331,#301,.T.);
#398=EDGE_CURVE('',#332,#332,#302,.T.);
#399=EDGE_CURVE('',#332,#333,#172,.T.);
#400=EDGE_CURVE('',#333,#333,#303,.T.);
#401=EDGE_CURVE('',#334,#334,#304,.T.);
#402=EDGE_CURVE('',#334,#335,#173,.T.);
#403=EDGE_CURVE('',#335,#335,#305,.T.);
#404=EDGE_CURVE('',#336,#336,#306,.T.);
#405=EDGE_CURVE('',#336,#337,#174,.T.);
#406=EDGE_CURVE('',#337,#337,#307,.T.);
#407=EDGE_CURVE('',#338,#338,#308,.T.);
#408=EDGE_CURVE('',#338,#339,#175,.T.);
#409=EDGE_CURVE('',#339,#339,#309,.T.);
#410=EDGE_CURVE('',#340,#340,#310,.T.);
#411=EDGE_CURVE('',#340,#341,#176,.T.);
#412=EDGE_CURVE('',#341,#341,#311,.T.);
#413=EDGE_CURVE('',#342,#342,#312,.T.);
#414=EDGE_CURVE('',#342,#343,#177,.T.);
#415=EDGE_CURVE('',#343,#343,#313,.T.);
#416=EDGE_CURVE('',#344,#344,#314,.T.);
#417=EDGE_CURVE('',#344,#345,#178,.T.);
#418=EDGE_CURVE('',#345,#345,#315,.T.);
#419=EDGE_CURVE('',#346,#347,#179,.T.);
#420=EDGE_CURVE('',#346,#348,#180,.T.);
#421=EDGE_CURVE('',#348,#349,#181,.T.);
#422=EDGE_CURVE('',#349,#347,#182,.T.);
#423=EDGE_CURVE('',#349,#350,#183,.T.);
#424=EDGE_CURVE('',#351,#348,#184,.T.);
#425=EDGE_CURVE('',#350,#351,#185,.T.);
#426=EDGE_CURVE('',#346,#352,#186,.T.);
#427=EDGE_CURVE('',#353,#352,#187,.T.);
#428=EDGE_CURVE('',#354,#353,#188,.T.);
#429=EDGE_CURVE('',#351,#354,#189,.T.);
#430=EDGE_CURVE('',#355,#356,#190,.T.);
#431=EDGE_CURVE('',#355,#357,#191,.T.);
#432=EDGE_CURVE('',#357,#358,#192,.T.);
#433=EDGE_CURVE('',#358,#356,#193,.T.);
#434=EDGE_CURVE('',#359,#357,#194,.T.);
#435=EDGE_CURVE('',#360,#359,#195,.T.);
#436=EDGE_CURVE('',#358,#360,#196,.T.);
#437=EDGE_CURVE('',#355,#361,#197,.T.);
#438=EDGE_CURVE('',#362,#361,#198,.T.);
#439=EDGE_CURVE('',#363,#362,#199,.T.);
#440=EDGE_CURVE('',#359,#363,#200,.T.);
#441=EDGE_CURVE('',#364,#347,#201,.T.);
#442=EDGE_CURVE('',#365,#364,#202,.T.);
#443=EDGE_CURVE('',#366,#365,#203,.T.);
#444=EDGE_CURVE('',#361,#366,#204,.T.);
#445=EDGE_CURVE('',#367,#356,#205,.T.);
#446=EDGE_CURVE('',#368,#367,#206,.T.);
#447=EDGE_CURVE('',#369,#368,#207,.T.);
#448=EDGE_CURVE('',#352,#369,#208,.T.);
#449=EDGE_CURVE('',#370,#370,#316,.T.);
#450=EDGE_CURVE('',#371,#371,#317,.T.);
#451=EDGE_CURVE('',#372,#372,#318,.T.);
#452=EDGE_CURVE('',#373,#373,#319,.T.);
#453=EDGE_CURVE('',#373,#374,#209,.T.);
#454=EDGE_CURVE('',#374,#374,#320,.T.);
#455=EDGE_CURVE('',#372,#375,#210,.T.);
#456=EDGE_CURVE('',#375,#375,#321,.T.);
#457=EDGE_CURVE('',#371,#376,#211,.T.);
#458=EDGE_CURVE('',#376,#376,#322,.T.);
#459=EDGE_CURVE('',#370,#377,#212,.T.);
#460=EDGE_CURVE('',#377,#377,#323,.T.);
#461=EDGE_CURVE('',#378,#379,#213,.T.);
#462=EDGE_CURVE('',#367,#378,#214,.T.);
#463=EDGE_CURVE('',#360,#379,#215,.T.);
#464=EDGE_CURVE('',#380,#381,#216,.T.);
#465=EDGE_CURVE('',#364,#380,#217,.T.);
#466=EDGE_CURVE('',#350,#381,#218,.T.);
#467=EDGE_CURVE('',#379,#363,#219,.T.);
#468=EDGE_CURVE('',#381,#354,#220,.T.);
#469=EDGE_CURVE('',#353,#382,#221,.T.);
#470=EDGE_CURVE('',#382,#383,#222,.T.);
#471=EDGE_CURVE('',#383,#378,#223,.T.);
#472=EDGE_CURVE('',#362,#384,#224,.T.);
#473=EDGE_CURVE('',#384,#385,#225,.T.);
#474=EDGE_CURVE('',#385,#380,#226,.T.);
#475=EDGE_CURVE('',#366,#384,#227,.T.);
#476=EDGE_CURVE('',#365,#385,#228,.T.);
#477=EDGE_CURVE('',#368,#383,#229,.T.);
#478=EDGE_CURVE('',#369,#382,#230,.T.);
#479=ORIENTED_EDGE('',*,*,#386,.F.);
#480=ORIENTED_EDGE('',*,*,#387,.T.);
#481=ORIENTED_EDGE('',*,*,#388,.F.);
#482=ORIENTED_EDGE('',*,*,#387,.F.);
#483=ORIENTED_EDGE('',*,*,#386,.T.);
#484=ORIENTED_EDGE('',*,*,#389,.F.);
#485=ORIENTED_EDGE('',*,*,#390,.T.);
#486=ORIENTED_EDGE('',*,*,#391,.F.);
#487=ORIENTED_EDGE('',*,*,#390,.F.);
#488=ORIENTED_EDGE('',*,*,#389,.T.);
#489=ORIENTED_EDGE('',*,*,#392,.F.);
#490=ORIENTED_EDGE('',*,*,#393,.T.);
#491=ORIENTED_EDGE('',*,*,#394,.F.);
#492=ORIENTED_EDGE('',*,*,#393,.F.);
#493=ORIENTED_EDGE('',*,*,#392,.T.);
#494=ORIENTED_EDGE('',*,*,#395,.F.);
#495=ORIENTED_EDGE('',*,*,#396,.T.);
#496=ORIENTED_EDGE('',*,*,#397,.F.);
#497=ORIENTED_EDGE('',*,*,#396,.F.);
#498=ORIENTED_EDGE('',*,*,#395,.T.);
#499=ORIENTED_EDGE('',*,*,#398,.F.);
#500=ORIENTED_EDGE('',*,*,#399,.T.);
#501=ORIENTED_EDGE('',*,*,#400,.F.);
#502=ORIENTED_EDGE('',*,*,#399,.F.);
#503=ORIENTED_EDGE('',*,*,#401,.F.);
#504=ORIENTED_EDGE('',*,*,#402,.T.);
#505=ORIENTED_EDGE('',*,*,#403,.F.);
#506=ORIENTED_EDGE('',*,*,#402,.F.);
#507=ORIENTED_EDGE('',*,*,#404,.F.);
#508=ORIENTED_EDGE('',*,*,#405,.T.);
#509=ORIENTED_EDGE('',*,*,#406,.F.);
#510=ORIENTED_EDGE('',*,*,#405,.F.);
#511=ORIENTED_EDGE('',*,*,#407,.F.);
#512=ORIENTED_EDGE('',*,*,#408,.T.);
#513=ORIENTED_EDGE('',*,*,#409,.F.);
#514=ORIENTED_EDGE('',*,*,#408,.F.);
#515=ORIENTED_EDGE('',*,*,#410,.F.);
#516=ORIENTED_EDGE('',*,*,#411,.T.);
#517=ORIENTED_EDGE('',*,*,#412,.F.);
#518=ORIENTED_EDGE('',*,*,#411,.F.);
#519=ORIENTED_EDGE('',*,*,#413,.F.);
#520=ORIENTED_EDGE('',*,*,#414,.T.);
#521=ORIENTED_EDGE('',*,*,#415,.F.);
#522=ORIENTED_EDGE('',*,*,#414,.F.);
#523=ORIENTED_EDGE('',*,*,#416,.F.);
#524=ORIENTED_EDGE('',*,*,#415,.T.);
#525=ORIENTED_EDGE('',*,*,#412,.T.);
#526=ORIENTED_EDGE('',*,*,#409,.T.);
#527=ORIENTED_EDGE('',*,*,#406,.T.);
#528=ORIENTED_EDGE('',*,*,#403,.T.);
#529=ORIENTED_EDGE('',*,*,#416,.T.);
#530=ORIENTED_EDGE('',*,*,#417,.T.);
#531=ORIENTED_EDGE('',*,*,#418,.F.);
#532=ORIENTED_EDGE('',*,*,#417,.F.);
#533=ORIENTED_EDGE('',*,*,#419,.F.);
#534=ORIENTED_EDGE('',*,*,#420,.T.);
#535=ORIENTED_EDGE('',*,*,#421,.T.);
#536=ORIENTED_EDGE('',*,*,#422,.T.);
#537=ORIENTED_EDGE('',*,*,#400,.T.);
#538=ORIENTED_EDGE('',*,*,#423,.F.);
#539=ORIENTED_EDGE('',*,*,#421,.F.);
#540=ORIENTED_EDGE('',*,*,#424,.F.);
#541=ORIENTED_EDGE('',*,*,#425,.F.);
#542=ORIENTED_EDGE('',*,*,#426,.T.);
#543=ORIENTED_EDGE('',*,*,#427,.F.);
#544=ORIENTED_EDGE('',*,*,#428,.F.);
#545=ORIENTED_EDGE('',*,*,#429,.F.);
#546=ORIENTED_EDGE('',*,*,#424,.T.);
#547=ORIENTED_EDGE('',*,*,#420,.F.);
#548=ORIENTED_EDGE('',*,*,#430,.F.);
#549=ORIENTED_EDGE('',*,*,#431,.T.);
#550=ORIENTED_EDGE('',*,*,#432,.T.);
#551=ORIENTED_EDGE('',*,*,#433,.T.);
#552=ORIENTED_EDGE('',*,*,#413,.T.);
#553=ORIENTED_EDGE('',*,*,#410,.T.);
#554=ORIENTED_EDGE('',*,*,#407,.T.);
#555=ORIENTED_EDGE('',*,*,#404,.T.);
#556=ORIENTED_EDGE('',*,*,#401,.T.);
#557=ORIENTED_EDGE('',*,*,#434,.F.);
#558=ORIENTED_EDGE('',*,*,#435,.F.);
#559=ORIENTED_EDGE('',*,*,#436,.F.);
#560=ORIENTED_EDGE('',*,*,#432,.F.);
#561=ORIENTED_EDGE('',*,*,#437,.T.);
#562=ORIENTED_EDGE('',*,*,#438,.F.);
#563=ORIENTED_EDGE('',*,*,#439,.F.);
#564=ORIENTED_EDGE('',*,*,#440,.F.);
#565=ORIENTED_EDGE('',*,*,#434,.T.);
#566=ORIENTED_EDGE('',*,*,#431,.F.);
#567=ORIENTED_EDGE('',*,*,#419,.T.);
#568=ORIENTED_EDGE('',*,*,#441,.F.);
#569=ORIENTED_EDGE('',*,*,#442,.F.);
#570=ORIENTED_EDGE('',*,*,#443,.F.);
#571=ORIENTED_EDGE('',*,*,#444,.F.);
#572=ORIENTED_EDGE('',*,*,#437,.F.);
#573=ORIENTED_EDGE('',*,*,#430,.T.);
#574=ORIENTED_EDGE('',*,*,#445,.F.);
#575=ORIENTED_EDGE('',*,*,#446,.F.);
#576=ORIENTED_EDGE('',*,*,#447,.F.);
#577=ORIENTED_EDGE('',*,*,#448,.F.);
#578=ORIENTED_EDGE('',*,*,#426,.F.);
#579=ORIENTED_EDGE('',*,*,#449,.T.);
#580=ORIENTED_EDGE('',*,*,#450,.T.);
#581=ORIENTED_EDGE('',*,*,#451,.T.);
#582=ORIENTED_EDGE('',*,*,#452,.T.);
#583=ORIENTED_EDGE('',*,*,#452,.F.);
#584=ORIENTED_EDGE('',*,*,#453,.T.);
#585=ORIENTED_EDGE('',*,*,#454,.T.);
#586=ORIENTED_EDGE('',*,*,#453,.F.);
#587=ORIENTED_EDGE('',*,*,#454,.F.);
#588=ORIENTED_EDGE('',*,*,#451,.F.);
#589=ORIENTED_EDGE('',*,*,#455,.T.);
#590=ORIENTED_EDGE('',*,*,#456,.T.);
#591=ORIENTED_EDGE('',*,*,#455,.F.);
#592=ORIENTED_EDGE('',*,*,#456,.F.);
#593=ORIENTED_EDGE('',*,*,#450,.F.);
#594=ORIENTED_EDGE('',*,*,#457,.T.);
#595=ORIENTED_EDGE('',*,*,#458,.T.);
#596=ORIENTED_EDGE('',*,*,#457,.F.);
#597=ORIENTED_EDGE('',*,*,#458,.F.);
#598=ORIENTED_EDGE('',*,*,#449,.F.);
#599=ORIENTED_EDGE('',*,*,#459,.T.);
#600=ORIENTED_EDGE('',*,*,#460,.T.);
#601=ORIENTED_EDGE('',*,*,#459,.F.);
#602=ORIENTED_EDGE('',*,*,#460,.F.);
#603=ORIENTED_EDGE('',*,*,#461,.F.);
#604=ORIENTED_EDGE('',*,*,#462,.F.);
#605=ORIENTED_EDGE('',*,*,#445,.T.);
#606=ORIENTED_EDGE('',*,*,#433,.F.);
#607=ORIENTED_EDGE('',*,*,#436,.T.);
#608=ORIENTED_EDGE('',*,*,#463,.T.);
#609=ORIENTED_EDGE('',*,*,#464,.F.);
#610=ORIENTED_EDGE('',*,*,#465,.F.);
#611=ORIENTED_EDGE('',*,*,#441,.T.);
#612=ORIENTED_EDGE('',*,*,#422,.F.);
#613=ORIENTED_EDGE('',*,*,#423,.T.);
#614=ORIENTED_EDGE('',*,*,#466,.T.);
#615=ORIENTED_EDGE('',*,*,#440,.T.);
#616=ORIENTED_EDGE('',*,*,#467,.F.);
#617=ORIENTED_EDGE('',*,*,#463,.F.);
#618=ORIENTED_EDGE('',*,*,#435,.T.);
#619=ORIENTED_EDGE('',*,*,#418,.T.);
#620=ORIENTED_EDGE('',*,*,#429,.T.);
#621=ORIENTED_EDGE('',*,*,#468,.F.);
#622=ORIENTED_EDGE('',*,*,#466,.F.);
#623=ORIENTED_EDGE('',*,*,#425,.T.);
#624=ORIENTED_EDGE('',*,*,#398,.T.);
#625=ORIENTED_EDGE('',*,*,#428,.T.);
#626=ORIENTED_EDGE('',*,*,#469,.T.);
#627=ORIENTED_EDGE('',*,*,#470,.T.);
#628=ORIENTED_EDGE('',*,*,#471,.T.);
#629=ORIENTED_EDGE('',*,*,#461,.T.);
#630=ORIENTED_EDGE('',*,*,#467,.T.);
#631=ORIENTED_EDGE('',*,*,#439,.T.);
#632=ORIENTED_EDGE('',*,*,#472,.T.);
#633=ORIENTED_EDGE('',*,*,#473,.T.);
#634=ORIENTED_EDGE('',*,*,#474,.T.);
#635=ORIENTED_EDGE('',*,*,#464,.T.);
#636=ORIENTED_EDGE('',*,*,#468,.T.);
#637=ORIENTED_EDGE('',*,*,#388,.T.);
#638=ORIENTED_EDGE('',*,*,#391,.T.);
#639=ORIENTED_EDGE('',*,*,#394,.T.);
#640=ORIENTED_EDGE('',*,*,#397,.T.);
#641=ORIENTED_EDGE('',*,*,#438,.T.);
#642=ORIENTED_EDGE('',*,*,#444,.T.);
#643=ORIENTED_EDGE('',*,*,#475,.T.);
#644=ORIENTED_EDGE('',*,*,#472,.F.);
#645=ORIENTED_EDGE('',*,*,#465,.T.);
#646=ORIENTED_EDGE('',*,*,#474,.F.);
#647=ORIENTED_EDGE('',*,*,#476,.F.);
#648=ORIENTED_EDGE('',*,*,#442,.T.);
#649=ORIENTED_EDGE('',*,*,#462,.T.);
#650=ORIENTED_EDGE('',*,*,#471,.F.);
#651=ORIENTED_EDGE('',*,*,#477,.F.);
#652=ORIENTED_EDGE('',*,*,#446,.T.);
#653=ORIENTED_EDGE('',*,*,#447,.T.);
#654=ORIENTED_EDGE('',*,*,#477,.T.);
#655=ORIENTED_EDGE('',*,*,#470,.F.);
#656=ORIENTED_EDGE('',*,*,#478,.F.);
#657=ORIENTED_EDGE('',*,*,#427,.T.);
#658=ORIENTED_EDGE('',*,*,#448,.T.);
#659=ORIENTED_EDGE('',*,*,#478,.T.);
#660=ORIENTED_EDGE('',*,*,#469,.F.);
#661=ORIENTED_EDGE('',*,*,#443,.T.);
#662=ORIENTED_EDGE('',*,*,#476,.T.);
#663=ORIENTED_EDGE('',*,*,#473,.F.);
#664=ORIENTED_EDGE('',*,*,#475,.F.);
#665=CYLINDRICAL_SURFACE('',#736,2.1);
#666=CYLINDRICAL_SURFACE('',#740,2.1);
#667=CYLINDRICAL_SURFACE('',#744,2.1);
#668=CYLINDRICAL_SURFACE('',#748,2.1);
#669=CYLINDRICAL_SURFACE('',#752,5.15);
#670=CYLINDRICAL_SURFACE('',#755,1.25);
#671=CYLINDRICAL_SURFACE('',#758,1.25);
#672=CYLINDRICAL_SURFACE('',#761,1.25);
#673=CYLINDRICAL_SURFACE('',#764,4.5);
#674=CYLINDRICAL_SURFACE('',#767,1.25);
#675=CYLINDRICAL_SURFACE('',#772,12.75);
#676=CYLINDRICAL_SURFACE('',#785,5.5);
#677=CYLINDRICAL_SURFACE('',#788,5.5);
#678=CYLINDRICAL_SURFACE('',#791,5.5);
#679=CYLINDRICAL_SURFACE('',#794,5.5);
#680=ADVANCED_FACE('',(#63),#665,.F.);
#681=ADVANCED_FACE('',(#64),#36,.T.);
#682=ADVANCED_FACE('',(#65),#666,.F.);
#683=ADVANCED_FACE('',(#66),#37,.T.);
#684=ADVANCED_FACE('',(#67),#667,.F.);
#685=ADVANCED_FACE('',(#68),#38,.T.);
#686=ADVANCED_FACE('',(#69),#668,.F.);
#687=ADVANCED_FACE('',(#70),#39,.T.);
#688=ADVANCED_FACE('',(#71),#669,.F.);
#689=ADVANCED_FACE('',(#72),#670,.F.);
#690=ADVANCED_FACE('',(#73),#671,.F.);
#691=ADVANCED_FACE('',(#74),#672,.F.);
#692=ADVANCED_FACE('',(#75),#673,.F.);
#693=ADVANCED_FACE('',(#76),#674,.F.);
#694=ADVANCED_FACE('',(#77,#15,#16,#17,#18,#19),#40,.T.);
#695=ADVANCED_FACE('',(#78),#675,.F.);
#696=ADVANCED_FACE('',(#79,#20),#41,.T.);
#697=ADVANCED_FACE('',(#80),#42,.T.);
#698=ADVANCED_FACE('',(#81),#43,.T.);
#699=ADVANCED_FACE('',(#82,#21,#22,#23,#24,#25),#44,.T.);
#700=ADVANCED_FACE('',(#83),#45,.T.);
#701=ADVANCED_FACE('',(#84),#46,.T.);
#702=ADVANCED_FACE('',(#85,#26,#27,#28,#29),#47,.F.);
#703=ADVANCED_FACE('',(#86),#676,.T.);
#704=ADVANCED_FACE('',(#87),#48,.F.);
#705=ADVANCED_FACE('',(#88),#677,.T.);
#706=ADVANCED_FACE('',(#89),#49,.F.);
#707=ADVANCED_FACE('',(#90),#678,.T.);
#708=ADVANCED_FACE('',(#91),#50,.F.);
#709=ADVANCED_FACE('',(#92),#679,.T.);
#710=ADVANCED_FACE('',(#93),#51,.F.);
#711=ADVANCED_FACE('',(#94),#52,.T.);
#712=ADVANCED_FACE('',(#95),#53,.T.);
#713=ADVANCED_FACE('',(#96,#30),#54,.T.);
#714=ADVANCED_FACE('',(#97,#31),#55,.T.);
#715=ADVANCED_FACE('',(#98,#32,#33,#34,#35),#56,.T.);
#716=ADVANCED_FACE('',(#99),#57,.T.);
#717=ADVANCED_FACE('',(#100),#58,.T.);
#718=ADVANCED_FACE('',(#101),#59,.T.);
#719=ADVANCED_FACE('',(#102),#60,.T.);
#720=ADVANCED_FACE('',(#103),#61,.T.);
#721=ADVANCED_FACE('',(#104),#62,.T.);
#722=CLOSED_SHELL('',(#680,#681,#682,#683,#684,#685,#686,#687,#688,#689,
#690,#691,#692,#693,#694,#695,#696,#697,#698,#699,#700,#701,#702,#703,#704,
#705,#706,#707,#708,#709,#710,#711,#712,#713,#714,#715,#716,#717,#718,#719,
#720,#721));
#723=DERIVED_UNIT_ELEMENT(#725,1.);
#724=DERIVED_UNIT_ELEMENT(#1220,-3.);
#725=(
MASS_UNIT()
NAMED_UNIT(*)
SI_UNIT(.KILO.,.GRAM.)
);
#726=DERIVED_UNIT((#723,#724));
#727=MEASURE_REPRESENTATION_ITEM('density measure',
POSITIVE_RATIO_MEASURE(7850.),#726);
#728=PROPERTY_DEFINITION_REPRESENTATION(#733,#730);
#729=PROPERTY_DEFINITION_REPRESENTATION(#734,#731);
#730=REPRESENTATION('material name',(#732),#1217);
#731=REPRESENTATION('density',(#727),#1217);
#732=DESCRIPTIVE_REPRESENTATION_ITEM('Steel','Steel');
#733=PROPERTY_DEFINITION('material property','material name',#1227);
#734=PROPERTY_DEFINITION('material property','density of part',#1227);
#735=AXIS2_PLACEMENT_3D('',#1017,#808,#809);
#736=AXIS2_PLACEMENT_3D('',#1018,#810,#811);
#737=AXIS2_PLACEMENT_3D('',#1020,#812,#813);
#738=AXIS2_PLACEMENT_3D('',#1023,#815,#816);
#739=AXIS2_PLACEMENT_3D('',#1024,#817,#818);
#740=AXIS2_PLACEMENT_3D('',#1025,#819,#820);
#741=AXIS2_PLACEMENT_3D('',#1027,#821,#822);
#742=AXIS2_PLACEMENT_3D('',#1030,#824,#825);
#743=AXIS2_PLACEMENT_3D('',#1031,#826,#827);
#744=AXIS2_PLACEMENT_3D('',#1032,#828,#829);
#745=AXIS2_PLACEMENT_3D('',#1034,#830,#831);
#746=AXIS2_PLACEMENT_3D('',#1037,#833,#834);
#747=AXIS2_PLACEMENT_3D('',#1038,#835,#836);
#748=AXIS2_PLACEMENT_3D('',#1039,#837,#838);
#749=AXIS2_PLACEMENT_3D('',#1041,#839,#840);
#750=AXIS2_PLACEMENT_3D('',#1044,#842,#843);
#751=AXIS2_PLACEMENT_3D('',#1045,#844,#845);
#752=AXIS2_PLACEMENT_3D('',#1046,#846,#847);
#753=AXIS2_PLACEMENT_3D('',#1048,#848,#849);
#754=AXIS2_PLACEMENT_3D('',#1051,#851,#852);
#755=AXIS2_PLACEMENT_3D('',#1052,#853,#854);
#756=AXIS2_PLACEMENT_3D('',#1054,#855,#856);
#757=AXIS2_PLACEMENT_3D('',#1057,#858,#859);
#758=AXIS2_PLACEMENT_3D('',#1058,#860,#861);
#759=AXIS2_PLACEMENT_3D('',#1060,#862,#863);
#760=AXIS2_PLACEMENT_3D('',#1063,#865,#866);
#761=AXIS2_PLACEMENT_3D('',#1064,#867,#868);
#762=AXIS2_PLACEMENT_3D('',#1066,#869,#870);
#763=AXIS2_PLACEMENT_3D('',#1069,#872,#873);
#764=AXIS2_PLACEMENT_3D('',#1070,#874,#875);
#765=AXIS2_PLACEMENT_3D('',#1072,#876,#877);
#766=AXIS2_PLACEMENT_3D('',#1075,#879,#880);
#767=AXIS2_PLACEMENT_3D('',#1076,#881,#882);
#768=AXIS2_PLACEMENT_3D('',#1078,#883,#884);
#769=AXIS2_PLACEMENT_3D('',#1081,#886,#887);
#770=AXIS2_PLACEMENT_3D('',#1082,#888,#889);
#771=AXIS2_PLACEMENT_3D('',#1084,#890,#891);
#772=AXIS2_PLACEMENT_3D('',#1085,#892,#893);
#773=AXIS2_PLACEMENT_3D('',#1088,#895,#896);
#774=AXIS2_PLACEMENT_3D('',#1089,#897,#898);
#775=AXIS2_PLACEMENT_3D('',#1098,#903,#904);
#776=AXIS2_PLACEMENT_3D('',#1104,#908,#909);
#777=AXIS2_PLACEMENT_3D('',#1112,#914,#915);
#778=AXIS2_PLACEMENT_3D('',#1121,#920,#921);
#779=AXIS2_PLACEMENT_3D('',#1127,#925,#926);
#780=AXIS2_PLACEMENT_3D('',#1135,#931,#932);
#781=AXIS2_PLACEMENT_3D('',#1151,#941,#942);
#782=AXIS2_PLACEMENT_3D('',#1153,#943,#944);
#783=AXIS2_PLACEMENT_3D('',#1155,#945,#946);
#784=AXIS2_PLACEMENT_3D('',#1157,#947,#948);
#785=AXIS2_PLACEMENT_3D('',#1158,#949,#950);
#786=AXIS2_PLACEMENT_3D('',#1161,#952,#953);
#787=AXIS2_PLACEMENT_3D('',#1162,#954,#955);
#788=AXIS2_PLACEMENT_3D('',#1163,#956,#957);
#789=AXIS2_PLACEMENT_3D('',#1166,#959,#960);
#790=AXIS2_PLACEMENT_3D('',#1167,#961,#962);
#791=AXIS2_PLACEMENT_3D('',#1168,#963,#964);
#792=AXIS2_PLACEMENT_3D('',#1171,#966,#967);
#793=AXIS2_PLACEMENT_3D('',#1172,#968,#969);
#794=AXIS2_PLACEMENT_3D('',#1173,#970,#971);
#795=AXIS2_PLACEMENT_3D('',#1176,#973,#974);
#796=AXIS2_PLACEMENT_3D('',#1177,#975,#976);
#797=AXIS2_PLACEMENT_3D('',#1178,#977,#978);
#798=AXIS2_PLACEMENT_3D('',#1184,#982,#983);
#799=AXIS2_PLACEMENT_3D('',#1190,#987,#988);
#800=AXIS2_PLACEMENT_3D('',#1192,#990,#991);
#801=AXIS2_PLACEMENT_3D('',#1194,#993,#994);
#802=AXIS2_PLACEMENT_3D('',#1205,#1001,#1002);
#803=AXIS2_PLACEMENT_3D('',#1207,#1004,#1005);
#804=AXIS2_PLACEMENT_3D('',#1209,#1007,#1008);
#805=AXIS2_PLACEMENT_3D('',#1211,#1010,#1011);
#806=AXIS2_PLACEMENT_3D('',#1213,#1013,#1014);
#807=AXIS2_PLACEMENT_3D('',#1214,#1015,#1016);
#808=DIRECTION('axis',(0.,0.,1.));
#809=DIRECTION('refdir',(1.,0.,0.));
#810=DIRECTION('center_axis',(0.,0.,1.));
#811=DIRECTION('ref_axis',(1.,0.,0.));
#812=DIRECTION('center_axis',(0.,0.,1.));
#813=DIRECTION('ref_axis',(1.,0.,0.));
#814=DIRECTION('',(0.,0.,1.));
#815=DIRECTION('center_axis',(0.,0.,-1.));
#816=DIRECTION('ref_axis',(1.,0.,0.));
#817=DIRECTION('center_axis',(0.,0.,1.));
#818=DIRECTION('ref_axis',(1.,0.,0.));
#819=DIRECTION('center_axis',(0.,0.,1.));
#820=DIRECTION('ref_axis',(1.,0.,0.));
#821=DIRECTION('center_axis',(0.,0.,1.));
#822=DIRECTION('ref_axis',(1.,0.,0.));
#823=DIRECTION('',(0.,0.,1.));
#824=DIRECTION('center_axis',(0.,0.,-1.));
#825=DIRECTION('ref_axis',(1.,0.,0.));
#826=DIRECTION('center_axis',(0.,0.,1.));
#827=DIRECTION('ref_axis',(1.,0.,0.));
#828=DIRECTION('center_axis',(0.,0.,1.));
#829=DIRECTION('ref_axis',(1.,0.,0.));
#830=DIRECTION('center_axis',(0.,0.,1.));
#831=DIRECTION('ref_axis',(1.,0.,0.));
#832=DIRECTION('',(0.,0.,1.));
#833=DIRECTION('center_axis',(0.,0.,-1.));
#834=DIRECTION('ref_axis',(1.,0.,0.));
#835=DIRECTION('center_axis',(0.,0.,1.));
#836=DIRECTION('ref_axis',(1.,0.,0.));
#837=DIRECTION('center_axis',(0.,0.,1.));
#838=DIRECTION('ref_axis',(1.,0.,0.));
#839=DIRECTION('center_axis',(0.,0.,1.));
#840=DIRECTION('ref_axis',(1.,0.,0.));
#841=DIRECTION('',(0.,0.,1.));
#842=DIRECTION('center_axis',(0.,0.,-1.));
#843=DIRECTION('ref_axis',(1.,0.,0.));
#844=DIRECTION('center_axis',(0.,0.,1.));
#845=DIRECTION('ref_axis',(1.,0.,0.));
#846=DIRECTION('center_axis',(0.,1.,0.));
#847=DIRECTION('ref_axis',(1.,0.,0.));
#848=DIRECTION('center_axis',(0.,1.,0.));
#849=DIRECTION('ref_axis',(1.,0.,0.));
#850=DIRECTION('',(0.,1.,0.));
#851=DIRECTION('center_axis',(0.,-1.,0.));
#852=DIRECTION('ref_axis',(1.,0.,0.));
#853=DIRECTION('center_axis',(0.,1.,0.));
#854=DIRECTION('ref_axis',(1.,0.,0.));
#855=DIRECTION('center_axis',(0.,1.,0.));
#856=DIRECTION('ref_axis',(1.,0.,0.));
#857=DIRECTION('',(0.,1.,0.));
#858=DIRECTION('center_axis',(0.,-1.,0.));
#859=DIRECTION('ref_axis',(1.,0.,0.));
#860=DIRECTION('center_axis',(0.,1.,0.));
#861=DIRECTION('ref_axis',(1.,0.,0.));
#862=DIRECTION('center_axis',(0.,1.,0.));
#863=DIRECTION('ref_axis',(1.,0.,0.));
#864=DIRECTION('',(0.,1.,0.));
#865=DIRECTION('center_axis',(0.,-1.,0.));
#866=DIRECTION('ref_axis',(1.,0.,0.));
#867=DIRECTION('center_axis',(0.,1.,0.));
#868=DIRECTION('ref_axis',(1.,0.,0.));
#869=DIRECTION('center_axis',(0.,1.,0.));
#870=DIRECTION('ref_axis',(1.,0.,0.));
#871=DIRECTION('',(0.,1.,0.));
#872=DIRECTION('center_axis',(0.,-1.,0.));
#873=DIRECTION('ref_axis',(1.,0.,0.));
#874=DIRECTION('center_axis',(0.,1.,0.));
#875=DIRECTION('ref_axis',(1.,0.,0.));
#876=DIRECTION('center_axis',(0.,1.,0.));
#877=DIRECTION('ref_axis',(1.,0.,0.));
#878=DIRECTION('',(0.,1.,0.));
#879=DIRECTION('center_axis',(0.,-1.,0.));
#880=DIRECTION('ref_axis',(1.,0.,0.));
#881=DIRECTION('center_axis',(0.,1.,0.));
#882=DIRECTION('ref_axis',(1.,0.,0.));
#883=DIRECTION('center_axis',(0.,1.,0.));
#884=DIRECTION('ref_axis',(1.,0.,0.));
#885=DIRECTION('',(0.,1.,0.));
#886=DIRECTION('center_axis',(0.,-1.,0.));
#887=DIRECTION('ref_axis',(1.,0.,0.));
#888=DIRECTION('center_axis',(0.,1.,0.));
#889=DIRECTION('ref_axis',(1.,0.,0.));
#890=DIRECTION('center_axis',(0.,-1.,0.));
#891=DIRECTION('ref_axis',(1.,0.,0.));
#892=DIRECTION('center_axis',(0.,1.,0.));
#893=DIRECTION('ref_axis',(1.,0.,0.));
#894=DIRECTION('',(0.,1.,0.));
#895=DIRECTION('center_axis',(2.77555756156289E-16,-1.,0.));
#896=DIRECTION('ref_axis',(1.,0.,0.));
#897=DIRECTION('center_axis',(0.,1.,0.));
#898=DIRECTION('ref_axis',(0.,0.,1.));
#899=DIRECTION('',(-1.,0.,0.));
#900=DIRECTION('',(0.,0.,-1.));
#901=DIRECTION('',(-1.,0.,0.));
#902=DIRECTION('',(0.,0.,1.));
#903=DIRECTION('center_axis',(0.,0.,-1.));
#904=DIRECTION('ref_axis',(-1.,0.,0.));
#905=DIRECTION('',(0.,-1.,0.));
#906=DIRECTION('',(0.,1.,0.));
#907=DIRECTION('',(1.,0.,0.));
#908=DIRECTION('center_axis',(1.,0.,0.));
#909=DIRECTION('ref_axis',(0.,1.,0.));
#910=DIRECTION('',(0.,1.,0.));
#911=DIRECTION('',(0.,0.,-1.));
#912=DIRECTION('',(0.,1.,0.));
#913=DIRECTION('',(0.,0.,1.));
#914=DIRECTION('center_axis',(0.,-1.,0.));
#915=DIRECTION('ref_axis',(0.,0.,-1.));
#916=DIRECTION('',(1.,0.,0.));
#917=DIRECTION('',(0.,0.,-1.));
#918=DIRECTION('',(1.,0.,0.));
#919=DIRECTION('',(0.,0.,1.));
#920=DIRECTION('center_axis',(0.,0.,-1.));
#921=DIRECTION('ref_axis',(-1.,0.,0.));
#922=DIRECTION('',(0.,-1.,0.));
#923=DIRECTION('',(-1.,0.,0.));
#924=DIRECTION('',(0.,1.,0.));
#925=DIRECTION('center_axis',(-1.,0.,0.));
#926=DIRECTION('ref_axis',(0.,-1.,0.));
#927=DIRECTION('',(0.,-1.,0.));
#928=DIRECTION('',(0.,0.,-1.));
#929=DIRECTION('',(0.,-1.,0.));
#930=DIRECTION('',(0.,0.,1.));
#931=DIRECTION('center_axis',(0.,0.,1.));
#932=DIRECTION('ref_axis',(1.,0.,0.));
#933=DIRECTION('',(0.,-1.,0.));
#934=DIRECTION('',(1.,0.,0.));
#935=DIRECTION('',(0.,-1.,0.));
#936=DIRECTION('',(-1.,0.,0.));
#937=DIRECTION('',(0.,1.,0.));
#938=DIRECTION('',(-1.,0.,0.));
#939=DIRECTION('',(0.,1.,0.));
#940=DIRECTION('',(1.,0.,0.));
#941=DIRECTION('center_axis',(0.,0.,1.));
#942=DIRECTION('ref_axis',(1.,0.,0.));
#943=DIRECTION('center_axis',(0.,0.,1.));
#944=DIRECTION('ref_axis',(1.,0.,0.));
#945=DIRECTION('center_axis',(0.,0.,1.));
#946=DIRECTION('ref_axis',(1.,0.,0.));
#947=DIRECTION('center_axis',(0.,0.,1.));
#948=DIRECTION('ref_axis',(1.,0.,0.));
#949=DIRECTION('center_axis',(0.,0.,1.));
#950=DIRECTION('ref_axis',(1.,0.,0.));
#951=DIRECTION('',(0.,0.,-1.));
#952=DIRECTION('center_axis',(0.,0.,1.));
#953=DIRECTION('ref_axis',(1.,0.,0.));
#954=DIRECTION('center_axis',(0.,0.,1.));
#955=DIRECTION('ref_axis',(1.,0.,0.));
#956=DIRECTION('center_axis',(0.,0.,1.));
#957=DIRECTION('ref_axis',(1.,0.,0.));
#958=DIRECTION('',(0.,0.,-1.));
#959=DIRECTION('center_axis',(0.,0.,1.));
#960=DIRECTION('ref_axis',(1.,0.,0.));
#961=DIRECTION('center_axis',(0.,0.,1.));
#962=DIRECTION('ref_axis',(1.,0.,0.));
#963=DIRECTION('center_axis',(0.,0.,1.));
#964=DIRECTION('ref_axis',(1.,0.,0.));
#965=DIRECTION('',(0.,0.,-1.));
#966=DIRECTION('center_axis',(0.,0.,1.));
#967=DIRECTION('ref_axis',(1.,0.,0.));
#968=DIRECTION('center_axis',(0.,0.,1.));
#969=DIRECTION('ref_axis',(1.,0.,0.));
#970=DIRECTION('center_axis',(0.,0.,1.));
#971=DIRECTION('ref_axis',(1.,0.,0.));
#972=DIRECTION('',(0.,0.,-1.));
#973=DIRECTION('center_axis',(0.,0.,1.));
#974=DIRECTION('ref_axis',(1.,0.,0.));
#975=DIRECTION('center_axis',(0.,0.,1.));
#976=DIRECTION('ref_axis',(1.,0.,0.));
#977=DIRECTION('center_axis',(1.,0.,0.));
#978=DIRECTION('ref_axis',(0.,1.,0.));
#979=DIRECTION('',(0.,1.,0.));
#980=DIRECTION('',(0.,0.,1.));
#981=DIRECTION('',(0.,0.,1.));
#982=DIRECTION('center_axis',(-1.,0.,0.));
#983=DIRECTION('ref_axis',(0.,-1.,0.));
#984=DIRECTION('',(0.,-1.,0.));
#985=DIRECTION('',(0.,0.,1.));
#986=DIRECTION('',(0.,0.,1.));
#987=DIRECTION('center_axis',(-2.77555756156289E-16,1.,0.));
#988=DIRECTION('ref_axis',(-1.,-2.77555756156289E-16,0.));
#989=DIRECTION('',(-1.,-2.77555756156289E-16,0.));
#990=DIRECTION('center_axis',(0.,-1.,0.));
#991=DIRECTION('ref_axis',(1.,0.,0.));
#992=DIRECTION('',(1.,0.,0.));
#993=DIRECTION('center_axis',(0.,0.,1.));
#994=DIRECTION('ref_axis',(1.,0.,0.));
#995=DIRECTION('',(1.,0.,0.));
#996=DIRECTION('',(0.,1.,0.));
#997=DIRECTION('',(-1.,0.,0.));
#998=DIRECTION('',(-1.,0.,0.));
#999=DIRECTION('',(0.,-1.,0.));
#1000=DIRECTION('',(1.,0.,0.));
#1001=DIRECTION('center_axis',(0.,1.,0.));
#1002=DIRECTION('ref_axis',(-1.,0.,0.));
#1003=DIRECTION('',(0.,0.,1.));
#1004=DIRECTION('center_axis',(0.,-1.,0.));
#1005=DIRECTION('ref_axis',(1.,0.,0.));
#1006=DIRECTION('',(0.,0.,1.));
#1007=DIRECTION('center_axis',(0.,1.,0.));
#1008=DIRECTION('ref_axis',(-1.,0.,0.));
#1009=DIRECTION('',(0.,0.,1.));
#1010=DIRECTION('center_axis',(1.,0.,0.));
#1011=DIRECTION('ref_axis',(0.,1.,0.));
#1012=DIRECTION('',(0.,0.,1.));
#1013=DIRECTION('center_axis',(0.,-1.,0.));
#1014=DIRECTION('ref_axis',(1.,0.,0.));
#1015=DIRECTION('center_axis',(-1.,0.,0.));
#1016=DIRECTION('ref_axis',(0.,-1.,0.));
#1017=CARTESIAN_POINT('',(0.,0.,0.));
#1018=CARTESIAN_POINT('Origin',(16.,-7.5,69.));
#1019=CARTESIAN_POINT('',(13.9,-7.5,69.));
#1020=CARTESIAN_POINT('Origin',(16.,-7.5,69.));
#1021=CARTESIAN_POINT('',(13.9,-7.5,75.));
#1022=CARTESIAN_POINT('',(13.9,-7.5,69.));
#1023=CARTESIAN_POINT('Origin',(16.,-7.5,75.));
#1024=CARTESIAN_POINT('Origin',(16.,-7.5,69.));
#1025=CARTESIAN_POINT('Origin',(-16.,7.5,69.));
#1026=CARTESIAN_POINT('',(-18.1,7.5,69.));
#1027=CARTESIAN_POINT('Origin',(-16.,7.5,69.));
#1028=CARTESIAN_POINT('',(-18.1,7.5,75.));
#1029=CARTESIAN_POINT('',(-18.1,7.5,69.));
#1030=CARTESIAN_POINT('Origin',(-16.,7.5,75.));
#1031=CARTESIAN_POINT('Origin',(-16.,7.5,69.));
#1032=CARTESIAN_POINT('Origin',(-16.,-7.5,69.));
#1033=CARTESIAN_POINT('',(-18.1,-7.5,69.));
#1034=CARTESIAN_POINT('Origin',(-16.,-7.5,69.));
#1035=CARTESIAN_POINT('',(-18.1,-7.5,75.));
#1036=CARTESIAN_POINT('',(-18.1,-7.5,69.));
#1037=CARTESIAN_POINT('Origin',(-16.,-7.5,75.));
#1038=CARTESIAN_POINT('Origin',(-16.,-7.5,69.));
#1039=CARTESIAN_POINT('Origin',(16.,7.5,69.));
#1040=CARTESIAN_POINT('',(13.9,7.5,69.));
#1041=CARTESIAN_POINT('Origin',(16.,7.5,69.));
#1042=CARTESIAN_POINT('',(13.9,7.5,75.));
#1043=CARTESIAN_POINT('',(13.9,7.5,69.));
#1044=CARTESIAN_POINT('Origin',(16.,7.5,75.));
#1045=CARTESIAN_POINT('Origin',(16.,7.5,69.));
#1046=CARTESIAN_POINT('Origin',(0.,-44.,58.));
#1047=CARTESIAN_POINT('',(-5.15,-47.,58.));
#1048=CARTESIAN_POINT('Origin',(0.,-47.,58.));
#1049=CARTESIAN_POINT('',(-5.15,-41.,58.));
#1050=CARTESIAN_POINT('',(-5.15,-44.,58.));
#1051=CARTESIAN_POINT('Origin',(0.,-41.,58.));
#1052=CARTESIAN_POINT('Origin',(-5.65685424949238,39.,52.3431457505076));
#1053=CARTESIAN_POINT('',(-6.90685424949238,36.,52.3431457505076));
#1054=CARTESIAN_POINT('Origin',(-5.65685424949238,36.,52.3431457505076));
#1055=CARTESIAN_POINT('',(-6.90685424949238,42.,52.3431457505076));
#1056=CARTESIAN_POINT('',(-6.90685424949238,39.,52.3431457505076));
#1057=CARTESIAN_POINT('Origin',(-5.65685424949238,42.,52.3431457505076));
#1058=CARTESIAN_POINT('Origin',(-5.65685424949238,39.,63.6568542494924));
#1059=CARTESIAN_POINT('',(-6.90685424949238,36.,63.6568542494924));
#1060=CARTESIAN_POINT('Origin',(-5.65685424949238,36.,63.6568542494924));
#1061=CARTESIAN_POINT('',(-6.90685424949238,42.,63.6568542494924));
#1062=CARTESIAN_POINT('',(-6.90685424949238,39.,63.6568542494924));
#1063=CARTESIAN_POINT('Origin',(-5.65685424949238,42.,63.6568542494924));
#1064=CARTESIAN_POINT('Origin',(5.65685424949238,39.,63.6568542494924));
#1065=CARTESIAN_POINT('',(4.40685424949238,36.,63.6568542494924));
#1066=CARTESIAN_POINT('Origin',(5.65685424949238,36.,63.6568542494924));
#1067=CARTESIAN_POINT('',(4.40685424949238,42.,63.6568542494924));
#1068=CARTESIAN_POINT('',(4.40685424949238,39.,63.6568542494924));
#1069=CARTESIAN_POINT('Origin',(5.65685424949238,42.,63.6568542494924));
#1070=CARTESIAN_POINT('Origin',(0.,39.,58.));
#1071=CARTESIAN_POINT('',(-4.5,36.,58.));
#1072=CARTESIAN_POINT('Origin',(0.,36.,58.));
#1073=CARTESIAN_POINT('',(-4.5,42.,58.));
#1074=CARTESIAN_POINT('',(-4.5,39.,58.));
#1075=CARTESIAN_POINT('Origin',(0.,42.,58.));
#1076=CARTESIAN_POINT('Origin',(5.65685424949238,39.,52.3431457505076));
#1077=CARTESIAN_POINT('',(4.40685424949238,36.,52.3431457505076));
#1078=CARTESIAN_POINT('Origin',(5.65685424949238,36.,52.3431457505076));
#1079=CARTESIAN_POINT('',(4.40685424949238,42.,52.3431457505076));
#1080=CARTESIAN_POINT('',(4.40685424949238,39.,52.3431457505076));
#1081=CARTESIAN_POINT('Origin',(5.65685424949238,42.,52.3431457505076));
#1082=CARTESIAN_POINT('Origin',(0.,42.,58.));
#1083=CARTESIAN_POINT('',(-12.75,42.,58.));
#1084=CARTESIAN_POINT('Origin',(0.,42.,58.));
#1085=CARTESIAN_POINT('Origin',(0.,43.5,58.));
#1086=CARTESIAN_POINT('',(-12.75,45.,58.));
#1087=CARTESIAN_POINT('',(-12.75,43.5,58.));
#1088=CARTESIAN_POINT('Origin',(0.,45.,58.));
#1089=CARTESIAN_POINT('Origin',(0.,-41.,59.5));
#1090=CARTESIAN_POINT('',(16.,-41.,69.));
#1091=CARTESIAN_POINT('',(-16.,-41.,69.));
#1092=CARTESIAN_POINT('',(0.,-41.,69.));
#1093=CARTESIAN_POINT('',(16.,-41.,44.));
#1094=CARTESIAN_POINT('',(16.,-41.,75.));
#1095=CARTESIAN_POINT('',(-16.,-41.,44.));
#1096=CARTESIAN_POINT('',(16.,-41.,44.));
#1097=CARTESIAN_POINT('',(-16.,-41.,44.));
#1098=CARTESIAN_POINT('Origin',(16.,-44.,44.));
#1099=CARTESIAN_POINT('',(-16.,-47.,44.));
#1100=CARTESIAN_POINT('',(-16.,-44.,44.));
#1101=CARTESIAN_POINT('',(16.,-47.,44.));
#1102=CARTESIAN_POINT('',(16.,-44.,44.));
#1103=CARTESIAN_POINT('',(16.,-47.,44.));
#1104=CARTESIAN_POINT('Origin',(16.,-47.,69.));
#1105=CARTESIAN_POINT('',(16.,-22.5,69.));
#1106=CARTESIAN_POINT('',(16.,-47.,69.));
#1107=CARTESIAN_POINT('',(16.,-22.5,75.));
#1108=CARTESIAN_POINT('',(16.,-22.5,69.));
#1109=CARTESIAN_POINT('',(16.,-47.,75.));
#1110=CARTESIAN_POINT('',(16.,-47.,75.));
#1111=CARTESIAN_POINT('',(16.,-47.,69.));
#1112=CARTESIAN_POINT('Origin',(0.,36.,59.5));
#1113=CARTESIAN_POINT('',(-16.,36.,69.));
#1114=CARTESIAN_POINT('',(16.,36.,69.));
#1115=CARTESIAN_POINT('',(0.,36.,69.));
#1116=CARTESIAN_POINT('',(-16.,36.,44.));
#1117=CARTESIAN_POINT('',(-16.,36.,44.));
#1118=CARTESIAN_POINT('',(16.,36.,44.));
#1119=CARTESIAN_POINT('',(16.,36.,44.));
#1120=CARTESIAN_POINT('',(16.,36.,75.));
#1121=CARTESIAN_POINT('Origin',(16.,40.5,44.));
#1122=CARTESIAN_POINT('',(-16.,45.,44.));
#1123=CARTESIAN_POINT('',(-16.,40.5,44.));
#1124=CARTESIAN_POINT('',(16.,45.,44.));
#1125=CARTESIAN_POINT('',(16.,45.,44.));
#1126=CARTESIAN_POINT('',(16.,40.5,44.));
#1127=CARTESIAN_POINT('Origin',(-16.,45.,69.));
#1128=CARTESIAN_POINT('',(-16.,22.5,69.));
#1129=CARTESIAN_POINT('',(-16.,45.,69.));
#1130=CARTESIAN_POINT('',(-16.,22.5,75.));
#1131=CARTESIAN_POINT('',(-16.,22.5,69.));
#1132=CARTESIAN_POINT('',(-16.,45.,75.));
#1133=CARTESIAN_POINT('',(-16.,45.,75.));
#1134=CARTESIAN_POINT('',(-16.,45.,44.));
#1135=CARTESIAN_POINT('Origin',(0.,0.,69.));
#1136=CARTESIAN_POINT('',(-16.,-22.5,69.));
#1137=CARTESIAN_POINT('',(-16.,45.,69.));
#1138=CARTESIAN_POINT('',(-26.,-22.5,69.));
#1139=CARTESIAN_POINT('',(-26.,-22.5,69.));
#1140=CARTESIAN_POINT('',(-26.,22.5,69.));
#1141=CARTESIAN_POINT('',(-26.,22.5,69.));
#1142=CARTESIAN_POINT('',(26.,22.5,69.));
#1143=CARTESIAN_POINT('',(16.,22.5,69.));
#1144=CARTESIAN_POINT('',(16.,-47.,69.));
#1145=CARTESIAN_POINT('',(26.,22.5,69.));
#1146=CARTESIAN_POINT('',(26.,22.5,69.));
#1147=CARTESIAN_POINT('',(26.,-22.5,69.));
#1148=CARTESIAN_POINT('',(26.,-22.5,69.));
#1149=CARTESIAN_POINT('',(-26.,-22.5,69.));
#1150=CARTESIAN_POINT('',(10.5,-7.5,69.));
#1151=CARTESIAN_POINT('Origin',(16.,-7.5,69.));
#1152=CARTESIAN_POINT('',(-21.5,7.5,69.));
#1153=CARTESIAN_POINT('Origin',(-16.,7.5,69.));
#1154=CARTESIAN_POINT('',(-21.5,-7.5,69.));
#1155=CARTESIAN_POINT('Origin',(-16.,-7.5,69.));
#1156=CARTESIAN_POINT('',(10.5,7.5,69.));
#1157=CARTESIAN_POINT('Origin',(16.,7.5,69.));
#1158=CARTESIAN_POINT('Origin',(16.,7.5,67.));
#1159=CARTESIAN_POINT('',(10.5,7.5,67.));
#1160=CARTESIAN_POINT('',(10.5,7.5,67.));
#1161=CARTESIAN_POINT('Origin',(16.,7.5,67.));
#1162=CARTESIAN_POINT('Origin',(16.,7.5,67.));
#1163=CARTESIAN_POINT('Origin',(-16.,-7.5,67.));
#1164=CARTESIAN_POINT('',(-21.5,-7.5,67.));
#1165=CARTESIAN_POINT('',(-21.5,-7.5,67.));
#1166=CARTESIAN_POINT('Origin',(-16.,-7.5,67.));
#1167=CARTESIAN_POINT('Origin',(-16.,-7.5,67.));
#1168=CARTESIAN_POINT('Origin',(-16.,7.5,67.));
#1169=CARTESIAN_POINT('',(-21.5,7.5,67.));
#1170=CARTESIAN_POINT('',(-21.5,7.5,67.));
#1171=CARTESIAN_POINT('Origin',(-16.,7.5,67.));
#1172=CARTESIAN_POINT('Origin',(-16.,7.5,67.));
#1173=CARTESIAN_POINT('Origin',(16.,-7.5,67.));
#1174=CARTESIAN_POINT('',(10.5,-7.5,67.));
#1175=CARTESIAN_POINT('',(10.5,-7.5,67.));
#1176=CARTESIAN_POINT('Origin',(16.,-7.5,67.));
#1177=CARTESIAN_POINT('Origin',(16.,-7.5,67.));
#1178=CARTESIAN_POINT('Origin',(16.,-47.,69.));
#1179=CARTESIAN_POINT('',(16.,22.5,75.));
#1180=CARTESIAN_POINT('',(16.,45.,75.));
#1181=CARTESIAN_POINT('',(16.,-47.,75.));
#1182=CARTESIAN_POINT('',(16.,22.5,69.));
#1183=CARTESIAN_POINT('',(16.,45.,69.));
#1184=CARTESIAN_POINT('Origin',(-16.,45.,69.));
#1185=CARTESIAN_POINT('',(-16.,-22.5,75.));
#1186=CARTESIAN_POINT('',(-16.,-47.,75.));
#1187=CARTESIAN_POINT('',(-16.,45.,75.));
#1188=CARTESIAN_POINT('',(-16.,-22.5,69.));
#1189=CARTESIAN_POINT('',(-16.,-47.,69.));
#1190=CARTESIAN_POINT('Origin',(16.,45.,69.));
#1191=CARTESIAN_POINT('',(16.,45.,75.));
#1192=CARTESIAN_POINT('Origin',(-16.,-47.,69.));
#1193=CARTESIAN_POINT('',(-16.,-47.,75.));
#1194=CARTESIAN_POINT('Origin',(0.,0.,75.));
#1195=CARTESIAN_POINT('',(26.,-22.5,75.));
#1196=CARTESIAN_POINT('',(-26.,-22.5,75.));
#1197=CARTESIAN_POINT('',(26.,22.5,75.));
#1198=CARTESIAN_POINT('',(26.,-22.5,75.));
#1199=CARTESIAN_POINT('',(26.,22.5,75.));
#1200=CARTESIAN_POINT('',(-26.,22.5,75.));
#1201=CARTESIAN_POINT('',(26.,22.5,75.));
#1202=CARTESIAN_POINT('',(-26.,-22.5,75.));
#1203=CARTESIAN_POINT('',(-26.,22.5,75.));
#1204=CARTESIAN_POINT('',(-26.,-22.5,75.));
#1205=CARTESIAN_POINT('Origin',(26.,22.5,69.));
#1206=CARTESIAN_POINT('',(-26.,22.5,69.));
#1207=CARTESIAN_POINT('Origin',(-26.,-22.5,69.));
#1208=CARTESIAN_POINT('',(-26.,-22.5,69.));
#1209=CARTESIAN_POINT('Origin',(26.,22.5,69.));
#1210=CARTESIAN_POINT('',(26.,22.5,69.));
#1211=CARTESIAN_POINT('Origin',(26.,-22.5,69.));
#1212=CARTESIAN_POINT('',(26.,-22.5,69.));
#1213=CARTESIAN_POINT('Origin',(-26.,-22.5,69.));
#1214=CARTESIAN_POINT('Origin',(-26.,22.5,69.));
#1215=UNCERTAINTY_MEASURE_WITH_UNIT(LENGTH_MEASURE(0.01),#1219,
'DISTANCE_ACCURACY_VALUE',
'Maximum model space distance between geometric entities at asserted c
onnectivities');
#1216=UNCERTAINTY_MEASURE_WITH_UNIT(LENGTH_MEASURE(0.01),#1219,
'DISTANCE_ACCURACY_VALUE',
'Maximum model space distance between geometric entities at asserted c
onnectivities');
#1217=(
GEOMETRIC_REPRESENTATION_CONTEXT(3)
GLOBAL_UNCERTAINTY_ASSIGNED_CONTEXT((#1215))
GLOBAL_UNIT_ASSIGNED_CONTEXT((#1219,#1221,#1222))
REPRESENTATION_CONTEXT('','3D')
);
#1218=(
GEOMETRIC_REPRESENTATION_CONTEXT(3)
GLOBAL_UNCERTAINTY_ASSIGNED_CONTEXT((#1216))
GLOBAL_UNIT_ASSIGNED_CONTEXT((#1219,#1221,#1222))
REPRESENTATION_CONTEXT('','3D')
);
#1219=(
LENGTH_UNIT()
NAMED_UNIT(*)
SI_UNIT(.MILLI.,.METRE.)
);
#1220=(
LENGTH_UNIT()
NAMED_UNIT(*)
SI_UNIT($,.METRE.)
);
#1221=(
NAMED_UNIT(*)
PLANE_ANGLE_UNIT()
SI_UNIT($,.RADIAN.)
);
#1222=(
NAMED_UNIT(*)
SI_UNIT($,.STERADIAN.)
SOLID_ANGLE_UNIT()
);
#1223=SHAPE_DEFINITION_REPRESENTATION(#1224,#1225);
#1224=PRODUCT_DEFINITION_SHAPE('',$,#1227);
#1225=SHAPE_REPRESENTATION('',(#735),#1217);
#1226=PRODUCT_DEFINITION_CONTEXT('part definition',#1231,'design');
#1227=PRODUCT_DEFINITION('Smart Bin - tilt cradle',
'Smart Bin - tilt cradle v4',#1228,#1226);
#1228=PRODUCT_DEFINITION_FORMATION('',$,#1233);
#1229=PRODUCT_RELATED_PRODUCT_CATEGORY('Smart Bin - tilt cradle v4',
'Smart Bin - tilt cradle v4',(#1233));
#1230=APPLICATION_PROTOCOL_DEFINITION('international standard',
'automotive_design',2009,#1231);
#1231=APPLICATION_CONTEXT(
'Core Data for Automotive Mechanical Design Process');
#1232=PRODUCT_CONTEXT('part definition',#1231,'mechanical');
#1233=PRODUCT('Smart Bin - tilt cradle','Smart Bin - tilt cradle v4',$,
(#1232));
#1234=PRESENTATION_STYLE_ASSIGNMENT((#1235));
#1235=SURFACE_STYLE_USAGE(.BOTH.,#1236);
#1236=SURFACE_SIDE_STYLE('',(#1237));
#1237=SURFACE_STYLE_FILL_AREA(#1238);
#1238=FILL_AREA_STYLE('Steel - Satin',(#1239));
#1239=FILL_AREA_STYLE_COLOUR('Steel - Satin',#1240);
#1240=COLOUR_RGB('Steel - Satin',0.627450980392157,0.627450980392157,0.627450980392157);
ENDSEC;
END-ISO-10303-21;
