ISO-10303-21;
HEADER;
/* Generated by software containing ST-Developer
 * from STEP Tools, Inc. (www.steptools.com) 
 */

FILE_DESCRIPTION(
/* description */ (''),
/* implementation_level */ '2;1');

FILE_NAME(
/* name */ 'tilt_yoke.step',
/* time_stamp */ '2026-08-11T22:49:28+10:00',
/* author */ (''),
/* organization */ (''),
/* preprocessor_version */ 'ST-DEVELOPER v20.1',
/* originating_system */ 'Autodesk Translation Framework v15.8.0.0',
/* authorisation */ '');

FILE_SCHEMA (('AUTOMOTIVE_DESIGN { 1 0 10303 214 3 1 1 }'));
ENDSEC;

DATA;
#10=MECHANICAL_DESIGN_GEOMETRIC_PRESENTATION_REPRESENTATION('',(#13),#1457);
#11=SHAPE_REPRESENTATION_RELATIONSHIP('SRR','None',#1464,#12);
#12=ADVANCED_BREP_SHAPE_REPRESENTATION('',(#14),#1456);
#13=STYLED_ITEM('',(#1473),#14);
#14=MANIFOLD_SOLID_BREP('Body12',#863);
#15=FACE_BOUND('',#174,.T.);
#16=FACE_BOUND('',#175,.T.);
#17=FACE_BOUND('',#176,.T.);
#18=FACE_BOUND('',#177,.T.);
#19=FACE_BOUND('',#178,.T.);
#20=FACE_BOUND('',#181,.T.);
#21=FACE_BOUND('',#184,.T.);
#22=FACE_BOUND('',#186,.T.);
#23=FACE_BOUND('',#187,.T.);
#24=FACE_BOUND('',#188,.T.);
#25=FACE_BOUND('',#189,.T.);
#26=FACE_BOUND('',#190,.T.);
#27=FACE_BOUND('',#193,.T.);
#28=FACE_BOUND('',#194,.T.);
#29=FACE_BOUND('',#195,.T.);
#30=FACE_BOUND('',#196,.T.);
#31=FACE_BOUND('',#197,.T.);
#32=FACE_BOUND('',#204,.T.);
#33=FACE_BOUND('',#212,.T.);
#34=FACE_BOUND('',#213,.T.);
#35=FACE_BOUND('',#214,.T.);
#36=FACE_BOUND('',#215,.T.);
#37=FACE_BOUND('',#216,.T.);
#38=CYLINDRICAL_SURFACE('',#885,1.25);
#39=CYLINDRICAL_SURFACE('',#887,1.25);
#40=CYLINDRICAL_SURFACE('',#891,1.25);
#41=CYLINDRICAL_SURFACE('',#895,1.25);
#42=CYLINDRICAL_SURFACE('',#899,1.25);
#43=CYLINDRICAL_SURFACE('',#903,5.5);
#44=CYLINDRICAL_SURFACE('',#907,5.5);
#45=CYLINDRICAL_SURFACE('',#911,5.5);
#46=CYLINDRICAL_SURFACE('',#915,5.5);
#47=CYLINDRICAL_SURFACE('',#919,1.25);
#48=CYLINDRICAL_SURFACE('',#922,1.25);
#49=CYLINDRICAL_SURFACE('',#925,1.25);
#50=CYLINDRICAL_SURFACE('',#928,4.5);
#51=CYLINDRICAL_SURFACE('',#931,1.25);
#52=CYLINDRICAL_SURFACE('',#934,12.75);
#53=CYLINDRICAL_SURFACE('',#938,5.);
#54=CYLINDRICAL_SURFACE('',#958,30.);
#55=CYLINDRICAL_SURFACE('',#961,30.);
#56=CIRCLE('',#884,1.25);
#57=CIRCLE('',#886,1.25);
#58=CIRCLE('',#888,1.25);
#59=CIRCLE('',#889,1.25);
#60=CIRCLE('',#892,1.25);
#61=CIRCLE('',#893,1.25);
#62=CIRCLE('',#896,1.25);
#63=CIRCLE('',#897,1.25);
#64=CIRCLE('',#900,1.25);
#65=CIRCLE('',#901,1.25);
#66=CIRCLE('',#904,5.5);
#67=CIRCLE('',#905,5.5);
#68=CIRCLE('',#908,5.5);
#69=CIRCLE('',#909,5.5);
#70=CIRCLE('',#912,5.5);
#71=CIRCLE('',#913,5.5);
#72=CIRCLE('',#916,5.5);
#73=CIRCLE('',#917,5.5);
#74=CIRCLE('',#920,1.25);
#75=CIRCLE('',#921,1.25);
#76=CIRCLE('',#923,1.25);
#77=CIRCLE('',#924,1.25);
#78=CIRCLE('',#926,1.25);
#79=CIRCLE('',#927,1.25);
#80=CIRCLE('',#929,4.5);
#81=CIRCLE('',#930,4.5);
#82=CIRCLE('',#932,1.25);
#83=CIRCLE('',#933,1.25);
#84=CIRCLE('',#935,12.75);
#85=CIRCLE('',#936,12.75);
#86=CIRCLE('',#939,5.);
#87=CIRCLE('',#940,5.);
#88=CIRCLE('',#945,30.);
#89=CIRCLE('',#946,30.);
#90=CIRCLE('',#959,30.);
#91=CIRCLE('',#962,30.);
#92=FACE_OUTER_BOUND('',#143,.T.);
#93=FACE_OUTER_BOUND('',#144,.T.);
#94=FACE_OUTER_BOUND('',#145,.T.);
#95=FACE_OUTER_BOUND('',#146,.T.);
#96=FACE_OUTER_BOUND('',#147,.T.);
#97=FACE_OUTER_BOUND('',#148,.T.);
#98=FACE_OUTER_BOUND('',#149,.T.);
#99=FACE_OUTER_BOUND('',#150,.T.);
#100=FACE_OUTER_BOUND('',#151,.T.);
#101=FACE_OUTER_BOUND('',#152,.T.);
#102=FACE_OUTER_BOUND('',#153,.T.);
#103=FACE_OUTER_BOUND('',#154,.T.);
#104=FACE_OUTER_BOUND('',#155,.T.);
#105=FACE_OUTER_BOUND('',#156,.T.);
#106=FACE_OUTER_BOUND('',#157,.T.);
#107=FACE_OUTER_BOUND('',#158,.T.);
#108=FACE_OUTER_BOUND('',#159,.T.);
#109=FACE_OUTER_BOUND('',#160,.T.);
#110=FACE_OUTER_BOUND('',#161,.T.);
#111=FACE_OUTER_BOUND('',#162,.T.);
#112=FACE_OUTER_BOUND('',#163,.T.);
#113=FACE_OUTER_BOUND('',#164,.T.);
#114=FACE_OUTER_BOUND('',#165,.T.);
#115=FACE_OUTER_BOUND('',#166,.T.);
#116=FACE_OUTER_BOUND('',#167,.T.);
#117=FACE_OUTER_BOUND('',#168,.T.);
#118=FACE_OUTER_BOUND('',#169,.T.);
#119=FACE_OUTER_BOUND('',#170,.T.);
#120=FACE_OUTER_BOUND('',#171,.T.);
#121=FACE_OUTER_BOUND('',#172,.T.);
#122=FACE_OUTER_BOUND('',#173,.T.);
#123=FACE_OUTER_BOUND('',#179,.T.);
#124=FACE_OUTER_BOUND('',#180,.T.);
#125=FACE_OUTER_BOUND('',#182,.T.);
#126=FACE_OUTER_BOUND('',#183,.T.);
#127=FACE_OUTER_BOUND('',#185,.T.);
#128=FACE_OUTER_BOUND('',#191,.T.);
#129=FACE_OUTER_BOUND('',#192,.T.);
#130=FACE_OUTER_BOUND('',#198,.T.);
#131=FACE_OUTER_BOUND('',#199,.T.);
#132=FACE_OUTER_BOUND('',#200,.T.);
#133=FACE_OUTER_BOUND('',#201,.T.);
#134=FACE_OUTER_BOUND('',#202,.T.);
#135=FACE_OUTER_BOUND('',#203,.T.);
#136=FACE_OUTER_BOUND('',#205,.T.);
#137=FACE_OUTER_BOUND('',#206,.T.);
#138=FACE_OUTER_BOUND('',#207,.T.);
#139=FACE_OUTER_BOUND('',#208,.T.);
#140=FACE_OUTER_BOUND('',#209,.T.);
#141=FACE_OUTER_BOUND('',#210,.T.);
#142=FACE_OUTER_BOUND('',#211,.T.);
#143=EDGE_LOOP('',(#555,#556,#557,#558));
#144=EDGE_LOOP('',(#559,#560,#561,#562));
#145=EDGE_LOOP('',(#563,#564,#565,#566,#567));
#146=EDGE_LOOP('',(#568,#569,#570,#571));
#147=EDGE_LOOP('',(#572,#573,#574,#575,#576));
#148=EDGE_LOOP('',(#577,#578,#579,#580));
#149=EDGE_LOOP('',(#581));
#150=EDGE_LOOP('',(#582,#583,#584,#585));
#151=EDGE_LOOP('',(#586,#587,#588,#589));
#152=EDGE_LOOP('',(#590));
#153=EDGE_LOOP('',(#591,#592,#593,#594));
#154=EDGE_LOOP('',(#595));
#155=EDGE_LOOP('',(#596,#597,#598,#599));
#156=EDGE_LOOP('',(#600));
#157=EDGE_LOOP('',(#601,#602,#603,#604));
#158=EDGE_LOOP('',(#605));
#159=EDGE_LOOP('',(#606,#607,#608,#609));
#160=EDGE_LOOP('',(#610));
#161=EDGE_LOOP('',(#611,#612,#613,#614));
#162=EDGE_LOOP('',(#615));
#163=EDGE_LOOP('',(#616,#617,#618,#619));
#164=EDGE_LOOP('',(#620));
#165=EDGE_LOOP('',(#621,#622,#623,#624));
#166=EDGE_LOOP('',(#625));
#167=EDGE_LOOP('',(#626,#627,#628,#629));
#168=EDGE_LOOP('',(#630,#631,#632,#633));
#169=EDGE_LOOP('',(#634,#635,#636,#637));
#170=EDGE_LOOP('',(#638,#639,#640,#641));
#171=EDGE_LOOP('',(#642,#643,#644,#645));
#172=EDGE_LOOP('',(#646,#647,#648,#649));
#173=EDGE_LOOP('',(#650));
#174=EDGE_LOOP('',(#651));
#175=EDGE_LOOP('',(#652));
#176=EDGE_LOOP('',(#653));
#177=EDGE_LOOP('',(#654));
#178=EDGE_LOOP('',(#655));
#179=EDGE_LOOP('',(#656,#657,#658,#659));
#180=EDGE_LOOP('',(#660));
#181=EDGE_LOOP('',(#661));
#182=EDGE_LOOP('',(#662,#663,#664,#665));
#183=EDGE_LOOP('',(#666,#667,#668,#669));
#184=EDGE_LOOP('',(#670));
#185=EDGE_LOOP('',(#671,#672,#673,#674,#675,#676,#677,#678,#679,#680,#681,
#682));
#186=EDGE_LOOP('',(#683));
#187=EDGE_LOOP('',(#684));
#188=EDGE_LOOP('',(#685));
#189=EDGE_LOOP('',(#686));
#190=EDGE_LOOP('',(#687));
#191=EDGE_LOOP('',(#688,#689,#690,#691,#692,#693));
#192=EDGE_LOOP('',(#694,#695,#696,#697,#698,#699));
#193=EDGE_LOOP('',(#700,#701,#702,#703));
#194=EDGE_LOOP('',(#704));
#195=EDGE_LOOP('',(#705));
#196=EDGE_LOOP('',(#706));
#197=EDGE_LOOP('',(#707));
#198=EDGE_LOOP('',(#708,#709,#710,#711));
#199=EDGE_LOOP('',(#712,#713,#714,#715));
#200=EDGE_LOOP('',(#716,#717,#718,#719));
#201=EDGE_LOOP('',(#720,#721,#722,#723));
#202=EDGE_LOOP('',(#724,#725,#726,#727));
#203=EDGE_LOOP('',(#728,#729,#730,#731));
#204=EDGE_LOOP('',(#732,#733,#734,#735));
#205=EDGE_LOOP('',(#736,#737,#738,#739,#740,#741));
#206=EDGE_LOOP('',(#742,#743,#744,#745,#746,#747));
#207=EDGE_LOOP('',(#748,#749,#750,#751));
#208=EDGE_LOOP('',(#752,#753,#754,#755));
#209=EDGE_LOOP('',(#756,#757,#758,#759,#760,#761));
#210=EDGE_LOOP('',(#762,#763,#764,#765));
#211=EDGE_LOOP('',(#766,#767,#768,#769,#770,#771,#772,#773));
#212=EDGE_LOOP('',(#774));
#213=EDGE_LOOP('',(#775));
#214=EDGE_LOOP('',(#776));
#215=EDGE_LOOP('',(#777));
#216=EDGE_LOOP('',(#778));
#217=LINE('',#1220,#293);
#218=LINE('',#1222,#294);
#219=LINE('',#1224,#295);
#220=LINE('',#1225,#296);
#221=LINE('',#1229,#297);
#222=LINE('',#1230,#298);
#223=LINE('',#1231,#299);
#224=LINE('',#1234,#300);
#225=LINE('',#1236,#301);
#226=LINE('',#1237,#302);
#227=LINE('',#1240,#303);
#228=LINE('',#1242,#304);
#229=LINE('',#1243,#305);
#230=LINE('',#1245,#306);
#231=LINE('',#1246,#307);
#232=LINE('',#1253,#308);
#233=LINE('',#1259,#309);
#234=LINE('',#1266,#310);
#235=LINE('',#1273,#311);
#236=LINE('',#1280,#312);
#237=LINE('',#1287,#313);
#238=LINE('',#1294,#314);
#239=LINE('',#1301,#315);
#240=LINE('',#1308,#316);
#241=LINE('',#1315,#317);
#242=LINE('',#1321,#318);
#243=LINE('',#1327,#319);
#244=LINE('',#1333,#320);
#245=LINE('',#1339,#321);
#246=LINE('',#1345,#322);
#247=LINE('',#1352,#323);
#248=LINE('',#1358,#324);
#249=LINE('',#1360,#325);
#250=LINE('',#1362,#326);
#251=LINE('',#1363,#327);
#252=LINE('',#1367,#328);
#253=LINE('',#1368,#329);
#254=LINE('',#1369,#330);
#255=LINE('',#1372,#331);
#256=LINE('',#1374,#332);
#257=LINE('',#1377,#333);
#258=LINE('',#1379,#334);
#259=LINE('',#1383,#335);
#260=LINE('',#1384,#336);
#261=LINE('',#1387,#337);
#262=LINE('',#1389,#338);
#263=LINE('',#1390,#339);
#264=LINE('',#1393,#340);
#265=LINE('',#1395,#341);
#266=LINE('',#1396,#342);
#267=LINE('',#1399,#343);
#268=LINE('',#1401,#344);
#269=LINE('',#1403,#345);
#270=LINE('',#1404,#346);
#271=LINE('',#1407,#347);
#272=LINE('',#1409,#348);
#273=LINE('',#1410,#349);
#274=LINE('',#1413,#350);
#275=LINE('',#1414,#351);
#276=LINE('',#1417,#352);
#277=LINE('',#1418,#353);
#278=LINE('',#1420,#354);
#279=LINE('',#1423,#355);
#280=LINE('',#1425,#356);
#281=LINE('',#1426,#357);
#282=LINE('',#1429,#358);
#283=LINE('',#1431,#359);
#284=LINE('',#1432,#360);
#285=LINE('',#1435,#361);
#286=LINE('',#1436,#362);
#287=LINE('',#1439,#363);
#288=LINE('',#1441,#364);
#289=LINE('',#1442,#365);
#290=LINE('',#1444,#366);
#291=LINE('',#1449,#367);
#292=LINE('',#1450,#368);
#293=VECTOR('',#968,10.);
#294=VECTOR('',#969,10.);
#295=VECTOR('',#970,10.);
#296=VECTOR('',#971,10.);
#297=VECTOR('',#974,10.);
#298=VECTOR('',#975,10.);
#299=VECTOR('',#976,10.);
#300=VECTOR('',#979,10.);
#301=VECTOR('',#980,10.);
#302=VECTOR('',#981,10.);
#303=VECTOR('',#984,10.);
#304=VECTOR('',#985,10.);
#305=VECTOR('',#986,10.);
#306=VECTOR('',#989,10.);
#307=VECTOR('',#990,10.);
#308=VECTOR('',#999,1.25);
#309=VECTOR('',#1006,1.25);
#310=VECTOR('',#1015,1.25);
#311=VECTOR('',#1024,1.25);
#312=VECTOR('',#1033,1.25);
#313=VECTOR('',#1042,5.5);
#314=VECTOR('',#1051,5.5);
#315=VECTOR('',#1060,5.5);
#316=VECTOR('',#1069,5.5);
#317=VECTOR('',#1078,1.25);
#318=VECTOR('',#1085,1.25);
#319=VECTOR('',#1092,1.25);
#320=VECTOR('',#1099,4.5);
#321=VECTOR('',#1106,1.25);
#322=VECTOR('',#1113,12.75);
#323=VECTOR('',#1122,5.);
#324=VECTOR('',#1129,10.);
#325=VECTOR('',#1130,10.);
#326=VECTOR('',#1131,10.);
#327=VECTOR('',#1132,10.);
#328=VECTOR('',#1135,10.);
#329=VECTOR('',#1136,10.);
#330=VECTOR('',#1137,10.);
#331=VECTOR('',#1140,10.);
#332=VECTOR('',#1141,10.);
#333=VECTOR('',#1144,10.);
#334=VECTOR('',#1145,10.);
#335=VECTOR('',#1148,10.);
#336=VECTOR('',#1149,10.);
#337=VECTOR('',#1152,10.);
#338=VECTOR('',#1153,10.);
#339=VECTOR('',#1154,10.);
#340=VECTOR('',#1157,10.);
#341=VECTOR('',#1158,10.);
#342=VECTOR('',#1159,10.);
#343=VECTOR('',#1160,10.);
#344=VECTOR('',#1161,10.);
#345=VECTOR('',#1162,10.);
#346=VECTOR('',#1163,10.);
#347=VECTOR('',#1166,10.);
#348=VECTOR('',#1167,10.);
#349=VECTOR('',#1168,10.);
#350=VECTOR('',#1171,10.);
#351=VECTOR('',#1172,10.);
#352=VECTOR('',#1175,10.);
#353=VECTOR('',#1176,10.);
#354=VECTOR('',#1179,10.);
#355=VECTOR('',#1182,10.);
#356=VECTOR('',#1183,10.);
#357=VECTOR('',#1184,10.);
#358=VECTOR('',#1187,10.);
#359=VECTOR('',#1188,10.);
#360=VECTOR('',#1189,10.);
#361=VECTOR('',#1192,10.);
#362=VECTOR('',#1193,10.);
#363=VECTOR('',#1196,10.);
#364=VECTOR('',#1197,10.);
#365=VECTOR('',#1198,10.);
#366=VECTOR('',#1201,10.);
#367=VECTOR('',#1208,10.);
#368=VECTOR('',#1209,10.);
#369=VERTEX_POINT('',#1218);
#370=VERTEX_POINT('',#1219);
#371=VERTEX_POINT('',#1221);
#372=VERTEX_POINT('',#1223);
#373=VERTEX_POINT('',#1227);
#374=VERTEX_POINT('',#1228);
#375=VERTEX_POINT('',#1233);
#376=VERTEX_POINT('',#1235);
#377=VERTEX_POINT('',#1239);
#378=VERTEX_POINT('',#1241);
#379=VERTEX_POINT('',#1249);
#380=VERTEX_POINT('',#1252);
#381=VERTEX_POINT('',#1256);
#382=VERTEX_POINT('',#1258);
#383=VERTEX_POINT('',#1263);
#384=VERTEX_POINT('',#1265);
#385=VERTEX_POINT('',#1270);
#386=VERTEX_POINT('',#1272);
#387=VERTEX_POINT('',#1277);
#388=VERTEX_POINT('',#1279);
#389=VERTEX_POINT('',#1284);
#390=VERTEX_POINT('',#1286);
#391=VERTEX_POINT('',#1291);
#392=VERTEX_POINT('',#1293);
#393=VERTEX_POINT('',#1298);
#394=VERTEX_POINT('',#1300);
#395=VERTEX_POINT('',#1305);
#396=VERTEX_POINT('',#1307);
#397=VERTEX_POINT('',#1312);
#398=VERTEX_POINT('',#1314);
#399=VERTEX_POINT('',#1318);
#400=VERTEX_POINT('',#1320);
#401=VERTEX_POINT('',#1324);
#402=VERTEX_POINT('',#1326);
#403=VERTEX_POINT('',#1330);
#404=VERTEX_POINT('',#1332);
#405=VERTEX_POINT('',#1336);
#406=VERTEX_POINT('',#1338);
#407=VERTEX_POINT('',#1342);
#408=VERTEX_POINT('',#1344);
#409=VERTEX_POINT('',#1349);
#410=VERTEX_POINT('',#1351);
#411=VERTEX_POINT('',#1356);
#412=VERTEX_POINT('',#1357);
#413=VERTEX_POINT('',#1359);
#414=VERTEX_POINT('',#1361);
#415=VERTEX_POINT('',#1365);
#416=VERTEX_POINT('',#1366);
#417=VERTEX_POINT('',#1371);
#418=VERTEX_POINT('',#1373);
#419=VERTEX_POINT('',#1375);
#420=VERTEX_POINT('',#1378);
#421=VERTEX_POINT('',#1380);
#422=VERTEX_POINT('',#1382);
#423=VERTEX_POINT('',#1386);
#424=VERTEX_POINT('',#1388);
#425=VERTEX_POINT('',#1392);
#426=VERTEX_POINT('',#1394);
#427=VERTEX_POINT('',#1397);
#428=VERTEX_POINT('',#1398);
#429=VERTEX_POINT('',#1400);
#430=VERTEX_POINT('',#1402);
#431=VERTEX_POINT('',#1406);
#432=VERTEX_POINT('',#1408);
#433=VERTEX_POINT('',#1412);
#434=VERTEX_POINT('',#1416);
#435=VERTEX_POINT('',#1422);
#436=VERTEX_POINT('',#1424);
#437=VERTEX_POINT('',#1428);
#438=VERTEX_POINT('',#1430);
#439=VERTEX_POINT('',#1434);
#440=VERTEX_POINT('',#1438);
#441=VERTEX_POINT('',#1440);
#442=VERTEX_POINT('',#1448);
#443=EDGE_CURVE('',#369,#370,#217,.T.);
#444=EDGE_CURVE('',#371,#370,#218,.T.);
#445=EDGE_CURVE('',#372,#371,#219,.T.);
#446=EDGE_CURVE('',#369,#372,#220,.T.);
#447=EDGE_CURVE('',#373,#374,#221,.T.);
#448=EDGE_CURVE('',#373,#372,#222,.T.);
#449=EDGE_CURVE('',#374,#371,#223,.T.);
#450=EDGE_CURVE('',#375,#373,#224,.T.);
#451=EDGE_CURVE('',#375,#376,#225,.T.);
#452=EDGE_CURVE('',#369,#376,#226,.T.);
#453=EDGE_CURVE('',#377,#375,#227,.T.);
#454=EDGE_CURVE('',#377,#378,#228,.T.);
#455=EDGE_CURVE('',#376,#378,#229,.T.);
#456=EDGE_CURVE('',#374,#377,#230,.T.);
#457=EDGE_CURVE('',#378,#370,#231,.T.);
#458=EDGE_CURVE('',#379,#379,#56,.T.);
#459=EDGE_CURVE('',#379,#380,#232,.T.);
#460=EDGE_CURVE('',#380,#380,#57,.T.);
#461=EDGE_CURVE('',#381,#381,#58,.T.);
#462=EDGE_CURVE('',#381,#382,#233,.T.);
#463=EDGE_CURVE('',#382,#382,#59,.T.);
#464=EDGE_CURVE('',#383,#383,#60,.T.);
#465=EDGE_CURVE('',#383,#384,#234,.T.);
#466=EDGE_CURVE('',#384,#384,#61,.T.);
#467=EDGE_CURVE('',#385,#385,#62,.T.);
#468=EDGE_CURVE('',#385,#386,#235,.T.);
#469=EDGE_CURVE('',#386,#386,#63,.T.);
#470=EDGE_CURVE('',#387,#387,#64,.T.);
#471=EDGE_CURVE('',#387,#388,#236,.T.);
#472=EDGE_CURVE('',#388,#388,#65,.T.);
#473=EDGE_CURVE('',#389,#389,#66,.T.);
#474=EDGE_CURVE('',#389,#390,#237,.T.);
#475=EDGE_CURVE('',#390,#390,#67,.T.);
#476=EDGE_CURVE('',#391,#391,#68,.T.);
#477=EDGE_CURVE('',#391,#392,#238,.T.);
#478=EDGE_CURVE('',#392,#392,#69,.T.);
#479=EDGE_CURVE('',#393,#393,#70,.T.);
#480=EDGE_CURVE('',#393,#394,#239,.T.);
#481=EDGE_CURVE('',#394,#394,#71,.T.);
#482=EDGE_CURVE('',#395,#395,#72,.T.);
#483=EDGE_CURVE('',#395,#396,#240,.T.);
#484=EDGE_CURVE('',#396,#396,#73,.T.);
#485=EDGE_CURVE('',#397,#397,#74,.T.);
#486=EDGE_CURVE('',#397,#398,#241,.T.);
#487=EDGE_CURVE('',#398,#398,#75,.T.);
#488=EDGE_CURVE('',#399,#399,#76,.T.);
#489=EDGE_CURVE('',#399,#400,#242,.T.);
#490=EDGE_CURVE('',#400,#400,#77,.T.);
#491=EDGE_CURVE('',#401,#401,#78,.T.);
#492=EDGE_CURVE('',#401,#402,#243,.T.);
#493=EDGE_CURVE('',#402,#402,#79,.T.);
#494=EDGE_CURVE('',#403,#403,#80,.T.);
#495=EDGE_CURVE('',#403,#404,#244,.T.);
#496=EDGE_CURVE('',#404,#404,#81,.T.);
#497=EDGE_CURVE('',#405,#405,#82,.T.);
#498=EDGE_CURVE('',#405,#406,#245,.T.);
#499=EDGE_CURVE('',#406,#406,#83,.T.);
#500=EDGE_CURVE('',#407,#407,#84,.T.);
#501=EDGE_CURVE('',#407,#408,#246,.T.);
#502=EDGE_CURVE('',#408,#408,#85,.T.);
#503=EDGE_CURVE('',#409,#409,#86,.T.);
#504=EDGE_CURVE('',#409,#410,#247,.T.);
#505=EDGE_CURVE('',#410,#410,#87,.T.);
#506=EDGE_CURVE('',#411,#412,#248,.T.);
#507=EDGE_CURVE('',#413,#412,#249,.T.);
#508=EDGE_CURVE('',#414,#413,#250,.T.);
#509=EDGE_CURVE('',#411,#414,#251,.T.);
#510=EDGE_CURVE('',#415,#416,#252,.T.);
#511=EDGE_CURVE('',#415,#413,#253,.T.);
#512=EDGE_CURVE('',#412,#416,#254,.T.);
#513=EDGE_CURVE('',#370,#417,#255,.T.);
#514=EDGE_CURVE('',#417,#418,#256,.T.);
#515=EDGE_CURVE('',#418,#419,#88,.T.);
#516=EDGE_CURVE('',#419,#415,#257,.T.);
#517=EDGE_CURVE('',#416,#420,#258,.T.);
#518=EDGE_CURVE('',#420,#421,#89,.T.);
#519=EDGE_CURVE('',#421,#422,#259,.T.);
#520=EDGE_CURVE('',#422,#369,#260,.T.);
#521=EDGE_CURVE('',#423,#411,#261,.T.);
#522=EDGE_CURVE('',#423,#424,#262,.T.);
#523=EDGE_CURVE('',#420,#424,#263,.T.);
#524=EDGE_CURVE('',#422,#425,#264,.T.);
#525=EDGE_CURVE('',#425,#426,#265,.T.);
#526=EDGE_CURVE('',#426,#417,#266,.T.);
#527=EDGE_CURVE('',#427,#428,#267,.T.);
#528=EDGE_CURVE('',#428,#429,#268,.T.);
#529=EDGE_CURVE('',#429,#430,#269,.T.);
#530=EDGE_CURVE('',#430,#427,#270,.T.);
#531=EDGE_CURVE('',#431,#428,#271,.T.);
#532=EDGE_CURVE('',#432,#431,#272,.T.);
#533=EDGE_CURVE('',#429,#432,#273,.T.);
#534=EDGE_CURVE('',#433,#432,#274,.T.);
#535=EDGE_CURVE('',#430,#433,#275,.T.);
#536=EDGE_CURVE('',#434,#433,#276,.T.);
#537=EDGE_CURVE('',#427,#434,#277,.T.);
#538=EDGE_CURVE('',#431,#434,#278,.T.);
#539=EDGE_CURVE('',#425,#435,#279,.T.);
#540=EDGE_CURVE('',#436,#435,#280,.T.);
#541=EDGE_CURVE('',#426,#436,#281,.T.);
#542=EDGE_CURVE('',#437,#435,#282,.T.);
#543=EDGE_CURVE('',#437,#438,#283,.T.);
#544=EDGE_CURVE('',#438,#436,#284,.T.);
#545=EDGE_CURVE('',#439,#421,#285,.T.);
#546=EDGE_CURVE('',#439,#437,#286,.T.);
#547=EDGE_CURVE('',#440,#419,#287,.T.);
#548=EDGE_CURVE('',#440,#441,#288,.T.);
#549=EDGE_CURVE('',#441,#414,#289,.T.);
#550=EDGE_CURVE('',#441,#423,#290,.T.);
#551=EDGE_CURVE('',#424,#439,#90,.T.);
#552=EDGE_CURVE('',#438,#442,#291,.T.);
#553=EDGE_CURVE('',#418,#442,#292,.T.);
#554=EDGE_CURVE('',#442,#440,#91,.T.);
#555=ORIENTED_EDGE('',*,*,#443,.T.);
#556=ORIENTED_EDGE('',*,*,#444,.F.);
#557=ORIENTED_EDGE('',*,*,#445,.F.);
#558=ORIENTED_EDGE('',*,*,#446,.F.);
#559=ORIENTED_EDGE('',*,*,#447,.F.);
#560=ORIENTED_EDGE('',*,*,#448,.T.);
#561=ORIENTED_EDGE('',*,*,#445,.T.);
#562=ORIENTED_EDGE('',*,*,#449,.F.);
#563=ORIENTED_EDGE('',*,*,#450,.F.);
#564=ORIENTED_EDGE('',*,*,#451,.T.);
#565=ORIENTED_EDGE('',*,*,#452,.F.);
#566=ORIENTED_EDGE('',*,*,#446,.T.);
#567=ORIENTED_EDGE('',*,*,#448,.F.);
#568=ORIENTED_EDGE('',*,*,#453,.F.);
#569=ORIENTED_EDGE('',*,*,#454,.T.);
#570=ORIENTED_EDGE('',*,*,#455,.F.);
#571=ORIENTED_EDGE('',*,*,#451,.F.);
#572=ORIENTED_EDGE('',*,*,#456,.F.);
#573=ORIENTED_EDGE('',*,*,#449,.T.);
#574=ORIENTED_EDGE('',*,*,#444,.T.);
#575=ORIENTED_EDGE('',*,*,#457,.F.);
#576=ORIENTED_EDGE('',*,*,#454,.F.);
#577=ORIENTED_EDGE('',*,*,#456,.T.);
#578=ORIENTED_EDGE('',*,*,#453,.T.);
#579=ORIENTED_EDGE('',*,*,#450,.T.);
#580=ORIENTED_EDGE('',*,*,#447,.T.);
#581=ORIENTED_EDGE('',*,*,#458,.F.);
#582=ORIENTED_EDGE('',*,*,#458,.T.);
#583=ORIENTED_EDGE('',*,*,#459,.T.);
#584=ORIENTED_EDGE('',*,*,#460,.F.);
#585=ORIENTED_EDGE('',*,*,#459,.F.);
#586=ORIENTED_EDGE('',*,*,#461,.F.);
#587=ORIENTED_EDGE('',*,*,#462,.T.);
#588=ORIENTED_EDGE('',*,*,#463,.T.);
#589=ORIENTED_EDGE('',*,*,#462,.F.);
#590=ORIENTED_EDGE('',*,*,#463,.F.);
#591=ORIENTED_EDGE('',*,*,#464,.F.);
#592=ORIENTED_EDGE('',*,*,#465,.T.);
#593=ORIENTED_EDGE('',*,*,#466,.T.);
#594=ORIENTED_EDGE('',*,*,#465,.F.);
#595=ORIENTED_EDGE('',*,*,#466,.F.);
#596=ORIENTED_EDGE('',*,*,#467,.F.);
#597=ORIENTED_EDGE('',*,*,#468,.T.);
#598=ORIENTED_EDGE('',*,*,#469,.T.);
#599=ORIENTED_EDGE('',*,*,#468,.F.);
#600=ORIENTED_EDGE('',*,*,#469,.F.);
#601=ORIENTED_EDGE('',*,*,#470,.F.);
#602=ORIENTED_EDGE('',*,*,#471,.T.);
#603=ORIENTED_EDGE('',*,*,#472,.T.);
#604=ORIENTED_EDGE('',*,*,#471,.F.);
#605=ORIENTED_EDGE('',*,*,#472,.F.);
#606=ORIENTED_EDGE('',*,*,#473,.F.);
#607=ORIENTED_EDGE('',*,*,#474,.T.);
#608=ORIENTED_EDGE('',*,*,#475,.T.);
#609=ORIENTED_EDGE('',*,*,#474,.F.);
#610=ORIENTED_EDGE('',*,*,#475,.F.);
#611=ORIENTED_EDGE('',*,*,#476,.F.);
#612=ORIENTED_EDGE('',*,*,#477,.T.);
#613=ORIENTED_EDGE('',*,*,#478,.T.);
#614=ORIENTED_EDGE('',*,*,#477,.F.);
#615=ORIENTED_EDGE('',*,*,#478,.F.);
#616=ORIENTED_EDGE('',*,*,#479,.F.);
#617=ORIENTED_EDGE('',*,*,#480,.T.);
#618=ORIENTED_EDGE('',*,*,#481,.T.);
#619=ORIENTED_EDGE('',*,*,#480,.F.);
#620=ORIENTED_EDGE('',*,*,#481,.F.);
#621=ORIENTED_EDGE('',*,*,#482,.F.);
#622=ORIENTED_EDGE('',*,*,#483,.T.);
#623=ORIENTED_EDGE('',*,*,#484,.T.);
#624=ORIENTED_EDGE('',*,*,#483,.F.);
#625=ORIENTED_EDGE('',*,*,#484,.F.);
#626=ORIENTED_EDGE('',*,*,#485,.F.);
#627=ORIENTED_EDGE('',*,*,#486,.T.);
#628=ORIENTED_EDGE('',*,*,#487,.F.);
#629=ORIENTED_EDGE('',*,*,#486,.F.);
#630=ORIENTED_EDGE('',*,*,#488,.F.);
#631=ORIENTED_EDGE('',*,*,#489,.T.);
#632=ORIENTED_EDGE('',*,*,#490,.F.);
#633=ORIENTED_EDGE('',*,*,#489,.F.);
#634=ORIENTED_EDGE('',*,*,#491,.F.);
#635=ORIENTED_EDGE('',*,*,#492,.T.);
#636=ORIENTED_EDGE('',*,*,#493,.F.);
#637=ORIENTED_EDGE('',*,*,#492,.F.);
#638=ORIENTED_EDGE('',*,*,#494,.F.);
#639=ORIENTED_EDGE('',*,*,#495,.T.);
#640=ORIENTED_EDGE('',*,*,#496,.F.);
#641=ORIENTED_EDGE('',*,*,#495,.F.);
#642=ORIENTED_EDGE('',*,*,#497,.F.);
#643=ORIENTED_EDGE('',*,*,#498,.T.);
#644=ORIENTED_EDGE('',*,*,#499,.F.);
#645=ORIENTED_EDGE('',*,*,#498,.F.);
#646=ORIENTED_EDGE('',*,*,#500,.F.);
#647=ORIENTED_EDGE('',*,*,#501,.T.);
#648=ORIENTED_EDGE('',*,*,#502,.T.);
#649=ORIENTED_EDGE('',*,*,#501,.F.);
#650=ORIENTED_EDGE('',*,*,#502,.F.);
#651=ORIENTED_EDGE('',*,*,#497,.T.);
#652=ORIENTED_EDGE('',*,*,#494,.T.);
#653=ORIENTED_EDGE('',*,*,#491,.T.);
#654=ORIENTED_EDGE('',*,*,#488,.T.);
#655=ORIENTED_EDGE('',*,*,#485,.T.);
#656=ORIENTED_EDGE('',*,*,#503,.F.);
#657=ORIENTED_EDGE('',*,*,#504,.T.);
#658=ORIENTED_EDGE('',*,*,#505,.F.);
#659=ORIENTED_EDGE('',*,*,#504,.F.);
#660=ORIENTED_EDGE('',*,*,#503,.T.);
#661=ORIENTED_EDGE('',*,*,#460,.T.);
#662=ORIENTED_EDGE('',*,*,#506,.T.);
#663=ORIENTED_EDGE('',*,*,#507,.F.);
#664=ORIENTED_EDGE('',*,*,#508,.F.);
#665=ORIENTED_EDGE('',*,*,#509,.F.);
#666=ORIENTED_EDGE('',*,*,#510,.F.);
#667=ORIENTED_EDGE('',*,*,#511,.T.);
#668=ORIENTED_EDGE('',*,*,#507,.T.);
#669=ORIENTED_EDGE('',*,*,#512,.T.);
#670=ORIENTED_EDGE('',*,*,#505,.T.);
#671=ORIENTED_EDGE('',*,*,#457,.T.);
#672=ORIENTED_EDGE('',*,*,#513,.T.);
#673=ORIENTED_EDGE('',*,*,#514,.T.);
#674=ORIENTED_EDGE('',*,*,#515,.T.);
#675=ORIENTED_EDGE('',*,*,#516,.T.);
#676=ORIENTED_EDGE('',*,*,#510,.T.);
#677=ORIENTED_EDGE('',*,*,#517,.T.);
#678=ORIENTED_EDGE('',*,*,#518,.T.);
#679=ORIENTED_EDGE('',*,*,#519,.T.);
#680=ORIENTED_EDGE('',*,*,#520,.T.);
#681=ORIENTED_EDGE('',*,*,#452,.T.);
#682=ORIENTED_EDGE('',*,*,#455,.T.);
#683=ORIENTED_EDGE('',*,*,#499,.T.);
#684=ORIENTED_EDGE('',*,*,#496,.T.);
#685=ORIENTED_EDGE('',*,*,#493,.T.);
#686=ORIENTED_EDGE('',*,*,#490,.T.);
#687=ORIENTED_EDGE('',*,*,#487,.T.);
#688=ORIENTED_EDGE('',*,*,#521,.F.);
#689=ORIENTED_EDGE('',*,*,#522,.T.);
#690=ORIENTED_EDGE('',*,*,#523,.F.);
#691=ORIENTED_EDGE('',*,*,#517,.F.);
#692=ORIENTED_EDGE('',*,*,#512,.F.);
#693=ORIENTED_EDGE('',*,*,#506,.F.);
#694=ORIENTED_EDGE('',*,*,#520,.F.);
#695=ORIENTED_EDGE('',*,*,#524,.T.);
#696=ORIENTED_EDGE('',*,*,#525,.T.);
#697=ORIENTED_EDGE('',*,*,#526,.T.);
#698=ORIENTED_EDGE('',*,*,#513,.F.);
#699=ORIENTED_EDGE('',*,*,#443,.F.);
#700=ORIENTED_EDGE('',*,*,#527,.T.);
#701=ORIENTED_EDGE('',*,*,#528,.T.);
#702=ORIENTED_EDGE('',*,*,#529,.T.);
#703=ORIENTED_EDGE('',*,*,#530,.T.);
#704=ORIENTED_EDGE('',*,*,#470,.T.);
#705=ORIENTED_EDGE('',*,*,#467,.T.);
#706=ORIENTED_EDGE('',*,*,#464,.T.);
#707=ORIENTED_EDGE('',*,*,#461,.T.);
#708=ORIENTED_EDGE('',*,*,#531,.F.);
#709=ORIENTED_EDGE('',*,*,#532,.F.);
#710=ORIENTED_EDGE('',*,*,#533,.F.);
#711=ORIENTED_EDGE('',*,*,#528,.F.);
#712=ORIENTED_EDGE('',*,*,#533,.T.);
#713=ORIENTED_EDGE('',*,*,#534,.F.);
#714=ORIENTED_EDGE('',*,*,#535,.F.);
#715=ORIENTED_EDGE('',*,*,#529,.F.);
#716=ORIENTED_EDGE('',*,*,#535,.T.);
#717=ORIENTED_EDGE('',*,*,#536,.F.);
#718=ORIENTED_EDGE('',*,*,#537,.F.);
#719=ORIENTED_EDGE('',*,*,#530,.F.);
#720=ORIENTED_EDGE('',*,*,#537,.T.);
#721=ORIENTED_EDGE('',*,*,#538,.F.);
#722=ORIENTED_EDGE('',*,*,#531,.T.);
#723=ORIENTED_EDGE('',*,*,#527,.F.);
#724=ORIENTED_EDGE('',*,*,#539,.T.);
#725=ORIENTED_EDGE('',*,*,#540,.F.);
#726=ORIENTED_EDGE('',*,*,#541,.F.);
#727=ORIENTED_EDGE('',*,*,#525,.F.);
#728=ORIENTED_EDGE('',*,*,#542,.F.);
#729=ORIENTED_EDGE('',*,*,#543,.T.);
#730=ORIENTED_EDGE('',*,*,#544,.T.);
#731=ORIENTED_EDGE('',*,*,#540,.T.);
#732=ORIENTED_EDGE('',*,*,#538,.T.);
#733=ORIENTED_EDGE('',*,*,#536,.T.);
#734=ORIENTED_EDGE('',*,*,#534,.T.);
#735=ORIENTED_EDGE('',*,*,#532,.T.);
#736=ORIENTED_EDGE('',*,*,#542,.T.);
#737=ORIENTED_EDGE('',*,*,#539,.F.);
#738=ORIENTED_EDGE('',*,*,#524,.F.);
#739=ORIENTED_EDGE('',*,*,#519,.F.);
#740=ORIENTED_EDGE('',*,*,#545,.F.);
#741=ORIENTED_EDGE('',*,*,#546,.T.);
#742=ORIENTED_EDGE('',*,*,#516,.F.);
#743=ORIENTED_EDGE('',*,*,#547,.F.);
#744=ORIENTED_EDGE('',*,*,#548,.T.);
#745=ORIENTED_EDGE('',*,*,#549,.T.);
#746=ORIENTED_EDGE('',*,*,#508,.T.);
#747=ORIENTED_EDGE('',*,*,#511,.F.);
#748=ORIENTED_EDGE('',*,*,#549,.F.);
#749=ORIENTED_EDGE('',*,*,#550,.T.);
#750=ORIENTED_EDGE('',*,*,#521,.T.);
#751=ORIENTED_EDGE('',*,*,#509,.T.);
#752=ORIENTED_EDGE('',*,*,#523,.T.);
#753=ORIENTED_EDGE('',*,*,#551,.T.);
#754=ORIENTED_EDGE('',*,*,#545,.T.);
#755=ORIENTED_EDGE('',*,*,#518,.F.);
#756=ORIENTED_EDGE('',*,*,#544,.F.);
#757=ORIENTED_EDGE('',*,*,#552,.T.);
#758=ORIENTED_EDGE('',*,*,#553,.F.);
#759=ORIENTED_EDGE('',*,*,#514,.F.);
#760=ORIENTED_EDGE('',*,*,#526,.F.);
#761=ORIENTED_EDGE('',*,*,#541,.T.);
#762=ORIENTED_EDGE('',*,*,#547,.T.);
#763=ORIENTED_EDGE('',*,*,#515,.F.);
#764=ORIENTED_EDGE('',*,*,#553,.T.);
#765=ORIENTED_EDGE('',*,*,#554,.T.);
#766=ORIENTED_EDGE('',*,*,#554,.F.);
#767=ORIENTED_EDGE('',*,*,#552,.F.);
#768=ORIENTED_EDGE('',*,*,#543,.F.);
#769=ORIENTED_EDGE('',*,*,#546,.F.);
#770=ORIENTED_EDGE('',*,*,#551,.F.);
#771=ORIENTED_EDGE('',*,*,#522,.F.);
#772=ORIENTED_EDGE('',*,*,#550,.F.);
#773=ORIENTED_EDGE('',*,*,#548,.F.);
#774=ORIENTED_EDGE('',*,*,#500,.T.);
#775=ORIENTED_EDGE('',*,*,#482,.T.);
#776=ORIENTED_EDGE('',*,*,#479,.T.);
#777=ORIENTED_EDGE('',*,*,#476,.T.);
#778=ORIENTED_EDGE('',*,*,#473,.T.);
#779=PLANE('',#877);
#780=PLANE('',#878);
#781=PLANE('',#879);
#782=PLANE('',#880);
#783=PLANE('',#881);
#784=PLANE('',#882);
#785=PLANE('',#883);
#786=PLANE('',#890);
#787=PLANE('',#894);
#788=PLANE('',#898);
#789=PLANE('',#902);
#790=PLANE('',#906);
#791=PLANE('',#910);
#792=PLANE('',#914);
#793=PLANE('',#918);
#794=PLANE('',#937);
#795=PLANE('',#941);
#796=PLANE('',#942);
#797=PLANE('',#943);
#798=PLANE('',#944);
#799=PLANE('',#947);
#800=PLANE('',#948);
#801=PLANE('',#949);
#802=PLANE('',#950);
#803=PLANE('',#951);
#804=PLANE('',#952);
#805=PLANE('',#953);
#806=PLANE('',#954);
#807=PLANE('',#955);
#808=PLANE('',#956);
#809=PLANE('',#957);
#810=PLANE('',#960);
#811=PLANE('',#963);
#812=ADVANCED_FACE('',(#92),#779,.F.);
#813=ADVANCED_FACE('',(#93),#780,.F.);
#814=ADVANCED_FACE('',(#94),#781,.F.);
#815=ADVANCED_FACE('',(#95),#782,.F.);
#816=ADVANCED_FACE('',(#96),#783,.F.);
#817=ADVANCED_FACE('',(#97),#784,.T.);
#818=ADVANCED_FACE('',(#98),#785,.T.);
#819=ADVANCED_FACE('',(#99),#38,.F.);
#820=ADVANCED_FACE('',(#100),#39,.F.);
#821=ADVANCED_FACE('',(#101),#786,.F.);
#822=ADVANCED_FACE('',(#102),#40,.F.);
#823=ADVANCED_FACE('',(#103),#787,.F.);
#824=ADVANCED_FACE('',(#104),#41,.F.);
#825=ADVANCED_FACE('',(#105),#788,.F.);
#826=ADVANCED_FACE('',(#106),#42,.F.);
#827=ADVANCED_FACE('',(#107),#789,.F.);
#828=ADVANCED_FACE('',(#108),#43,.F.);
#829=ADVANCED_FACE('',(#109),#790,.F.);
#830=ADVANCED_FACE('',(#110),#44,.F.);
#831=ADVANCED_FACE('',(#111),#791,.F.);
#832=ADVANCED_FACE('',(#112),#45,.F.);
#833=ADVANCED_FACE('',(#113),#792,.F.);
#834=ADVANCED_FACE('',(#114),#46,.F.);
#835=ADVANCED_FACE('',(#115),#793,.F.);
#836=ADVANCED_FACE('',(#116),#47,.F.);
#837=ADVANCED_FACE('',(#117),#48,.F.);
#838=ADVANCED_FACE('',(#118),#49,.F.);
#839=ADVANCED_FACE('',(#119),#50,.F.);
#840=ADVANCED_FACE('',(#120),#51,.F.);
#841=ADVANCED_FACE('',(#121),#52,.F.);
#842=ADVANCED_FACE('',(#122,#15,#16,#17,#18,#19),#794,.F.);
#843=ADVANCED_FACE('',(#123),#53,.T.);
#844=ADVANCED_FACE('',(#124,#20),#795,.T.);
#845=ADVANCED_FACE('',(#125),#796,.T.);
#846=ADVANCED_FACE('',(#126,#21),#797,.T.);
#847=ADVANCED_FACE('',(#127,#22,#23,#24,#25,#26),#798,.T.);
#848=ADVANCED_FACE('',(#128),#799,.T.);
#849=ADVANCED_FACE('',(#129,#27,#28,#29,#30,#31),#800,.T.);
#850=ADVANCED_FACE('',(#130),#801,.T.);
#851=ADVANCED_FACE('',(#131),#802,.T.);
#852=ADVANCED_FACE('',(#132),#803,.T.);
#853=ADVANCED_FACE('',(#133),#804,.T.);
#854=ADVANCED_FACE('',(#134),#805,.T.);
#855=ADVANCED_FACE('',(#135,#32),#806,.T.);
#856=ADVANCED_FACE('',(#136),#807,.T.);
#857=ADVANCED_FACE('',(#137),#808,.T.);
#858=ADVANCED_FACE('',(#138),#809,.T.);
#859=ADVANCED_FACE('',(#139),#54,.T.);
#860=ADVANCED_FACE('',(#140),#810,.T.);
#861=ADVANCED_FACE('',(#141),#55,.T.);
#862=ADVANCED_FACE('',(#142,#33,#34,#35,#36,#37),#811,.F.);
#863=CLOSED_SHELL('',(#812,#813,#814,#815,#816,#817,#818,#819,#820,#821,
#822,#823,#824,#825,#826,#827,#828,#829,#830,#831,#832,#833,#834,#835,#836,
#837,#838,#839,#840,#841,#842,#843,#844,#845,#846,#847,#848,#849,#850,#851,
#852,#853,#854,#855,#856,#857,#858,#859,#860,#861,#862));
#864=DERIVED_UNIT_ELEMENT(#866,1.);
#865=DERIVED_UNIT_ELEMENT(#1459,-3.);
#866=(
MASS_UNIT()
NAMED_UNIT(*)
SI_UNIT(.KILO.,.GRAM.)
);
#867=DERIVED_UNIT((#864,#865));
#868=MEASURE_REPRESENTATION_ITEM('density measure',
POSITIVE_RATIO_MEASURE(7850.),#867);
#869=PROPERTY_DEFINITION_REPRESENTATION(#874,#871);
#870=PROPERTY_DEFINITION_REPRESENTATION(#875,#872);
#871=REPRESENTATION('material name',(#873),#1456);
#872=REPRESENTATION('density',(#868),#1456);
#873=DESCRIPTIVE_REPRESENTATION_ITEM('Steel','Steel');
#874=PROPERTY_DEFINITION('material property','material name',#1466);
#875=PROPERTY_DEFINITION('material property','density of part',#1466);
#876=AXIS2_PLACEMENT_3D('',#1216,#964,#965);
#877=AXIS2_PLACEMENT_3D('',#1217,#966,#967);
#878=AXIS2_PLACEMENT_3D('',#1226,#972,#973);
#879=AXIS2_PLACEMENT_3D('',#1232,#977,#978);
#880=AXIS2_PLACEMENT_3D('',#1238,#982,#983);
#881=AXIS2_PLACEMENT_3D('',#1244,#987,#988);
#882=AXIS2_PLACEMENT_3D('',#1247,#991,#992);
#883=AXIS2_PLACEMENT_3D('',#1248,#993,#994);
#884=AXIS2_PLACEMENT_3D('',#1250,#995,#996);
#885=AXIS2_PLACEMENT_3D('',#1251,#997,#998);
#886=AXIS2_PLACEMENT_3D('',#1254,#1000,#1001);
#887=AXIS2_PLACEMENT_3D('',#1255,#1002,#1003);
#888=AXIS2_PLACEMENT_3D('',#1257,#1004,#1005);
#889=AXIS2_PLACEMENT_3D('',#1260,#1007,#1008);
#890=AXIS2_PLACEMENT_3D('',#1261,#1009,#1010);
#891=AXIS2_PLACEMENT_3D('',#1262,#1011,#1012);
#892=AXIS2_PLACEMENT_3D('',#1264,#1013,#1014);
#893=AXIS2_PLACEMENT_3D('',#1267,#1016,#1017);
#894=AXIS2_PLACEMENT_3D('',#1268,#1018,#1019);
#895=AXIS2_PLACEMENT_3D('',#1269,#1020,#1021);
#896=AXIS2_PLACEMENT_3D('',#1271,#1022,#1023);
#897=AXIS2_PLACEMENT_3D('',#1274,#1025,#1026);
#898=AXIS2_PLACEMENT_3D('',#1275,#1027,#1028);
#899=AXIS2_PLACEMENT_3D('',#1276,#1029,#1030);
#900=AXIS2_PLACEMENT_3D('',#1278,#1031,#1032);
#901=AXIS2_PLACEMENT_3D('',#1281,#1034,#1035);
#902=AXIS2_PLACEMENT_3D('',#1282,#1036,#1037);
#903=AXIS2_PLACEMENT_3D('',#1283,#1038,#1039);
#904=AXIS2_PLACEMENT_3D('',#1285,#1040,#1041);
#905=AXIS2_PLACEMENT_3D('',#1288,#1043,#1044);
#906=AXIS2_PLACEMENT_3D('',#1289,#1045,#1046);
#907=AXIS2_PLACEMENT_3D('',#1290,#1047,#1048);
#908=AXIS2_PLACEMENT_3D('',#1292,#1049,#1050);
#909=AXIS2_PLACEMENT_3D('',#1295,#1052,#1053);
#910=AXIS2_PLACEMENT_3D('',#1296,#1054,#1055);
#911=AXIS2_PLACEMENT_3D('',#1297,#1056,#1057);
#912=AXIS2_PLACEMENT_3D('',#1299,#1058,#1059);
#913=AXIS2_PLACEMENT_3D('',#1302,#1061,#1062);
#914=AXIS2_PLACEMENT_3D('',#1303,#1063,#1064);
#915=AXIS2_PLACEMENT_3D('',#1304,#1065,#1066);
#916=AXIS2_PLACEMENT_3D('',#1306,#1067,#1068);
#917=AXIS2_PLACEMENT_3D('',#1309,#1070,#1071);
#918=AXIS2_PLACEMENT_3D('',#1310,#1072,#1073);
#919=AXIS2_PLACEMENT_3D('',#1311,#1074,#1075);
#920=AXIS2_PLACEMENT_3D('',#1313,#1076,#1077);
#921=AXIS2_PLACEMENT_3D('',#1316,#1079,#1080);
#922=AXIS2_PLACEMENT_3D('',#1317,#1081,#1082);
#923=AXIS2_PLACEMENT_3D('',#1319,#1083,#1084);
#924=AXIS2_PLACEMENT_3D('',#1322,#1086,#1087);
#925=AXIS2_PLACEMENT_3D('',#1323,#1088,#1089);
#926=AXIS2_PLACEMENT_3D('',#1325,#1090,#1091);
#927=AXIS2_PLACEMENT_3D('',#1328,#1093,#1094);
#928=AXIS2_PLACEMENT_3D('',#1329,#1095,#1096);
#929=AXIS2_PLACEMENT_3D('',#1331,#1097,#1098);
#930=AXIS2_PLACEMENT_3D('',#1334,#1100,#1101);
#931=AXIS2_PLACEMENT_3D('',#1335,#1102,#1103);
#932=AXIS2_PLACEMENT_3D('',#1337,#1104,#1105);
#933=AXIS2_PLACEMENT_3D('',#1340,#1107,#1108);
#934=AXIS2_PLACEMENT_3D('',#1341,#1109,#1110);
#935=AXIS2_PLACEMENT_3D('',#1343,#1111,#1112);
#936=AXIS2_PLACEMENT_3D('',#1346,#1114,#1115);
#937=AXIS2_PLACEMENT_3D('',#1347,#1116,#1117);
#938=AXIS2_PLACEMENT_3D('',#1348,#1118,#1119);
#939=AXIS2_PLACEMENT_3D('',#1350,#1120,#1121);
#940=AXIS2_PLACEMENT_3D('',#1353,#1123,#1124);
#941=AXIS2_PLACEMENT_3D('',#1354,#1125,#1126);
#942=AXIS2_PLACEMENT_3D('',#1355,#1127,#1128);
#943=AXIS2_PLACEMENT_3D('',#1364,#1133,#1134);
#944=AXIS2_PLACEMENT_3D('',#1370,#1138,#1139);
#945=AXIS2_PLACEMENT_3D('',#1376,#1142,#1143);
#946=AXIS2_PLACEMENT_3D('',#1381,#1146,#1147);
#947=AXIS2_PLACEMENT_3D('',#1385,#1150,#1151);
#948=AXIS2_PLACEMENT_3D('',#1391,#1155,#1156);
#949=AXIS2_PLACEMENT_3D('',#1405,#1164,#1165);
#950=AXIS2_PLACEMENT_3D('',#1411,#1169,#1170);
#951=AXIS2_PLACEMENT_3D('',#1415,#1173,#1174);
#952=AXIS2_PLACEMENT_3D('',#1419,#1177,#1178);
#953=AXIS2_PLACEMENT_3D('',#1421,#1180,#1181);
#954=AXIS2_PLACEMENT_3D('',#1427,#1185,#1186);
#955=AXIS2_PLACEMENT_3D('',#1433,#1190,#1191);
#956=AXIS2_PLACEMENT_3D('',#1437,#1194,#1195);
#957=AXIS2_PLACEMENT_3D('',#1443,#1199,#1200);
#958=AXIS2_PLACEMENT_3D('',#1445,#1202,#1203);
#959=AXIS2_PLACEMENT_3D('',#1446,#1204,#1205);
#960=AXIS2_PLACEMENT_3D('',#1447,#1206,#1207);
#961=AXIS2_PLACEMENT_3D('',#1451,#1210,#1211);
#962=AXIS2_PLACEMENT_3D('',#1452,#1212,#1213);
#963=AXIS2_PLACEMENT_3D('',#1453,#1214,#1215);
#964=DIRECTION('axis',(0.,0.,1.));
#965=DIRECTION('refdir',(1.,0.,0.));
#966=DIRECTION('center_axis',(0.,0.,1.));
#967=DIRECTION('ref_axis',(1.,0.,0.));
#968=DIRECTION('',(-1.,0.,0.));
#969=DIRECTION('',(0.,-1.,0.));
#970=DIRECTION('',(-1.,0.,0.));
#971=DIRECTION('',(0.,1.,0.));
#972=DIRECTION('center_axis',(0.,1.,0.));
#973=DIRECTION('ref_axis',(-1.,0.,0.));
#974=DIRECTION('',(-1.,0.,0.));
#975=DIRECTION('',(0.,0.,1.));
#976=DIRECTION('',(0.,0.,1.));
#977=DIRECTION('center_axis',(1.,0.,0.));
#978=DIRECTION('ref_axis',(0.,1.,0.));
#979=DIRECTION('',(0.,1.,0.));
#980=DIRECTION('',(0.,0.,1.));
#981=DIRECTION('',(0.,-1.,0.));
#982=DIRECTION('center_axis',(0.,-1.,0.));
#983=DIRECTION('ref_axis',(1.,0.,0.));
#984=DIRECTION('',(1.,0.,0.));
#985=DIRECTION('',(0.,0.,1.));
#986=DIRECTION('',(-1.,0.,0.));
#987=DIRECTION('center_axis',(-1.,0.,0.));
#988=DIRECTION('ref_axis',(0.,-1.,0.));
#989=DIRECTION('',(0.,-1.,0.));
#990=DIRECTION('',(0.,1.,0.));
#991=DIRECTION('center_axis',(0.,0.,1.));
#992=DIRECTION('ref_axis',(1.,0.,0.));
#993=DIRECTION('center_axis',(0.,1.,0.));
#994=DIRECTION('ref_axis',(1.,0.,0.));
#995=DIRECTION('center_axis',(0.,-1.,0.));
#996=DIRECTION('ref_axis',(1.,0.,0.));
#997=DIRECTION('center_axis',(0.,1.,0.));
#998=DIRECTION('ref_axis',(1.,0.,0.));
#999=DIRECTION('',(0.,1.,0.));
#1000=DIRECTION('center_axis',(0.,-1.,0.));
#1001=DIRECTION('ref_axis',(1.,0.,0.));
#1002=DIRECTION('center_axis',(0.,1.,0.));
#1003=DIRECTION('ref_axis',(1.,0.,0.));
#1004=DIRECTION('center_axis',(0.,1.,0.));
#1005=DIRECTION('ref_axis',(1.,0.,0.));
#1006=DIRECTION('',(0.,1.,0.));
#1007=DIRECTION('center_axis',(0.,1.,0.));
#1008=DIRECTION('ref_axis',(1.,0.,0.));
#1009=DIRECTION('center_axis',(0.,1.,0.));
#1010=DIRECTION('ref_axis',(1.,0.,0.));
#1011=DIRECTION('center_axis',(0.,1.,0.));
#1012=DIRECTION('ref_axis',(1.,0.,0.));
#1013=DIRECTION('center_axis',(0.,1.,0.));
#1014=DIRECTION('ref_axis',(1.,0.,0.));
#1015=DIRECTION('',(0.,1.,0.));
#1016=DIRECTION('center_axis',(0.,1.,0.));
#1017=DIRECTION('ref_axis',(1.,0.,0.));
#1018=DIRECTION('center_axis',(0.,1.,0.));
#1019=DIRECTION('ref_axis',(1.,0.,0.));
#1020=DIRECTION('center_axis',(0.,1.,0.));
#1021=DIRECTION('ref_axis',(1.,0.,0.));
#1022=DIRECTION('center_axis',(0.,1.,0.));
#1023=DIRECTION('ref_axis',(1.,0.,0.));
#1024=DIRECTION('',(0.,1.,0.));
#1025=DIRECTION('center_axis',(0.,1.,0.));
#1026=DIRECTION('ref_axis',(1.,0.,0.));
#1027=DIRECTION('center_axis',(0.,1.,0.));
#1028=DIRECTION('ref_axis',(1.,0.,0.));
#1029=DIRECTION('center_axis',(0.,1.,0.));
#1030=DIRECTION('ref_axis',(1.,0.,0.));
#1031=DIRECTION('center_axis',(0.,1.,0.));
#1032=DIRECTION('ref_axis',(1.,0.,0.));
#1033=DIRECTION('',(0.,1.,0.));
#1034=DIRECTION('center_axis',(0.,1.,0.));
#1035=DIRECTION('ref_axis',(1.,0.,0.));
#1036=DIRECTION('center_axis',(0.,1.,0.));
#1037=DIRECTION('ref_axis',(1.,0.,0.));
#1038=DIRECTION('center_axis',(0.,0.,1.));
#1039=DIRECTION('ref_axis',(1.,0.,0.));
#1040=DIRECTION('center_axis',(0.,0.,1.));
#1041=DIRECTION('ref_axis',(1.,0.,0.));
#1042=DIRECTION('',(0.,0.,1.));
#1043=DIRECTION('center_axis',(0.,0.,1.));
#1044=DIRECTION('ref_axis',(1.,0.,0.));
#1045=DIRECTION('center_axis',(0.,0.,1.));
#1046=DIRECTION('ref_axis',(1.,0.,0.));
#1047=DIRECTION('center_axis',(0.,0.,1.));
#1048=DIRECTION('ref_axis',(1.,0.,0.));
#1049=DIRECTION('center_axis',(0.,0.,1.));
#1050=DIRECTION('ref_axis',(1.,0.,0.));
#1051=DIRECTION('',(0.,0.,1.));
#1052=DIRECTION('center_axis',(0.,0.,1.));
#1053=DIRECTION('ref_axis',(1.,0.,0.));
#1054=DIRECTION('center_axis',(0.,0.,1.));
#1055=DIRECTION('ref_axis',(1.,0.,0.));
#1056=DIRECTION('center_axis',(0.,0.,1.));
#1057=DIRECTION('ref_axis',(1.,0.,0.));
#1058=DIRECTION('center_axis',(0.,0.,1.));
#1059=DIRECTION('ref_axis',(1.,0.,0.));
#1060=DIRECTION('',(0.,0.,1.));
#1061=DIRECTION('center_axis',(0.,0.,1.));
#1062=DIRECTION('ref_axis',(1.,0.,0.));
#1063=DIRECTION('center_axis',(0.,0.,1.));
#1064=DIRECTION('ref_axis',(1.,0.,0.));
#1065=DIRECTION('center_axis',(0.,0.,1.));
#1066=DIRECTION('ref_axis',(1.,0.,0.));
#1067=DIRECTION('center_axis',(0.,0.,1.));
#1068=DIRECTION('ref_axis',(1.,0.,0.));
#1069=DIRECTION('',(0.,0.,1.));
#1070=DIRECTION('center_axis',(0.,0.,1.));
#1071=DIRECTION('ref_axis',(1.,0.,0.));
#1072=DIRECTION('center_axis',(0.,0.,1.));
#1073=DIRECTION('ref_axis',(1.,0.,0.));
#1074=DIRECTION('center_axis',(0.,0.,1.));
#1075=DIRECTION('ref_axis',(1.,0.,0.));
#1076=DIRECTION('center_axis',(0.,0.,1.));
#1077=DIRECTION('ref_axis',(1.,0.,0.));
#1078=DIRECTION('',(0.,0.,1.));
#1079=DIRECTION('center_axis',(0.,0.,-1.));
#1080=DIRECTION('ref_axis',(1.,0.,0.));
#1081=DIRECTION('center_axis',(0.,0.,1.));
#1082=DIRECTION('ref_axis',(1.,0.,0.));
#1083=DIRECTION('center_axis',(0.,0.,1.));
#1084=DIRECTION('ref_axis',(1.,0.,0.));
#1085=DIRECTION('',(0.,0.,1.));
#1086=DIRECTION('center_axis',(0.,0.,-1.));
#1087=DIRECTION('ref_axis',(1.,0.,0.));
#1088=DIRECTION('center_axis',(0.,0.,1.));
#1089=DIRECTION('ref_axis',(1.,0.,0.));
#1090=DIRECTION('center_axis',(0.,0.,1.));
#1091=DIRECTION('ref_axis',(1.,0.,0.));
#1092=DIRECTION('',(0.,0.,1.));
#1093=DIRECTION('center_axis',(0.,0.,-1.));
#1094=DIRECTION('ref_axis',(1.,0.,0.));
#1095=DIRECTION('center_axis',(0.,0.,1.));
#1096=DIRECTION('ref_axis',(1.,0.,0.));
#1097=DIRECTION('center_axis',(0.,0.,1.));
#1098=DIRECTION('ref_axis',(1.,0.,0.));
#1099=DIRECTION('',(0.,0.,1.));
#1100=DIRECTION('center_axis',(0.,0.,-1.));
#1101=DIRECTION('ref_axis',(1.,0.,0.));
#1102=DIRECTION('center_axis',(0.,0.,1.));
#1103=DIRECTION('ref_axis',(1.,0.,0.));
#1104=DIRECTION('center_axis',(0.,0.,1.));
#1105=DIRECTION('ref_axis',(1.,0.,0.));
#1106=DIRECTION('',(0.,0.,1.));
#1107=DIRECTION('center_axis',(0.,0.,-1.));
#1108=DIRECTION('ref_axis',(1.,0.,0.));
#1109=DIRECTION('center_axis',(0.,0.,1.));
#1110=DIRECTION('ref_axis',(1.,0.,0.));
#1111=DIRECTION('center_axis',(0.,0.,1.));
#1112=DIRECTION('ref_axis',(1.,0.,0.));
#1113=DIRECTION('',(0.,0.,1.));
#1114=DIRECTION('center_axis',(0.,0.,1.));
#1115=DIRECTION('ref_axis',(1.,0.,0.));
#1116=DIRECTION('center_axis',(0.,0.,1.));
#1117=DIRECTION('ref_axis',(1.,0.,0.));
#1118=DIRECTION('center_axis',(0.,1.,0.));
#1119=DIRECTION('ref_axis',(1.,0.,0.));
#1120=DIRECTION('center_axis',(0.,1.,0.));
#1121=DIRECTION('ref_axis',(1.,0.,0.));
#1122=DIRECTION('',(0.,-1.,0.));
#1123=DIRECTION('center_axis',(0.,-1.,0.));
#1124=DIRECTION('ref_axis',(1.,0.,0.));
#1125=DIRECTION('center_axis',(0.,1.,0.));
#1126=DIRECTION('ref_axis',(1.,0.,0.));
#1127=DIRECTION('center_axis',(0.,0.,1.));
#1128=DIRECTION('ref_axis',(1.,0.,0.));
#1129=DIRECTION('',(0.,1.,0.));
#1130=DIRECTION('',(1.,0.,0.));
#1131=DIRECTION('',(0.,1.,0.));
#1132=DIRECTION('',(-1.,0.,0.));
#1133=DIRECTION('center_axis',(0.,1.,0.));
#1134=DIRECTION('ref_axis',(0.,0.,1.));
#1135=DIRECTION('',(1.,0.,0.));
#1136=DIRECTION('',(0.,0.,1.));
#1137=DIRECTION('',(0.,0.,-1.));
#1138=DIRECTION('center_axis',(0.,0.,1.));
#1139=DIRECTION('ref_axis',(1.,0.,0.));
#1140=DIRECTION('',(-1.,0.,0.));
#1141=DIRECTION('',(0.,-1.,0.));
#1142=DIRECTION('center_axis',(0.,0.,1.));
#1143=DIRECTION('ref_axis',(1.,0.,0.));
#1144=DIRECTION('',(0.,-1.,0.));
#1145=DIRECTION('',(0.,1.,0.));
#1146=DIRECTION('center_axis',(0.,0.,1.));
#1147=DIRECTION('ref_axis',(1.,0.,0.));
#1148=DIRECTION('',(0.,1.,0.));
#1149=DIRECTION('',(-1.,0.,0.));
#1150=DIRECTION('center_axis',(1.,0.,0.));
#1151=DIRECTION('ref_axis',(0.,1.,0.));
#1152=DIRECTION('',(0.,0.,1.));
#1153=DIRECTION('',(0.,1.,0.));
#1154=DIRECTION('',(0.,0.,-1.));
#1155=DIRECTION('center_axis',(0.,-1.,0.));
#1156=DIRECTION('ref_axis',(0.,0.,-1.));
#1157=DIRECTION('',(0.,0.,1.));
#1158=DIRECTION('',(-1.,0.,0.));
#1159=DIRECTION('',(0.,0.,-1.));
#1160=DIRECTION('',(0.,0.,1.));
#1161=DIRECTION('',(1.,0.,0.));
#1162=DIRECTION('',(0.,0.,-1.));
#1163=DIRECTION('',(-1.,0.,0.));
#1164=DIRECTION('center_axis',(0.,0.,-1.));
#1165=DIRECTION('ref_axis',(-1.,0.,0.));
#1166=DIRECTION('',(0.,-1.,0.));
#1167=DIRECTION('',(-1.,0.,0.));
#1168=DIRECTION('',(0.,1.,0.));
#1169=DIRECTION('center_axis',(-1.,0.,0.));
#1170=DIRECTION('ref_axis',(0.,0.,1.));
#1171=DIRECTION('',(0.,0.,1.));
#1172=DIRECTION('',(0.,1.,0.));
#1173=DIRECTION('center_axis',(0.,0.,1.));
#1174=DIRECTION('ref_axis',(1.,0.,0.));
#1175=DIRECTION('',(1.,0.,0.));
#1176=DIRECTION('',(0.,1.,0.));
#1177=DIRECTION('center_axis',(1.,0.,0.));
#1178=DIRECTION('ref_axis',(0.,0.,-1.));
#1179=DIRECTION('',(0.,0.,-1.));
#1180=DIRECTION('center_axis',(0.,0.,1.));
#1181=DIRECTION('ref_axis',(1.,0.,0.));
#1182=DIRECTION('',(0.,1.,0.));
#1183=DIRECTION('',(1.,0.,0.));
#1184=DIRECTION('',(0.,1.,0.));
#1185=DIRECTION('center_axis',(0.,1.,0.));
#1186=DIRECTION('ref_axis',(-1.,0.,0.));
#1187=DIRECTION('',(0.,0.,1.));
#1188=DIRECTION('',(-1.,0.,0.));
#1189=DIRECTION('',(0.,0.,1.));
#1190=DIRECTION('center_axis',(1.,0.,0.));
#1191=DIRECTION('ref_axis',(0.,1.,0.));
#1192=DIRECTION('',(0.,0.,1.));
#1193=DIRECTION('',(0.,1.,0.));
#1194=DIRECTION('center_axis',(-1.,0.,0.));
#1195=DIRECTION('ref_axis',(0.,-1.,0.));
#1196=DIRECTION('',(0.,0.,1.));
#1197=DIRECTION('',(0.,-1.,0.));
#1198=DIRECTION('',(0.,0.,1.));
#1199=DIRECTION('center_axis',(0.,-1.,0.));
#1200=DIRECTION('ref_axis',(1.,0.,0.));
#1201=DIRECTION('',(1.,0.,0.));
#1202=DIRECTION('center_axis',(0.,0.,1.));
#1203=DIRECTION('ref_axis',(1.,0.,0.));
#1204=DIRECTION('center_axis',(0.,0.,1.));
#1205=DIRECTION('ref_axis',(1.,0.,0.));
#1206=DIRECTION('center_axis',(-1.,0.,0.));
#1207=DIRECTION('ref_axis',(0.,-1.,0.));
#1208=DIRECTION('',(0.,-1.,0.));
#1209=DIRECTION('',(0.,0.,-1.));
#1210=DIRECTION('center_axis',(0.,0.,1.));
#1211=DIRECTION('ref_axis',(-1.,-1.22464679914735E-16,0.));
#1212=DIRECTION('center_axis',(0.,0.,1.));
#1213=DIRECTION('ref_axis',(1.,0.,0.));
#1214=DIRECTION('center_axis',(0.,0.,1.));
#1215=DIRECTION('ref_axis',(1.,0.,0.));
#1216=CARTESIAN_POINT('',(0.,0.,0.));
#1217=CARTESIAN_POINT('Origin',(0.,55.125,22.5));
#1218=CARTESIAN_POINT('',(10.,56.7,22.5));
#1219=CARTESIAN_POINT('',(-10.,56.7,22.5));
#1220=CARTESIAN_POINT('',(0.,56.7,22.5));
#1221=CARTESIAN_POINT('',(-10.,56.75,22.5));
#1222=CARTESIAN_POINT('',(-10.,56.75,22.5));
#1223=CARTESIAN_POINT('',(10.,56.75,22.5));
#1224=CARTESIAN_POINT('',(10.,56.75,22.5));
#1225=CARTESIAN_POINT('',(10.,53.5,22.5));
#1226=CARTESIAN_POINT('Origin',(10.,56.75,20.2));
#1227=CARTESIAN_POINT('',(10.,56.75,20.2));
#1228=CARTESIAN_POINT('',(-10.,56.75,20.2));
#1229=CARTESIAN_POINT('',(10.,56.75,20.2));
#1230=CARTESIAN_POINT('',(10.,56.75,20.2));
#1231=CARTESIAN_POINT('',(-10.,56.75,20.2));
#1232=CARTESIAN_POINT('Origin',(10.,53.5,20.2));
#1233=CARTESIAN_POINT('',(10.,53.5,20.2));
#1234=CARTESIAN_POINT('',(10.,53.5,20.2));
#1235=CARTESIAN_POINT('',(10.,53.5,22.5));
#1236=CARTESIAN_POINT('',(10.,53.5,20.2));
#1237=CARTESIAN_POINT('',(10.,26.75,22.5));
#1238=CARTESIAN_POINT('Origin',(-10.,53.5,20.2));
#1239=CARTESIAN_POINT('',(-10.,53.5,20.2));
#1240=CARTESIAN_POINT('',(-10.,53.5,20.2));
#1241=CARTESIAN_POINT('',(-10.,53.5,22.5));
#1242=CARTESIAN_POINT('',(-10.,53.5,20.2));
#1243=CARTESIAN_POINT('',(-5.,53.5,22.5));
#1244=CARTESIAN_POINT('Origin',(-10.,56.75,20.2));
#1245=CARTESIAN_POINT('',(-10.,56.75,20.2));
#1246=CARTESIAN_POINT('',(-10.,28.375,22.5));
#1247=CARTESIAN_POINT('Origin',(0.,55.125,20.2));
#1248=CARTESIAN_POINT('Origin',(0.,-51.5,58.));
#1249=CARTESIAN_POINT('',(-1.25,-51.5,58.));
#1250=CARTESIAN_POINT('Origin',(0.,-51.5,58.));
#1251=CARTESIAN_POINT('Origin',(0.,-46.5,58.));
#1252=CARTESIAN_POINT('',(-1.25,-41.5,58.));
#1253=CARTESIAN_POINT('',(-1.25,-46.5,58.));
#1254=CARTESIAN_POINT('Origin',(0.,-41.5,58.));
#1255=CARTESIAN_POINT('Origin',(4.25,59.85,23.8));
#1256=CARTESIAN_POINT('',(3.,56.7,23.8));
#1257=CARTESIAN_POINT('Origin',(4.25,56.7,23.8));
#1258=CARTESIAN_POINT('',(3.,63.,23.8));
#1259=CARTESIAN_POINT('',(3.,59.85,23.8));
#1260=CARTESIAN_POINT('Origin',(4.25,63.,23.8));
#1261=CARTESIAN_POINT('Origin',(4.25,63.,23.8));
#1262=CARTESIAN_POINT('Origin',(-4.25,59.85,71.8));
#1263=CARTESIAN_POINT('',(-5.5,56.7,71.8));
#1264=CARTESIAN_POINT('Origin',(-4.25,56.7,71.8));
#1265=CARTESIAN_POINT('',(-5.5,63.,71.8));
#1266=CARTESIAN_POINT('',(-5.5,59.85,71.8));
#1267=CARTESIAN_POINT('Origin',(-4.25,63.,71.8));
#1268=CARTESIAN_POINT('Origin',(-4.25,63.,71.8));
#1269=CARTESIAN_POINT('Origin',(-4.25,59.85,23.8));
#1270=CARTESIAN_POINT('',(-5.5,56.7,23.8));
#1271=CARTESIAN_POINT('Origin',(-4.25,56.7,23.8));
#1272=CARTESIAN_POINT('',(-5.5,63.,23.8));
#1273=CARTESIAN_POINT('',(-5.5,59.85,23.8));
#1274=CARTESIAN_POINT('Origin',(-4.25,63.,23.8));
#1275=CARTESIAN_POINT('Origin',(-4.25,63.,23.8));
#1276=CARTESIAN_POINT('Origin',(4.25,59.85,71.8));
#1277=CARTESIAN_POINT('',(3.,56.7,71.8));
#1278=CARTESIAN_POINT('Origin',(4.25,56.7,71.8));
#1279=CARTESIAN_POINT('',(3.,63.,71.8));
#1280=CARTESIAN_POINT('',(3.,59.85,71.8));
#1281=CARTESIAN_POINT('Origin',(4.25,63.,71.8));
#1282=CARTESIAN_POINT('Origin',(4.25,63.,71.8));
#1283=CARTESIAN_POINT('Origin',(-23.,2.81668763803891E-15,15.5));
#1284=CARTESIAN_POINT('',(-28.5,2.14313189850787E-15,15.5));
#1285=CARTESIAN_POINT('Origin',(-23.,2.81668763803891E-15,15.5));
#1286=CARTESIAN_POINT('',(-28.5,2.14313189850787E-15,19.5));
#1287=CARTESIAN_POINT('',(-28.5,2.14313189850787E-15,15.5));
#1288=CARTESIAN_POINT('Origin',(-23.,2.81668763803891E-15,19.5));
#1289=CARTESIAN_POINT('Origin',(-23.,3.33066907387547E-15,19.5));
#1290=CARTESIAN_POINT('Origin',(1.40834381901946E-15,23.,15.5));
#1291=CARTESIAN_POINT('',(-5.5,23.,15.5));
#1292=CARTESIAN_POINT('Origin',(1.40834381901946E-15,23.,15.5));
#1293=CARTESIAN_POINT('',(-5.5,23.,19.5));
#1294=CARTESIAN_POINT('',(-5.5,23.,15.5));
#1295=CARTESIAN_POINT('Origin',(1.40834381901946E-15,23.,19.5));
#1296=CARTESIAN_POINT('Origin',(1.11022302462516E-15,23.,19.5));
#1297=CARTESIAN_POINT('Origin',(23.,0.,15.5));
#1298=CARTESIAN_POINT('',(17.5,-6.73555739531044E-16,15.5));
#1299=CARTESIAN_POINT('Origin',(23.,0.,15.5));
#1300=CARTESIAN_POINT('',(17.5,-6.73555739531044E-16,19.5));
#1301=CARTESIAN_POINT('',(17.5,-6.73555739531044E-16,15.5));
#1302=CARTESIAN_POINT('Origin',(23.,0.,19.5));
#1303=CARTESIAN_POINT('Origin',(23.,0.,19.5));
#1304=CARTESIAN_POINT('Origin',(-4.22503145705837E-15,-23.,15.5));
#1305=CARTESIAN_POINT('',(-5.50000000000001,-23.,15.5));
#1306=CARTESIAN_POINT('Origin',(-4.22503145705837E-15,-23.,15.5));
#1307=CARTESIAN_POINT('',(-5.50000000000001,-23.,19.5));
#1308=CARTESIAN_POINT('',(-5.50000000000001,-23.,15.5));
#1309=CARTESIAN_POINT('Origin',(-4.22503145705837E-15,-23.,19.5));
#1310=CARTESIAN_POINT('Origin',(-4.44089209850063E-15,-23.,19.5));
#1311=CARTESIAN_POINT('Origin',(-5.65685424949238,-5.65685424949238,18.7));
#1312=CARTESIAN_POINT('',(-6.90685424949238,-5.65685424949238,18.7));
#1313=CARTESIAN_POINT('Origin',(-5.65685424949238,-5.65685424949238,18.7));
#1314=CARTESIAN_POINT('',(-6.90685424949238,-5.65685424949238,22.5));
#1315=CARTESIAN_POINT('',(-6.90685424949238,-5.65685424949238,18.7));
#1316=CARTESIAN_POINT('Origin',(-5.65685424949238,-5.65685424949238,22.5));
#1317=CARTESIAN_POINT('Origin',(-5.65685424949238,5.65685424949238,18.7));
#1318=CARTESIAN_POINT('',(-6.90685424949238,5.65685424949238,18.7));
#1319=CARTESIAN_POINT('Origin',(-5.65685424949238,5.65685424949238,18.7));
#1320=CARTESIAN_POINT('',(-6.90685424949238,5.65685424949238,22.5));
#1321=CARTESIAN_POINT('',(-6.90685424949238,5.65685424949238,18.7));
#1322=CARTESIAN_POINT('Origin',(-5.65685424949238,5.65685424949238,22.5));
#1323=CARTESIAN_POINT('Origin',(5.65685424949238,5.65685424949238,18.7));
#1324=CARTESIAN_POINT('',(4.40685424949238,5.65685424949238,18.7));
#1325=CARTESIAN_POINT('Origin',(5.65685424949238,5.65685424949238,18.7));
#1326=CARTESIAN_POINT('',(4.40685424949238,5.65685424949238,22.5));
#1327=CARTESIAN_POINT('',(4.40685424949238,5.65685424949238,18.7));
#1328=CARTESIAN_POINT('Origin',(5.65685424949238,5.65685424949238,22.5));
#1329=CARTESIAN_POINT('Origin',(0.,0.,18.7));
#1330=CARTESIAN_POINT('',(-4.5,-5.51091059616309E-16,18.7));
#1331=CARTESIAN_POINT('Origin',(0.,0.,18.7));
#1332=CARTESIAN_POINT('',(-4.5,-5.51091059616309E-16,22.5));
#1333=CARTESIAN_POINT('',(-4.5,-5.51091059616309E-16,18.7));
#1334=CARTESIAN_POINT('Origin',(0.,0.,22.5));
#1335=CARTESIAN_POINT('Origin',(5.65685424949238,-5.65685424949238,18.7));
#1336=CARTESIAN_POINT('',(4.40685424949238,-5.65685424949238,18.7));
#1337=CARTESIAN_POINT('Origin',(5.65685424949238,-5.65685424949238,18.7));
#1338=CARTESIAN_POINT('',(4.40685424949238,-5.65685424949238,22.5));
#1339=CARTESIAN_POINT('',(4.40685424949238,-5.65685424949238,18.7));
#1340=CARTESIAN_POINT('Origin',(5.65685424949238,-5.65685424949238,22.5));
#1341=CARTESIAN_POINT('Origin',(0.,0.,15.5));
#1342=CARTESIAN_POINT('',(-12.75,-1.56142466891288E-15,15.5));
#1343=CARTESIAN_POINT('Origin',(0.,0.,15.5));
#1344=CARTESIAN_POINT('',(-12.75,-1.56142466891288E-15,18.7));
#1345=CARTESIAN_POINT('',(-12.75,-1.56142466891288E-15,15.5));
#1346=CARTESIAN_POINT('Origin',(0.,0.,18.7));
#1347=CARTESIAN_POINT('Origin',(0.,0.,18.7));
#1348=CARTESIAN_POINT('Origin',(0.,-44.5,58.));
#1349=CARTESIAN_POINT('',(-5.,-41.5,58.));
#1350=CARTESIAN_POINT('Origin',(0.,-41.5,58.));
#1351=CARTESIAN_POINT('',(-5.,-47.5,58.));
#1352=CARTESIAN_POINT('',(-5.,-44.5,58.));
#1353=CARTESIAN_POINT('Origin',(0.,-47.5,58.));
#1354=CARTESIAN_POINT('Origin',(0.,-41.5,58.));
#1355=CARTESIAN_POINT('Origin',(-14.,-50.25,65.));
#1356=CARTESIAN_POINT('',(14.,-53.,65.));
#1357=CARTESIAN_POINT('',(14.,-47.5,65.));
#1358=CARTESIAN_POINT('',(14.,-50.25,65.));
#1359=CARTESIAN_POINT('',(-14.,-47.5,65.));
#1360=CARTESIAN_POINT('',(-14.,-47.5,65.));
#1361=CARTESIAN_POINT('',(-14.,-53.,65.));
#1362=CARTESIAN_POINT('',(-14.,-50.25,65.));
#1363=CARTESIAN_POINT('',(-14.,-53.,65.));
#1364=CARTESIAN_POINT('Origin',(0.,-47.5,41.));
#1365=CARTESIAN_POINT('',(-14.,-47.5,22.5));
#1366=CARTESIAN_POINT('',(14.,-47.5,22.5));
#1367=CARTESIAN_POINT('',(0.,-47.5,22.5));
#1368=CARTESIAN_POINT('',(-14.,-47.5,17.));
#1369=CARTESIAN_POINT('',(14.,-47.5,65.));
#1370=CARTESIAN_POINT('Origin',(0.,0.,22.5));
#1371=CARTESIAN_POINT('',(-14.,56.7,22.5));
#1372=CARTESIAN_POINT('',(0.,56.7,22.5));
#1373=CARTESIAN_POINT('',(-14.,26.5329983228432,22.5));
#1374=CARTESIAN_POINT('',(-14.,63.5,22.5));
#1375=CARTESIAN_POINT('',(-14.,-26.5329983228432,22.5));
#1376=CARTESIAN_POINT('Origin',(0.,0.,22.5));
#1377=CARTESIAN_POINT('',(-14.,-22.,22.5));
#1378=CARTESIAN_POINT('',(14.,-26.5329983228432,22.5));
#1379=CARTESIAN_POINT('',(14.,-53.,22.5));
#1380=CARTESIAN_POINT('',(14.,26.5329983228432,22.5));
#1381=CARTESIAN_POINT('Origin',(0.,0.,22.5));
#1382=CARTESIAN_POINT('',(14.,56.7,22.5));
#1383=CARTESIAN_POINT('',(14.,22.,22.5));
#1384=CARTESIAN_POINT('',(0.,56.7,22.5));
#1385=CARTESIAN_POINT('Origin',(14.,-53.,15.5));
#1386=CARTESIAN_POINT('',(14.,-53.,15.5));
#1387=CARTESIAN_POINT('',(14.,-53.,15.5));
#1388=CARTESIAN_POINT('',(14.,-26.5329983228432,15.5));
#1389=CARTESIAN_POINT('',(14.,-53.,15.5));
#1390=CARTESIAN_POINT('',(14.,-26.5329983228432,15.5));
#1391=CARTESIAN_POINT('Origin',(0.,56.7,47.5));
#1392=CARTESIAN_POINT('',(14.,56.7,78.));
#1393=CARTESIAN_POINT('',(14.,56.7,78.));
#1394=CARTESIAN_POINT('',(-14.,56.7,78.));
#1395=CARTESIAN_POINT('',(-14.,56.7,78.));
#1396=CARTESIAN_POINT('',(-14.,56.7,17.));
#1397=CARTESIAN_POINT('',(-10.25,56.7,27.05));
#1398=CARTESIAN_POINT('',(-10.25,56.7,68.55));
#1399=CARTESIAN_POINT('',(-10.25,56.7,27.05));
#1400=CARTESIAN_POINT('',(10.25,56.7,68.55));
#1401=CARTESIAN_POINT('',(-10.25,56.7,68.55));
#1402=CARTESIAN_POINT('',(10.25,56.7,27.05));
#1403=CARTESIAN_POINT('',(10.25,56.7,68.55));
#1404=CARTESIAN_POINT('',(10.25,56.7,27.05));
#1405=CARTESIAN_POINT('Origin',(10.25,60.1,68.55));
#1406=CARTESIAN_POINT('',(-10.25,63.5,68.55));
#1407=CARTESIAN_POINT('',(-10.25,60.1,68.55));
#1408=CARTESIAN_POINT('',(10.25,63.5,68.55));
#1409=CARTESIAN_POINT('',(-10.25,63.5,68.55));
#1410=CARTESIAN_POINT('',(10.25,60.1,68.55));
#1411=CARTESIAN_POINT('Origin',(10.25,60.1,27.05));
#1412=CARTESIAN_POINT('',(10.25,63.5,27.05));
#1413=CARTESIAN_POINT('',(10.25,63.5,68.55));
#1414=CARTESIAN_POINT('',(10.25,60.1,27.05));
#1415=CARTESIAN_POINT('Origin',(-10.25,60.1,27.05));
#1416=CARTESIAN_POINT('',(-10.25,63.5,27.05));
#1417=CARTESIAN_POINT('',(10.25,63.5,27.05));
#1418=CARTESIAN_POINT('',(-10.25,60.1,27.05));
#1419=CARTESIAN_POINT('Origin',(-10.25,60.1,68.55));
#1420=CARTESIAN_POINT('',(-10.25,63.5,27.05));
#1421=CARTESIAN_POINT('Origin',(-14.,60.1,78.));
#1422=CARTESIAN_POINT('',(14.,63.5,78.));
#1423=CARTESIAN_POINT('',(14.,60.1,78.));
#1424=CARTESIAN_POINT('',(-14.,63.5,78.));
#1425=CARTESIAN_POINT('',(-14.,63.5,78.));
#1426=CARTESIAN_POINT('',(-14.,60.1,78.));
#1427=CARTESIAN_POINT('Origin',(14.,63.5,15.5));
#1428=CARTESIAN_POINT('',(14.,63.5,15.5));
#1429=CARTESIAN_POINT('',(14.,63.5,15.5));
#1430=CARTESIAN_POINT('',(-14.,63.5,15.5));
#1431=CARTESIAN_POINT('',(14.,63.5,15.5));
#1432=CARTESIAN_POINT('',(-14.,63.5,15.5));
#1433=CARTESIAN_POINT('Origin',(14.,22.,15.5));
#1434=CARTESIAN_POINT('',(14.,26.5329983228432,15.5));
#1435=CARTESIAN_POINT('',(14.,26.5329983228432,15.5));
#1436=CARTESIAN_POINT('',(14.,22.,15.5));
#1437=CARTESIAN_POINT('Origin',(-14.,-22.,15.5));
#1438=CARTESIAN_POINT('',(-14.,-26.5329983228432,15.5));
#1439=CARTESIAN_POINT('',(-14.,-26.5329983228432,15.5));
#1440=CARTESIAN_POINT('',(-14.,-53.,15.5));
#1441=CARTESIAN_POINT('',(-14.,-22.,15.5));
#1442=CARTESIAN_POINT('',(-14.,-53.,15.5));
#1443=CARTESIAN_POINT('Origin',(-14.,-53.,15.5));
#1444=CARTESIAN_POINT('',(-14.,-53.,15.5));
#1445=CARTESIAN_POINT('Origin',(0.,0.,15.5));
#1446=CARTESIAN_POINT('Origin',(0.,0.,15.5));
#1447=CARTESIAN_POINT('Origin',(-14.,63.5,15.5));
#1448=CARTESIAN_POINT('',(-14.,26.5329983228432,15.5));
#1449=CARTESIAN_POINT('',(-14.,63.5,15.5));
#1450=CARTESIAN_POINT('',(-14.,26.5329983228432,15.5));
#1451=CARTESIAN_POINT('Origin',(0.,0.,15.5));
#1452=CARTESIAN_POINT('Origin',(0.,0.,15.5));
#1453=CARTESIAN_POINT('Origin',(0.,0.,15.5));
#1454=UNCERTAINTY_MEASURE_WITH_UNIT(LENGTH_MEASURE(0.01),#1458,
'DISTANCE_ACCURACY_VALUE',
'Maximum model space distance between geometric entities at asserted c
onnectivities');
#1455=UNCERTAINTY_MEASURE_WITH_UNIT(LENGTH_MEASURE(0.01),#1458,
'DISTANCE_ACCURACY_VALUE',
'Maximum model space distance between geometric entities at asserted c
onnectivities');
#1456=(
GEOMETRIC_REPRESENTATION_CONTEXT(3)
GLOBAL_UNCERTAINTY_ASSIGNED_CONTEXT((#1454))
GLOBAL_UNIT_ASSIGNED_CONTEXT((#1458,#1460,#1461))
REPRESENTATION_CONTEXT('','3D')
);
#1457=(
GEOMETRIC_REPRESENTATION_CONTEXT(3)
GLOBAL_UNCERTAINTY_ASSIGNED_CONTEXT((#1455))
GLOBAL_UNIT_ASSIGNED_CONTEXT((#1458,#1460,#1461))
REPRESENTATION_CONTEXT('','3D')
);
#1458=(
LENGTH_UNIT()
NAMED_UNIT(*)
SI_UNIT(.MILLI.,.METRE.)
);
#1459=(
LENGTH_UNIT()
NAMED_UNIT(*)
SI_UNIT($,.METRE.)
);
#1460=(
NAMED_UNIT(*)
PLANE_ANGLE_UNIT()
SI_UNIT($,.RADIAN.)
);
#1461=(
NAMED_UNIT(*)
SI_UNIT($,.STERADIAN.)
SOLID_ANGLE_UNIT()
);
#1462=SHAPE_DEFINITION_REPRESENTATION(#1463,#1464);
#1463=PRODUCT_DEFINITION_SHAPE('',$,#1466);
#1464=SHAPE_REPRESENTATION('',(#876),#1456);
#1465=PRODUCT_DEFINITION_CONTEXT('part definition',#1470,'design');
#1466=PRODUCT_DEFINITION('Smart Bin - tilt yoke',
'Smart Bin - tilt yoke v5',#1467,#1465);
#1467=PRODUCT_DEFINITION_FORMATION('',$,#1472);
#1468=PRODUCT_RELATED_PRODUCT_CATEGORY('Smart Bin - tilt yoke v5',
'Smart Bin - tilt yoke v5',(#1472));
#1469=APPLICATION_PROTOCOL_DEFINITION('international standard',
'automotive_design',2009,#1470);
#1470=APPLICATION_CONTEXT(
'Core Data for Automotive Mechanical Design Process');
#1471=PRODUCT_CONTEXT('part definition',#1470,'mechanical');
#1472=PRODUCT('Smart Bin - tilt yoke','Smart Bin - tilt yoke v5',$,(#1471));
#1473=PRESENTATION_STYLE_ASSIGNMENT((#1474));
#1474=SURFACE_STYLE_USAGE(.BOTH.,#1475);
#1475=SURFACE_SIDE_STYLE('',(#1476));
#1476=SURFACE_STYLE_FILL_AREA(#1477);
#1477=FILL_AREA_STYLE('Steel - Satin',(#1478));
#1478=FILL_AREA_STYLE_COLOUR('Steel - Satin',#1479);
#1479=COLOUR_RGB('Steel - Satin',0.627450980392157,0.627450980392157,0.627450980392157);
ENDSEC;
END-ISO-10303-21;
