ISO-10303-21;
HEADER;
/* Generated by software containing ST-Developer
 * from STEP Tools, Inc. (www.steptools.com) 
 */

FILE_DESCRIPTION(
/* description */ (''),
/* implementation_level */ '2;1');

FILE_NAME(
/* name */ 'tray_mount.step',
/* time_stamp */ '2026-08-11T09:15:20+10:00',
/* author */ (''),
/* organization */ (''),
/* preprocessor_version */ 'ST-DEVELOPER v20.1',
/* originating_system */ 'Autodesk Translation Framework v15.8.0.0',
/* authorisation */ '');

FILE_SCHEMA (('AUTOMOTIVE_DESIGN { 1 0 10303 214 3 1 1 }'));
ENDSEC;

DATA;
#10=MECHANICAL_DESIGN_GEOMETRIC_PRESENTATION_REPRESENTATION('',(#13),#1095);
#11=SHAPE_REPRESENTATION_RELATIONSHIP('SRR','None',#1102,#12);
#12=ADVANCED_BREP_SHAPE_REPRESENTATION('',(#14),#1094);
#13=STYLED_ITEM('',(#1111),#14);
#14=MANIFOLD_SOLID_BREP('tray mount',#635);
#15=FACE_BOUND('',#97,.T.);
#16=FACE_BOUND('',#100,.T.);
#17=FACE_BOUND('',#108,.T.);
#18=FACE_BOUND('',#109,.T.);
#19=FACE_BOUND('',#119,.T.);
#20=FACE_BOUND('',#129,.T.);
#21=FACE_BOUND('',#130,.T.);
#22=FACE_BOUND('',#131,.T.);
#23=FACE_BOUND('',#132,.T.);
#24=FACE_BOUND('',#133,.T.);
#25=FACE_BOUND('',#134,.T.);
#26=FACE_BOUND('',#136,.T.);
#27=PLANE('',#652);
#28=PLANE('',#656);
#29=PLANE('',#660);
#30=PLANE('',#664);
#31=PLANE('',#668);
#32=PLANE('',#673);
#33=PLANE('',#679);
#34=PLANE('',#680);
#35=PLANE('',#681);
#36=PLANE('',#682);
#37=PLANE('',#683);
#38=PLANE('',#684);
#39=PLANE('',#688);
#40=PLANE('',#692);
#41=PLANE('',#696);
#42=PLANE('',#700);
#43=PLANE('',#701);
#44=PLANE('',#705);
#45=PLANE('',#709);
#46=PLANE('',#713);
#47=PLANE('',#717);
#48=PLANE('',#718);
#49=FACE_OUTER_BOUND('',#87,.T.);
#50=FACE_OUTER_BOUND('',#88,.T.);
#51=FACE_OUTER_BOUND('',#89,.T.);
#52=FACE_OUTER_BOUND('',#90,.T.);
#53=FACE_OUTER_BOUND('',#91,.T.);
#54=FACE_OUTER_BOUND('',#92,.T.);
#55=FACE_OUTER_BOUND('',#93,.T.);
#56=FACE_OUTER_BOUND('',#94,.T.);
#57=FACE_OUTER_BOUND('',#95,.T.);
#58=FACE_OUTER_BOUND('',#96,.T.);
#59=FACE_OUTER_BOUND('',#98,.T.);
#60=FACE_OUTER_BOUND('',#99,.T.);
#61=FACE_OUTER_BOUND('',#101,.T.);
#62=FACE_OUTER_BOUND('',#102,.T.);
#63=FACE_OUTER_BOUND('',#103,.T.);
#64=FACE_OUTER_BOUND('',#104,.T.);
#65=FACE_OUTER_BOUND('',#105,.T.);
#66=FACE_OUTER_BOUND('',#106,.T.);
#67=FACE_OUTER_BOUND('',#107,.T.);
#68=FACE_OUTER_BOUND('',#110,.T.);
#69=FACE_OUTER_BOUND('',#111,.T.);
#70=FACE_OUTER_BOUND('',#112,.T.);
#71=FACE_OUTER_BOUND('',#113,.T.);
#72=FACE_OUTER_BOUND('',#114,.T.);
#73=FACE_OUTER_BOUND('',#115,.T.);
#74=FACE_OUTER_BOUND('',#116,.T.);
#75=FACE_OUTER_BOUND('',#117,.T.);
#76=FACE_OUTER_BOUND('',#118,.T.);
#77=FACE_OUTER_BOUND('',#120,.T.);
#78=FACE_OUTER_BOUND('',#121,.T.);
#79=FACE_OUTER_BOUND('',#122,.T.);
#80=FACE_OUTER_BOUND('',#123,.T.);
#81=FACE_OUTER_BOUND('',#124,.T.);
#82=FACE_OUTER_BOUND('',#125,.T.);
#83=FACE_OUTER_BOUND('',#126,.T.);
#84=FACE_OUTER_BOUND('',#127,.T.);
#85=FACE_OUTER_BOUND('',#128,.T.);
#86=FACE_OUTER_BOUND('',#135,.T.);
#87=EDGE_LOOP('',(#413,#414,#415,#416));
#88=EDGE_LOOP('',(#417));
#89=EDGE_LOOP('',(#418,#419,#420,#421));
#90=EDGE_LOOP('',(#422));
#91=EDGE_LOOP('',(#423,#424,#425,#426));
#92=EDGE_LOOP('',(#427));
#93=EDGE_LOOP('',(#428,#429,#430,#431));
#94=EDGE_LOOP('',(#432));
#95=EDGE_LOOP('',(#433,#434,#435,#436));
#96=EDGE_LOOP('',(#437));
#97=EDGE_LOOP('',(#438));
#98=EDGE_LOOP('',(#439,#440,#441,#442));
#99=EDGE_LOOP('',(#443));
#100=EDGE_LOOP('',(#444));
#101=EDGE_LOOP('',(#445,#446,#447,#448));
#102=EDGE_LOOP('',(#449,#450,#451,#452));
#103=EDGE_LOOP('',(#453,#454,#455,#456));
#104=EDGE_LOOP('',(#457,#458,#459,#460));
#105=EDGE_LOOP('',(#461,#462,#463,#464));
#106=EDGE_LOOP('',(#465,#466,#467,#468));
#107=EDGE_LOOP('',(#469,#470,#471,#472));
#108=EDGE_LOOP('',(#473));
#109=EDGE_LOOP('',(#474));
#110=EDGE_LOOP('',(#475,#476,#477,#478));
#111=EDGE_LOOP('',(#479,#480,#481,#482));
#112=EDGE_LOOP('',(#483,#484,#485,#486));
#113=EDGE_LOOP('',(#487,#488,#489,#490));
#114=EDGE_LOOP('',(#491,#492,#493,#494));
#115=EDGE_LOOP('',(#495,#496,#497,#498));
#116=EDGE_LOOP('',(#499,#500,#501,#502));
#117=EDGE_LOOP('',(#503,#504,#505,#506));
#118=EDGE_LOOP('',(#507,#508,#509,#510,#511,#512,#513,#514));
#119=EDGE_LOOP('',(#515,#516,#517,#518));
#120=EDGE_LOOP('',(#519,#520,#521,#522));
#121=EDGE_LOOP('',(#523,#524,#525,#526));
#122=EDGE_LOOP('',(#527,#528,#529,#530));
#123=EDGE_LOOP('',(#531,#532,#533,#534));
#124=EDGE_LOOP('',(#535,#536,#537,#538));
#125=EDGE_LOOP('',(#539,#540,#541,#542));
#126=EDGE_LOOP('',(#543,#544,#545,#546));
#127=EDGE_LOOP('',(#547,#548,#549,#550));
#128=EDGE_LOOP('',(#551,#552,#553,#554,#555,#556,#557,#558));
#129=EDGE_LOOP('',(#559));
#130=EDGE_LOOP('',(#560));
#131=EDGE_LOOP('',(#561));
#132=EDGE_LOOP('',(#562));
#133=EDGE_LOOP('',(#563));
#134=EDGE_LOOP('',(#564));
#135=EDGE_LOOP('',(#565,#566,#567,#568,#569,#570,#571,#572));
#136=EDGE_LOOP('',(#573,#574,#575,#576,#577,#578,#579,#580));
#137=LINE('',#918,#189);
#138=LINE('',#925,#190);
#139=LINE('',#932,#191);
#140=LINE('',#939,#192);
#141=LINE('',#946,#193);
#142=LINE('',#955,#194);
#143=LINE('',#963,#195);
#144=LINE('',#967,#196);
#145=LINE('',#971,#197);
#146=LINE('',#973,#198);
#147=LINE('',#975,#199);
#148=LINE('',#976,#200);
#149=LINE('',#979,#201);
#150=LINE('',#981,#202);
#151=LINE('',#982,#203);
#152=LINE('',#985,#204);
#153=LINE('',#987,#205);
#154=LINE('',#988,#206);
#155=LINE('',#990,#207);
#156=LINE('',#991,#208);
#157=LINE('',#996,#209);
#158=LINE('',#998,#210);
#159=LINE('',#1000,#211);
#160=LINE('',#1001,#212);
#161=LINE('',#1007,#213);
#162=LINE('',#1010,#214);
#163=LINE('',#1012,#215);
#164=LINE('',#1013,#216);
#165=LINE('',#1019,#217);
#166=LINE('',#1022,#218);
#167=LINE('',#1024,#219);
#168=LINE('',#1025,#220);
#169=LINE('',#1031,#221);
#170=LINE('',#1034,#222);
#171=LINE('',#1036,#223);
#172=LINE('',#1037,#224);
#173=LINE('',#1045,#225);
#174=LINE('',#1047,#226);
#175=LINE('',#1049,#227);
#176=LINE('',#1050,#228);
#177=LINE('',#1056,#229);
#178=LINE('',#1059,#230);
#179=LINE('',#1061,#231);
#180=LINE('',#1062,#232);
#181=LINE('',#1068,#233);
#182=LINE('',#1071,#234);
#183=LINE('',#1073,#235);
#184=LINE('',#1074,#236);
#185=LINE('',#1080,#237);
#186=LINE('',#1083,#238);
#187=LINE('',#1085,#239);
#188=LINE('',#1086,#240);
#189=VECTOR('',#725,0.21);
#190=VECTOR('',#734,0.21);
#191=VECTOR('',#743,0.21);
#192=VECTOR('',#752,0.21);
#193=VECTOR('',#761,0.325);
#194=VECTOR('',#772,0.325);
#195=VECTOR('',#783,0.17);
#196=VECTOR('',#788,0.17);
#197=VECTOR('',#791,1.);
#198=VECTOR('',#792,1.);
#199=VECTOR('',#793,1.);
#200=VECTOR('',#794,1.);
#201=VECTOR('',#797,1.);
#202=VECTOR('',#798,1.);
#203=VECTOR('',#799,1.);
#204=VECTOR('',#802,1.);
#205=VECTOR('',#803,1.);
#206=VECTOR('',#804,1.);
#207=VECTOR('',#807,1.);
#208=VECTOR('',#808,1.);
#209=VECTOR('',#813,1.);
#210=VECTOR('',#814,1.);
#211=VECTOR('',#815,1.);
#212=VECTOR('',#816,1.);
#213=VECTOR('',#823,1.);
#214=VECTOR('',#826,1.);
#215=VECTOR('',#827,1.);
#216=VECTOR('',#828,1.);
#217=VECTOR('',#835,1.);
#218=VECTOR('',#838,1.);
#219=VECTOR('',#839,1.);
#220=VECTOR('',#840,1.);
#221=VECTOR('',#847,1.);
#222=VECTOR('',#850,1.);
#223=VECTOR('',#851,1.);
#224=VECTOR('',#852,1.);
#225=VECTOR('',#863,1.);
#226=VECTOR('',#864,1.);
#227=VECTOR('',#865,1.);
#228=VECTOR('',#866,1.);
#229=VECTOR('',#873,1.);
#230=VECTOR('',#876,1.);
#231=VECTOR('',#877,1.);
#232=VECTOR('',#878,1.);
#233=VECTOR('',#885,1.);
#234=VECTOR('',#888,1.);
#235=VECTOR('',#889,1.);
#236=VECTOR('',#890,1.);
#237=VECTOR('',#897,1.);
#238=VECTOR('',#900,1.);
#239=VECTOR('',#901,1.);
#240=VECTOR('',#902,1.);
#241=CIRCLE('',#650,0.21);
#242=CIRCLE('',#651,0.21);
#243=CIRCLE('',#654,0.21);
#244=CIRCLE('',#655,0.21);
#245=CIRCLE('',#658,0.21);
#246=CIRCLE('',#659,0.21);
#247=CIRCLE('',#662,0.21);
#248=CIRCLE('',#663,0.21);
#249=CIRCLE('',#666,0.325);
#250=CIRCLE('',#667,0.325);
#251=CIRCLE('',#669,0.17);
#252=CIRCLE('',#671,0.325);
#253=CIRCLE('',#672,0.325);
#254=CIRCLE('',#674,0.17);
#255=CIRCLE('',#676,0.17);
#256=CIRCLE('',#678,0.17);
#257=CIRCLE('',#686,0.3);
#258=CIRCLE('',#687,0.3);
#259=CIRCLE('',#690,0.3);
#260=CIRCLE('',#691,0.3);
#261=CIRCLE('',#694,0.3);
#262=CIRCLE('',#695,0.3);
#263=CIRCLE('',#698,0.3);
#264=CIRCLE('',#699,0.3);
#265=CIRCLE('',#703,0.5);
#266=CIRCLE('',#704,0.5);
#267=CIRCLE('',#707,0.5);
#268=CIRCLE('',#708,0.5);
#269=CIRCLE('',#711,0.5);
#270=CIRCLE('',#712,0.5);
#271=CIRCLE('',#715,0.5);
#272=CIRCLE('',#716,0.5);
#273=VERTEX_POINT('',#915);
#274=VERTEX_POINT('',#917);
#275=VERTEX_POINT('',#922);
#276=VERTEX_POINT('',#924);
#277=VERTEX_POINT('',#929);
#278=VERTEX_POINT('',#931);
#279=VERTEX_POINT('',#936);
#280=VERTEX_POINT('',#938);
#281=VERTEX_POINT('',#943);
#282=VERTEX_POINT('',#945);
#283=VERTEX_POINT('',#949);
#284=VERTEX_POINT('',#952);
#285=VERTEX_POINT('',#954);
#286=VERTEX_POINT('',#958);
#287=VERTEX_POINT('',#961);
#288=VERTEX_POINT('',#965);
#289=VERTEX_POINT('',#969);
#290=VERTEX_POINT('',#970);
#291=VERTEX_POINT('',#972);
#292=VERTEX_POINT('',#974);
#293=VERTEX_POINT('',#978);
#294=VERTEX_POINT('',#980);
#295=VERTEX_POINT('',#984);
#296=VERTEX_POINT('',#986);
#297=VERTEX_POINT('',#994);
#298=VERTEX_POINT('',#995);
#299=VERTEX_POINT('',#997);
#300=VERTEX_POINT('',#999);
#301=VERTEX_POINT('',#1003);
#302=VERTEX_POINT('',#1005);
#303=VERTEX_POINT('',#1009);
#304=VERTEX_POINT('',#1011);
#305=VERTEX_POINT('',#1015);
#306=VERTEX_POINT('',#1017);
#307=VERTEX_POINT('',#1021);
#308=VERTEX_POINT('',#1023);
#309=VERTEX_POINT('',#1027);
#310=VERTEX_POINT('',#1029);
#311=VERTEX_POINT('',#1033);
#312=VERTEX_POINT('',#1035);
#313=VERTEX_POINT('',#1043);
#314=VERTEX_POINT('',#1044);
#315=VERTEX_POINT('',#1046);
#316=VERTEX_POINT('',#1048);
#317=VERTEX_POINT('',#1052);
#318=VERTEX_POINT('',#1054);
#319=VERTEX_POINT('',#1058);
#320=VERTEX_POINT('',#1060);
#321=VERTEX_POINT('',#1064);
#322=VERTEX_POINT('',#1066);
#323=VERTEX_POINT('',#1070);
#324=VERTEX_POINT('',#1072);
#325=VERTEX_POINT('',#1076);
#326=VERTEX_POINT('',#1078);
#327=VERTEX_POINT('',#1082);
#328=VERTEX_POINT('',#1084);
#329=EDGE_CURVE('',#273,#273,#241,.T.);
#330=EDGE_CURVE('',#273,#274,#137,.T.);
#331=EDGE_CURVE('',#274,#274,#242,.T.);
#332=EDGE_CURVE('',#275,#275,#243,.T.);
#333=EDGE_CURVE('',#275,#276,#138,.T.);
#334=EDGE_CURVE('',#276,#276,#244,.T.);
#335=EDGE_CURVE('',#277,#277,#245,.T.);
#336=EDGE_CURVE('',#277,#278,#139,.T.);
#337=EDGE_CURVE('',#278,#278,#246,.T.);
#338=EDGE_CURVE('',#279,#279,#247,.T.);
#339=EDGE_CURVE('',#279,#280,#140,.T.);
#340=EDGE_CURVE('',#280,#280,#248,.T.);
#341=EDGE_CURVE('',#281,#281,#249,.T.);
#342=EDGE_CURVE('',#281,#282,#141,.T.);
#343=EDGE_CURVE('',#282,#282,#250,.T.);
#344=EDGE_CURVE('',#283,#283,#251,.T.);
#345=EDGE_CURVE('',#284,#284,#252,.T.);
#346=EDGE_CURVE('',#284,#285,#142,.T.);
#347=EDGE_CURVE('',#285,#285,#253,.T.);
#348=EDGE_CURVE('',#286,#286,#254,.T.);
#349=EDGE_CURVE('',#287,#287,#255,.T.);
#350=EDGE_CURVE('',#287,#283,#143,.T.);
#351=EDGE_CURVE('',#288,#288,#256,.T.);
#352=EDGE_CURVE('',#288,#286,#144,.T.);
#353=EDGE_CURVE('',#289,#290,#145,.T.);
#354=EDGE_CURVE('',#290,#291,#146,.T.);
#355=EDGE_CURVE('',#292,#291,#147,.T.);
#356=EDGE_CURVE('',#289,#292,#148,.T.);
#357=EDGE_CURVE('',#290,#293,#149,.T.);
#358=EDGE_CURVE('',#293,#294,#150,.T.);
#359=EDGE_CURVE('',#291,#294,#151,.T.);
#360=EDGE_CURVE('',#293,#295,#152,.T.);
#361=EDGE_CURVE('',#295,#296,#153,.T.);
#362=EDGE_CURVE('',#294,#296,#154,.T.);
#363=EDGE_CURVE('',#295,#289,#155,.T.);
#364=EDGE_CURVE('',#296,#292,#156,.T.);
#365=EDGE_CURVE('',#297,#298,#157,.T.);
#366=EDGE_CURVE('',#297,#299,#158,.T.);
#367=EDGE_CURVE('',#300,#299,#159,.T.);
#368=EDGE_CURVE('',#298,#300,#160,.T.);
#369=EDGE_CURVE('',#298,#301,#257,.T.);
#370=EDGE_CURVE('',#302,#300,#258,.T.);
#371=EDGE_CURVE('',#301,#302,#161,.T.);
#372=EDGE_CURVE('',#301,#303,#162,.T.);
#373=EDGE_CURVE('',#304,#302,#163,.T.);
#374=EDGE_CURVE('',#303,#304,#164,.T.);
#375=EDGE_CURVE('',#303,#305,#259,.T.);
#376=EDGE_CURVE('',#306,#304,#260,.T.);
#377=EDGE_CURVE('',#305,#306,#165,.T.);
#378=EDGE_CURVE('',#305,#307,#166,.T.);
#379=EDGE_CURVE('',#308,#306,#167,.T.);
#380=EDGE_CURVE('',#307,#308,#168,.T.);
#381=EDGE_CURVE('',#307,#309,#261,.T.);
#382=EDGE_CURVE('',#310,#308,#262,.T.);
#383=EDGE_CURVE('',#309,#310,#169,.T.);
#384=EDGE_CURVE('',#309,#311,#170,.T.);
#385=EDGE_CURVE('',#312,#310,#171,.T.);
#386=EDGE_CURVE('',#311,#312,#172,.T.);
#387=EDGE_CURVE('',#311,#297,#263,.T.);
#388=EDGE_CURVE('',#299,#312,#264,.T.);
#389=EDGE_CURVE('',#313,#314,#173,.T.);
#390=EDGE_CURVE('',#314,#315,#174,.T.);
#391=EDGE_CURVE('',#316,#315,#175,.T.);
#392=EDGE_CURVE('',#313,#316,#176,.T.);
#393=EDGE_CURVE('',#317,#313,#265,.T.);
#394=EDGE_CURVE('',#318,#316,#266,.T.);
#395=EDGE_CURVE('',#317,#318,#177,.T.);
#396=EDGE_CURVE('',#319,#317,#178,.T.);
#397=EDGE_CURVE('',#320,#318,#179,.T.);
#398=EDGE_CURVE('',#319,#320,#180,.T.);
#399=EDGE_CURVE('',#321,#319,#267,.T.);
#400=EDGE_CURVE('',#322,#320,#268,.T.);
#401=EDGE_CURVE('',#321,#322,#181,.T.);
#402=EDGE_CURVE('',#323,#321,#182,.T.);
#403=EDGE_CURVE('',#324,#322,#183,.T.);
#404=EDGE_CURVE('',#323,#324,#184,.T.);
#405=EDGE_CURVE('',#325,#323,#269,.T.);
#406=EDGE_CURVE('',#326,#324,#270,.T.);
#407=EDGE_CURVE('',#325,#326,#185,.T.);
#408=EDGE_CURVE('',#327,#325,#186,.T.);
#409=EDGE_CURVE('',#328,#326,#187,.T.);
#410=EDGE_CURVE('',#327,#328,#188,.T.);
#411=EDGE_CURVE('',#314,#327,#271,.T.);
#412=EDGE_CURVE('',#315,#328,#272,.T.);
#413=ORIENTED_EDGE('',*,*,#329,.F.);
#414=ORIENTED_EDGE('',*,*,#330,.T.);
#415=ORIENTED_EDGE('',*,*,#331,.F.);
#416=ORIENTED_EDGE('',*,*,#330,.F.);
#417=ORIENTED_EDGE('',*,*,#329,.T.);
#418=ORIENTED_EDGE('',*,*,#332,.F.);
#419=ORIENTED_EDGE('',*,*,#333,.T.);
#420=ORIENTED_EDGE('',*,*,#334,.F.);
#421=ORIENTED_EDGE('',*,*,#333,.F.);
#422=ORIENTED_EDGE('',*,*,#332,.T.);
#423=ORIENTED_EDGE('',*,*,#335,.F.);
#424=ORIENTED_EDGE('',*,*,#336,.T.);
#425=ORIENTED_EDGE('',*,*,#337,.F.);
#426=ORIENTED_EDGE('',*,*,#336,.F.);
#427=ORIENTED_EDGE('',*,*,#335,.T.);
#428=ORIENTED_EDGE('',*,*,#338,.F.);
#429=ORIENTED_EDGE('',*,*,#339,.T.);
#430=ORIENTED_EDGE('',*,*,#340,.F.);
#431=ORIENTED_EDGE('',*,*,#339,.F.);
#432=ORIENTED_EDGE('',*,*,#338,.T.);
#433=ORIENTED_EDGE('',*,*,#341,.F.);
#434=ORIENTED_EDGE('',*,*,#342,.T.);
#435=ORIENTED_EDGE('',*,*,#343,.F.);
#436=ORIENTED_EDGE('',*,*,#342,.F.);
#437=ORIENTED_EDGE('',*,*,#341,.T.);
#438=ORIENTED_EDGE('',*,*,#344,.F.);
#439=ORIENTED_EDGE('',*,*,#345,.F.);
#440=ORIENTED_EDGE('',*,*,#346,.T.);
#441=ORIENTED_EDGE('',*,*,#347,.F.);
#442=ORIENTED_EDGE('',*,*,#346,.F.);
#443=ORIENTED_EDGE('',*,*,#345,.T.);
#444=ORIENTED_EDGE('',*,*,#348,.F.);
#445=ORIENTED_EDGE('',*,*,#349,.F.);
#446=ORIENTED_EDGE('',*,*,#350,.T.);
#447=ORIENTED_EDGE('',*,*,#344,.T.);
#448=ORIENTED_EDGE('',*,*,#350,.F.);
#449=ORIENTED_EDGE('',*,*,#351,.F.);
#450=ORIENTED_EDGE('',*,*,#352,.T.);
#451=ORIENTED_EDGE('',*,*,#348,.T.);
#452=ORIENTED_EDGE('',*,*,#352,.F.);
#453=ORIENTED_EDGE('',*,*,#353,.T.);
#454=ORIENTED_EDGE('',*,*,#354,.T.);
#455=ORIENTED_EDGE('',*,*,#355,.F.);
#456=ORIENTED_EDGE('',*,*,#356,.F.);
#457=ORIENTED_EDGE('',*,*,#357,.T.);
#458=ORIENTED_EDGE('',*,*,#358,.T.);
#459=ORIENTED_EDGE('',*,*,#359,.F.);
#460=ORIENTED_EDGE('',*,*,#354,.F.);
#461=ORIENTED_EDGE('',*,*,#360,.T.);
#462=ORIENTED_EDGE('',*,*,#361,.T.);
#463=ORIENTED_EDGE('',*,*,#362,.F.);
#464=ORIENTED_EDGE('',*,*,#358,.F.);
#465=ORIENTED_EDGE('',*,*,#363,.T.);
#466=ORIENTED_EDGE('',*,*,#356,.T.);
#467=ORIENTED_EDGE('',*,*,#364,.F.);
#468=ORIENTED_EDGE('',*,*,#361,.F.);
#469=ORIENTED_EDGE('',*,*,#363,.F.);
#470=ORIENTED_EDGE('',*,*,#360,.F.);
#471=ORIENTED_EDGE('',*,*,#357,.F.);
#472=ORIENTED_EDGE('',*,*,#353,.F.);
#473=ORIENTED_EDGE('',*,*,#349,.T.);
#474=ORIENTED_EDGE('',*,*,#351,.T.);
#475=ORIENTED_EDGE('',*,*,#365,.F.);
#476=ORIENTED_EDGE('',*,*,#366,.T.);
#477=ORIENTED_EDGE('',*,*,#367,.F.);
#478=ORIENTED_EDGE('',*,*,#368,.F.);
#479=ORIENTED_EDGE('',*,*,#369,.F.);
#480=ORIENTED_EDGE('',*,*,#368,.T.);
#481=ORIENTED_EDGE('',*,*,#370,.F.);
#482=ORIENTED_EDGE('',*,*,#371,.F.);
#483=ORIENTED_EDGE('',*,*,#372,.F.);
#484=ORIENTED_EDGE('',*,*,#371,.T.);
#485=ORIENTED_EDGE('',*,*,#373,.F.);
#486=ORIENTED_EDGE('',*,*,#374,.F.);
#487=ORIENTED_EDGE('',*,*,#375,.F.);
#488=ORIENTED_EDGE('',*,*,#374,.T.);
#489=ORIENTED_EDGE('',*,*,#376,.F.);
#490=ORIENTED_EDGE('',*,*,#377,.F.);
#491=ORIENTED_EDGE('',*,*,#378,.F.);
#492=ORIENTED_EDGE('',*,*,#377,.T.);
#493=ORIENTED_EDGE('',*,*,#379,.F.);
#494=ORIENTED_EDGE('',*,*,#380,.F.);
#495=ORIENTED_EDGE('',*,*,#381,.F.);
#496=ORIENTED_EDGE('',*,*,#380,.T.);
#497=ORIENTED_EDGE('',*,*,#382,.F.);
#498=ORIENTED_EDGE('',*,*,#383,.F.);
#499=ORIENTED_EDGE('',*,*,#384,.F.);
#500=ORIENTED_EDGE('',*,*,#383,.T.);
#501=ORIENTED_EDGE('',*,*,#385,.F.);
#502=ORIENTED_EDGE('',*,*,#386,.F.);
#503=ORIENTED_EDGE('',*,*,#387,.F.);
#504=ORIENTED_EDGE('',*,*,#386,.T.);
#505=ORIENTED_EDGE('',*,*,#388,.F.);
#506=ORIENTED_EDGE('',*,*,#366,.F.);
#507=ORIENTED_EDGE('',*,*,#388,.T.);
#508=ORIENTED_EDGE('',*,*,#385,.T.);
#509=ORIENTED_EDGE('',*,*,#382,.T.);
#510=ORIENTED_EDGE('',*,*,#379,.T.);
#511=ORIENTED_EDGE('',*,*,#376,.T.);
#512=ORIENTED_EDGE('',*,*,#373,.T.);
#513=ORIENTED_EDGE('',*,*,#370,.T.);
#514=ORIENTED_EDGE('',*,*,#367,.T.);
#515=ORIENTED_EDGE('',*,*,#355,.T.);
#516=ORIENTED_EDGE('',*,*,#359,.T.);
#517=ORIENTED_EDGE('',*,*,#362,.T.);
#518=ORIENTED_EDGE('',*,*,#364,.T.);
#519=ORIENTED_EDGE('',*,*,#389,.T.);
#520=ORIENTED_EDGE('',*,*,#390,.T.);
#521=ORIENTED_EDGE('',*,*,#391,.F.);
#522=ORIENTED_EDGE('',*,*,#392,.F.);
#523=ORIENTED_EDGE('',*,*,#393,.T.);
#524=ORIENTED_EDGE('',*,*,#392,.T.);
#525=ORIENTED_EDGE('',*,*,#394,.F.);
#526=ORIENTED_EDGE('',*,*,#395,.F.);
#527=ORIENTED_EDGE('',*,*,#396,.T.);
#528=ORIENTED_EDGE('',*,*,#395,.T.);
#529=ORIENTED_EDGE('',*,*,#397,.F.);
#530=ORIENTED_EDGE('',*,*,#398,.F.);
#531=ORIENTED_EDGE('',*,*,#399,.T.);
#532=ORIENTED_EDGE('',*,*,#398,.T.);
#533=ORIENTED_EDGE('',*,*,#400,.F.);
#534=ORIENTED_EDGE('',*,*,#401,.F.);
#535=ORIENTED_EDGE('',*,*,#402,.T.);
#536=ORIENTED_EDGE('',*,*,#401,.T.);
#537=ORIENTED_EDGE('',*,*,#403,.F.);
#538=ORIENTED_EDGE('',*,*,#404,.F.);
#539=ORIENTED_EDGE('',*,*,#405,.T.);
#540=ORIENTED_EDGE('',*,*,#404,.T.);
#541=ORIENTED_EDGE('',*,*,#406,.F.);
#542=ORIENTED_EDGE('',*,*,#407,.F.);
#543=ORIENTED_EDGE('',*,*,#408,.T.);
#544=ORIENTED_EDGE('',*,*,#407,.T.);
#545=ORIENTED_EDGE('',*,*,#409,.F.);
#546=ORIENTED_EDGE('',*,*,#410,.F.);
#547=ORIENTED_EDGE('',*,*,#411,.T.);
#548=ORIENTED_EDGE('',*,*,#410,.T.);
#549=ORIENTED_EDGE('',*,*,#412,.F.);
#550=ORIENTED_EDGE('',*,*,#390,.F.);
#551=ORIENTED_EDGE('',*,*,#412,.T.);
#552=ORIENTED_EDGE('',*,*,#409,.T.);
#553=ORIENTED_EDGE('',*,*,#406,.T.);
#554=ORIENTED_EDGE('',*,*,#403,.T.);
#555=ORIENTED_EDGE('',*,*,#400,.T.);
#556=ORIENTED_EDGE('',*,*,#397,.T.);
#557=ORIENTED_EDGE('',*,*,#394,.T.);
#558=ORIENTED_EDGE('',*,*,#391,.T.);
#559=ORIENTED_EDGE('',*,*,#347,.T.);
#560=ORIENTED_EDGE('',*,*,#343,.T.);
#561=ORIENTED_EDGE('',*,*,#340,.T.);
#562=ORIENTED_EDGE('',*,*,#337,.T.);
#563=ORIENTED_EDGE('',*,*,#334,.T.);
#564=ORIENTED_EDGE('',*,*,#331,.T.);
#565=ORIENTED_EDGE('',*,*,#411,.F.);
#566=ORIENTED_EDGE('',*,*,#389,.F.);
#567=ORIENTED_EDGE('',*,*,#393,.F.);
#568=ORIENTED_EDGE('',*,*,#396,.F.);
#569=ORIENTED_EDGE('',*,*,#399,.F.);
#570=ORIENTED_EDGE('',*,*,#402,.F.);
#571=ORIENTED_EDGE('',*,*,#405,.F.);
#572=ORIENTED_EDGE('',*,*,#408,.F.);
#573=ORIENTED_EDGE('',*,*,#365,.T.);
#574=ORIENTED_EDGE('',*,*,#369,.T.);
#575=ORIENTED_EDGE('',*,*,#372,.T.);
#576=ORIENTED_EDGE('',*,*,#375,.T.);
#577=ORIENTED_EDGE('',*,*,#378,.T.);
#578=ORIENTED_EDGE('',*,*,#381,.T.);
#579=ORIENTED_EDGE('',*,*,#384,.T.);
#580=ORIENTED_EDGE('',*,*,#387,.T.);
#581=CYLINDRICAL_SURFACE('',#649,0.21);
#582=CYLINDRICAL_SURFACE('',#653,0.21);
#583=CYLINDRICAL_SURFACE('',#657,0.21);
#584=CYLINDRICAL_SURFACE('',#661,0.21);
#585=CYLINDRICAL_SURFACE('',#665,0.325);
#586=CYLINDRICAL_SURFACE('',#670,0.325);
#587=CYLINDRICAL_SURFACE('',#675,0.17);
#588=CYLINDRICAL_SURFACE('',#677,0.17);
#589=CYLINDRICAL_SURFACE('',#685,0.3);
#590=CYLINDRICAL_SURFACE('',#689,0.3);
#591=CYLINDRICAL_SURFACE('',#693,0.3);
#592=CYLINDRICAL_SURFACE('',#697,0.3);
#593=CYLINDRICAL_SURFACE('',#702,0.5);
#594=CYLINDRICAL_SURFACE('',#706,0.5);
#595=CYLINDRICAL_SURFACE('',#710,0.5);
#596=CYLINDRICAL_SURFACE('',#714,0.5);
#597=ADVANCED_FACE('',(#49),#581,.F.);
#598=ADVANCED_FACE('',(#50),#27,.T.);
#599=ADVANCED_FACE('',(#51),#582,.F.);
#600=ADVANCED_FACE('',(#52),#28,.T.);
#601=ADVANCED_FACE('',(#53),#583,.F.);
#602=ADVANCED_FACE('',(#54),#29,.T.);
#603=ADVANCED_FACE('',(#55),#584,.F.);
#604=ADVANCED_FACE('',(#56),#30,.T.);
#605=ADVANCED_FACE('',(#57),#585,.F.);
#606=ADVANCED_FACE('',(#58,#15),#31,.T.);
#607=ADVANCED_FACE('',(#59),#586,.F.);
#608=ADVANCED_FACE('',(#60,#16),#32,.T.);
#609=ADVANCED_FACE('',(#61),#587,.F.);
#610=ADVANCED_FACE('',(#62),#588,.F.);
#611=ADVANCED_FACE('',(#63),#33,.F.);
#612=ADVANCED_FACE('',(#64),#34,.F.);
#613=ADVANCED_FACE('',(#65),#35,.F.);
#614=ADVANCED_FACE('',(#66),#36,.F.);
#615=ADVANCED_FACE('',(#67,#17,#18),#37,.F.);
#616=ADVANCED_FACE('',(#68),#38,.T.);
#617=ADVANCED_FACE('',(#69),#589,.T.);
#618=ADVANCED_FACE('',(#70),#39,.T.);
#619=ADVANCED_FACE('',(#71),#590,.T.);
#620=ADVANCED_FACE('',(#72),#40,.T.);
#621=ADVANCED_FACE('',(#73),#591,.T.);
#622=ADVANCED_FACE('',(#74),#41,.T.);
#623=ADVANCED_FACE('',(#75),#592,.T.);
#624=ADVANCED_FACE('',(#76,#19),#42,.F.);
#625=ADVANCED_FACE('',(#77),#43,.T.);
#626=ADVANCED_FACE('',(#78),#593,.T.);
#627=ADVANCED_FACE('',(#79),#44,.T.);
#628=ADVANCED_FACE('',(#80),#594,.T.);
#629=ADVANCED_FACE('',(#81),#45,.T.);
#630=ADVANCED_FACE('',(#82),#595,.T.);
#631=ADVANCED_FACE('',(#83),#46,.T.);
#632=ADVANCED_FACE('',(#84),#596,.T.);
#633=ADVANCED_FACE('',(#85,#20,#21,#22,#23,#24,#25),#47,.T.);
#634=ADVANCED_FACE('',(#86,#26),#48,.F.);
#635=CLOSED_SHELL('',(#597,#598,#599,#600,#601,#602,#603,#604,#605,#606,
#607,#608,#609,#610,#611,#612,#613,#614,#615,#616,#617,#618,#619,#620,#621,
#622,#623,#624,#625,#626,#627,#628,#629,#630,#631,#632,#633,#634));
#636=DERIVED_UNIT_ELEMENT(#638,1.);
#637=DERIVED_UNIT_ELEMENT(#1097,-3.);
#638=(
MASS_UNIT()
NAMED_UNIT(*)
SI_UNIT(.KILO.,.GRAM.)
);
#639=DERIVED_UNIT((#636,#637));
#640=MEASURE_REPRESENTATION_ITEM('density measure',
POSITIVE_RATIO_MEASURE(7850.),#639);
#641=PROPERTY_DEFINITION_REPRESENTATION(#646,#643);
#642=PROPERTY_DEFINITION_REPRESENTATION(#647,#644);
#643=REPRESENTATION('material name',(#645),#1094);
#644=REPRESENTATION('density',(#640),#1094);
#645=DESCRIPTIVE_REPRESENTATION_ITEM('Steel','Steel');
#646=PROPERTY_DEFINITION('material property','material name',#1104);
#647=PROPERTY_DEFINITION('material property','density of part',#1104);
#648=AXIS2_PLACEMENT_3D('',#913,#719,#720);
#649=AXIS2_PLACEMENT_3D('',#914,#721,#722);
#650=AXIS2_PLACEMENT_3D('',#916,#723,#724);
#651=AXIS2_PLACEMENT_3D('',#919,#726,#727);
#652=AXIS2_PLACEMENT_3D('',#920,#728,#729);
#653=AXIS2_PLACEMENT_3D('',#921,#730,#731);
#654=AXIS2_PLACEMENT_3D('',#923,#732,#733);
#655=AXIS2_PLACEMENT_3D('',#926,#735,#736);
#656=AXIS2_PLACEMENT_3D('',#927,#737,#738);
#657=AXIS2_PLACEMENT_3D('',#928,#739,#740);
#658=AXIS2_PLACEMENT_3D('',#930,#741,#742);
#659=AXIS2_PLACEMENT_3D('',#933,#744,#745);
#660=AXIS2_PLACEMENT_3D('',#934,#746,#747);
#661=AXIS2_PLACEMENT_3D('',#935,#748,#749);
#662=AXIS2_PLACEMENT_3D('',#937,#750,#751);
#663=AXIS2_PLACEMENT_3D('',#940,#753,#754);
#664=AXIS2_PLACEMENT_3D('',#941,#755,#756);
#665=AXIS2_PLACEMENT_3D('',#942,#757,#758);
#666=AXIS2_PLACEMENT_3D('',#944,#759,#760);
#667=AXIS2_PLACEMENT_3D('',#947,#762,#763);
#668=AXIS2_PLACEMENT_3D('',#948,#764,#765);
#669=AXIS2_PLACEMENT_3D('',#950,#766,#767);
#670=AXIS2_PLACEMENT_3D('',#951,#768,#769);
#671=AXIS2_PLACEMENT_3D('',#953,#770,#771);
#672=AXIS2_PLACEMENT_3D('',#956,#773,#774);
#673=AXIS2_PLACEMENT_3D('',#957,#775,#776);
#674=AXIS2_PLACEMENT_3D('',#959,#777,#778);
#675=AXIS2_PLACEMENT_3D('',#960,#779,#780);
#676=AXIS2_PLACEMENT_3D('',#962,#781,#782);
#677=AXIS2_PLACEMENT_3D('',#964,#784,#785);
#678=AXIS2_PLACEMENT_3D('',#966,#786,#787);
#679=AXIS2_PLACEMENT_3D('',#968,#789,#790);
#680=AXIS2_PLACEMENT_3D('',#977,#795,#796);
#681=AXIS2_PLACEMENT_3D('',#983,#800,#801);
#682=AXIS2_PLACEMENT_3D('',#989,#805,#806);
#683=AXIS2_PLACEMENT_3D('',#992,#809,#810);
#684=AXIS2_PLACEMENT_3D('',#993,#811,#812);
#685=AXIS2_PLACEMENT_3D('',#1002,#817,#818);
#686=AXIS2_PLACEMENT_3D('',#1004,#819,#820);
#687=AXIS2_PLACEMENT_3D('',#1006,#821,#822);
#688=AXIS2_PLACEMENT_3D('',#1008,#824,#825);
#689=AXIS2_PLACEMENT_3D('',#1014,#829,#830);
#690=AXIS2_PLACEMENT_3D('',#1016,#831,#832);
#691=AXIS2_PLACEMENT_3D('',#1018,#833,#834);
#692=AXIS2_PLACEMENT_3D('',#1020,#836,#837);
#693=AXIS2_PLACEMENT_3D('',#1026,#841,#842);
#694=AXIS2_PLACEMENT_3D('',#1028,#843,#844);
#695=AXIS2_PLACEMENT_3D('',#1030,#845,#846);
#696=AXIS2_PLACEMENT_3D('',#1032,#848,#849);
#697=AXIS2_PLACEMENT_3D('',#1038,#853,#854);
#698=AXIS2_PLACEMENT_3D('',#1039,#855,#856);
#699=AXIS2_PLACEMENT_3D('',#1040,#857,#858);
#700=AXIS2_PLACEMENT_3D('',#1041,#859,#860);
#701=AXIS2_PLACEMENT_3D('',#1042,#861,#862);
#702=AXIS2_PLACEMENT_3D('',#1051,#867,#868);
#703=AXIS2_PLACEMENT_3D('',#1053,#869,#870);
#704=AXIS2_PLACEMENT_3D('',#1055,#871,#872);
#705=AXIS2_PLACEMENT_3D('',#1057,#874,#875);
#706=AXIS2_PLACEMENT_3D('',#1063,#879,#880);
#707=AXIS2_PLACEMENT_3D('',#1065,#881,#882);
#708=AXIS2_PLACEMENT_3D('',#1067,#883,#884);
#709=AXIS2_PLACEMENT_3D('',#1069,#886,#887);
#710=AXIS2_PLACEMENT_3D('',#1075,#891,#892);
#711=AXIS2_PLACEMENT_3D('',#1077,#893,#894);
#712=AXIS2_PLACEMENT_3D('',#1079,#895,#896);
#713=AXIS2_PLACEMENT_3D('',#1081,#898,#899);
#714=AXIS2_PLACEMENT_3D('',#1087,#903,#904);
#715=AXIS2_PLACEMENT_3D('',#1088,#905,#906);
#716=AXIS2_PLACEMENT_3D('',#1089,#907,#908);
#717=AXIS2_PLACEMENT_3D('',#1090,#909,#910);
#718=AXIS2_PLACEMENT_3D('',#1091,#911,#912);
#719=DIRECTION('axis',(0.,0.,1.));
#720=DIRECTION('refdir',(1.,0.,0.));
#721=DIRECTION('center_axis',(0.,0.,1.));
#722=DIRECTION('ref_axis',(1.,0.,0.));
#723=DIRECTION('center_axis',(0.,0.,1.));
#724=DIRECTION('ref_axis',(1.,0.,0.));
#725=DIRECTION('',(0.,0.,1.));
#726=DIRECTION('center_axis',(0.,0.,-1.));
#727=DIRECTION('ref_axis',(1.,0.,0.));
#728=DIRECTION('center_axis',(0.,0.,1.));
#729=DIRECTION('ref_axis',(1.,0.,0.));
#730=DIRECTION('center_axis',(0.,0.,1.));
#731=DIRECTION('ref_axis',(1.,0.,0.));
#732=DIRECTION('center_axis',(0.,0.,1.));
#733=DIRECTION('ref_axis',(1.,0.,0.));
#734=DIRECTION('',(0.,0.,1.));
#735=DIRECTION('center_axis',(0.,0.,-1.));
#736=DIRECTION('ref_axis',(1.,0.,0.));
#737=DIRECTION('center_axis',(0.,0.,1.));
#738=DIRECTION('ref_axis',(1.,0.,0.));
#739=DIRECTION('center_axis',(0.,0.,1.));
#740=DIRECTION('ref_axis',(1.,0.,0.));
#741=DIRECTION('center_axis',(0.,0.,1.));
#742=DIRECTION('ref_axis',(1.,0.,0.));
#743=DIRECTION('',(0.,0.,1.));
#744=DIRECTION('center_axis',(0.,0.,-1.));
#745=DIRECTION('ref_axis',(1.,0.,0.));
#746=DIRECTION('center_axis',(0.,0.,1.));
#747=DIRECTION('ref_axis',(1.,0.,0.));
#748=DIRECTION('center_axis',(0.,0.,1.));
#749=DIRECTION('ref_axis',(1.,0.,0.));
#750=DIRECTION('center_axis',(0.,0.,1.));
#751=DIRECTION('ref_axis',(1.,0.,0.));
#752=DIRECTION('',(0.,0.,1.));
#753=DIRECTION('center_axis',(0.,0.,-1.));
#754=DIRECTION('ref_axis',(1.,0.,0.));
#755=DIRECTION('center_axis',(0.,0.,1.));
#756=DIRECTION('ref_axis',(1.,0.,0.));
#757=DIRECTION('center_axis',(0.,0.,1.));
#758=DIRECTION('ref_axis',(1.,0.,0.));
#759=DIRECTION('center_axis',(0.,0.,1.));
#760=DIRECTION('ref_axis',(1.,0.,0.));
#761=DIRECTION('',(0.,0.,1.));
#762=DIRECTION('center_axis',(0.,0.,-1.));
#763=DIRECTION('ref_axis',(1.,0.,0.));
#764=DIRECTION('center_axis',(0.,0.,1.));
#765=DIRECTION('ref_axis',(1.,0.,0.));
#766=DIRECTION('center_axis',(0.,0.,1.));
#767=DIRECTION('ref_axis',(1.,0.,0.));
#768=DIRECTION('center_axis',(0.,0.,1.));
#769=DIRECTION('ref_axis',(1.,0.,0.));
#770=DIRECTION('center_axis',(0.,0.,1.));
#771=DIRECTION('ref_axis',(1.,0.,0.));
#772=DIRECTION('',(0.,0.,1.));
#773=DIRECTION('center_axis',(0.,0.,-1.));
#774=DIRECTION('ref_axis',(1.,0.,0.));
#775=DIRECTION('center_axis',(0.,0.,1.));
#776=DIRECTION('ref_axis',(1.,0.,0.));
#777=DIRECTION('center_axis',(0.,0.,1.));
#778=DIRECTION('ref_axis',(1.,0.,0.));
#779=DIRECTION('center_axis',(0.,0.,1.));
#780=DIRECTION('ref_axis',(1.,0.,0.));
#781=DIRECTION('center_axis',(0.,0.,1.));
#782=DIRECTION('ref_axis',(1.,0.,0.));
#783=DIRECTION('',(0.,0.,1.));
#784=DIRECTION('center_axis',(0.,0.,1.));
#785=DIRECTION('ref_axis',(1.,0.,0.));
#786=DIRECTION('center_axis',(0.,0.,1.));
#787=DIRECTION('ref_axis',(1.,0.,0.));
#788=DIRECTION('',(0.,0.,1.));
#789=DIRECTION('center_axis',(0.,-1.,0.));
#790=DIRECTION('ref_axis',(-1.,0.,0.));
#791=DIRECTION('',(1.,0.,0.));
#792=DIRECTION('',(0.,0.,-1.));
#793=DIRECTION('',(1.,0.,0.));
#794=DIRECTION('',(0.,0.,-1.));
#795=DIRECTION('center_axis',(1.,0.,0.));
#796=DIRECTION('ref_axis',(0.,-1.,0.));
#797=DIRECTION('',(0.,1.,0.));
#798=DIRECTION('',(0.,0.,-1.));
#799=DIRECTION('',(0.,1.,0.));
#800=DIRECTION('center_axis',(0.,1.,0.));
#801=DIRECTION('ref_axis',(1.,0.,0.));
#802=DIRECTION('',(-1.,0.,0.));
#803=DIRECTION('',(0.,0.,-1.));
#804=DIRECTION('',(-1.,0.,0.));
#805=DIRECTION('center_axis',(-1.,0.,0.));
#806=DIRECTION('ref_axis',(0.,1.,0.));
#807=DIRECTION('',(0.,-1.,0.));
#808=DIRECTION('',(0.,-1.,0.));
#809=DIRECTION('center_axis',(0.,0.,1.));
#810=DIRECTION('ref_axis',(1.,0.,0.));
#811=DIRECTION('center_axis',(1.,0.,0.));
#812=DIRECTION('ref_axis',(0.,-1.,0.));
#813=DIRECTION('',(0.,1.,0.));
#814=DIRECTION('',(0.,0.,-1.));
#815=DIRECTION('',(0.,-1.,0.));
#816=DIRECTION('',(0.,0.,-1.));
#817=DIRECTION('center_axis',(0.,0.,-1.));
#818=DIRECTION('ref_axis',(1.,0.,0.));
#819=DIRECTION('center_axis',(0.,0.,1.));
#820=DIRECTION('ref_axis',(1.,0.,0.));
#821=DIRECTION('center_axis',(0.,0.,-1.));
#822=DIRECTION('ref_axis',(1.,0.,0.));
#823=DIRECTION('',(0.,0.,-1.));
#824=DIRECTION('center_axis',(0.,1.,0.));
#825=DIRECTION('ref_axis',(1.,0.,0.));
#826=DIRECTION('',(-1.,0.,0.));
#827=DIRECTION('',(1.,0.,0.));
#828=DIRECTION('',(0.,0.,-1.));
#829=DIRECTION('center_axis',(0.,0.,-1.));
#830=DIRECTION('ref_axis',(0.,1.,0.));
#831=DIRECTION('center_axis',(0.,0.,1.));
#832=DIRECTION('ref_axis',(0.,1.,0.));
#833=DIRECTION('center_axis',(0.,0.,-1.));
#834=DIRECTION('ref_axis',(0.,1.,0.));
#835=DIRECTION('',(0.,0.,-1.));
#836=DIRECTION('center_axis',(-1.,0.,0.));
#837=DIRECTION('ref_axis',(0.,1.,0.));
#838=DIRECTION('',(0.,-1.,0.));
#839=DIRECTION('',(0.,1.,0.));
#840=DIRECTION('',(0.,0.,-1.));
#841=DIRECTION('center_axis',(0.,0.,-1.));
#842=DIRECTION('ref_axis',(-1.,0.,0.));
#843=DIRECTION('center_axis',(0.,0.,1.));
#844=DIRECTION('ref_axis',(-1.,0.,0.));
#845=DIRECTION('center_axis',(0.,0.,-1.));
#846=DIRECTION('ref_axis',(-1.,0.,0.));
#847=DIRECTION('',(0.,0.,-1.));
#848=DIRECTION('center_axis',(0.,-1.,0.));
#849=DIRECTION('ref_axis',(-1.,0.,0.));
#850=DIRECTION('',(1.,0.,0.));
#851=DIRECTION('',(-1.,0.,0.));
#852=DIRECTION('',(0.,0.,-1.));
#853=DIRECTION('center_axis',(0.,0.,-1.));
#854=DIRECTION('ref_axis',(0.,-1.,0.));
#855=DIRECTION('center_axis',(0.,0.,1.));
#856=DIRECTION('ref_axis',(0.,-1.,0.));
#857=DIRECTION('center_axis',(0.,0.,-1.));
#858=DIRECTION('ref_axis',(0.,-1.,0.));
#859=DIRECTION('center_axis',(0.,0.,1.));
#860=DIRECTION('ref_axis',(1.,0.,0.));
#861=DIRECTION('center_axis',(0.,-1.,0.));
#862=DIRECTION('ref_axis',(1.,0.,0.));
#863=DIRECTION('',(1.,0.,0.));
#864=DIRECTION('',(0.,0.,1.));
#865=DIRECTION('',(1.,0.,0.));
#866=DIRECTION('',(0.,0.,1.));
#867=DIRECTION('center_axis',(0.,0.,1.));
#868=DIRECTION('ref_axis',(-1.,0.,0.));
#869=DIRECTION('center_axis',(0.,0.,1.));
#870=DIRECTION('ref_axis',(-1.,0.,0.));
#871=DIRECTION('center_axis',(0.,0.,1.));
#872=DIRECTION('ref_axis',(-1.,0.,0.));
#873=DIRECTION('',(0.,0.,1.));
#874=DIRECTION('center_axis',(-1.,0.,0.));
#875=DIRECTION('ref_axis',(0.,-1.,0.));
#876=DIRECTION('',(0.,-1.,0.));
#877=DIRECTION('',(0.,-1.,0.));
#878=DIRECTION('',(0.,0.,1.));
#879=DIRECTION('center_axis',(0.,0.,1.));
#880=DIRECTION('ref_axis',(0.,1.,0.));
#881=DIRECTION('center_axis',(0.,0.,1.));
#882=DIRECTION('ref_axis',(0.,1.,0.));
#883=DIRECTION('center_axis',(0.,0.,1.));
#884=DIRECTION('ref_axis',(0.,1.,0.));
#885=DIRECTION('',(0.,0.,1.));
#886=DIRECTION('center_axis',(0.,1.,0.));
#887=DIRECTION('ref_axis',(-1.,0.,0.));
#888=DIRECTION('',(-1.,0.,0.));
#889=DIRECTION('',(-1.,0.,0.));
#890=DIRECTION('',(0.,0.,1.));
#891=DIRECTION('center_axis',(0.,0.,1.));
#892=DIRECTION('ref_axis',(1.,0.,0.));
#893=DIRECTION('center_axis',(0.,0.,1.));
#894=DIRECTION('ref_axis',(1.,0.,0.));
#895=DIRECTION('center_axis',(0.,0.,1.));
#896=DIRECTION('ref_axis',(1.,0.,0.));
#897=DIRECTION('',(0.,0.,1.));
#898=DIRECTION('center_axis',(1.,0.,0.));
#899=DIRECTION('ref_axis',(0.,1.,0.));
#900=DIRECTION('',(0.,1.,0.));
#901=DIRECTION('',(0.,1.,0.));
#902=DIRECTION('',(0.,0.,1.));
#903=DIRECTION('center_axis',(0.,0.,1.));
#904=DIRECTION('ref_axis',(0.,-1.,0.));
#905=DIRECTION('center_axis',(0.,0.,1.));
#906=DIRECTION('ref_axis',(0.,-1.,0.));
#907=DIRECTION('center_axis',(0.,0.,1.));
#908=DIRECTION('ref_axis',(0.,-1.,0.));
#909=DIRECTION('center_axis',(0.,0.,1.));
#910=DIRECTION('ref_axis',(1.,0.,0.));
#911=DIRECTION('center_axis',(0.,0.,1.));
#912=DIRECTION('ref_axis',(1.,0.,0.));
#913=CARTESIAN_POINT('',(0.,0.,0.));
#914=CARTESIAN_POINT('Origin',(1.6,-0.75,0.2));
#915=CARTESIAN_POINT('',(1.39,-0.75,0.2));
#916=CARTESIAN_POINT('Origin',(1.6,-0.75,0.2));
#917=CARTESIAN_POINT('',(1.39,-0.75,0.6));
#918=CARTESIAN_POINT('',(1.39,-0.75,0.2));
#919=CARTESIAN_POINT('Origin',(1.6,-0.75,0.6));
#920=CARTESIAN_POINT('Origin',(1.6,-0.75,0.2));
#921=CARTESIAN_POINT('Origin',(-1.6,0.75,0.2));
#922=CARTESIAN_POINT('',(-1.81,0.75,0.2));
#923=CARTESIAN_POINT('Origin',(-1.6,0.75,0.2));
#924=CARTESIAN_POINT('',(-1.81,0.75,0.6));
#925=CARTESIAN_POINT('',(-1.81,0.75,0.2));
#926=CARTESIAN_POINT('Origin',(-1.6,0.75,0.6));
#927=CARTESIAN_POINT('Origin',(-1.6,0.75,0.2));
#928=CARTESIAN_POINT('Origin',(-1.6,-0.75,0.2));
#929=CARTESIAN_POINT('',(-1.81,-0.75,0.2));
#930=CARTESIAN_POINT('Origin',(-1.6,-0.75,0.2));
#931=CARTESIAN_POINT('',(-1.81,-0.75,0.6));
#932=CARTESIAN_POINT('',(-1.81,-0.75,0.2));
#933=CARTESIAN_POINT('Origin',(-1.6,-0.75,0.6));
#934=CARTESIAN_POINT('Origin',(-1.6,-0.75,0.2));
#935=CARTESIAN_POINT('Origin',(1.6,0.75,0.2));
#936=CARTESIAN_POINT('',(1.39,0.75,0.2));
#937=CARTESIAN_POINT('Origin',(1.6,0.75,0.2));
#938=CARTESIAN_POINT('',(1.39,0.75,0.6));
#939=CARTESIAN_POINT('',(1.39,0.75,0.2));
#940=CARTESIAN_POINT('Origin',(1.6,0.75,0.6));
#941=CARTESIAN_POINT('Origin',(1.6,0.75,0.2));
#942=CARTESIAN_POINT('Origin',(0.,0.,0.3));
#943=CARTESIAN_POINT('',(-0.325,-3.9801020972289E-17,0.3));
#944=CARTESIAN_POINT('Origin',(0.,0.,0.3));
#945=CARTESIAN_POINT('',(-0.325,3.9801020972289E-17,0.6));
#946=CARTESIAN_POINT('',(-0.325,-3.9801020972289E-17,0.3));
#947=CARTESIAN_POINT('Origin',(0.,0.,0.6));
#948=CARTESIAN_POINT('Origin',(0.,0.,0.3));
#949=CARTESIAN_POINT('',(-0.17,-2.0818995585505E-17,0.3));
#950=CARTESIAN_POINT('Origin',(0.,0.,0.3));
#951=CARTESIAN_POINT('Origin',(0.,-1.5,0.3));
#952=CARTESIAN_POINT('',(-0.325,-1.5,0.3));
#953=CARTESIAN_POINT('Origin',(0.,-1.5,0.3));
#954=CARTESIAN_POINT('',(-0.325,-1.5,0.6));
#955=CARTESIAN_POINT('',(-0.325,-1.5,0.3));
#956=CARTESIAN_POINT('Origin',(0.,-1.5,0.6));
#957=CARTESIAN_POINT('Origin',(0.,-1.5,0.3));
#958=CARTESIAN_POINT('',(-0.17,-1.5,0.3));
#959=CARTESIAN_POINT('Origin',(0.,-1.5,0.3));
#960=CARTESIAN_POINT('Origin',(0.,0.,0.));
#961=CARTESIAN_POINT('',(-0.17,-2.0818995585505E-17,0.));
#962=CARTESIAN_POINT('Origin',(0.,0.,0.));
#963=CARTESIAN_POINT('',(-0.17,-2.0818995585505E-17,0.));
#964=CARTESIAN_POINT('Origin',(0.,-1.5,0.));
#965=CARTESIAN_POINT('',(-0.17,-1.5,0.));
#966=CARTESIAN_POINT('Origin',(0.,-1.5,0.));
#967=CARTESIAN_POINT('',(-0.17,-1.5,0.));
#968=CARTESIAN_POINT('Origin',(0.98,-2.38,0.));
#969=CARTESIAN_POINT('',(-0.98,-2.38,0.));
#970=CARTESIAN_POINT('',(0.98,-2.38,0.));
#971=CARTESIAN_POINT('',(-0.98,-2.38,0.));
#972=CARTESIAN_POINT('',(0.98,-2.38,-1.2));
#973=CARTESIAN_POINT('',(0.98,-2.38,0.));
#974=CARTESIAN_POINT('',(-0.98,-2.38,-1.2));
#975=CARTESIAN_POINT('',(0.49,-2.38,-1.2));
#976=CARTESIAN_POINT('',(-0.98,-2.38,0.));
#977=CARTESIAN_POINT('Origin',(0.98,1.08,0.));
#978=CARTESIAN_POINT('',(0.98,1.08,0.));
#979=CARTESIAN_POINT('',(0.98,-2.38,0.));
#980=CARTESIAN_POINT('',(0.98,1.08,-1.2));
#981=CARTESIAN_POINT('',(0.98,1.08,0.));
#982=CARTESIAN_POINT('',(0.98,0.215,-1.2));
#983=CARTESIAN_POINT('Origin',(-0.98,1.08,0.));
#984=CARTESIAN_POINT('',(-0.98,1.08,0.));
#985=CARTESIAN_POINT('',(0.98,1.08,0.));
#986=CARTESIAN_POINT('',(-0.98,1.08,-1.2));
#987=CARTESIAN_POINT('',(-0.98,1.08,0.));
#988=CARTESIAN_POINT('',(-0.49,1.08,-1.2));
#989=CARTESIAN_POINT('Origin',(-0.98,-2.38,0.));
#990=CARTESIAN_POINT('',(-0.98,1.08,0.));
#991=CARTESIAN_POINT('',(-0.98,-1.515,-1.2));
#992=CARTESIAN_POINT('Origin',(0.,-0.65,0.));
#993=CARTESIAN_POINT('Origin',(1.28,1.08,0.));
#994=CARTESIAN_POINT('',(1.28,-2.38,0.));
#995=CARTESIAN_POINT('',(1.28,1.08,0.));
#996=CARTESIAN_POINT('',(1.28,0.3025,0.));
#997=CARTESIAN_POINT('',(1.28,-2.38,-1.2));
#998=CARTESIAN_POINT('',(1.28,-2.38,0.));
#999=CARTESIAN_POINT('',(1.28,1.08,-1.2));
#1000=CARTESIAN_POINT('',(1.28,-2.38,-1.2));
#1001=CARTESIAN_POINT('',(1.28,1.08,0.));
#1002=CARTESIAN_POINT('Origin',(0.98,1.08,0.));
#1003=CARTESIAN_POINT('',(0.98,1.38,0.));
#1004=CARTESIAN_POINT('Origin',(0.98,1.08,0.));
#1005=CARTESIAN_POINT('',(0.98,1.38,-1.2));
#1006=CARTESIAN_POINT('Origin',(0.98,1.08,-1.2));
#1007=CARTESIAN_POINT('',(0.98,1.38,0.));
#1008=CARTESIAN_POINT('Origin',(-0.98,1.38,0.));
#1009=CARTESIAN_POINT('',(-0.98,1.38,0.));
#1010=CARTESIAN_POINT('',(-0.49,1.38,0.));
#1011=CARTESIAN_POINT('',(-0.98,1.38,-1.2));
#1012=CARTESIAN_POINT('',(0.98,1.38,-1.2));
#1013=CARTESIAN_POINT('',(-0.98,1.38,0.));
#1014=CARTESIAN_POINT('Origin',(-0.98,1.08,0.));
#1015=CARTESIAN_POINT('',(-1.28,1.08,0.));
#1016=CARTESIAN_POINT('Origin',(-0.98,1.08,0.));
#1017=CARTESIAN_POINT('',(-1.28,1.08,-1.2));
#1018=CARTESIAN_POINT('Origin',(-0.98,1.08,-1.2));
#1019=CARTESIAN_POINT('',(-1.28,1.08,0.));
#1020=CARTESIAN_POINT('Origin',(-1.28,-2.38,0.));
#1021=CARTESIAN_POINT('',(-1.28,-2.38,0.));
#1022=CARTESIAN_POINT('',(-1.28,-1.4275,0.));
#1023=CARTESIAN_POINT('',(-1.28,-2.38,-1.2));
#1024=CARTESIAN_POINT('',(-1.28,1.08,-1.2));
#1025=CARTESIAN_POINT('',(-1.28,-2.38,0.));
#1026=CARTESIAN_POINT('Origin',(-0.98,-2.38,0.));
#1027=CARTESIAN_POINT('',(-0.98,-2.68,0.));
#1028=CARTESIAN_POINT('Origin',(-0.98,-2.38,0.));
#1029=CARTESIAN_POINT('',(-0.98,-2.68,-1.2));
#1030=CARTESIAN_POINT('Origin',(-0.98,-2.38,-1.2));
#1031=CARTESIAN_POINT('',(-0.98,-2.68,0.));
#1032=CARTESIAN_POINT('Origin',(0.98,-2.68,0.));
#1033=CARTESIAN_POINT('',(0.98,-2.68,0.));
#1034=CARTESIAN_POINT('',(0.49,-2.68,0.));
#1035=CARTESIAN_POINT('',(0.98,-2.68,-1.2));
#1036=CARTESIAN_POINT('',(-0.98,-2.68,-1.2));
#1037=CARTESIAN_POINT('',(0.98,-2.68,0.));
#1038=CARTESIAN_POINT('Origin',(0.98,-2.38,0.));
#1039=CARTESIAN_POINT('Origin',(0.98,-2.38,0.));
#1040=CARTESIAN_POINT('Origin',(0.98,-2.38,-1.2));
#1041=CARTESIAN_POINT('Origin',(0.,-0.65,-1.2));
#1042=CARTESIAN_POINT('Origin',(-2.1,-2.725,0.));
#1043=CARTESIAN_POINT('',(-2.1,-2.725,0.));
#1044=CARTESIAN_POINT('',(2.1,-2.725,0.));
#1045=CARTESIAN_POINT('',(-2.1,-2.725,0.));
#1046=CARTESIAN_POINT('',(2.1,-2.725,0.6));
#1047=CARTESIAN_POINT('',(2.1,-2.725,0.));
#1048=CARTESIAN_POINT('',(-2.1,-2.725,0.6));
#1049=CARTESIAN_POINT('',(-2.1,-2.725,0.6));
#1050=CARTESIAN_POINT('',(-2.1,-2.725,0.));
#1051=CARTESIAN_POINT('Origin',(-2.1,-2.225,0.));
#1052=CARTESIAN_POINT('',(-2.6,-2.225,0.));
#1053=CARTESIAN_POINT('Origin',(-2.1,-2.225,0.));
#1054=CARTESIAN_POINT('',(-2.6,-2.225,0.6));
#1055=CARTESIAN_POINT('Origin',(-2.1,-2.225,0.6));
#1056=CARTESIAN_POINT('',(-2.6,-2.225,0.));
#1057=CARTESIAN_POINT('Origin',(-2.6,1.275,0.));
#1058=CARTESIAN_POINT('',(-2.6,1.275,0.));
#1059=CARTESIAN_POINT('',(-2.6,1.275,0.));
#1060=CARTESIAN_POINT('',(-2.6,1.275,0.6));
#1061=CARTESIAN_POINT('',(-2.6,1.275,0.6));
#1062=CARTESIAN_POINT('',(-2.6,1.275,0.));
#1063=CARTESIAN_POINT('Origin',(-2.1,1.275,0.));
#1064=CARTESIAN_POINT('',(-2.1,1.775,0.));
#1065=CARTESIAN_POINT('Origin',(-2.1,1.275,0.));
#1066=CARTESIAN_POINT('',(-2.1,1.775,0.6));
#1067=CARTESIAN_POINT('Origin',(-2.1,1.275,0.6));
#1068=CARTESIAN_POINT('',(-2.1,1.775,0.));
#1069=CARTESIAN_POINT('Origin',(2.1,1.775,0.));
#1070=CARTESIAN_POINT('',(2.1,1.775,0.));
#1071=CARTESIAN_POINT('',(2.1,1.775,0.));
#1072=CARTESIAN_POINT('',(2.1,1.775,0.6));
#1073=CARTESIAN_POINT('',(2.1,1.775,0.6));
#1074=CARTESIAN_POINT('',(2.1,1.775,0.));
#1075=CARTESIAN_POINT('Origin',(2.1,1.275,0.));
#1076=CARTESIAN_POINT('',(2.6,1.275,0.));
#1077=CARTESIAN_POINT('Origin',(2.1,1.275,0.));
#1078=CARTESIAN_POINT('',(2.6,1.275,0.6));
#1079=CARTESIAN_POINT('Origin',(2.1,1.275,0.6));
#1080=CARTESIAN_POINT('',(2.6,1.275,0.));
#1081=CARTESIAN_POINT('Origin',(2.6,-2.225,0.));
#1082=CARTESIAN_POINT('',(2.6,-2.225,0.));
#1083=CARTESIAN_POINT('',(2.6,-2.225,0.));
#1084=CARTESIAN_POINT('',(2.6,-2.225,0.6));
#1085=CARTESIAN_POINT('',(2.6,-2.225,0.6));
#1086=CARTESIAN_POINT('',(2.6,-2.225,0.));
#1087=CARTESIAN_POINT('Origin',(2.1,-2.225,0.));
#1088=CARTESIAN_POINT('Origin',(2.1,-2.225,0.));
#1089=CARTESIAN_POINT('Origin',(2.1,-2.225,0.6));
#1090=CARTESIAN_POINT('Origin',(0.,-0.475,0.6));
#1091=CARTESIAN_POINT('Origin',(0.,-0.475,0.));
#1092=UNCERTAINTY_MEASURE_WITH_UNIT(LENGTH_MEASURE(0.001),#1096,
'DISTANCE_ACCURACY_VALUE',
'Maximum model space distance between geometric entities at asserted c
onnectivities');
#1093=UNCERTAINTY_MEASURE_WITH_UNIT(LENGTH_MEASURE(0.001),#1096,
'DISTANCE_ACCURACY_VALUE',
'Maximum model space distance between geometric entities at asserted c
onnectivities');
#1094=(
GEOMETRIC_REPRESENTATION_CONTEXT(3)
GLOBAL_UNCERTAINTY_ASSIGNED_CONTEXT((#1092))
GLOBAL_UNIT_ASSIGNED_CONTEXT((#1096,#1098,#1099))
REPRESENTATION_CONTEXT('','3D')
);
#1095=(
GEOMETRIC_REPRESENTATION_CONTEXT(3)
GLOBAL_UNCERTAINTY_ASSIGNED_CONTEXT((#1093))
GLOBAL_UNIT_ASSIGNED_CONTEXT((#1096,#1098,#1099))
REPRESENTATION_CONTEXT('','3D')
);
#1096=(
LENGTH_UNIT()
NAMED_UNIT(*)
SI_UNIT(.CENTI.,.METRE.)
);
#1097=(
LENGTH_UNIT()
NAMED_UNIT(*)
SI_UNIT($,.METRE.)
);
#1098=(
NAMED_UNIT(*)
PLANE_ANGLE_UNIT()
SI_UNIT($,.RADIAN.)
);
#1099=(
NAMED_UNIT(*)
SI_UNIT($,.STERADIAN.)
SOLID_ANGLE_UNIT()
);
#1100=SHAPE_DEFINITION_REPRESENTATION(#1101,#1102);
#1101=PRODUCT_DEFINITION_SHAPE('',$,#1104);
#1102=SHAPE_REPRESENTATION('',(#648),#1094);
#1103=PRODUCT_DEFINITION_CONTEXT('part definition',#1108,'design');
#1104=PRODUCT_DEFINITION('Smart Bin - tray mount',
'Smart Bin - tray mount v1',#1105,#1103);
#1105=PRODUCT_DEFINITION_FORMATION('',$,#1110);
#1106=PRODUCT_RELATED_PRODUCT_CATEGORY('Smart Bin - tray mount v1',
'Smart Bin - tray mount v1',(#1110));
#1107=APPLICATION_PROTOCOL_DEFINITION('international standard',
'automotive_design',2009,#1108);
#1108=APPLICATION_CONTEXT(
'Core Data for Automotive Mechanical Design Process');
#1109=PRODUCT_CONTEXT('part definition',#1108,'mechanical');
#1110=PRODUCT('Smart Bin - tray mount','Smart Bin - tray mount v1',$,(#1109));
#1111=PRESENTATION_STYLE_ASSIGNMENT((#1112));
#1112=SURFACE_STYLE_USAGE(.BOTH.,#1113);
#1113=SURFACE_SIDE_STYLE('',(#1114));
#1114=SURFACE_STYLE_FILL_AREA(#1115);
#1115=FILL_AREA_STYLE('Steel - Satin',(#1116));
#1116=FILL_AREA_STYLE_COLOUR('Steel - Satin',#1117);
#1117=COLOUR_RGB('Steel - Satin',0.627450980392157,0.627450980392157,0.627450980392157);
ENDSEC;
END-ISO-10303-21;
